<svg xmlns="http://www.w3.org/2000/svg" width="273.782" height="73.946" viewBox="0 0 273.782 73.946">
  <g id="Group_12" transform="translate(-70.112 -1281.822)">
    <path id="Path_240" data-name="Path 240" d="M20.864-43.52a4.011,4.011,0,0,0-4.224,2.88L2.112,0h9.536l2.88-8.9H31.36L34.24,0h9.408L28.032-43.52Zm1.984,8.768,6.016,18.5H16.9Zm33.6-4.48c0-2.816-1.408-4.288-4.224-4.288H47.936v28.864C47.936-4.48,53.248.576,63.808.512,74.3.32,79.552-5.376,79.552-16.64c0-11.52-4.48-17.408-13.5-17.728a10.564,10.564,0,0,0-9.6,5.248Zm7.232,12.48c4.608,0,6.976,3.2,7.168,9.728,0,6.848-2.432,10.3-7.3,10.3s-7.168-3.456-7.1-10.3C56.7-23.552,59.072-26.752,63.68-26.752ZM98.5-34.368c-10.24,0-15.36,5.824-15.36,17.6C83.136-5.12,88.256.768,98.5.768S113.92-5.12,113.92-16.768C113.92-28.544,108.736-34.368,98.5-34.368Zm0,7.488c4.352,0,6.528,3.264,6.528,9.856-.064,6.72-2.24,10.176-6.592,10.176s-6.592-3.328-6.656-9.92C91.776-23.488,94.016-26.88,98.5-26.88Zm48-6.976h-4.352c-2.816,0-4.16,1.408-4.1,4.224v17.856c0,3.776-1.92,5.632-5.76,5.632s-5.76-1.856-5.76-5.632v-22.08h-8.512V-13.5c0,5.7,1.472,9.408,4.416,11.264a17.08,17.08,0,0,0,9.6,2.88,19.71,19.71,0,0,0,9.984-2.624c3.008-1.856,4.48-5.7,4.48-11.52ZM163.84-32v-1.856h-5.12v-5.376a4.3,4.3,0,0,0-4.1-4.288h-4.416V-6.528c-.064,3.776,1.472,5.76,4.672,6.08a46.763,46.763,0,0,0,8.96.064V-6.848h-2.624c-1.664,0-2.5-.768-2.5-2.176V-27.776h.9A4.141,4.141,0,0,0,163.84-32Zm33.536-6.848V0h8.384V-35.136L214.656,0h9.088l8.9-35.136V0h8.384V-43.52H227.776l-8.512,33.152L210.5-43.52h-8.64A4.619,4.619,0,0,0,197.376-38.848Zm77.952,28.48h-6.272a3.729,3.729,0,0,0-2.88,1.216,7.862,7.862,0,0,1-5.5,2.432c-4.16,0-6.4-2.624-6.72-7.808H275.84c.64-13.248-4.416-19.84-15.168-19.84-10.3.064-15.488,5.824-15.488,17.344S250.3.448,260.544.768C268.864.768,273.472-3.2,275.328-10.368ZM260.544-27.392c3.648,0,5.76,2.3,6.272,6.784H254.08C254.72-25.088,256.9-27.392,260.544-27.392Z" transform="translate(68 1355)" fill="#fff"/>
    <path id="Path_241" data-name="Path 241" d="M4.377-2.448h9.447V0H1.712V-17.853H4.377Zm18.287.477A6.04,6.04,0,0,0,24.8-2.383a4.554,4.554,0,0,0,1.7-1.04l1.625,1.647A6.154,6.154,0,0,1,25.708-.271,8.667,8.667,0,0,1,22.685.3a6.7,6.7,0,0,1-4.886-2A6.819,6.819,0,0,1,15.773-6.76a6.9,6.9,0,0,1,1.939-4.994,6.361,6.361,0,0,1,4.756-2,5.757,5.757,0,0,1,4.767,2.145,9.017,9.017,0,0,1,1.712,5.785H18.373a4.608,4.608,0,0,0,1.419,2.784A4.068,4.068,0,0,0,22.663-1.972Zm-.087-9.49a4.082,4.082,0,0,0-2.73.975,4.333,4.333,0,0,0-1.452,2.6h8.06a4.307,4.307,0,0,0-1.213-2.6A3.647,3.647,0,0,0,22.577-11.462ZM38.22-2.427,39.152-.65A4.078,4.078,0,0,1,36.465.3,3.387,3.387,0,0,1,33.919-.715a3.641,3.641,0,0,1-.986-2.643v-7.908H30.918v-2.167h2.015v-3.705h2.535v3.705h3.163v2.167H35.468v7.735a1.7,1.7,0,0,0,.39,1.148,1.232,1.232,0,0,0,.975.455A1.874,1.874,0,0,0,38.22-2.427Zm4.832-8.58-1.083-.823a5.692,5.692,0,0,0,1.43-2.427,1.609,1.609,0,0,1-1.192-.509,1.687,1.687,0,0,1-.5-1.224,1.662,1.662,0,0,1,.5-1.2,1.659,1.659,0,0,1,1.235-.509,1.627,1.627,0,0,1,1.365.693,2.881,2.881,0,0,1,.52,1.777,3.879,3.879,0,0,1-.509,1.852A13.929,13.929,0,0,1,43.052-11.007ZM53.733.3a9.4,9.4,0,0,1-3.044-.52,8.629,8.629,0,0,1-2.7-1.473L49.2-3.532a7.663,7.663,0,0,0,4.55,1.625,3.248,3.248,0,0,0,1.853-.477,1.455,1.455,0,0,0,.7-1.257,1.214,1.214,0,0,0-.184-.661,2.225,2.225,0,0,0-.39-.477,2.583,2.583,0,0,0-.7-.39q-.5-.206-.791-.293t-.986-.282A10.582,10.582,0,0,1,49.7-7.269a2.865,2.865,0,0,1-1.062-2.394,3.6,3.6,0,0,1,1.343-2.968,5.366,5.366,0,0,1,3.532-1.127,8.932,8.932,0,0,1,4.962,1.56l-1.127,1.907a7.37,7.37,0,0,0-3.835-1.257,3.12,3.12,0,0,0-1.69.422,1.307,1.307,0,0,0-.672,1.159,1.225,1.225,0,0,0,.628,1.116,12.761,12.761,0,0,0,2.47.943q.867.26,1.343.423a10.959,10.959,0,0,1,1.192.509,3.852,3.852,0,0,1,1.083.726,3.677,3.677,0,0,1,.661,1,3.226,3.226,0,0,1,.292,1.4A3.679,3.679,0,0,1,57.406-.834,5.691,5.691,0,0,1,53.733.3ZM74.273,0V-15.427h-5.85v-2.427H82.788v2.427H76.895V0ZM91.325-13.758a5.481,5.481,0,0,1,4.138,1.527,5.634,5.634,0,0,1,1.473,4.084V0H94.423V-1.842A4.712,4.712,0,0,1,92.473-.26,6.048,6.048,0,0,1,89.938.3a5.363,5.363,0,0,1-3.564-1.17,3.863,3.863,0,0,1-1.4-3.12A3.941,3.941,0,0,1,86.526-7.2,5.907,5.907,0,0,1,90.35-8.45a12.959,12.959,0,0,1,4.073.737v-.433a3.782,3.782,0,0,0-.812-2.47,3.233,3.233,0,0,0-2.654-1,8.4,8.4,0,0,0-3.792,1.1l-.932-1.885A11.56,11.56,0,0,1,91.325-13.758ZM90.437-1.712a5.01,5.01,0,0,0,2.524-.661A2.9,2.9,0,0,0,94.423-4.2V-6a12.067,12.067,0,0,0-3.683-.52,3.841,3.841,0,0,0-2.329.7,2.114,2.114,0,0,0-.964,1.766,2.027,2.027,0,0,0,.845,1.7A3.456,3.456,0,0,0,90.437-1.712ZM100.642,0V-18.178H103.2V0Zm18.5-13.433L113.36-7.367,118.885,0H115.83l-4.225-5.633L109.46-3.467V0H106.9V-18.178h2.557V-6.587l6.565-6.847Z" transform="translate(140 1300)" fill="#fff"/>
  </g>
</svg>
