<svg xmlns="http://www.w3.org/2000/svg" xmlns:xlink="http://www.w3.org/1999/xlink" width="385.237" height="104.266" viewBox="0 0 385.237 104.266">
  <defs>
    <radialGradient id="radial-gradient" cx="0.029" cy="0.174" r="1.02" gradientTransform="translate(1.779 0) scale(1.083 1)" gradientUnits="objectBoundingBox">
      <stop offset="0" stop-color="#20c4f4"/>
      <stop offset="0.305" stop-color="#09b4f0"/>
      <stop offset="0.5" stop-color="#00aeef"/>
      <stop offset="0.8" stop-color="#0092c8"/>
      <stop offset="1" stop-color="#006e98"/>
    </radialGradient>
  </defs>
  <g id="barclays-ar21" transform="translate(-4.104 -14.897)">
    <path id="Path_227" data-name="Path 227" d="M51.112,67.338H36.06c1.948-1.772,2.482-8.146,3.189-19.658l.172-2.655.707-15.052c0-3.01-.355-4.957-1.241-5.668H55.711c4.068,0,12.042.172,12.042,8.5,0,5.668-5.171,9.032-9.918,10.273,6.729.531,11.721,3.9,11.721,10.8.172,7.436-6.905,13.459-18.416,13.459M50.608,46.45H47.6l-.531,6.378L46.713,60.8c0,.355,1.241,1.241,4.068,1.241,6.023,0,9.918-3.01,9.918-7.971.172-5.488-4.606-7.584-10.094-7.584m1.241-17a18.686,18.686,0,0,0-3.01.172,74.308,74.308,0,0,0-.886,9.2l-.172,2.482H48.84c5.488,0,10.446-1.948,10.446-6.905.172-2.834-2.3-4.957-7.436-4.957m53.091,38.25c-3.723,0-4.068-.172-6.905-10.273l-1.062-3.723c-1.772.886-4.957,1.241-9.918,1.241H81.884L81,56.927c-.886,1.948-3.01,6.023-3.01,8.5a8.688,8.688,0,0,0,.176,1.948H67.891c2.834-2.834,6.729-9.739,11.866-20.685l3.01-6.378L88.434,27.03a6.2,6.2,0,0,0-.531-2.482h9.384l4.606,17,1.772,6.729c3.189,11.515,5.309,17,7.791,19.127l-6.55.355M91.447,34.463,84.363,49.514H95.7L91.447,34.463m54.194,34.709c-3.189,0-3.9-.531-4.957-1.948L128.466,50.573c-.886-1.379-1.772-2.3-3.189-2.3H125.1l-.172,3.365L124.4,62.26c0,2.834.355,4.606,1.241,5.309H113.921c1.772-1.379,2.3-6.378,3.365-19.658l.172-2.655.707-15.052c0-3.01-.355-4.957-1.241-5.668h15.762c5.309,0,12.218.886,12.218,9.2,0,6.905-4.606,10.625-10.273,12.4a30.513,30.513,0,0,1,2.124,2.482l8.677,11.515c5.488,7.26,5.843,7.584,7.791,8.5a56.745,56.745,0,0,1-7.584.531M130.056,29.678a22.012,22.012,0,0,0-3.365.172c-.355,1.772-.531,4.957-.886,10.094l-.172,3.01a7.314,7.314,0,0,0,1.948.172c5.309,0,9.032-3.365,9.032-8.146-.172-3.365-2.482-5.309-6.55-5.309m38.46,38.553c-11.156,0-17.53-9.2-17.53-19.306,0-14.135,7.791-25.325,22.491-25.325,4.606,0,6.729.886,10.625.886l-1.062,10.98a11.418,11.418,0,0,0-10.273-6.378c-9.2,0-12.928,9.918-12.928,18.416,0,9.2,5.309,14.342,12.042,14.342,3.723,0,7.085-.886,12.573-4.782-2.3,6.729-7.436,11.156-15.938,11.156m75.793-.531c-3.723,0-3.9-.172-6.905-10.273l-1.062-3.723c-1.772.886-4.957,1.241-9.918,1.241h-5.309l-.886,1.948c-1.379,2.834-3.01,6.2-3.01,8.5,0,.531.172,1.241.172,1.948H186.939c1.772-1.948,2.3-8.322,3.189-19.658l.172-2.655.707-15.052c0-2.834-.355-4.782-1.062-5.668h11.866c-1.772,1.241-2.3,8.146-3.01,19.658l-.172,2.655-.886,12.749c0,1.948.707,2.482,2.834,2.482,7.26,0,8.853-.172,12.218-2.3,2.124-3.723,4.251-8.322,6.55-13.1l3.01-6.378,5.668-13.283a6.2,6.2,0,0,0-.531-2.482h9.35l4.606,17,1.772,6.729c3.189,11.515,5.171,17,7.971,19.127a63.89,63.89,0,0,1-6.905.531M230.825,34.38,223.92,49.432h11.156L230.825,34.38M271.2,44.119l-3.01,5.668a59.812,59.812,0,0,0-.886,12.042c0,1.948.355,4.606,1.241,5.488H256.826c2.124-1.948,2.834-13.814,2.834-17.71a104.342,104.342,0,0,0-6.905-17c-2.124-3.9-4.427-7.584-6.023-8.322l7.584-.355c2.834,0,3.723.355,5.488,4.251l6.023,14.521,7.584-12.218a9.268,9.268,0,0,0,1.241-3.723,4.67,4.67,0,0,0-.531-2.482h11.515c-2.482.531-12.4,16.293-14.521,19.833m38.957-9.739a11.615,11.615,0,0,0-9.918-5.668c-3.723,0-6.905,1.379-6.905,5.309,0,3.365,4.068,5.488,8.322,8.322,4.606,2.834,9.384,6.378,9.384,12.573,0,7.971-7.791,13.1-17,13.1a35.176,35.176,0,0,1-12.042-2.3l.707-10.625c2.124,4.251,6.023,7.584,11.866,7.584,4.427,0,7.971-2.124,7.971-6.023,0-3.189-2.655-5.309-6.023-7.26-7.085-4.251-11.515-7.584-11.515-13.814,0-9.2,7.584-12.218,15.762-12.218,4.606,0,7.584.886,10.446.886Z" transform="translate(78.211 20.701)" fill="#00aeef"/>
    <path id="Path_228" data-name="Path 228" d="M98.453,37.219a14.649,14.649,0,0,0-5.35-6.609A19.986,19.986,0,0,0,88.7,28.094a14.729,14.729,0,0,0-4.092-.631H84.26c-1.889,0-5.35.345-7.24,3.148a5.21,5.21,0,0,0-.945,4.406,3.9,3.9,0,0,0,2.517,2.834,1.379,1.379,0,0,0,.945.314,2.71,2.71,0,0,1-.345.945c-.945.945-2.517,2.517-7.24,2.517h-.345c-2.517-.345-4.406-.945-7.24-3.778-1.576-1.889-2.517-5.35-2.517-10.7a22.167,22.167,0,0,0-.945-6.895A6.47,6.47,0,0,0,58.39,17.1a14.467,14.467,0,0,0-3.148-1.575l-5.35-.631c-1.889,0-3.148.345-3.778,1.258H44.225c-.945,0-2.206.345-3.148.345a9.982,9.982,0,0,0-4.406,2.206,7.171,7.171,0,0,0-1.889,2.834,16.437,16.437,0,0,0,.345,2.206l.345.345a5.058,5.058,0,0,1,3.461-.945c2.206,0,5.35.945,5.981,2.517,1.576,2.517.945,4.406.945,6.609-.945,5.981-3.148,8.815-7.871,9.446a7.18,7.18,0,0,1-2.517.345c-3.461,0-5.981-.945-7.24-3.148v-.631a.89.89,0,0,0,.631-.345,4.461,4.461,0,0,0,2.517-2.834,5.348,5.348,0,0,0-.945-4.406,10.243,10.243,0,0,0-7.24-3.148,17.618,17.618,0,0,0-4.406.631c-3.778.945-7.24,4.092-9.756,9.129A34.063,34.063,0,0,0,5.571,50.534a83.964,83.964,0,0,0,0,12.9A41.433,41.433,0,0,0,8.719,77.572a64.59,64.59,0,0,0,5.654,11.342,17.412,17.412,0,0,0,1.575,2.517l.345-.345a4.238,4.238,0,0,0,.945-1.258,28.97,28.97,0,0,0,4.092-5.033A23.8,23.8,0,0,0,23.536,80.7l.345-.631.631.345a3.572,3.572,0,0,1,.945,2.517,13.831,13.831,0,0,1-.945,3.778,45.956,45.956,0,0,1-3.148,7.24c.345.345.345.945,0,.945a4.67,4.67,0,0,0-.945,2.834h.345a4.609,4.609,0,0,0,2.517-1.258c.945-.631,3.461-2.834,6.609-7.24,2.517-3.148,4.092-6.609,5.981-10.387l.345-.631.631.345c.345.345.631.345.945.631a5.645,5.645,0,0,1,.345,2.517c-.345,2.517-1.889,5.981-2.834,8.5-1.889,4.406-5.35,9.129-7.871,12.59a1.448,1.448,0,0,1-.945.945,4.238,4.238,0,0,0,1.258.945l.945.945a63.812,63.812,0,0,0,10.7,7.24,70.807,70.807,0,0,0,13.849,6.3c4.406-.945,10.7-4.406,13.849-6.3a63.813,63.813,0,0,0,10.7-7.24l.945-.945c.631-.345.945-.945,1.258-.945a2.214,2.214,0,0,0,.345-1.258l-.345-.345a61.427,61.427,0,0,1-7.871-12.59c-.945-2.517-2.517-5.981-2.834-8.5a3.087,3.087,0,0,1,.345-2.517l.631-.631a1.508,1.508,0,0,1,.945-.345l.345.631a81.69,81.69,0,0,0,5.981,10.387c3.148,4.406,5.664,6.609,6.609,7.24a3.762,3.762,0,0,0,2.517,1.258H87c.345-.345,0-.945-.945-2.517a1.123,1.123,0,0,1-.345-.945,45.955,45.955,0,0,1-3.148-7.24,15.39,15.39,0,0,1-.945-3.778,3.7,3.7,0,0,1,.945-2.517l.631-.345.345.631a27.566,27.566,0,0,0,2.517,4.406c.627.945,3.148,3.778,3.778,4.723.631.631.945.945.945,1.258l.345.345a9.56,9.56,0,0,0,1.258-2.206l.345-.345a75.84,75.84,0,0,0,5.35-11.332c1.576-3.778,2.517-7.871,3.148-14.135a56.772,56.772,0,0,0,0-12.9,27.464,27.464,0,0,0-2.517-12.9Z" transform="translate(-1.22)" fill="url(#radial-gradient)"/>
  </g>
</svg>
