<svg xmlns="http://www.w3.org/2000/svg" width="310.268" height="217.537" viewBox="0 0 310.268 217.537">
  <g id="Group_40" data-name="Group 40" transform="translate(-978 -3195.463)" opacity="0.492">
    <g id="start-up" transform="translate(1123.182 3293.644)">
      <path id="Path_211" data-name="Path 211" d="M73.52,292.568a3.5,3.5,0,0,0,.652,4.042l.855.855c2.47-2.928,5.35-6.1,8.842-9.6.247-.247.5-.366.749-.594l-5.5-5.5C75.919,287.558,74.054,291.51,73.52,292.568Zm0,0" transform="translate(-56.096 -216.087)" fill="#878ad6"/>
      <path id="Path_212" data-name="Path 212" d="M172.471,390.311c-3.5,3.5-6.669,6.385-9.58,8.857l1.158,1.158a3.5,3.5,0,0,0,4.071.637c1.811-.933,4.66-2.274,10.706-5.641l-5.76-5.76C172.838,389.811,172.719,390.064,172.471,390.311Zm0,0" transform="translate(-124.918 -298.749)" fill="#878ad6"/>
      <path id="Path_213" data-name="Path 213" d="M91.386,312.382c-2.527-2.527-9.633-.261-12.972,3.076-11.168,11.168-16.211,19.085-18.476,23.76a3.5,3.5,0,0,0,4.675,4.67c4.57-2.219,12.391-7.239,23.692-18.539,3.671-3.672,5.482-10.565,3.083-12.964Zm0,0" transform="translate(-45.697 -238.732)" fill="#878ad6"/>
      <path id="Path_214" data-name="Path 214" d="M10.915,172.159l-9.89,9.89A3.5,3.5,0,0,0,4.4,187.9c5.345-1.433,10.048-2.039,13.216-1.227A187.634,187.634,0,0,1,32.093,164.59C29.127,162.688,19.326,163.747,10.915,172.159Zm0,0" transform="translate(0 -125.602)" fill="#878ad6"/>
      <path id="Path_215" data-name="Path 215" d="M247.564,407.706a3.49,3.49,0,0,0,4.044-.649l9.891-9.89c7.657-7.659,9.005-17.541,7.268-20.674a199.58,199.58,0,0,1-22.1,14.365c.487,2.751.163,5.42-.989,13.215A3.489,3.489,0,0,0,247.564,407.706Zm0,0" transform="translate(-188.377 -288.726)" fill="#878ad6"/>
      <path id="Path_216" data-name="Path 216" d="M287.711,140.376a10.49,10.49,0,1,0,14.836,0A10.5,10.5,0,0,0,287.711,140.376Zm0,0" transform="translate(-218.289 -105.299)" fill="#878ad6"/>
      <path id="Path_217" data-name="Path 217" d="M416.527,3.412A3.492,3.492,0,0,0,413.3.187a69.127,69.127,0,0,0-25.527,2.974,29.357,29.357,0,0,0,8.7,17.081,29.264,29.264,0,0,0,17.414,8.683A72.313,72.313,0,0,0,416.527,3.412Zm0,0" transform="translate(-297.377 0)" fill="#878ad6"/>
      <path id="Path_218" data-name="Path 218" d="M181.834,43.589A36.735,36.735,0,0,1,171.322,24c-21,8.612-41.1,27.417-56.982,53.836l7.891,7.891c5.392-2.189,11.937-2.767,16.089,1.383s3.568,10.7,1.38,16.085l8.151,8.151c20.326-12.25,43.991-31.551,54.054-57.229A36.559,36.559,0,0,1,181.834,43.589Zm-4.946,29.67a17.483,17.483,0,1,1,0-24.726A17.5,17.5,0,0,1,176.887,73.259Zm0,0" transform="translate(-87.685 -18.401)" fill="#878ad6"/>
    </g>
    <g id="start-up-2" data-name="start-up" transform="translate(977.999 3195.461)">
      <path id="Path_211-2" data-name="Path 211" d="M73.761,299.548a5.764,5.764,0,0,0,1.074,6.656l1.408,1.408c4.068-4.821,8.809-10.052,14.56-15.8.406-.406.825-.6,1.233-.978l-9.058-9.06C77.71,291.3,74.639,297.806,73.761,299.548Zm0,0" transform="translate(-45.069 -173.611)" fill="#878ad6"/>
      <path id="Path_212-2" data-name="Path 212" d="M178.666,390.8c-5.764,5.764-10.982,10.514-15.776,14.585l1.907,1.907a5.755,5.755,0,0,0,6.7,1.05c2.982-1.537,7.673-3.744,17.629-9.289l-9.486-9.486C179.271,389.972,179.074,390.389,178.666,390.8Zm0,0" transform="translate(-100.363 -240.023)" fill="#878ad6"/>
      <path id="Path_213-2" data-name="Path 213" d="M111.949,313.081c-4.161-4.161-15.863-.43-21.36,5.065C72.2,336.536,63.894,349.573,60.165,357.272a5.758,5.758,0,0,0,7.7,7.689c7.526-3.654,20.4-11.921,39.013-30.528,6.044-6.047,9.027-17.4,5.077-21.348Zm0,0" transform="translate(-36.714 -191.804)" fill="#878ad6"/>
      <path id="Path_214-2" data-name="Path 214" d="M17.973,177.575,1.687,193.86a5.759,5.759,0,0,0,5.562,9.634c8.8-2.36,16.547-3.357,21.762-2.02a308.973,308.973,0,0,1,23.835-36.363C47.962,161.98,31.824,163.724,17.973,177.575Zm0,0" transform="translate(0 -100.912)" fill="#878ad6"/>
      <path id="Path_215-2" data-name="Path 215" d="M248.809,427.891a5.747,5.747,0,0,0,6.659-1.069l16.287-16.286c12.609-12.612,14.828-28.884,11.967-34.044a328.638,328.638,0,0,1-36.39,23.654c.8,4.53.268,8.925-1.628,21.76A5.746,5.746,0,0,0,248.809,427.891Zm0,0" transform="translate(-151.348 -231.97)" fill="#878ad6"/>
      <path id="Path_216-2" data-name="Path 216" d="M289.694,142.36a17.274,17.274,0,1,0,24.429,0A17.294,17.294,0,0,0,289.694,142.36Zm0,0" transform="translate(-175.379 -84.6)" fill="#878ad6"/>
      <path id="Path_217-2" data-name="Path 217" d="M435.12,5.618A5.75,5.75,0,0,0,429.808.307a113.83,113.83,0,0,0-42.034,4.9c1.039,9.486,5.945,19.751,14.321,28.127,8.476,8.475,19.021,13.38,28.676,14.3A119.075,119.075,0,0,0,435.12,5.618Zm0,0" transform="translate(-238.921 0)" fill="#878ad6"/>
      <path id="Path_218-2" data-name="Path 218" d="M225.48,56.258C215.9,46.677,210.047,35.185,208.17,24c-34.576,14.18-67.675,45.147-93.83,88.65l12.994,12.994c8.878-3.6,19.656-4.557,26.492,2.278s5.875,17.62,2.272,26.486l13.422,13.422c33.471-20.172,72.439-51.953,89.009-94.237C247.068,71.857,235.217,66,225.48,56.258Zm-8.145,48.857a28.789,28.789,0,1,1,0-40.715A28.824,28.824,0,0,1,217.335,105.115Zm0,0" transform="translate(-70.449 -14.784)" fill="#878ad6"/>
    </g>
    <g id="start-up-3" data-name="start-up" transform="translate(1185.999 3222.638)">
      <path id="Path_211-3" data-name="Path 211" d="M73.324,286.871a1.653,1.653,0,0,0,.308,1.909l.4.4c1.167-1.382,2.526-2.883,4.175-4.531.117-.117.237-.173.353-.28l-2.6-2.6C74.457,284.5,73.576,286.371,73.324,286.871Zm0,0" transform="translate(-65.096 -250.755)" fill="#878ad6"/>
      <path id="Path_212-3" data-name="Path 212" d="M167.415,389.916c-1.653,1.653-3.149,3.015-4.524,4.183l.547.547a1.65,1.65,0,0,0,1.923.3c.855-.441,2.2-1.074,5.056-2.664l-2.72-2.72C167.588,389.68,167.532,389.8,167.415,389.916Zm0,0" transform="translate(-144.959 -346.678)" fill="#878ad6"/>
      <path id="Path_213-3" data-name="Path 213" d="M74.6,311.812c-1.193-1.193-4.549-.123-6.125,1.453-5.274,5.274-7.655,9.012-8.725,11.22a1.651,1.651,0,0,0,2.208,2.205c2.158-1.048,5.851-3.418,11.188-8.754,1.733-1.734,2.589-4.989,1.456-6.122Zm0,0" transform="translate(-53.028 -277.032)" fill="#878ad6"/>
      <path id="Path_214-3" data-name="Path 214" d="M5.155,167.738l-4.67,4.67a1.651,1.651,0,0,0,1.595,2.763,13.569,13.569,0,0,1,6.241-.579,88.6,88.6,0,0,1,6.835-10.428C13.755,163.266,9.127,163.767,5.155,167.738Zm0,0" transform="translate(0 -145.753)" fill="#878ad6"/>
      <path id="Path_215-3" data-name="Path 215" d="M246.549,391.232a1.648,1.648,0,0,0,1.91-.307l4.671-4.67c3.616-3.617,4.252-8.283,3.432-9.763a94.248,94.248,0,0,1-10.436,6.783c.23,1.3.077,2.559-.467,6.24A1.648,1.648,0,0,0,246.549,391.232Zm0,0" transform="translate(-218.599 -335.047)" fill="#878ad6"/>
      <path id="Path_216-3" data-name="Path 216" d="M286.092,138.757a4.954,4.954,0,1,0,7.006,0A4.959,4.959,0,0,0,286.092,138.757Zm0,0" transform="translate(-253.309 -122.192)" fill="#878ad6"/>
      <path id="Path_217-3" data-name="Path 217" d="M401.351,1.612A1.649,1.649,0,0,0,399.828.089a32.643,32.643,0,0,0-12.054,1.4,13.863,13.863,0,0,0,4.107,8.066,13.819,13.819,0,0,0,8.223,4.1A34.147,34.147,0,0,0,401.351,1.612Zm0,0" transform="translate(-345.086 0)" fill="#878ad6"/>
      <path id="Path_218-3" data-name="Path 218" d="M146.212,33.248A17.347,17.347,0,0,1,141.248,24c-9.915,4.067-19.407,12.947-26.908,25.422l3.726,3.726c2.546-1.034,5.637-1.307,7.6.653s1.685,5.053.651,7.6l3.849,3.849c9.6-5.785,20.773-14.9,25.525-27.024A17.264,17.264,0,0,1,146.212,33.248Zm-2.336,14.011a8.256,8.256,0,1,1,0-11.676A8.266,8.266,0,0,1,143.876,47.259Zm0,0" transform="translate(-101.753 -21.353)" fill="#878ad6"/>
    </g>
    <g id="start-up-4" data-name="start-up" transform="translate(1248.999 3243.731)">
      <path id="Path_211-4" data-name="Path 211" d="M73.271,285.325a1.152,1.152,0,0,0,.215,1.33l.281.281c.813-.963,1.76-2.008,2.909-3.157.081-.081.165-.12.246-.2l-1.81-1.81C74.06,283.676,73.447,284.977,73.271,285.325Zm0,0" transform="translate(-67.538 -260.161)" fill="#878ad6"/>
      <path id="Path_212-4" data-name="Path 212" d="M166.043,389.809c-1.152,1.152-2.194,2.1-3.152,2.914l.381.381a1.15,1.15,0,0,0,1.339.21c.6-.307,1.533-.748,3.522-1.856l-1.9-1.9C166.163,389.644,166.124,389.728,166.043,389.809Zm0,0" transform="translate(-150.397 -359.684)" fill="#878ad6"/>
      <path id="Path_213-4" data-name="Path 213" d="M70.05,311.657c-.831-.831-3.169-.086-4.268,1.012a30.6,30.6,0,0,0-6.079,7.817,1.151,1.151,0,0,0,1.538,1.536c1.5-.73,4.077-2.382,7.795-6.1,1.208-1.208,1.8-3.476,1.014-4.265Zm0,0" transform="translate(-55.017 -287.425)" fill="#878ad6"/>
      <path id="Path_214-4" data-name="Path 214" d="M3.592,166.539.338,169.793a1.151,1.151,0,0,0,1.111,1.925,9.454,9.454,0,0,1,4.348-.4,61.734,61.734,0,0,1,4.762-7.265C9.583,163.423,6.359,163.772,3.592,166.539Zm0,0" transform="translate(0 -151.221)" fill="#878ad6"/>
      <path id="Path_215-4" data-name="Path 215" d="M246.273,386.762a1.148,1.148,0,0,0,1.33-.214l3.254-3.254c2.519-2.52,2.963-5.771,2.391-6.8a65.66,65.66,0,0,1-7.271,4.726c.16.905.054,1.783-.325,4.348A1.148,1.148,0,0,0,246.273,386.762Zm0,0" transform="translate(-226.8 -347.616)" fill="#878ad6"/>
      <path id="Path_216-4" data-name="Path 216" d="M285.653,138.318a3.451,3.451,0,1,0,4.881,0A3.455,3.455,0,0,0,285.653,138.318Zm0,0" transform="translate(-262.812 -126.776)" fill="#878ad6"/>
      <path id="Path_217-4" data-name="Path 217" d="M397.233,1.123A1.149,1.149,0,0,0,396.172.062a22.743,22.743,0,0,0-8.4.978,9.659,9.659,0,0,0,2.861,5.62,9.628,9.628,0,0,0,5.729,2.857A23.791,23.791,0,0,0,397.233,1.123Zm0,0" transform="translate(-358.032 0)" fill="#878ad6"/>
      <path id="Path_218-4" data-name="Path 218" d="M136.546,30.442A12.086,12.086,0,0,1,133.087,24c-6.908,2.833-13.521,9.02-18.747,17.712l2.6,2.6c1.774-.72,3.927-.91,5.293.455s1.174,3.521.454,5.292l2.682,2.682c6.687-4.03,14.473-10.38,17.784-18.828A12.028,12.028,0,0,1,136.546,30.442ZM134.918,40.2a5.752,5.752,0,1,1,0-8.135A5.759,5.759,0,0,1,134.918,40.2Zm0,0" transform="translate(-105.57 -22.155)" fill="#878ad6"/>
    </g>
  </g>
</svg>
