<svg xmlns="http://www.w3.org/2000/svg" width="233.045" height="150.266" viewBox="0 0 233.045 150.266">
  <g id="Citi" transform="translate(-111.829 -565.504)">
    <g id="Group_93" data-name="Group 93" transform="translate(111.829 565.504)">
      <g id="Group_89" data-name="Group 89" transform="translate(0 54.091)">
        <g id="Group_88" data-name="Group 88" transform="translate(0 0)">
          <path id="Path_222" data-name="Path 222" d="M-19.2-18.119l-.428.415C-26.352-10.849-34.138-7.227-42.158-7.227c-16.75,0-28.9-12.566-28.9-29.9,0-17.306,12.151-29.892,28.9-29.892,8.02,0,15.806,3.642,22.534,10.524l.428.408L-8.424-69.112l-.288-.348C-17.669-80.044-28.42-85.193-41.636-85.193c-13.249,0-25.379,4.465-34.109,12.506-9.506,8.716-14.507,21.008-14.507,35.562s5,26.872,14.507,35.589c8.73,8.087,20.86,12.519,34.109,12.519,13.215,0,23.967-5.155,32.924-15.746l.288-.321L-19.2-18.119" transform="translate(90.252 85.193)" fill="#004685"/>
        </g>
      </g>
      <path id="Path_223" data-name="Path 223" d="M3301.341-581.725h19.026V-674.62h-19.026v92.895" transform="translate(-3208.633 730.214)" fill="#004685"/>
      <g id="Group_91" data-name="Group 91" transform="translate(128.554 26.777)">
        <g id="Group_90" data-name="Group 90" transform="translate(0)">
          <path id="Path_224" data-name="Path 224" d="M-15.593-27.424c-5.081,3.093-9.8,4.653-14.045,4.653-6.152,0-8.937-3.254-8.937-10.484V-82.547h19.394v-17.486H-38.575v-28.907l-18.645,9.988v18.919H-73.314v17.486H-57.22v52.432c0,14.28,8.462,24.054,21.1,24.308a29.872,29.872,0,0,0,16.877-4.264l.2-.127,4.572-17.915-1.125.69" transform="translate(73.314 128.941)" fill="#004685"/>
        </g>
      </g>
      <path id="Path_225" data-name="Path 225" d="M3440.188-581.725h19.053V-674.62h-19.053v92.895" transform="translate(-3238.164 730.214)" fill="#004685"/>
      <g id="Group_92" data-name="Group 92" transform="translate(80.066 0)">
        <path id="Path_226" data-name="Path 226" d="M-41.091-10.619A93.583,93.583,0,0,0-116.713-49.93,93.484,93.484,0,0,0-192.3-10.619l-.9,1.265h21.891l.241-.261c14.9-15.384,34.35-23.512,54.354-23.512S-77.268-25-62.339-9.615l.241.261H-40.22l-.87-1.265" transform="translate(193.199 49.93)" fill="#ee1c25"/>
      </g>
    </g>
  </g>
</svg>
