<svg xmlns="http://www.w3.org/2000/svg" width="516.778" height="215.125" viewBox="0 0 516.778 215.125">
  <g id="Group_31" data-name="Group 31" transform="translate(-128 -2413.025)">
    <path id="How_we_can_create" data-name="How we can create" d="M16.85-20.6H19.2V0H16.85V-9.4H4.7V0H2.375V-20.6H4.7v9H16.85ZM36.65-2.05A7.649,7.649,0,0,1,31.025.35a7.67,7.67,0,0,1-5.638-2.412A7.848,7.848,0,0,1,23-7.775a7.828,7.828,0,0,1,2.375-5.7,7.677,7.677,0,0,1,5.65-2.4,7.677,7.677,0,0,1,5.65,2.4,7.828,7.828,0,0,1,2.375,5.7A7.869,7.869,0,0,1,36.65-2.05Zm-5.625.4A5.237,5.237,0,0,0,35-3.463a6.138,6.138,0,0,0,1.675-4.312A6.063,6.063,0,0,0,35-12.05a5.253,5.253,0,0,0-3.975-1.8,5.279,5.279,0,0,0-4,1.8A6.063,6.063,0,0,0,25.35-7.775a6.138,6.138,0,0,0,1.675,4.312A5.263,5.263,0,0,0,31.025-1.65ZM46.125,0l-5.2-15.5h2.4L47.2-3l4.225-12.5h1.95L57.6-3l3.875-12.5h2.4L58.65,0H56.525l-4.1-12.4L48.25,0ZM81.7,0,74.65-20.6H77.3L83-3.925,88.45-20.6h2.625l5.45,16.675,5.7-16.675h2.65L97.825,0H95.5L89.775-17.55,84.025,0Zm31.9-1.65a7.761,7.761,0,0,0,2.762-.525A5.352,5.352,0,0,0,118.475-3.5l1.4,1.45A6.869,6.869,0,0,1,117.1-.312a10.04,10.04,0,0,1-3.475.662A7.547,7.547,0,0,1,108.1-1.975,7.9,7.9,0,0,1,105.775-7.8a7.971,7.971,0,0,1,2.238-5.75,7.236,7.236,0,0,1,5.412-2.325,6.538,6.538,0,0,1,5.412,2.425,10.2,10.2,0,0,1,1.938,6.55h-12.7a6,6,0,0,0,1.762,3.775A5.176,5.176,0,0,0,113.6-1.65Zm-.1-12.2a5.136,5.136,0,0,0-3.575,1.363A5.807,5.807,0,0,0,108.1-8.9h10.45a5.88,5.88,0,0,0-1.525-3.587A4.642,4.642,0,0,0,113.5-13.85ZM143,.35a10.137,10.137,0,0,1-7.425-3.162,10.283,10.283,0,0,1-3.15-7.512,10.29,10.29,0,0,1,1.45-5.313,10.832,10.832,0,0,1,3.887-3.9A10.136,10.136,0,0,1,143-20.975a10.022,10.022,0,0,1,7.4,3.15L148.825-16.2A7.686,7.686,0,0,0,143-18.8a7.753,7.753,0,0,0-5.775,2.512,8.294,8.294,0,0,0-2.425,5.963,8.344,8.344,0,0,0,2.438,6A7.747,7.747,0,0,0,143-1.8a7.737,7.737,0,0,0,5.825-2.6L150.4-2.8A10.129,10.129,0,0,1,143,.35Zm16.85-16.225a6.058,6.058,0,0,1,4.688,1.75A6.628,6.628,0,0,1,166.15-9.45V0H163.9V-2.425a5.294,5.294,0,0,1-2.312,2.05A7.177,7.177,0,0,1,158.45.35,6.09,6.09,0,0,1,154.362-1a4.488,4.488,0,0,1-1.587-3.6,4.559,4.559,0,0,1,1.775-3.713,6.652,6.652,0,0,1,4.325-1.437,17.052,17.052,0,0,1,5.025.875V-9.45a5.242,5.242,0,0,0-.962-3.188A3.749,3.749,0,0,0,159.7-13.95a10.357,10.357,0,0,0-4.525,1.4l-.9-1.825A12.676,12.676,0,0,1,159.85-15.875ZM156.05-2.45a4.43,4.43,0,0,0,2.775.825A6.325,6.325,0,0,0,162-2.463a3.837,3.837,0,0,0,1.9-2.387V-7.225a16.86,16.86,0,0,0-4.675-.625,5,5,0,0,0-3,.9,2.707,2.707,0,0,0-1.25,2.275A2.659,2.659,0,0,0,156.05-2.45ZM178.1-15.875a5.572,5.572,0,0,1,4.2,1.687,5.962,5.962,0,0,1,1.625,4.313V0h-2.25V-9.575a4.393,4.393,0,0,0-1.088-3.088A3.61,3.61,0,0,0,177.8-13.85a5.139,5.139,0,0,0-3.375,1.175A3.528,3.528,0,0,0,173-9.875V0h-2.25V-15.5H173v2.475a5.225,5.225,0,0,1,2.075-2.05A6,6,0,0,1,178.1-15.875ZM207.025.35A10.137,10.137,0,0,1,199.6-2.812a10.283,10.283,0,0,1-3.15-7.512,10.29,10.29,0,0,1,1.45-5.313,10.832,10.832,0,0,1,3.887-3.9,10.136,10.136,0,0,1,5.238-1.437,10.022,10.022,0,0,1,7.4,3.15L212.85-16.2a7.686,7.686,0,0,0-5.825-2.6,7.753,7.753,0,0,0-5.775,2.512,8.294,8.294,0,0,0-2.425,5.963,8.344,8.344,0,0,0,2.438,6A7.747,7.747,0,0,0,207.025-1.8a7.737,7.737,0,0,0,5.825-2.6l1.575,1.6A10.129,10.129,0,0,1,207.025.35ZM220.05-12.475a5.319,5.319,0,0,1,2.288-2.488,7.32,7.32,0,0,1,3.712-.912v2.025a6.382,6.382,0,0,0-4.312,1.45,4.688,4.688,0,0,0-1.687,3.725V0H217.8V-15.5h2.25ZM236.15-1.65a7.761,7.761,0,0,0,2.763-.525A5.352,5.352,0,0,0,241.025-3.5l1.4,1.45A6.87,6.87,0,0,1,239.65-.312a10.04,10.04,0,0,1-3.475.662,7.547,7.547,0,0,1-5.525-2.325A7.9,7.9,0,0,1,228.325-7.8a7.971,7.971,0,0,1,2.238-5.75,7.236,7.236,0,0,1,5.413-2.325,6.538,6.538,0,0,1,5.412,2.425,10.2,10.2,0,0,1,1.938,6.55h-12.7a6,6,0,0,0,1.762,3.775A5.176,5.176,0,0,0,236.15-1.65Zm-.1-12.2a5.136,5.136,0,0,0-3.575,1.363A5.807,5.807,0,0,0,230.65-8.9H241.1a5.88,5.88,0,0,0-1.525-3.587A4.642,4.642,0,0,0,236.05-13.85Zm17.25-2.025a6.058,6.058,0,0,1,4.688,1.75A6.628,6.628,0,0,1,259.6-9.45V0h-2.25V-2.425a5.294,5.294,0,0,1-2.313,2.05A7.177,7.177,0,0,1,251.9.35,6.09,6.09,0,0,1,247.813-1a4.488,4.488,0,0,1-1.587-3.6A4.559,4.559,0,0,1,248-8.312a6.652,6.652,0,0,1,4.325-1.437,17.052,17.052,0,0,1,5.025.875V-9.45a5.242,5.242,0,0,0-.962-3.188,3.749,3.749,0,0,0-3.238-1.312,10.357,10.357,0,0,0-4.525,1.4l-.9-1.825A12.676,12.676,0,0,1,253.3-15.875ZM249.5-2.45a4.43,4.43,0,0,0,2.775.825,6.325,6.325,0,0,0,3.175-.838,3.836,3.836,0,0,0,1.9-2.387V-7.225a16.86,16.86,0,0,0-4.675-.625,5,5,0,0,0-3,.9,2.707,2.707,0,0,0-1.25,2.275A2.659,2.659,0,0,0,249.5-2.45Zm21.5.175,1.1,1.65a4.545,4.545,0,0,1-2.875.975A3.577,3.577,0,0,1,266.5-.762,3.968,3.968,0,0,1,265.45-3.6v-9.9H263v-2h2.45v-4.275h2.25V-15.5h3.8v2h-3.8v9.9a2.032,2.032,0,0,0,.488,1.4,1.529,1.529,0,0,0,1.188.55A2.1,2.1,0,0,0,271-2.275Zm11.275.625a7.762,7.762,0,0,0,2.763-.525A5.352,5.352,0,0,0,287.15-3.5l1.4,1.45a6.869,6.869,0,0,1-2.775,1.737A10.04,10.04,0,0,1,282.3.35a7.547,7.547,0,0,1-5.525-2.325A7.9,7.9,0,0,1,274.45-7.8a7.971,7.971,0,0,1,2.237-5.75,7.236,7.236,0,0,1,5.413-2.325,6.538,6.538,0,0,1,5.413,2.425A10.2,10.2,0,0,1,289.45-6.9h-12.7a6,6,0,0,0,1.763,3.775A5.176,5.176,0,0,0,282.275-1.65Zm-.1-12.2a5.136,5.136,0,0,0-3.575,1.363A5.807,5.807,0,0,0,276.775-8.9h10.45a5.88,5.88,0,0,0-1.525-3.587A4.642,4.642,0,0,0,282.175-13.85Z" transform="translate(128 2434)" fill="#525252"/>
    <g id="Group_30" data-name="Group 30" transform="translate(-9)">
      <path id="Path_206" data-name="Path 206" d="M0,0H484.413l32.365,121H31.2Z" transform="translate(137 2457)" fill="#3e43b9"/>
      <path id="great" d="M31.843-22.618v-8.4H55.828V-8.2A28.512,28.512,0,0,1,45.749-1.5,32.3,32.3,0,0,1,33.483.957,28.967,28.967,0,0,1,12.539-7.687,27.735,27.735,0,0,1,3.69-28.222,27.589,27.589,0,0,1,7.756-42.743,29.923,29.923,0,0,1,18.689-53.4a29.3,29.3,0,0,1,14.794-3.929,32.693,32.693,0,0,1,12.266,2.426,28.141,28.141,0,0,1,10.079,6.662L48.517-41.41a18.225,18.225,0,0,0-6.731-4.783,20.872,20.872,0,0,0-8.3-1.777,18.5,18.5,0,0,0-13.667,5.842,19.159,19.159,0,0,0-5.74,13.906,19.389,19.389,0,0,0,5.74,13.974A18.4,18.4,0,0,0,33.483-8.337a20.9,20.9,0,0,0,12.368-4.032v-10.25ZM143.076,0H131.391L118.135-18.928H107.2V0H96.951V-56.307h24.532q9.088,0,15.067,5.228a17.025,17.025,0,0,1,5.979,13.427,17.336,17.336,0,0,1-3.69,11,19.484,19.484,0,0,1-9.908,6.628ZM107.2-46.877v18.518h13.12a13.6,13.6,0,0,0,8.542-2.528,8.107,8.107,0,0,0,3.28-6.765,8.045,8.045,0,0,0-3.246-6.731,13.7,13.7,0,0,0-8.576-2.494Zm117.246-.137H192.263v13.667h29.11v9.293h-29.11V-9.362h32.185V0H182.013V-56.307h42.435ZM307.391,0l-4.305-10.182h-27.2L271.652,0H260.241l23.507-56.307h11.412L318.666,0ZM279.579-19H299.4l-9.908-23.712Zm86.7,19V-47.013H348.24v-9.293H394.5v9.293h-18.04V0Z" transform="translate(197 2547)" fill="#fff"/>
    </g>
    <path id="brand_together" data-name="brand together" d="M2.825,0V-20.6h9.45a5.856,5.856,0,0,1,4.087,1.438,4.751,4.751,0,0,1,1.588,3.688,4.456,4.456,0,0,1-.737,2.625A6.77,6.77,0,0,1,15-10.95q3.75,1.9,3.75,5.3a5.275,5.275,0,0,1-1.725,4.063A6.244,6.244,0,0,1,12.625,0ZM5.15-11.875h6.525a4.2,4.2,0,0,0,2.8-.925,2.963,2.963,0,0,0,1.1-2.375,2.963,2.963,0,0,0-1.1-2.375,4.2,4.2,0,0,0-2.8-.925H5.15Zm0,9.75h6.875A4.564,4.564,0,0,0,15.15-3.2a3.5,3.5,0,0,0,1.225-2.75A3.457,3.457,0,0,0,15.15-8.687,4.6,4.6,0,0,0,12.025-9.75H5.15ZM25.2-12.475a5.319,5.319,0,0,1,2.288-2.488,7.32,7.32,0,0,1,3.712-.912v2.025a6.382,6.382,0,0,0-4.312,1.45A4.688,4.688,0,0,0,25.2-8.675V0H22.95V-15.5H25.2Zm15.4-3.4a6.058,6.058,0,0,1,4.688,1.75A6.628,6.628,0,0,1,46.9-9.45V0H44.65V-2.425a5.294,5.294,0,0,1-2.312,2.05A7.177,7.177,0,0,1,39.2.35,6.09,6.09,0,0,1,35.113-1a4.488,4.488,0,0,1-1.588-3.6A4.559,4.559,0,0,1,35.3-8.312,6.652,6.652,0,0,1,39.625-9.75a17.052,17.052,0,0,1,5.025.875V-9.45a5.242,5.242,0,0,0-.963-3.188A3.749,3.749,0,0,0,40.45-13.95a10.357,10.357,0,0,0-4.525,1.4l-.9-1.825A12.676,12.676,0,0,1,40.6-15.875ZM36.8-2.45a4.43,4.43,0,0,0,2.775.825,6.325,6.325,0,0,0,3.175-.838,3.836,3.836,0,0,0,1.9-2.387V-7.225a16.86,16.86,0,0,0-4.675-.625,5,5,0,0,0-3,.9,2.707,2.707,0,0,0-1.25,2.275A2.659,2.659,0,0,0,36.8-2.45ZM58.85-15.875a5.571,5.571,0,0,1,4.2,1.687,5.962,5.962,0,0,1,1.625,4.313V0h-2.25V-9.575a4.393,4.393,0,0,0-1.088-3.088A3.61,3.61,0,0,0,58.55-13.85a5.139,5.139,0,0,0-3.375,1.175,3.528,3.528,0,0,0-1.425,2.8V0H51.5V-15.5h2.25v2.475a5.225,5.225,0,0,1,2.075-2.05A6,6,0,0,1,58.85-15.875Zm22.5-5.1H83.6V0H81.35V-2.9A6.113,6.113,0,0,1,75.7.35a6.521,6.521,0,0,1-5.1-2.287,8.48,8.48,0,0,1-2.025-5.837A8.433,8.433,0,0,1,70.6-13.6a6.537,6.537,0,0,1,5.1-2.275,6.331,6.331,0,0,1,3.3.862A6.6,6.6,0,0,1,81.35-12.6ZM72.4-3.375A4.646,4.646,0,0,0,76.125-1.65a4.718,4.718,0,0,0,3.75-1.725,6.532,6.532,0,0,0,1.475-4.4,6.47,6.47,0,0,0-1.463-4.375,4.737,4.737,0,0,0-3.762-1.7,4.674,4.674,0,0,0-3.725,1.7,6.506,6.506,0,0,0-1.45,4.375A6.6,6.6,0,0,0,72.4-3.375ZM103.05,0V-18.4H96.125v-2.2h16.2v2.2H105.4V0Zm25.725-2.05A7.649,7.649,0,0,1,123.15.35a7.67,7.67,0,0,1-5.637-2.412,7.848,7.848,0,0,1-2.388-5.712,7.828,7.828,0,0,1,2.375-5.7,7.677,7.677,0,0,1,5.65-2.4,7.677,7.677,0,0,1,5.65,2.4,7.828,7.828,0,0,1,2.375,5.7A7.869,7.869,0,0,1,128.775-2.05Zm-5.625.4a5.237,5.237,0,0,0,3.975-1.813A6.138,6.138,0,0,0,128.8-7.775a6.063,6.063,0,0,0-1.675-4.275,5.253,5.253,0,0,0-3.975-1.8,5.279,5.279,0,0,0-4,1.8,6.063,6.063,0,0,0-1.675,4.275,6.138,6.138,0,0,0,1.675,4.312A5.263,5.263,0,0,0,123.15-1.65Zm23.8-13.85h2.25V-1.65a6.255,6.255,0,0,1-2.138,4.9,7.951,7.951,0,0,1-5.487,1.9,11,11,0,0,1-3.525-.562A8.138,8.138,0,0,1,135.3,3.1l1-1.775a6.882,6.882,0,0,0,4.975,1.825,6.293,6.293,0,0,0,4.175-1.262,4.37,4.37,0,0,0,1.5-3.538V-4.175a6.209,6.209,0,0,1-2.363,2.238,6.822,6.822,0,0,1-3.288.788,6.869,6.869,0,0,1-5.137-2.063,7.288,7.288,0,0,1-2.012-5.312,7.245,7.245,0,0,1,2.012-5.3,6.89,6.89,0,0,1,5.137-2.05,6.822,6.822,0,0,1,3.288.787,6.209,6.209,0,0,1,2.363,2.238ZM141.725-3.15a5,5,0,0,0,3.762-1.513,5.328,5.328,0,0,0,1.463-3.862,5.242,5.242,0,0,0-1.463-3.838,5.047,5.047,0,0,0-3.762-1.488,5.016,5.016,0,0,0-3.738,1.488,5.242,5.242,0,0,0-1.462,3.838,5.328,5.328,0,0,0,1.462,3.862A4.973,4.973,0,0,0,141.725-3.15Zm19.225,1.5a7.761,7.761,0,0,0,2.763-.525A5.352,5.352,0,0,0,165.825-3.5l1.4,1.45A6.87,6.87,0,0,1,164.45-.312a10.04,10.04,0,0,1-3.475.662,7.547,7.547,0,0,1-5.525-2.325A7.9,7.9,0,0,1,153.125-7.8a7.971,7.971,0,0,1,2.238-5.75,7.236,7.236,0,0,1,5.413-2.325,6.538,6.538,0,0,1,5.412,2.425,10.2,10.2,0,0,1,1.938,6.55h-12.7a6,6,0,0,0,1.762,3.775A5.176,5.176,0,0,0,160.95-1.65Zm-.1-12.2a5.136,5.136,0,0,0-3.575,1.363A5.807,5.807,0,0,0,155.45-8.9H165.9a5.88,5.88,0,0,0-1.525-3.587A4.642,4.642,0,0,0,160.85-13.85ZM178.625-2.275l1.1,1.65A4.545,4.545,0,0,1,176.85.35a3.577,3.577,0,0,1-2.725-1.112,3.968,3.968,0,0,1-1.05-2.837v-9.9h-2.45v-2h2.45v-4.275h2.25V-15.5h3.8v2h-3.8v9.9a2.032,2.032,0,0,0,.488,1.4A1.529,1.529,0,0,0,177-1.65,2.1,2.1,0,0,0,178.625-2.275Zm11.65-13.6a5.572,5.572,0,0,1,4.2,1.687A5.962,5.962,0,0,1,196.1-9.875V0h-2.25V-9.575a4.393,4.393,0,0,0-1.088-3.088,3.61,3.61,0,0,0-2.787-1.187,5.139,5.139,0,0,0-3.375,1.175,3.528,3.528,0,0,0-1.425,2.8V0h-2.25V-20.975h2.25v7.95a5.225,5.225,0,0,1,2.075-2.05A6,6,0,0,1,190.275-15.875ZM207.65-1.65a7.761,7.761,0,0,0,2.763-.525A5.352,5.352,0,0,0,212.525-3.5l1.4,1.45A6.87,6.87,0,0,1,211.15-.312a10.04,10.04,0,0,1-3.475.662,7.547,7.547,0,0,1-5.525-2.325A7.9,7.9,0,0,1,199.825-7.8a7.971,7.971,0,0,1,2.238-5.75,7.236,7.236,0,0,1,5.413-2.325,6.538,6.538,0,0,1,5.412,2.425,10.2,10.2,0,0,1,1.938,6.55h-12.7a6,6,0,0,0,1.762,3.775A5.176,5.176,0,0,0,207.65-1.65Zm-.1-12.2a5.136,5.136,0,0,0-3.575,1.363A5.807,5.807,0,0,0,202.15-8.9H212.6a5.88,5.88,0,0,0-1.525-3.587A4.642,4.642,0,0,0,207.55-13.85Zm13.425,1.375a5.319,5.319,0,0,1,2.288-2.488,7.32,7.32,0,0,1,3.712-.912v2.025a6.382,6.382,0,0,0-4.312,1.45,4.688,4.688,0,0,0-1.687,3.725V0h-2.25V-15.5h2.25Z" transform="translate(417 2623)" fill="#525252"/>
  </g>
</svg>
