<svg xmlns="http://www.w3.org/2000/svg" width="387" height="322" viewBox="0 0 387 322">
  <g id="Group_8" data-name="Group 8" transform="translate(0 -947)">
    <rect id="Rectangle_7" data-name="Rectangle 7" width="387" height="322" rx="8" transform="translate(0 947)" fill="#3e43b9"/>
    <g id="Group_3" data-name="Group 3" transform="translate(-25 206)">
      <circle id="Ellipse_2" data-name="Ellipse 2" cx="7.5" cy="7.5" r="7.5" transform="translate(194 930)" fill="#fff"/>
      <circle id="Ellipse_2-2" data-name="Ellipse 2" cx="7.5" cy="7.5" r="7.5" transform="translate(222 930)" fill="#fff"/>
      <ellipse id="Ellipse_2-3" data-name="Ellipse 2" cx="7" cy="7.5" rx="7" ry="7.5" transform="translate(250 930)" fill="#fff"/>
      <ellipse id="Ellipse_2-4" data-name="Ellipse 2" cx="7" cy="7.5" rx="7" ry="7.5" transform="translate(278 930)" fill="#fff"/>
      <ellipse id="Ellipse_2-5" data-name="Ellipse 2" cx="7" cy="7.5" rx="7" ry="7.5" transform="translate(306 930)" fill="#fff"/>
      <ellipse id="Ellipse_2-6" data-name="Ellipse 2" cx="7" cy="7.5" rx="7" ry="7.5" transform="translate(334 930)" fill="#fff"/>
      <ellipse id="Ellipse_2-7" data-name="Ellipse 2" cx="7" cy="7.5" rx="7" ry="7.5" transform="translate(362 930)" fill="#fff"/>
      <circle id="Ellipse_2-8" data-name="Ellipse 2" cx="7.5" cy="7.5" r="7.5" transform="translate(194 958)" fill="#fff"/>
      <circle id="Ellipse_2-9" data-name="Ellipse 2" cx="7.5" cy="7.5" r="7.5" transform="translate(222 958)" fill="#fff"/>
      <ellipse id="Ellipse_2-10" data-name="Ellipse 2" cx="7" cy="7.5" rx="7" ry="7.5" transform="translate(250 958)" fill="#fff"/>
      <ellipse id="Ellipse_2-11" data-name="Ellipse 2" cx="7" cy="7.5" rx="7" ry="7.5" transform="translate(278 958)" fill="#fff"/>
      <ellipse id="Ellipse_2-12" data-name="Ellipse 2" cx="7" cy="7.5" rx="7" ry="7.5" transform="translate(306 958)" fill="#fff"/>
      <ellipse id="Ellipse_2-13" data-name="Ellipse 2" cx="7" cy="7.5" rx="7" ry="7.5" transform="translate(334 958)" fill="#fff"/>
      <ellipse id="Ellipse_2-14" data-name="Ellipse 2" cx="7" cy="7.5" rx="7" ry="7.5" transform="translate(362 958)" fill="#fff"/>
      <ellipse id="Ellipse_2-15" data-name="Ellipse 2" cx="7.5" cy="7" rx="7.5" ry="7" transform="translate(194 986)" fill="#fff"/>
      <ellipse id="Ellipse_2-16" data-name="Ellipse 2" cx="7.5" cy="7" rx="7.5" ry="7" transform="translate(222 986)" fill="#fff"/>
      <circle id="Ellipse_2-17" data-name="Ellipse 2" cx="7" cy="7" r="7" transform="translate(250 986)" fill="#fff"/>
      <circle id="Ellipse_2-18" data-name="Ellipse 2" cx="7" cy="7" r="7" transform="translate(278 986)" fill="#fff"/>
      <circle id="Ellipse_2-19" data-name="Ellipse 2" cx="7" cy="7" r="7" transform="translate(306 986)" fill="#fff"/>
      <circle id="Ellipse_2-20" data-name="Ellipse 2" cx="7" cy="7" r="7" transform="translate(334 986)" fill="#fff"/>
      <circle id="Ellipse_2-21" data-name="Ellipse 2" cx="7" cy="7" r="7" transform="translate(362 986)" fill="#fff"/>
      <ellipse id="Ellipse_2-22" data-name="Ellipse 2" cx="7.5" cy="7" rx="7.5" ry="7" transform="translate(194 1014)" fill="#fff"/>
      <ellipse id="Ellipse_2-23" data-name="Ellipse 2" cx="7.5" cy="7" rx="7.5" ry="7" transform="translate(222 1014)" fill="#fff"/>
      <circle id="Ellipse_2-24" data-name="Ellipse 2" cx="7" cy="7" r="7" transform="translate(250 1014)" fill="#fff"/>
      <circle id="Ellipse_2-25" data-name="Ellipse 2" cx="7" cy="7" r="7" transform="translate(278 1014)" fill="#fff"/>
      <circle id="Ellipse_2-26" data-name="Ellipse 2" cx="7" cy="7" r="7" transform="translate(306 1014)" fill="#fff"/>
      <circle id="Ellipse_2-27" data-name="Ellipse 2" cx="7" cy="7" r="7" transform="translate(334 1014)" fill="#fff"/>
      <circle id="Ellipse_2-28" data-name="Ellipse 2" cx="7" cy="7" r="7" transform="translate(362 1014)" fill="#fff"/>
    </g>
  </g>
</svg>
