<svg xmlns="http://www.w3.org/2000/svg" width="281.424" height="240.164" viewBox="0 0 281.424 240.164">
  <g id="Coffee_Two_Color" data-name="Coffee_Two Color" transform="translate(-72.164 -33.416)">
    <path id="Path_193" data-name="Path 193" d="M350.665,143.366c-9.941-34.793-30.015-57.245-63.581-64.509C240.632,68.81,181.9,68.266,136.957,78.388c-16.746,3.765-33.566,10.794-45.2,24.4-21.588,25.226-27.412,80.839-6.88,108.688,9.141,12.394,24.415,17.066,38.8,19.828,54.76,10.666,110.928,4.746,166.392.341,12.863-1.067,26.26-2.133,37.332-9.28C351,207.236,358.344,170.245,350.665,143.366Z" transform="translate(0 2.507)" fill="#bfd4ed" opacity="0.18"/>
    <path id="Path_194" data-name="Path 194" d="M175.03,105.844c-3.786,1.781-8.65,1.408-11.114-2.389s-1.717-10.666,1.323-13.866A9.374,9.374,0,0,1,171.1,87.22c3.669-.459,7.4-.277,11.05-.9s7.36-2.229,9.365-5.333c3.786-5.9-7.221-5.61-10.208-5.962-5.877-.7-12.106-1.451-16.949-5.173-1.984-1.525-3.755-4.074-2.816-6.4s3.723-2.933,6.1-3.509a38.857,38.857,0,0,0,10.762-4.405c.7-.416,1.472-1.013,1.408-1.824s-.757-1.216-1.4-1.579a59.613,59.613,0,0,0-12.479-5.248c-2.944-.864-6.016-1.525-8.6-3.2A5.13,5.13,0,0,1,154.7,39.98c-.149-2.923,3.413-4.416,6.293-4.938a103.656,103.656,0,0,1,15.829-1.6c6.506-.16,13.269.373,18.943,3.552,2.667,1.483,5.258,4.213,4.544,7.178-.821,3.381-5.632,5.333-5.045,8.789a130.863,130.863,0,0,1,29.087,7.552c3.2,1.227,8.074,2.645,8.352,6.4.245,3.488-2.741,7.029-5.5,8.725-3.541,2.133-7.808,2.763-11.946,3.093a11.359,11.359,0,0,0-4.48.96,3.637,3.637,0,0,0-2.133,3.744c.48,2.133,3.424,3.125,3.786,5.333.3,1.813-1.355,3.328-2.965,4.2C203.317,96.319,195.882,95.8,188.9,95.4c-2.219-.128-4.661-.16-6.4,1.227s-2.261,3.68-3.381,5.557a9.6,9.6,0,0,1-4.085,3.658Z" transform="translate(5.498 0)" fill="#878ad6" opacity="0.3"/>
    <path id="Path_195" data-name="Path 195" d="M253.625,127.52l-2.176,20.436-.725,6.816-7.2,67.517-3.68,34.58H166.461l-3.68-34.58-2.315-21.7-4.885-45.822-2.9-27.252Z" transform="translate(5.364 6.269)" fill="#d5dbe3"/>
    <path id="Path_196" data-name="Path 196" d="M155.4,153.07l7.2,67.517h80.743l7.2-67.517Z" transform="translate(5.545 7.971)" fill="#878ad6" opacity="0.3"/>
    <path id="Path_205" data-name="Path 205" d="M17.162,0A17.162,17.162,0,1,1,0,17.162,17.162,17.162,0,0,1,17.162,0Z" transform="translate(191.354 180.891)" fill="#878ad6"/>
    <path id="Path_197" data-name="Path 197" d="M253.623,127.525l-2.133,20.436c-20.778,3.829-41.246,10.144-59.091,21.332a101.574,101.574,0,0,0-31.913,31.273L155.6,154.7l-2.9-27.252Z" transform="translate(5.365 6.264)" fill="#3e43b9" opacity="0.1"/>
    <path id="Path_198" data-name="Path 198" d="M259.282,123.526a2.923,2.923,0,0,0-2.923-2.837h-3.477l-2.741-13.8H201.365L187.552,95.634a8.117,8.117,0,0,0-5.12-1.824H166.092a8.074,8.074,0,0,0-7.925,6.506l-4.053,20.362h-3.477a2.923,2.923,0,0,0-2.923,2.837l-.224,6.848a2.933,2.933,0,0,0,2.933,3.019h106.15a2.933,2.933,0,0,0,2.933-3.019Z" transform="translate(5.018 4.023)" fill="#3e43b9"/>
    <rect id="Rectangle_34" data-name="Rectangle 34" width="236.149" height="10.592" rx="4.97" transform="translate(90.442 262.989)" fill="#e6e6e6"/>
    <path id="Path_199" data-name="Path 199" d="M276.784,240.052v.107a6.229,6.229,0,0,1-.395,2.133c-1.589,4.266-7.818,7.541-15.253,7.541-8.533,0-15.5-4.266-15.637-9.536a.921.921,0,0,1,0-.171,6.027,6.027,0,0,1,.384-2.133c1.557-4.341,7.8-7.584,15.263-7.584C269.723,230.453,276.688,234.751,276.784,240.052Z" transform="translate(11.547 13.123)" fill="#e6e6e6"/>
    <path id="Path_200" data-name="Path 200" d="M276.784,239.609v.107a6.229,6.229,0,0,1-.395,2.133,37.961,37.961,0,0,1-11.221,1.067c-3.435-.341-6.933-2.549-11.658-3.424a17.674,17.674,0,0,0-8.01.395.922.922,0,0,1,0-.171,6.027,6.027,0,0,1,.384-2.133,19.273,19.273,0,0,1,5.333-.491,19.914,19.914,0,0,1,5.472,1.067c1.984.672,3.872,1.621,5.9,2.133,4.266,1.163,8.757.416,12.97-.416Z" transform="translate(11.547 13.567)" opacity="0.05"/>
    <path id="Path_201" data-name="Path 201" d="M154.634,240.052v.107a6.229,6.229,0,0,1-.395,2.133c-1.589,4.266-7.818,7.541-15.253,7.541-8.533,0-15.5-4.266-15.637-9.536a.917.917,0,0,1,0-.171,6.026,6.026,0,0,1,.384-2.133c1.557-4.341,7.8-7.584,15.263-7.584C147.573,230.453,154.538,234.751,154.634,240.052Z" transform="translate(3.41 13.123)" fill="#e6e6e6"/>
    <path id="Path_202" data-name="Path 202" d="M154.634,239.609v.107a6.229,6.229,0,0,1-.395,2.133,37.962,37.962,0,0,1-11.221,1.067c-3.435-.341-6.933-2.549-11.658-3.424a17.674,17.674,0,0,0-8.01.395.918.918,0,0,1,0-.171,6.027,6.027,0,0,1,.384-2.133,19.274,19.274,0,0,1,5.333-.491,19.914,19.914,0,0,1,5.472,1.067c1.984.672,3.872,1.621,5.9,2.133,4.266,1.163,8.757.416,12.97-.416Z" transform="translate(3.41 13.567)" opacity="0.05"/>
    <path id="Path_203" data-name="Path 203" d="M301.606,246.776l-.053.1a6.336,6.336,0,0,1-1.44,1.664c-3.552,2.933-10.549,2.581-16.97-1.173-7.381-4.266-11.253-11.477-8.7-16.117l.075-.149a6.123,6.123,0,0,1,1.408-1.643c3.53-2.965,10.549-2.613,17,1.141C300.336,234.925,304.187,242.146,301.606,246.776Z" transform="translate(13.423 12.928)" fill="#e6e6e6"/>
    <path id="Path_204" data-name="Path 204" d="M302.223,246.652v.1a6.336,6.336,0,0,1-1.44,1.664,37.94,37.94,0,0,1-10.208-4.757c-3.371-2.432-5.237-6.154-8.341-8.832a17.758,17.758,0,0,0-7.125-3.7l.075-.149a6.122,6.122,0,0,1,1.408-1.643,19.2,19.2,0,0,1,4.832,2.261,19.839,19.839,0,0,1,4.213,3.626c1.376,1.579,2.528,3.349,4,4.853,3.072,3.136,7.36,4.768,11.413,6.176Z" transform="translate(13.52 13.052)" opacity="0.05"/>
  </g>
</svg>
