<svg id="_230_designer_flatline" data-name="#230_designer_flatline" xmlns="http://www.w3.org/2000/svg" width="363.733" height="320.549" viewBox="0 0 363.733 320.549">
  <path id="Path_108" data-name="Path 108" d="M71.574,242.528H433.9a.7.7,0,1,0,0-1.408H71.574a.7.7,0,1,0,0,1.408Z" transform="translate(-70.87 47.501)" fill="#d1d3d4"/>
  <rect id="Rectangle_25" data-name="Rectangle 25" width="80.884" height="138.868" transform="translate(31.041 166.513)" fill="#fff"/>
  <path id="Path_109" data-name="Path 109" d="M249.865,294.2h80.884a.7.7,0,0,0,.7-.7V154.624a.7.7,0,0,0-.7-.7H249.865a.7.7,0,0,0-.7.7v138.84a.7.7,0,0,0,.7.732Zm80.18-1.408H250.569V155.328h79.476Z" transform="translate(-218.824 11.889)" fill="#231f20"/>
  <rect id="Rectangle_26" data-name="Rectangle 26" width="80.884" height="138.868" transform="translate(253.878 166.513)" fill="#fff"/>
  <path id="Path_110" data-name="Path 110" d="M91.645,294.2h80.884a.7.7,0,0,0,.7-.7V154.624a.7.7,0,0,0-.7-.7H91.645a.7.7,0,0,0-.7.7v138.84a.7.7,0,0,0,.7.732Zm80.18-1.408H92.349V155.328h79.476Z" transform="translate(162.233 11.889)" fill="#231f20"/>
  <path id="Path_111" data-name="Path 111" d="M256.983,125.83,240.97,157.984h43.308Z" transform="translate(-160.114 0.417)" fill="#231f20"/>
  <path id="Path_112" data-name="Path 112" d="M241.248,158.89h43.266a.718.718,0,0,0,.648-.408.69.69,0,0,0-.113-.747l-27.295-32.154a.662.662,0,0,0-.62-.239.7.7,0,0,0-.549.38l-16,32.154a.676.676,0,0,0,0,.676.69.69,0,0,0,.662.338Zm41.787-1.408H242.389l15.028-30.168Z" transform="translate(-160.392 0.214)" fill="#231f20"/>
  <path id="Path_113" data-name="Path 113" d="M313.536,164.555H210.427L173.02,109.74h97.335Z" transform="translate(-93.671 -6.155)" fill="#231f20"/>
  <path id="Path_114" data-name="Path 114" d="M210.606,165.463H313.743a.7.7,0,0,0,.549-1.141l-43.182-54.815a.69.69,0,0,0-.549-.268H173.227a.732.732,0,0,0-.62.38.69.69,0,0,0,0,.732l37.407,54.8A.69.69,0,0,0,210.606,165.463Zm101.658-1.408H210.93l-36.449-53.406H270.2Z" transform="translate(-93.85 -6.359)" fill="#231f20"/>
  <path id="Path_115" data-name="Path 115" d="M258.659,113.52l30.816,39.928H212.957L184,113.52Z" transform="translate(-85.074 -4.611)" fill="#fff"/>
  <path id="Path_116" data-name="Path 116" d="M213.076,154.357h76.518a.7.7,0,0,0,.634-.394.746.746,0,0,0,0-.746L259.4,113.288a.69.69,0,0,0-.549-.268H184.2a.676.676,0,0,0-.62.38.69.69,0,0,0,0,.732l28.957,39.928A.69.69,0,0,0,213.076,154.357Zm75.082-1.408H213.513L185.5,114.4h72.927Z" transform="translate(-85.193 -4.815)" fill="#231f20"/>
  <path id="Path_117" data-name="Path 117" d="M192.442,143.971a.7.7,0,0,0,.662-.479c3.7-10.915,8.859-22.886,10.732-23.168h0c2.239,0,16.605,11.873,29.365,23.478a.708.708,0,0,0,.958-1.042c-4.422-4.014-26.407-23.83-30.45-23.83h-.155c-3.605.549-9.986,18.591-11.859,24.112a.69.69,0,0,0,.451.887.578.578,0,0,0,.3.042Z" transform="translate(-40.772 -2.401)" fill="#d1d3d4"/>
  <path id="Path_118" data-name="Path 118" d="M220.547,143.725a.7.7,0,0,0,.676-.521c2.479-8.8,6.014-18.2,7.676-18.689s9.38,6.479,15.661,13.183a.707.707,0,0,0,1.028-.972c-3.211-3.422-13.915-14.507-17.1-13.549s-7.746,16.535-8.619,19.718a.7.7,0,0,0,.479.873Z" transform="translate(-91.862 -0.691)" fill="#d1d3d4"/>
  <path id="Path_119" data-name="Path 119" d="M254.728,130.09c1.732,0,3.1-.831,3.1-1.887s-1.408-1.873-3.1-1.873-3.1.817-3.1,1.873S253,130.09,254.728,130.09Zm0-3.408c1.493,0,2.817.69,2.817,1.521s-1.253,1.535-2.817,1.535-2.746-.7-2.746-1.535,1.253-1.479,2.746-1.479Z" transform="translate(-148.676 0.621)" fill="#a7a9ac"/>
  <path id="Path_120" data-name="Path 120" d="M258.18,117.762h6.253a.176.176,0,0,0,0-.352H258.18a.176.176,0,0,0,0,.352Z" transform="translate(-164.437 -3.022)" fill="#a7a9ac"/>
  <path id="Path_121" data-name="Path 121" d="M266.392,157.514a.746.746,0,0,0,.423-.127.718.718,0,0,0,.155-.986L247,128.994a.7.7,0,0,0-.986-.155.718.718,0,0,0-.155.986l19.971,27.464A.718.718,0,0,0,266.392,157.514Z" transform="translate(-149.636 1.59)" fill="#fff"/>
  <path id="Path_122" data-name="Path 122" d="M222.339,122.537a3.1,3.1,0,1,0-3.1-3.1A3.1,3.1,0,0,0,222.339,122.537Zm0-4.789a1.676,1.676,0,1,1-1.2.491,1.69,1.69,0,0,1,1.2-.491Z" transform="translate(-70.668 -3.459)" fill="#d1d3d4"/>
  <rect id="Rectangle_27" data-name="Rectangle 27" width="317.904" height="13.478" transform="translate(27.605 159.597)" fill="#fff"/>
  <path id="Path_123" data-name="Path 123" d="M84.014,163.9H401.932a.7.7,0,0,0,.7-.7V149.714a.718.718,0,0,0-.7-.7H84.014a.718.718,0,0,0-.7.7v13.478A.7.7,0,0,0,84.014,163.9Zm317.214-1.408H84.775V150.4H401.228Z" transform="translate(-56.424 9.883)" fill="#231f20"/>
  <path id="Path_124" data-name="Path 124" d="M193.035,206.9c-.3,1,17.492,64.857,17.492,64.857l-24.858,4L156.29,187.53Z" transform="translate(32.9 25.615)" fill="#fff"/>
  <path id="Path_125" data-name="Path 125" d="M185.872,276.654h.113l24.858-4a.718.718,0,0,0,.493-.31.817.817,0,0,0,.085-.577c-6.943-24.872-17.281-62.491-17.478-64.6a.7.7,0,0,0-.38-.676l-36.745-19.365a.732.732,0,0,0-.789.085.747.747,0,0,0-.211.761L185.21,276.19A.69.69,0,0,0,185.872,276.654Zm23.943-5.281-23.492,3.789-28.647-85.983L192.6,207.573c.775,4.042,6.563,25.464,17.239,63.8Z" transform="translate(32.698 25.417)" fill="#231f20"/>
  <path id="Path_126" data-name="Path 126" d="M208.274,245.493l3.789,11.915-59.533,4.605a24.746,24.746,0,0,1,13.521-12.183c6.183-2.169,12.845-4.76,12.845-4.76l3.014,7.183Z" transform="translate(36.66 49.114)" fill="#231f20"/>
  <path id="Path_127" data-name="Path 127" d="M152.889,262.92h0l59.533-4.605a.7.7,0,0,0,.62-.915l-3.789-11.915a.7.7,0,0,0-.845-.465l-25.774,6.605-2.817-6.62a.69.69,0,0,0-.9-.38c-.07,0-6.718,2.606-12.831,4.746a25.352,25.352,0,0,0-13.929,12.563.7.7,0,0,0,0,.69.676.676,0,0,0,.732.3Zm58.6-5.943L154.1,261.427A24.154,24.154,0,0,1,166.635,250.7c5.028-1.761,10.422-3.817,12.239-4.507l2.746,6.535a.718.718,0,0,0,.831.423l25.717-6.563Z" transform="translate(36.301 48.911)" fill="#231f20"/>
  <path id="Path_128" data-name="Path 128" d="M136.329,201.88l4.225,67.265s14.281.493,17.859,3S164.906,286,164.906,286h-4.451s-2.591-8.45-5.436-9.464-19.013-1.408-19.013-1.408-7.8,3.014-9.056,8.183c-.986,4.07-.7,5.014-.7,5.014h-4.929a25.153,25.153,0,0,1,.986-6.845c.986-2.817,4.69-6.183,4.69-6.183s-8.155.169-10.873.169-5.549,5.183-5.549,5.183h-5.31s5.549-9.352,9.14-10.014,12.8-2.268,12.8-2.268L129.71,205.7Z" transform="translate(150.393 31.475)" fill="#231f20"/>
  <path id="Path_129" data-name="Path 129" d="M121.561,289.234h4.929a.761.761,0,0,0,.577-.282.732.732,0,0,0,.1-.634,14.915,14.915,0,0,1,.718-4.634c1.056-4.408,7.521-7.239,8.45-7.633,4.577.1,16.436.521,18.647,1.408,1.831.676,4.042,5.887,5,9a.718.718,0,0,0,.676.507h4.493a.718.718,0,0,0,.676-.887c-.113-.465-3.014-11.633-6.76-14.253-3.31-2.31-14.732-2.972-17.605-3.1l-4.141-66.645a.732.732,0,0,0-.366-.577.718.718,0,0,0-.676,0l-6.676,3.845a.69.69,0,0,0-.352.577l-2.493,62.11c-2.056.352-9.211,1.591-12.253,2.169-3.774.7-9.028,9.352-9.605,10.338a.7.7,0,0,0,0,.7.718.718,0,0,0,.62.366h5.31a.718.718,0,0,0,.62-.366c1.014-1.859,3.267-4.817,4.929-4.817,1.915,0,6.563-.084,9.126-.127a16.268,16.268,0,0,0-3.605,5.2,25.083,25.083,0,0,0-1.028,7.042A.7.7,0,0,0,121.561,289.234Zm4.225-1.408h-3.479a22.648,22.648,0,0,1,.93-5.915c.915-2.634,4.465-5.845,4.507-5.887a.718.718,0,0,0,.183-.775.761.761,0,0,0-.676-.451c-.084,0-8.169.169-10.859.169s-5.2,3.873-5.958,5.183H106.8c1.887-2.972,5.634-8.183,8-8.619,3.535-.662,12.676-2.239,12.788-2.253a.7.7,0,0,0,.592-.676l2.465-62.279L136,203.237l4.1,66.195a.7.7,0,0,0,.676.662c3.915.141,14.69.915,17.478,2.817,2.535,1.775,4.986,9,5.986,12.577h-3.014c-.648-1.986-2.958-8.45-5.634-9.422s-18.591-1.408-19.253-1.408h-.268c-.338.127-8.169,3.2-9.493,8.662a23.42,23.42,0,0,0-.817,4.507Zm15.042-18.492Z" transform="translate(150.091 31.287)" fill="#231f20"/>
  <path id="Path_130" data-name="Path 130" d="M227.422,171.42s-56.251,3-59.8,11.014,22.534,96.137,22.534,96.137-27.534,9.521-23.027,11.521,49.576-2,49.576-2L195.339,206.4,251,202.658Z" transform="translate(-22.134 19.035)" fill="#fff"/>
  <path id="Path_131" data-name="Path 131" d="M174.51,291.565c13.211,0,38.886-2.239,42.505-2.563a.7.7,0,0,0,.62-.887l-21.126-80.8,54.815-3.69a.76.76,0,0,0,.592-.408.69.69,0,0,0-.084-.718L228.241,171.2a.606.606,0,0,0-.592-.282c-.141,0-14.253.761-28.619,2.507-29.421,3.549-31.21,7.591-31.8,8.929-3.479,7.873,19.718,87.321,22.281,95.982-7.479,2.606-23.253,8.45-23.365,11.338a1.31,1.31,0,0,0,.915,1.268A25.956,25.956,0,0,0,174.51,291.565Zm41.562-3.9c-13.07,1.155-44.928,3.535-48.407,1.986h0c.93-1.7,12.507-6.563,23.013-10.183a.7.7,0,0,0,.437-.873c-7.211-24.436-25.351-89.278-22.534-95.658s43.012-9.718,58.815-10.577l22.534,29.957-54.364,3.676a.718.718,0,0,0-.535.282.8.8,0,0,0-.113.592ZM167.539,289.579Z" transform="translate(-22.432 18.83)" fill="#231f20"/>
  <path id="Path_132" data-name="Path 132" d="M269.225,147.533s-28.9,36.055-41.252,35.055-47.731-45.449-47.731-45.449c-6.394-7.634-13.549-17.323-8.971-27.844.451-1.014,1.239-2.1,2.338-2.014a2.985,2.985,0,0,1,1.282.521l3.944,2.422c-.127-1.084,1.253-1.859,2.31-1.563a4.76,4.76,0,0,1,2.422,2.113c4.1,5.831,6.746,11.38,6.521,18.563l41.351,21.126,16.408-18.154" transform="translate(-44.853 -7.161)" fill="#fff"/>
  <path id="Path_133" data-name="Path 133" d="M228.6,183.524c12.831,0,40.139-33.8,41.308-35.337a.7.7,0,0,0-1.1-.873c-.282.352-28.055,34.816-40.168,34.816h-.479c-11.915-.958-46.857-44.745-47.2-45.2-6.605-7.859-13.267-17.07-8.887-27.112.169-.394.76-1.648,1.634-1.591a2.324,2.324,0,0,1,.972.423l3.972,2.408a.7.7,0,0,0,1.07-.676.563.563,0,0,1,.254-.521,1.408,1.408,0,0,1,1.155-.282,4.225,4.225,0,0,1,2.042,1.845c3.465,4.929,6.634,10.535,6.394,18.14a.7.7,0,0,0,.38.648L231.3,151.342a.7.7,0,0,0,.845-.155L248.539,133a.7.7,0,0,0,0-1,.718.718,0,0,0-1,0l-16.028,17.718L191.02,129.089c.127-7.788-3.113-13.521-6.648-18.549a5.493,5.493,0,0,0-2.817-2.394,2.817,2.817,0,0,0-2.465.577,2.323,2.323,0,0,0-.479.577l-3.155-1.929a3.591,3.591,0,0,0-1.606-.62c-1.225-.1-2.31.8-3.014,2.437-5.1,11.69,4.113,22.675,9.07,28.576,1.408,1.8,35.661,44.688,48.181,45.7Z" transform="translate(-44.983 -7.378)" fill="#231f20"/>
  <path id="Path_134" data-name="Path 134" d="M124.888,133.324s14.887,33.731,9.366,37.337-39.125,0-39.125,0L98.044,127" transform="translate(194.087 0.894)" fill="#fff"/>
  <path id="Path_135" data-name="Path 135" d="M121.753,173.092c6.014,0,11.267-.423,13.183-1.69.958-.62,3.887-2.521-2.352-20.788-3-8.8-6.732-17.281-6.774-17.366a.7.7,0,1,0-1.282.563c5.634,12.831,13.267,34.055,9.633,36.407-4.225,2.817-28.168.958-38.027,0l2.817-42.97a.706.706,0,1,0-1.408-.1l-2.915,43.66a.7.7,0,0,0,.634.746C96.247,171.614,110.444,173.092,121.753,173.092Z" transform="translate(193.813 0.688)" fill="#231f20"/>
  <path id="Path_136" data-name="Path 136" d="M232.759,178.014s7.281,16.168-.479,26.365S116.792,215.8,116.792,215.8l-7.732-38.717,45.069-6.141,2.62-13.394Z" transform="translate(74.089 13.371)" fill="#fff"/>
  <path id="Path_137" data-name="Path 137" d="M116.864,216.722h0c.268,0,27.267-.324,54.928-1.887,37.252-2.113,57.843-5.422,61.195-9.859,7.915-10.394.873-26.393.563-27.069a.69.69,0,0,0-.465-.394l-76.054-20.464a.662.662,0,0,0-.563.085.69.69,0,0,0-.31.451L153.638,170.5l-44.519,6.056a.676.676,0,0,0-.479.3.662.662,0,0,0-.113.535l7.648,38.759A.7.7,0,0,0,116.864,216.722Zm115.489-37.9c.915,2.239,6.31,16.366-.535,25.351-5.943,7.8-77.068,10.7-114.376,11.155l-7.479-37.421,44.28-6.028a.7.7,0,0,0,.592-.563L157.3,158.64Z" transform="translate(73.988 13.154)" fill="#231f20"/>
  <path id="Path_138" data-name="Path 138" d="M198.132,91.133a9.69,9.69,0,0,0,2.817-2.563,14.859,14.859,0,0,0,2.253-5c3.817-13.8,3.845-31.478-8.45-40.928a28.562,28.562,0,0,0-25.83-4.577c-5.972,1.944-11.042,10.155-13.7,15.492-2.183,4.324-3.662,9.028-6.253,13.112s-6.718,7.662-11.563,7.9a14.591,14.591,0,0,0,12.676.761,8.267,8.267,0,0,1-8.38,3.141c2.817,2.239,6.845,2.155,10.394,1.408s7.042-1.873,10.69-1.408c5.634.634,9.3,4.774,13.7,7.774C182.076,89.907,191.738,94.837,198.132,91.133Z" transform="translate(64.577 -35.954)" fill="#fff"/>
  <path id="Path_139" data-name="Path 139" d="M193,93.4a11.028,11.028,0,0,0,5.634-1.408h0a10.1,10.1,0,0,0,3.056-2.817,15.689,15.689,0,0,0,2.366-5.3c1.859-6.76,6.76-29.774-8.662-41.66a29.2,29.2,0,0,0-26.492-4.69C162.508,39.6,157.311,48.3,154.818,53.3c-.845,1.69-1.606,3.451-2.324,5.155a55.689,55.689,0,0,1-3.887,7.915c-1.408,2.183-5.239,7.281-11,7.563a.69.69,0,0,0-.648.535.676.676,0,0,0,.338.775,15.323,15.323,0,0,0,10.281,1.676,7.465,7.465,0,0,1-5.521.93.7.7,0,0,0-.606,1.239c2.521,1.986,6.211,2.521,10.971,1.606.845-.155,1.69-.352,2.535-.549a23.83,23.83,0,0,1,7.929-.9c3.986.451,6.943,2.817,10.084,5.2,1.07.831,2.169,1.676,3.31,2.465C179.564,89.187,186.606,93.4,193,93.4ZM177.578,37.64a27.929,27.929,0,0,1,16.985,5.746c14.718,11.366,9.971,33.618,8.155,40.182a14.239,14.239,0,0,1-2.155,4.817,8.774,8.774,0,0,1-2.634,2.38h0c-6.788,3.944-17.7-2.817-20.887-4.972-1.1-.746-2.183-1.591-3.225-2.408-3.155-2.451-6.422-4.986-10.8-5.479a24.83,24.83,0,0,0-8.45.93c-.831.183-1.662.38-2.493.535a15.7,15.7,0,0,1-7.127,0,9.042,9.042,0,0,0,5.817-3.521.7.7,0,0,0,0-.845.676.676,0,0,0-.817-.211A13.985,13.985,0,0,1,140,75a17.2,17.2,0,0,0,9.732-7.845,55.557,55.557,0,0,0,4-8.112c.718-1.676,1.408-3.422,2.3-5.07,1.944-3.873,7.141-13.084,13.281-15.07a26.76,26.76,0,0,1,8.267-1.268Z" transform="translate(64.399 -36.192)" fill="#231f20"/>
  <path id="Path_140" data-name="Path 140" d="M169.015,68.25s-3.845,12.028-1.831,13.732,6.2-.972,6.2-.972" transform="translate(55.527 -23.099)" fill="#fff"/>
  <path id="Path_141" data-name="Path 141" d="M169.094,83.466a10.492,10.492,0,0,0,4.831-1.662.7.7,0,1,0-.761-1.183c-.986.62-4.07,2.155-5.352,1.028-.972-.831.282-7.38,2.084-12.971a.718.718,0,0,0-.465-.887.7.7,0,0,0-.887.451c-.93,2.929-3.817,12.676-1.648,14.478a3.211,3.211,0,0,0,2.2.746Z" transform="translate(55.32 -23.301)" fill="#231f20"/>
  <path id="Path_142" data-name="Path 142" d="M138.591,60.718c-3.282,4.676,0,11.69,1.408,16.464q2.915,10.084,6.3,20.013c1.408,4.225,12.507,1.169,14.084-.648l3.014,17.337,23.337-8.07-7.507-21.027s-7.507,2.169-14.267-5.31S153.492,52.93,153.492,52.93,141.788,56.141,138.591,60.718Z" transform="translate(83.612 -29.356)" fill="#fff"/>
  <path id="Path_143" data-name="Path 143" d="M163.522,114.781h.225l23.351-8.042a.676.676,0,0,0,.408-.352.817.817,0,0,0,0-.549l-7.45-21.1a.69.69,0,0,0-.845-.437c-.3.07-7.2,1.929-13.563-5.112s-11.267-26.041-11.267-26.238a.676.676,0,0,0-.324-.437.7.7,0,0,0-.535,0c-.493.141-12,3.338-15.309,8.056h0c-2.929,4.225-1.042,9.859.493,14.507.3.9.577,1.76.817,2.563,1.944,6.69,4.056,13.436,6.31,20.042a3.887,3.887,0,0,0,3.239,2.352,19.225,19.225,0,0,0,11-2.056l2.817,16.225a.662.662,0,0,0,.338.479.634.634,0,0,0,.3.1Zm22.436-9.211-21.887,7.577-2.817-16.535a.7.7,0,0,0-1.225-.338c-1.014,1.169-7.112,3.084-10.69,2.38-1.211-.239-1.944-.746-2.2-1.507-2.239-6.577-4.366-13.3-6.3-19.971-.239-.817-.535-1.69-.831-2.62-1.408-4.3-3.211-9.648-.676-13.253s11.267-6.535,13.831-7.3c.944,3.591,5.31,19.337,11.45,26.126,5.9,6.521,12.3,6.028,14.338,5.634Z" transform="translate(83.497 -29.547)" fill="#231f20"/>
  <path id="Path_144" data-name="Path 144" d="M161.54,82.046s6.127,1.746,7.38-4.436" transform="translate(67.114 -19.276)" fill="#fff"/>
  <path id="Path_145" data-name="Path 145" d="M163.543,83.184a6.592,6.592,0,0,0,3.451-.873,6.31,6.31,0,0,0,2.817-4.352.718.718,0,1,0-1.409-.282A4.958,4.958,0,0,1,166.29,81.1a6.3,6.3,0,0,1-4.38.479.729.729,0,0,0-.38,1.408A8.31,8.31,0,0,0,163.543,83.184Z" transform="translate(66.983 -19.485)" fill="#231f20"/>
  <path id="Path_146" data-name="Path 146" d="M151.83,71.938a9.563,9.563,0,0,1,.577-5.155,14.2,14.2,0,0,1,1.577-3.746,4.676,4.676,0,0,1,3.324-2.127,4.225,4.225,0,0,1,3.225,1.408,7.831,7.831,0,0,1,1.775,3.1,15,15,0,0,1-3.056,14.633l.268-.507" transform="translate(86.837 -26.097)" fill="#fff"/>
  <path id="Path_147" data-name="Path 147" d="M159.457,80.959a.732.732,0,0,0,.521-.225A15.816,15.816,0,0,0,163.19,65.34a8.45,8.45,0,0,0-1.944-3.366,5,5,0,0,0-3.789-1.563,5.211,5.211,0,0,0-3.845,2.437,14.62,14.62,0,0,0-1.676,3.929,10.211,10.211,0,0,0-.592,5.535.718.718,0,0,0,.873.507.7.7,0,0,0,.493-.859,9.112,9.112,0,0,1,.577-4.76,12.8,12.8,0,0,1,1.493-3.549,3.873,3.873,0,0,1,2.817-1.831,3.549,3.549,0,0,1,2.676,1.141,7.14,7.14,0,0,1,1.62,2.817,14.38,14.38,0,0,1-2.3,13.267.761.761,0,0,0-.465.366l-.253.507a.69.69,0,0,0,.225.9.662.662,0,0,0,.352.141Z" transform="translate(86.632 -26.302)" fill="#231f20"/>
  <ellipse id="Ellipse_19" data-name="Ellipse 19" cx="2.493" cy="0.986" rx="2.493" ry="0.986" transform="translate(224.642 41.992) rotate(-102.61)" fill="#231f20"/>
  <path id="Path_148" data-name="Path 148" d="M149.586,85.791a86.1,86.1,0,0,0,8.774-6.521s1.408,12.2-6.943,15Z" transform="translate(94.419 -18.598)" fill="#231f20"/>
  <path id="Path_149" data-name="Path 149" d="M151.615,95.167a.634.634,0,0,0,.225,0c8.76-2.944,7.479-15.225,7.422-15.746a.718.718,0,0,0-.437-.577.732.732,0,0,0-.718.113,87.322,87.322,0,0,1-8.7,6.479.718.718,0,0,0-.31.732l1.831,8.45a.718.718,0,0,0,.338.465.774.774,0,0,0,.352.085Zm6.31-14.267c0,3.014-.394,10.211-5.8,12.605l-1.549-7.2A87.4,87.4,0,0,0,157.925,80.9Z" transform="translate(94.221 -18.792)" fill="#231f20"/>
  <path id="Path_150" data-name="Path 150" d="M194.983,212.12s-1.268-86.194-14.2-106.038S134.309,81.759,118.31,93.59s-8.3,102.25-8.3,102.25S161.026,212.12,194.983,212.12Z" transform="translate(116.231 -15.398)" fill="#3e43b9"/>
  <path id="Path_151" data-name="Path 151" d="M212.4,88.11a93.405,93.405,0,0,0-23.6,13.929c-11.07,9.2-34.435,48.745-34.435,48.745l30.816,18.661,27.661-34.111Z" transform="translate(33.309 -14.988)" fill="#3e43b9"/>
  <path id="Path_152" data-name="Path 152" d="M98.51,91.92s16.126,1.817,24.661,19.52c4.62,9.605,16.45,40.618,16.45,40.618l-35.576,4.1Z" transform="translate(185.184 -13.432)" fill="#3e43b9"/>
  <path id="Path_153" data-name="Path 153" d="M153.054,155.591a.69.69,0,0,0,.563-.3L181.1,117.874a.7.7,0,0,0-.141-.986.718.718,0,0,0-.986.155l-27.478,37.421a.7.7,0,0,0,.563,1.127Z" transform="translate(67.741 -3.289)" fill="#231f20"/>
  <path id="Path_154" data-name="Path 154" d="M239.614,120.487,232.741,99.15l-2.141.62,4.324,21.041S237.966,123.741,239.614,120.487Z" transform="translate(-100.844 -10.48)" fill="#231f20"/>
  <path id="Path_155" data-name="Path 155" d="M237.718,122.929h.479a3.155,3.155,0,0,0,2.268-1.887.7.7,0,0,0,0-.535l-6.831-21.365a.732.732,0,0,0-.873-.465l-2.141.62a.7.7,0,0,0-.493.817l4.324,21.126a.676.676,0,0,0,.2.352A4.972,4.972,0,0,0,237.718,122.929Zm1.408-2.324a1.676,1.676,0,0,1-1.113.9,3.1,3.1,0,0,1-2.169-.859l-4.155-20.182.859-.239Z" transform="translate(-101.061 -10.682)" fill="#231f20"/>
  <path id="Path_156" data-name="Path 156" d="M134.958,80.352c12.676-2.817,26.76-.845,37,7.042a26.182,26.182,0,0,1,9.338,12.676,16.591,16.591,0,0,1-2.62,15.183c-9.718,11.676-31.055,11.619-44.252,7.8-9-2.591-35.647-15.239-28.309-27.661C111.4,86.507,125.451,82.395,134.958,80.352Z" transform="translate(133.779 -18.653)" fill="#3e43b9"/>
  <path id="Path_157" data-name="Path 157" d="M156.636,119.341a49.928,49.928,0,0,0,23.844-6.859.69.69,0,0,0,.225-.972.7.7,0,0,0-.972-.211c-.169.113-17.591,10.943-34.083,4.69-7.915-3-12.676-8.324-17.225-13.464-5.028-5.634-9.774-10.957-17.971-11.7a.7.7,0,0,0-.761.648.69.69,0,0,0,.634.761c7.634.69,12,5.634,17.042,11.267,4.479,5.028,9.549,10.718,17.788,13.845A32.393,32.393,0,0,0,156.636,119.341Z" transform="translate(128.241 -13.882)" fill="#231f20"/>
  <path id="Path_158" data-name="Path 158" d="M114.938,170.248h0a.7.7,0,0,0,.676-.732c-1.028-22.295-5.634-54.378-5.634-54.7a.718.718,0,0,0-.8-.592.7.7,0,0,0-.592.789c0,.324,4.662,32.393,5.634,54.561a.7.7,0,0,0,.718.676Z" transform="translate(195.009 -4.327)" fill="#231f20"/>
  <path id="Path_159" data-name="Path 159" d="M248.129,255.583H218.2s-3.253-7.253-10.267-8.253c0,0-27.295,11.535-23.281,13.9s65.589,2.113,65.589,2.113Z" transform="translate(-46.193 50.037)" fill="#231f20"/>
  <path id="Path_160" data-name="Path 160" d="M244.164,264.269h6.3a.69.69,0,0,0,.549-.268.7.7,0,0,0,.127-.62l-2.113-7.76a.7.7,0,0,0-.69-.521H218.841c-.831-1.62-4.225-7.338-10.605-8.253a.648.648,0,0,0-.366,0c-5.634,2.366-23.943,10.366-24.126,13.859a1.408,1.408,0,0,0,.746,1.3C187.913,264.058,227.841,264.269,244.164,264.269Zm5.366-1.408c-24.689.07-61.533-.38-64.322-2.028,0-1.746,11.929-7.873,23.027-12.577,6.394,1.042,9.493,7.76,9.521,7.831a.7.7,0,0,0,.648.408H247.8Z" transform="translate(-46.397 49.829)" fill="#231f20"/>
  <path id="Path_161" data-name="Path 161" d="M100.724,236.831c-19.056-4.014-31.83-12.929-24.337-24.957s61.308-4.225,71.828-13.14,6.76-56.2,18.309-64.293,61.054-16.281,66.589-6.056,0,84.631-16.126,101.151S119.314,240.662,100.724,236.831Z" transform="translate(123.832 -0.49)" fill="#f0f4f9"/>
  <path id="Path_162" data-name="Path 162" d="M156.822,241.775h3.183c21.408-.183,48.8-2.338,57.744-11.464,15.943-16.45,22.168-90.884,16.182-102-1.028-1.9-3.38-3.3-7.042-4.225-15.309-3.634-50.7,2.986-60.561,9.859-6.211,4.352-8.141,19.182-10.014,33.52-1.7,13.1-3.465,26.633-8.38,30.816-4.676,3.972-19.042,4.549-32.942,5.112-17.112.69-34.816,1.408-39.055,8.2-2.451,3.944-2.929,7.746-1.408,11.267,2.817,6.507,12.084,11.732,26.21,14.7h0C110.444,239.7,134.161,241.775,156.822,241.775Zm59.364-117.221a47.337,47.337,0,0,1,10.422.972c3.211.761,5.267,1.93,6.084,3.465,5.465,10.1-.493,84.377-16.014,100.32-15.788,16.211-96.912,10.915-115.6,7.042h0c-13.478-2.817-22.661-7.887-25.21-13.887-1.324-3.1-.887-6.465,1.31-10,3.845-6.169,21.126-6.859,37.914-7.535,14.788-.592,28.76-1.155,33.8-5.451,5.324-4.535,7.042-17.732,8.859-31.7s3.718-28.562,9.436-32.548C174.794,129.863,199.3,124.554,216.186,124.554Zm-115.263,112.5Z" transform="translate(123.632 -0.715)" fill="#231f20"/>
  <path id="Path_163" data-name="Path 163" d="M162.828,179.085h.113l45.407-7.943a.714.714,0,1,0-.239-1.408L162.7,177.676a.707.707,0,0,0,.127,1.408Z" transform="translate(26.362 18.342)" fill="#d1d3d4"/>
  <path id="Path_164" data-name="Path 164" d="M280.591,259.488l1.408-.155c0-.408-4.436-41.182,9.676-59.294l-1.113-.859c-6.084,7.8-9.619,20.337-10.479,37.252a158.757,158.757,0,0,0,.507,23.056Z" transform="translate(-222.312 30.373)" fill="#231f20"/>
  <path id="Path_165" data-name="Path 165" d="M281.474,256.811a4.831,4.831,0,0,0-.141-1.408c-3.366-21.337,2.338-31.28,7.718-35.872l-.915-1.07c-5.634,4.817-11.661,15.183-8.2,37.168.085.535.141.887.141,1.028Z" transform="translate(-218.336 38.247)" fill="#231f20"/>
  <path id="Path_166" data-name="Path 166" d="M274.126,213.134a8.056,8.056,0,0,1,3.746-1.1,8.633,8.633,0,0,1,6.634,1.817c.465.451.873,1.211.451,1.7a1.676,1.676,0,0,1-.9.423,5.634,5.634,0,0,0-3.873,3.873c.972-.718,1.8-1.634,2.817-2.352a4.746,4.746,0,0,1,3.366-1.1,5.634,5.634,0,0,1,3.282,2.2,13.04,13.04,0,0,1,2.239,3.282,6.042,6.042,0,0,1,.507,3.9,9.394,9.394,0,0,0-3.958-.268,4.676,4.676,0,0,0-2.563,1.056,1.282,1.282,0,0,0-.451.676,1.127,1.127,0,0,0,.887,1.2,3.578,3.578,0,0,0,1.634,0,28.713,28.713,0,0,1,3.479-.493,3.422,3.422,0,0,1,1.31.085,2.817,2.817,0,0,1,1.408,2.9,1.718,1.718,0,0,1-.493,1.282c-.577.451-1.408.127-2.084-.155a10.226,10.226,0,0,0-3.718-.789.859.859,0,0,0-.422.07.62.62,0,0,0-.113.915,1.676,1.676,0,0,0,.9.521,19.576,19.576,0,0,0,2.958.69c.577.084,1.254.211,1.535.732a1.591,1.591,0,0,1,.155.732,9.013,9.013,0,0,1-1.577,5.366,2.577,2.577,0,0,1-.676.732,2.914,2.914,0,0,1-1.254.338,20.534,20.534,0,0,1-9.859-1.408.873.873,0,0,1-.408-.3c-.183-.324.127-.7.366-.986,1.042-1.282.8-3.127.507-4.746a1.408,1.408,0,0,0-.366-.845.944.944,0,0,0-1.268.2,2.38,2.38,0,0,0-.465,1.324,12.352,12.352,0,0,0,.394,4.972,25.18,25.18,0,0,1-4.718-1.606,14.577,14.577,0,0,1-3.436-1.9,5.634,5.634,0,0,1-2.1-3.239,1.042,1.042,0,0,1,.07-.718,1.169,1.169,0,0,1,.423-.366,8.9,8.9,0,0,0,3.324-3.915c.141-.338.211-.8-.1-.972a.676.676,0,0,0-.408,0c-1.775.3-2.676,2.282-4.141,3.338a.746.746,0,0,1-.408.169.648.648,0,0,1-.479-.211,3.789,3.789,0,0,1-1.141-2.056,7.423,7.423,0,0,1,.254-4.69,5.31,5.31,0,0,1,3.437-3.084,6.07,6.07,0,0,1,2.2-.1c.254,0,1.606.479,1.789.31s-.535-1.183-.7-1.521C271.2,216.937,272.422,214.261,274.126,213.134Z" transform="translate(-203.678 35.587)" fill="#231f20"/>
  <path id="Path_167" data-name="Path 167" d="M327.142,205.716a6.789,6.789,0,0,1,5.634,2.915,7.775,7.775,0,0,1,.986,4.873,22.533,22.533,0,0,1-1.211,4.887,6.887,6.887,0,0,0-5.38-3.507c-2.3-.2.38,2.014.775,2.479,1.3,1.521,2.535,3.084,3.76,4.662a2.211,2.211,0,0,1,.211,3,14.4,14.4,0,0,1-4.225,5.394,1.746,1.746,0,0,1-1.831.3,2.042,2.042,0,0,1-.62-.9,16.057,16.057,0,0,0-2.606-3.887c-.254-.3-.662-.592-.986-.38s-.268.535-.239.845l.3,3.141a7.45,7.45,0,0,1-.2,3.394c-.746,2-3,3-5.1,3.394a3.337,3.337,0,0,1-1.746,0c-1.127-.394-1.591-1.732-1.789-2.915a8.661,8.661,0,0,0-1.845-4.225A15.759,15.759,0,0,1,309.1,235a7.873,7.873,0,0,1-2.07,2.493,7.437,7.437,0,0,1-3.056,1.268,22.956,22.956,0,0,1-5.634.31,14.084,14.084,0,0,1-3.859-.493,5.225,5.225,0,0,1-3.042-2.3c-1.113-2-.254-4.577,1.183-6.352s3.38-3.1,4.873-4.831a13.633,13.633,0,0,0-5.084,2.648,1.887,1.887,0,0,1-1.408.648,1.254,1.254,0,0,1-.648-.366c-2.225-2.225.338-5.986,1.521-7.986a6.493,6.493,0,0,1,3.155-3.239,5.154,5.154,0,0,1,2.535,0c1.268.211,7.549,3.07,4.873-.69a7.38,7.38,0,0,0-5.831-2.549c-1.084.1-2.732.972-2.7-1.056a3.8,3.8,0,0,1,.817-1.986,43.568,43.568,0,0,1,2.817-3.76,1.845,1.845,0,0,1,1.056-.746,1.8,1.8,0,0,1,1.056.3,24.026,24.026,0,0,0,8.366,3.127c.676,0,1.62-.211,1.507-.873a.986.986,0,0,0-.437-.577c-1.789-1.408-4.465-.8-6.3-2.1a2.2,2.2,0,0,1-1-1.577,3.147,3.147,0,0,1,1.535-2.268,13.352,13.352,0,0,1,6.718-3.113c3.7-.3,7.042,2.141,9.535,4.915.831.944,1.408,3.394,2.69,3.239a21.414,21.414,0,0,0,2.366-1A8.069,8.069,0,0,1,327.142,205.716Z" transform="translate(-277.975 30.259)" fill="#231f20"/>
  <path id="Path_168" data-name="Path 168" d="M262.3,191.451a6.141,6.141,0,0,1,1.845-3.746c1.887-1.718,4.718-1.8,7.239-1.408a37.025,37.025,0,0,1,5.549,1.648c1.817.521,2.352.93.732,2.408-1.141,1.028-4.225,4.7-2.817,6.465s3.774-2.732,4.69-3.479a6.7,6.7,0,0,1,4.451-1.9,6.943,6.943,0,0,1,3.831,2.028,40.4,40.4,0,0,1,3.127,3.084,1.563,1.563,0,0,1,.366.549c.225.817-.887,1.3-1.718,1.408-2.38.437-5.042,1.676-5.521,4.042,2.451.606,4.76-1.873,7.267-1.606a5.7,5.7,0,0,1,4.014,3.563,9.042,9.042,0,0,1,.606,5.028,13.436,13.436,0,0,0-6.591-.563,1.141,1.141,0,0,0-.732.324.817.817,0,0,0,.324,1.1,2.17,2.17,0,0,0,1.239.211h4.084a1.774,1.774,0,0,1,1.141.268,1.605,1.605,0,0,1,.451,1.056,22.081,22.081,0,0,1,.07,5.634,4.788,4.788,0,0,1-1.282,3.127,4.915,4.915,0,0,1-2.169.93,28.647,28.647,0,0,1-6.3.789,4.958,4.958,0,0,0,.634-4.549c-.845-1.972-2.282-.831-2.352.958,0,.845.155,1.676.183,2.521a.887.887,0,0,1-.084.465.845.845,0,0,1-.324.254,5.169,5.169,0,0,1-3.662.479,2.352,2.352,0,0,1-.972-.437,3.056,3.056,0,0,1-.592-2.817l.577-5.084a.789.789,0,0,0-.141-.69c-.253-.254-.7,0-.972.2a4.563,4.563,0,0,0-1.521,3.7c0,.8.338,1.577.394,2.366a2.3,2.3,0,0,1-.845,2.127,2.817,2.817,0,0,1-2.169.113,4.225,4.225,0,0,1-2.465-1.282,3.8,3.8,0,0,1-.465-2.986,18.879,18.879,0,0,0,.592-3.056c0-2.084-2.141-5.07-2.493-1.408a25.527,25.527,0,0,0,.211,3.577,1.042,1.042,0,0,1,0,.465.958.958,0,0,1-.8.38,8.9,8.9,0,0,1-4.8-.93,7.492,7.492,0,0,1-2.62-2.113,12.377,12.377,0,0,1-1.31-2.352c-1.7-3.62-4.422-6.45-1.253-10.324,1.084-1.324,3.1-1.676,4.113-3.028,1.2-1.606-.648-4.155-.718-6.169a8.612,8.612,0,0,1-.042-1.338Z" transform="translate(-195.19 25.032)" fill="#231f20"/>
  <path id="Path_169" data-name="Path 169" d="M310.184,239H274.27l2.817,26.957a8.028,8.028,0,0,0,8,7.211h14.352a8.028,8.028,0,0,0,7.986-7.21Z" transform="translate(-232.919 46.635)" fill="#fff"/>
  <path id="Path_170" data-name="Path 170" d="M285.136,274.118h14.408a8.746,8.746,0,0,0,8.718-7.873l2.817-26.957a.761.761,0,0,0-.183-.549.733.733,0,0,0-.549-.239H274.433a.69.69,0,0,0-.535.239.662.662,0,0,0-.183.549l2.817,26.957A8.732,8.732,0,0,0,285.136,274.118Zm24.351-34.168L306.812,266.1a7.3,7.3,0,0,1-7.267,6.563H285.136a7.3,7.3,0,0,1-7.267-6.563l-2.69-26.154Z" transform="translate(-233.026 46.431)" fill="#231f20"/>
  <path id="Path_171" data-name="Path 171" d="M301.441,252.933c0-.254,2.817-26.055-9.859-46.843l-1.211.732c12.408,20.365,9.647,45.688,9.619,45.942Z" transform="translate(-247.119 33.195)" fill="#231f20"/>
  <path id="Path_172" data-name="Path 172" d="M286.821,208.637a.719.719,0,0,0,.479-.2.7.7,0,0,0,0-1c-7.352-7.746-18.929-12.464-19.422-12.676a.7.7,0,1,0-.521,1.31c.113,0,11.788,4.789,18.929,12.323A.7.7,0,0,0,286.821,208.637Z" transform="translate(-199.88 28.549)" fill="#fff"/>
  <path id="Path_173" data-name="Path 173" d="M281.047,234.4a.7.7,0,0,0,.62-1.028,58.574,58.574,0,0,0-10.056-13.661.69.69,0,0,0-.986,0,.7.7,0,0,0,0,.986,57.537,57.537,0,0,1,9.774,13.309A.718.718,0,0,0,281.047,234.4Z" transform="translate(-199.064 38.673)" fill="#fff"/>
  <path id="Path_174" data-name="Path 174" d="M300.683,229.214a.732.732,0,0,0,.592-.31c.338-.521,8.45-12.676,18.07-19.858a.7.7,0,0,0,.141-.986.718.718,0,0,0-.986-.141c-9.605,7.253-17.521,18.9-18.394,20.2a.7.7,0,0,0,.2.972A.648.648,0,0,0,300.683,229.214Z" transform="translate(-278.585 33.886)" fill="#fff"/>
  <rect id="Rectangle_28" data-name="Rectangle 28" width="85.504" height="60.026" transform="translate(25.83 18.462)" fill="#fff"/>
  <path id="Path_175" data-name="Path 175" d="M250.284,110.234h85.49a.7.7,0,0,0,.7-.7V49.5a.7.7,0,0,0-.7-.7h-85.49a.7.7,0,0,0-.7.7V109.53A.7.7,0,0,0,250.284,110.234Zm84.786-1.408H250.988V50.208H335.07Z" transform="translate(-224.44 -31.042)" fill="#d1d3d4"/>
  <path id="Path_176" data-name="Path 176" d="M282.027,139.552a.718.718,0,0,0,.7-.592l3.465-22.478,6.056,2.676a.7.7,0,0,0,.929-.366.69.69,0,0,0-.366-.915l-6.915-2.986a.69.69,0,0,0-.62,0,.719.719,0,0,0-.366.507l-3.606,23.309a.69.69,0,0,0,.592.8Z" transform="translate(-225.874 -4.081)" fill="#231f20"/>
  <path id="Path_177" data-name="Path 177" d="M285.5,160.516h17.633l.958-37.956H284.54Z" transform="translate(-241.288 -0.919)" fill="#fff"/>
  <path id="Path_178" data-name="Path 178" d="M285.606,161.411h17.633a.7.7,0,0,0,.7-.676l1.014-37.942a.718.718,0,0,0-.2-.507.733.733,0,0,0-.507-.225H284.7a.746.746,0,0,0-.7.732l.958,38.027A.7.7,0,0,0,285.606,161.411Zm16.9-1.408H286.253l-.915-36.548h18.14Z" transform="translate(-241.396 -1.123)" fill="#231f20"/>
  <rect id="Rectangle_29" data-name="Rectangle 29" width="23.126" height="3.845" transform="translate(41.463 117.796)" fill="#fff"/>
  <path id="Path_179" data-name="Path 179" d="M283.474,124.583H306.6a.7.7,0,0,0,.7-.7v-3.845a.7.7,0,0,0-.7-.7H283.474a.7.7,0,0,0-.7.7v3.845A.7.7,0,0,0,283.474,124.583Zm22.422-1.408H284.178v-2.437H305.9Z" transform="translate(-242.011 -2.238)" fill="#231f20"/>
  <path id="Path_180" data-name="Path 180" d="M292.98,145.3a8.45,8.45,0,1,0-7.732-8.45A8.112,8.112,0,0,0,292.98,145.3Zm0-15.422a7.042,7.042,0,1,1-6.324,7.042A6.7,6.7,0,0,1,292.98,129.88Z" transform="translate(-240.334 1.479)" fill="#d1d3d4"/>
  <path id="Path_181" data-name="Path 181" d="M271.25,95.084a15.732,15.732,0,0,0,5.07-.873,34.224,34.224,0,0,0,6.155-2.62h0c.479-.268.944-.577,1.408-.887a10.253,10.253,0,0,0,4.521-6.774,4.507,4.507,0,0,0-.479-2.958,6.775,6.775,0,0,0-3.1-2.352,8.042,8.042,0,0,1-2.253-1.408c-1.408-1.507-.859-3.7-.3-6.028.155-.592.3-1.169.408-1.732A12.183,12.183,0,0,0,280.01,59.2a12.408,12.408,0,0,0-10.464-4.07c-5.465.62-9.774,3.253-11.831,7.211a12.225,12.225,0,0,0,.577,11.746,6.746,6.746,0,0,1,1.239,3.662,6.311,6.311,0,0,1-1.76,3.042,7.971,7.971,0,0,0-2.056,3.676c-.338,2.31,1.183,4.521,4.648,6.76a19.957,19.957,0,0,0,10.887,3.859Zm10.521-4.732a32.493,32.493,0,0,1-5.9,2.521c-5.943,2.028-10.605-.183-14.76-2.817-2.958-1.93-4.225-3.676-4.014-5.38a6.788,6.788,0,0,1,1.746-2.986,7.576,7.576,0,0,0,2.07-3.789,7.591,7.591,0,0,0-1.338-4.394,10.915,10.915,0,0,1-.62-10.521c1.831-3.535,5.746-5.887,10.732-6.465a10.943,10.943,0,0,1,9.253,3.605,10.788,10.788,0,0,1,2.352,9.056c-.113.535-.253,1.1-.394,1.662-.606,2.465-1.3,5.267.634,7.324a9.084,9.084,0,0,0,2.662,1.746,5.634,5.634,0,0,1,2.507,1.817,3.155,3.155,0,0,1,.3,2.056,8.972,8.972,0,0,1-3.958,5.8,15.078,15.078,0,0,1-1.268.831Z" transform="translate(-185.014 -28.483)" fill="#d1d3d4"/>
  <path id="Path_182" data-name="Path 182" d="M282.375,90.3A28.28,28.28,0,0,0,292.9,88.117l.7-.282a9.042,9.042,0,0,1,9.563.366,17.055,17.055,0,0,0,4.9,1.648,11.521,11.521,0,0,0,10.07-4.366h0a15.9,15.9,0,0,0,3.859-8.126,8.633,8.633,0,0,0-4.718-9.084c-3.267-1.408-6.746-.437-10.126.521a20.042,20.042,0,0,1-7.563,1.155,18,18,0,0,1-5.634-1.944A31.964,31.964,0,0,0,290.4,66.5c-5.634-1.873-16.521,0-20.8,4.7a9.661,9.661,0,0,0-2.324,9.253,13.549,13.549,0,0,0,8.887,8.986A19.985,19.985,0,0,0,282.375,90.3Zm15.591-5.07h-.338a13.676,13.676,0,0,0-4.577,1.282l-.676.282A23.168,23.168,0,0,1,276.7,88.018a12.14,12.14,0,0,1-7.971-7.986,8.338,8.338,0,0,1,2.014-7.957c3.859-4.225,14.154-6.042,19.309-4.31a29.886,29.886,0,0,1,3.394,1.408,19.337,19.337,0,0,0,6.014,2.127,21.408,21.408,0,0,0,8.112-1.211c3.267-.93,6.366-1.817,9.169-.577a7.281,7.281,0,0,1,3.845,7.619,14.577,14.577,0,0,1-3.577,7.422c-1.493,1.676-4.62,4.436-8.845,3.9a16.026,16.026,0,0,1-4.479-1.535A13.986,13.986,0,0,0,297.966,85.23Z" transform="translate(-234.489 -24.108)" fill="#d1d3d4"/>
  <path id="Path_183" data-name="Path 183" d="M296.171,82.437a6.1,6.1,0,0,0,5-2.1,9.366,9.366,0,0,1,2.338-1.7,9.634,9.634,0,0,1,3.282-.887,7.253,7.253,0,0,0,5.31-2.535,8.352,8.352,0,0,0,1.563-6.788,11.267,11.267,0,0,0-5.211-7.493c-7.422-4.366-21.2.183-25.689,6.634-1.592,2.282-3.408,6.8,2.253,11.38a17.915,17.915,0,0,0,10.267,3.521h0Zm5.07-21.887a12.83,12.83,0,0,1,6.493,1.521,9.859,9.859,0,0,1,4.535,6.535,6.831,6.831,0,0,1-1.282,5.634,5.915,5.915,0,0,1-4.394,2.028A9.493,9.493,0,0,0,300.2,79.31a5.028,5.028,0,0,1-4.831,1.676h0a17.069,17.069,0,0,1-9.464-3.2c-3.591-2.915-4.225-6.2-1.986-9.479,3.014-4.338,10.76-7.76,17.323-7.76Z" transform="translate(-246.285 -26.793)" fill="#d1d3d4"/>
  <path id="Path_184" data-name="Path 184" d="M137.912,74.51s-4.549-3.69,0-8.45h7.338s-1.577,6.155,0,8.45Z" transform="translate(126.909 -23.993)" fill="#231f20"/>
  <path id="Path_185" data-name="Path 185" d="M138.025,75.415h7.338a.732.732,0,0,0,.634-.38.718.718,0,0,0,0-.732c-1.141-1.648-.31-6.225.113-7.845a.8.8,0,0,0-.127-.62.718.718,0,0,0-.563-.268h-7.338a.774.774,0,0,0-.507.211,6.817,6.817,0,0,0-2.225,5.112,6.69,6.69,0,0,0,2.282,4.366A.718.718,0,0,0,138.025,75.415Zm6.239-1.408h-5.958a5.155,5.155,0,0,1-1.549-3.211,5.253,5.253,0,0,1,1.62-3.817h6.141a16.338,16.338,0,0,0-.253,7.028Z" transform="translate(126.797 -24.194)" fill="#231f20"/>
  <path id="Path_186" data-name="Path 186" d="M114.706,73.523A5.268,5.268,0,0,1,116.3,69.03a11.142,11.142,0,0,1,1.845-1.887,11.746,11.746,0,0,1,4.352-1.718c3.422-.831,7.422.225,10.915.3a27.773,27.773,0,0,0,10.957-2.028,7.38,7.38,0,0,0,3.113-2.042c.873,5.112.761,10.746-2.183,15.042a19.563,19.563,0,0,1-9.859,6.8,15.873,15.873,0,0,1-15.816-2.3,13.648,13.648,0,0,1-4.479-5.9A9.2,9.2,0,0,1,114.706,73.523Z" transform="translate(154.101 -25.794)" fill="#fff"/>
  <path id="Path_187" data-name="Path 187" d="M129.546,85.5a19.112,19.112,0,0,0,6.394-1.169,20.2,20.2,0,0,0,10.183-7.042c2.634-3.845,3.394-9.07,2.282-15.492a.718.718,0,0,0-.521-.563.69.69,0,0,0-.718.254,6.887,6.887,0,0,1-2.817,1.831A27.675,27.675,0,0,1,133.6,65.137a33.511,33.511,0,0,1-3.62-.3,21.844,21.844,0,0,0-7.479,0,12.408,12.408,0,0,0-4.62,1.831,13.789,13.789,0,0,0-1.958,2,5.929,5.929,0,0,0-1.732,5.056h0a9.381,9.381,0,0,0,.521,1.915,14.492,14.492,0,0,0,4.7,6.211A16.2,16.2,0,0,0,129.546,85.5Zm17.675-22.239c.732,5.493,0,9.859-2.268,13.2a18.732,18.732,0,0,1-9.493,6.549,15.267,15.267,0,0,1-15.154-2.183,13.056,13.056,0,0,1-4.225-5.634,8.675,8.675,0,0,1-.465-1.634,4.648,4.648,0,0,1,1.408-3.944,11.482,11.482,0,0,1,1.746-1.662,11.267,11.267,0,0,1,4.1-1.591,20.774,20.774,0,0,1,7.042,0c1.239.127,2.535.268,3.746.3a29.154,29.154,0,0,0,11.267-2.07,11.112,11.112,0,0,0,2.3-1.324ZM114.912,73.7Z" transform="translate(153.895 -25.972)" fill="#231f20"/>
  <rect id="Rectangle_30" data-name="Rectangle 30" width="59.801" height="39.492" transform="translate(122.066 11.011)" fill="#fff"/>
  <path id="Path_188" data-name="Path 188" d="M200.2,84.428H260a.7.7,0,0,0,.7-.7V44.2a.7.7,0,0,0-.7-.7H200.2a.718.718,0,0,0-.7.7v39.52a.718.718,0,0,0,.7.7Zm59.153-1.408h-58.5v-38.1H259.3Z" transform="translate(-78.138 -33.207)" fill="#d1d3d4"/>
  <rect id="Rectangle_31" data-name="Rectangle 31" width="59.801" height="7.817" transform="translate(122.066 50.517)" fill="#fff"/>
  <path id="Path_189" data-name="Path 189" d="M200.2,80.785H260a.7.7,0,0,0,.7-.7V72.264a.7.7,0,0,0-.7-.7H200.2a.7.7,0,0,0-.7.7v7.817A.7.7,0,0,0,200.2,80.785Zm59.153-1.408h-58.5V72.968H259.3Z" transform="translate(-78.138 -21.747)" fill="#d1d3d4"/>
  <path id="Path_190" data-name="Path 190" d="M247.012,71.544a.69.69,0,0,0,.549-1.141c-.676-.845-16.9-20.746-32.027-19.549-6.028.479-10.14,3.634-11.014,8.45a9.521,9.521,0,0,0,5.225,10.366c4.225,1.958,8.141,1.93,10.873-.084a8.183,8.183,0,0,0,2.9-8.084,6.155,6.155,0,0,0-4.408-5.634,7.366,7.366,0,0,0-7.211,2.042,3.07,3.07,0,0,0-.465,3.451c1.07,2.07,2.338,3.155,3.774,3.211,2.3,0,3.986-2.606,4.056-2.718a.7.7,0,0,0-.239-.972.69.69,0,0,0-.958.239c-.366.577-1.535,2.113-2.817,2.042s-2-1.408-2.563-2.451A1.662,1.662,0,0,1,213,58.8a5.929,5.929,0,0,1,5.732-1.577,4.817,4.817,0,0,1,3.394,4.465,6.831,6.831,0,0,1-2.338,6.746c-2.3,1.7-5.746,1.69-9.45,0a8.084,8.084,0,0,1-4.366-8.9c.746-4.127,4.38-6.845,9.732-7.267,14.323-1.183,30.6,18.816,30.759,19.027A.718.718,0,0,0,247.012,71.544Z" transform="translate(-71.99 -30.224)" fill="#d1d3d4"/>
  <path id="Path_191" data-name="Path 191" d="M205.284,103.848h23.041a.7.7,0,0,0,.7-.7V84.834a.7.7,0,0,0-.7-.7H205.284a.7.7,0,0,0-.7.7v18.309A.7.7,0,0,0,205.284,103.848Zm22.337-1.408H205.988v-16.9h21.633Z" transform="translate(-53.614 -16.614)" fill="#d1d3d4"/>
  <path id="Path_192" data-name="Path 192" d="M213.465,88.679a.7.7,0,0,0,.7-.7v-4.38a.7.7,0,1,0-1.408,0v4.352a.7.7,0,0,0,.7.732Z" transform="translate(-50.273 -17.12)" fill="#d1d3d4"/>
</svg>
