<svg xmlns="http://www.w3.org/2000/svg" width="130.652" height="94.438" viewBox="0 0 130.652 94.438">
  <g id="Group_38" transform="translate(-901.917 -884)">
    <path id="scroll" d="M973.8,884h-5.7A12.274,12.274,0,0,0,956,896.1v12.5a.9.9,0,0,0,.9.9h0a.9.9,0,0,0,.9-.9v-7.2H975a.987.987,0,0,0,.9-1,.9.9,0,0,0-.9-.9h-3.2v-6.1a.987.987,0,0,0-1-.9.9.9,0,0,0-.9.9v6.1H957.8V896A10.376,10.376,0,0,1,968,885.8h1.9v3.1a.987.987,0,0,0,1,.9.9.9,0,0,0,.9-.9v-3.1h2A10.243,10.243,0,0,1,984,896v3.5h-4.5a.987.987,0,0,0-.9,1,.9.9,0,0,0,.9.9H984v16.5a10.092,10.092,0,0,1-9.5,10.1v-3.3a3.4,3.4,0,0,0-6.8,0V928a10.266,10.266,0,0,1-9.7-10.1v-4.7a.987.987,0,0,0-1-.9.9.9,0,0,0-.9.9v4.7a12.073,12.073,0,0,0,11.5,12v6.5l-3.1-3.1a3.565,3.565,0,0,0-4.9,0,3.441,3.441,0,0,0,0,4.8l8.9,8.9a3.565,3.565,0,0,0,4.9,0l3.5-3.5a.919.919,0,1,0-1.3-1.3h0l-3.5,3.5a1.57,1.57,0,0,1-2.2,0l-8.9-8.9a1.556,1.556,0,1,1,2.2-2.2l4.7,4.7a.853.853,0,0,0,1.3,0,.864.864,0,0,0,.3-.6V924.8a1.5,1.5,0,0,1,1.6-1.5,1.538,1.538,0,0,1,1.5,1.5v13.8a.923.923,0,0,0,1,.9.713.713,0,0,0,.6-.3l4.6-4.6a1.556,1.556,0,1,1,2.2,2.2h0l-2.4,2.4a.934.934,0,0,0,0,1.3,1.051,1.051,0,0,0,1.3,0l2.4-2.4a3.565,3.565,0,0,0,0-4.9,3.441,3.441,0,0,0-4.8,0l-3,3v-6.3a11.986,11.986,0,0,0,11.4-12V896.1A12.207,12.207,0,0,0,973.8,884Z" fill="#fff" opacity="0.607"/>
    <path id="Path_242" data-name="Path 242" d="M6.333.217A7.426,7.426,0,0,1,.917-1.967L1.9-3.183A6.2,6.2,0,0,0,6.4-1.2a3.564,3.564,0,0,0,2.35-.708A2.138,2.138,0,0,0,9.6-3.6a1.766,1.766,0,0,0-.867-1.583A9.847,9.847,0,0,0,5.9-6.2,8.875,8.875,0,0,1,2.508-7.567,2.975,2.975,0,0,1,1.4-10.083a3.535,3.535,0,0,1,1.317-2.783A4.855,4.855,0,0,1,6-14a6.922,6.922,0,0,1,4.817,1.967l-.95,1.217a5.58,5.58,0,0,0-3.95-1.767,3.137,3.137,0,0,0-2.092.708A2.13,2.13,0,0,0,2.983-10.2,1.63,1.63,0,0,0,3.85-8.708a11.352,11.352,0,0,0,2.833.992,8.757,8.757,0,0,1,3.35,1.408,3.063,3.063,0,0,1,1.15,2.575A3.612,3.612,0,0,1,9.917-.9,5.244,5.244,0,0,1,6.333.217ZM18.317-1.517l.733,1.1a3.03,3.03,0,0,1-1.917.65,2.385,2.385,0,0,1-1.817-.742,2.645,2.645,0,0,1-.7-1.892V-9H12.983v-1.333h1.633v-2.85h1.5v2.85H18.65V-9H16.117v6.6a1.355,1.355,0,0,0,.325.933,1.019,1.019,0,0,0,.792.367,1.4,1.4,0,0,0,1.083-.417Zm7.05-9.067a4.039,4.039,0,0,1,3.125,1.167A4.419,4.419,0,0,1,29.567-6.3V0h-1.5V-1.617A3.529,3.529,0,0,1,26.525-.25a4.785,4.785,0,0,1-2.092.483,4.06,4.06,0,0,1-2.725-.9,2.992,2.992,0,0,1-1.058-2.4,3.039,3.039,0,0,1,1.183-2.475A4.435,4.435,0,0,1,24.717-6.5a11.368,11.368,0,0,1,3.35.583V-6.3a3.5,3.5,0,0,0-.642-2.125A2.5,2.5,0,0,0,25.267-9.3a6.9,6.9,0,0,0-3.017.933l-.6-1.217a8.451,8.451,0,0,1,3.717-1Zm-2.533,8.95a2.953,2.953,0,0,0,1.85.55A4.217,4.217,0,0,0,26.8-1.642a2.558,2.558,0,0,0,1.267-1.592V-4.817a11.24,11.24,0,0,0-3.117-.417,3.331,3.331,0,0,0-2,.6,1.8,1.8,0,0,0-.833,1.517,1.772,1.772,0,0,0,.716,1.484ZM34.267-8.317a3.546,3.546,0,0,1,1.525-1.658,4.88,4.88,0,0,1,2.475-.608v1.35a4.255,4.255,0,0,0-2.875.967,3.125,3.125,0,0,0-1.125,2.483V0h-1.5V-10.333h1.5Zm10.617,6.8.733,1.1A3.03,3.03,0,0,1,43.7.233a2.385,2.385,0,0,1-1.817-.742,2.645,2.645,0,0,1-.7-1.892V-9H39.55v-1.333h1.633v-2.85h1.5v2.85h2.533V-9H42.683v6.6a1.355,1.355,0,0,0,.325.933A1.019,1.019,0,0,0,43.8-1.1a1.4,1.4,0,0,0,1.083-.417ZM58.35.217a7.426,7.426,0,0,1-5.417-2.183l.983-1.217a6.2,6.2,0,0,0,4.5,1.983,3.564,3.564,0,0,0,2.35-.708,2.138,2.138,0,0,0,.85-1.692,1.766,1.766,0,0,0-.867-1.583A9.847,9.847,0,0,0,57.917-6.2a8.875,8.875,0,0,1-3.392-1.367,2.975,2.975,0,0,1-1.108-2.517,3.535,3.535,0,0,1,1.317-2.783A4.855,4.855,0,0,1,58.017-14a6.922,6.922,0,0,1,4.817,1.967l-.95,1.217a5.58,5.58,0,0,0-3.95-1.767,3.137,3.137,0,0,0-2.092.708A2.13,2.13,0,0,0,55-10.2a1.63,1.63,0,0,0,.867,1.492,11.352,11.352,0,0,0,2.833.992,8.757,8.757,0,0,1,3.35,1.408A3.063,3.063,0,0,1,63.2-3.733,3.612,3.612,0,0,1,61.933-.9,5.244,5.244,0,0,1,58.35.217ZM70.583.233a5.114,5.114,0,0,1-3.758-1.608,5.232,5.232,0,0,1-1.592-3.808,5.218,5.218,0,0,1,1.583-3.8,5.118,5.118,0,0,1,3.767-1.6,5.2,5.2,0,0,1,3.683,1.517L73.233-8.033a3.5,3.5,0,0,0-2.65-1.2,3.519,3.519,0,0,0-2.667,1.2A4.042,4.042,0,0,0,66.8-5.183a4.092,4.092,0,0,0,1.117,2.875A3.508,3.508,0,0,0,70.583-1.1a3.506,3.506,0,0,0,2.7-1.267l1.05,1.033A5.116,5.116,0,0,1,70.583.233Zm7.683-8.55a3.546,3.546,0,0,1,1.525-1.658,4.88,4.88,0,0,1,2.475-.608v1.35a4.255,4.255,0,0,0-2.875.967,3.125,3.125,0,0,0-1.125,2.483V0h-1.5V-10.333h1.5ZM92.55-1.367A5.1,5.1,0,0,1,88.8.233a5.114,5.114,0,0,1-3.758-1.608A5.232,5.232,0,0,1,83.45-5.183a5.218,5.218,0,0,1,1.583-3.8,5.118,5.118,0,0,1,3.767-1.6,5.118,5.118,0,0,1,3.767,1.6,5.218,5.218,0,0,1,1.583,3.8,5.246,5.246,0,0,1-1.6,3.816ZM88.8-1.1a3.491,3.491,0,0,0,2.65-1.208,4.092,4.092,0,0,0,1.117-2.875,4.042,4.042,0,0,0-1.117-2.85,3.5,3.5,0,0,0-2.65-1.2,3.519,3.519,0,0,0-2.667,1.2,4.042,4.042,0,0,0-1.117,2.85,4.092,4.092,0,0,0,1.117,2.875A3.508,3.508,0,0,0,88.8-1.1ZM96.617,0V-13.983h1.5V0Zm4.533,0V-13.983h1.5V0Zm5.283-12.217a.951.951,0,0,1-.708-.3.973.973,0,0,1-.292-.7.945.945,0,0,1,.292-.692.964.964,0,0,1,.708-.292.918.918,0,0,1,.683.292.959.959,0,0,1,.283.692.987.987,0,0,1-.283.7.906.906,0,0,1-.683.3ZM105.667,0V-10.333h1.5V0ZM115.1-10.583a3.714,3.714,0,0,1,2.8,1.125,3.975,3.975,0,0,1,1.083,2.875V0h-1.5V-6.383a2.929,2.929,0,0,0-.725-2.058,2.407,2.407,0,0,0-1.858-.792,3.426,3.426,0,0,0-2.25.783,2.352,2.352,0,0,0-.95,1.867V0h-1.5V-10.333h1.5v1.65a3.484,3.484,0,0,1,1.383-1.367A4,4,0,0,1,115.1-10.583Zm14.967.25h1.5V-1.1a4.17,4.17,0,0,1-1.425,3.267,5.3,5.3,0,0,1-3.658,1.267,7.332,7.332,0,0,1-2.35-.375,5.425,5.425,0,0,1-1.833-.992l.667-1.183A4.588,4.588,0,0,0,126.283,2.1a4.2,4.2,0,0,0,2.783-.842,2.914,2.914,0,0,0,1-2.358V-2.783a4.139,4.139,0,0,1-1.575,1.492,4.548,4.548,0,0,1-2.192.525,4.579,4.579,0,0,1-3.425-1.375,4.858,4.858,0,0,1-1.342-3.542,4.83,4.83,0,0,1,1.342-3.533,4.594,4.594,0,0,1,3.425-1.367,4.548,4.548,0,0,1,2.192.525,4.139,4.139,0,0,1,1.575,1.492ZM126.583-2.1a3.336,3.336,0,0,0,2.508-1.008,3.552,3.552,0,0,0,.975-2.575,3.5,3.5,0,0,0-.975-2.558,3.365,3.365,0,0,0-2.508-.992,3.344,3.344,0,0,0-2.492.992,3.494,3.494,0,0,0-.975,2.558,3.552,3.552,0,0,0,.975,2.575A3.315,3.315,0,0,0,126.583-2.1Z" transform="translate(901 975)" fill="#fff"/>
  </g>
</svg>
