<svg xmlns="http://www.w3.org/2000/svg" width="622.479" height="548.576" viewBox="0 0 622.479 548.576">
  <g id="_230_designer_flatline" data-name="#230_designer_flatline" transform="translate(-70.87 -36.192)">
    <path id="Path_108" data-name="Path 108" d="M692.144,243.53H72.075a1.205,1.205,0,1,1,0-2.41H692.144a1.205,1.205,0,1,1,0,2.41Z" transform="translate(0 289.006)" fill="#d1d3d4"/>
    <rect id="Rectangle_25" data-name="Rectangle 25" width="138.422" height="237.654" transform="translate(501.804 321.155)" fill="#fff"/>
    <path id="Path_109" data-name="Path 109" d="M388.787,393.984H250.365a1.205,1.205,0,0,1-1.205-1.205V155.125a1.205,1.205,0,0,1,1.205-1.205H388.787a1.205,1.205,0,0,1,1.205,1.205V392.73a1.205,1.205,0,0,1-1.205,1.253Zm-137.217-2.41H387.582V156.33H251.57Z" transform="translate(251.439 166.03)" fill="#231f20"/>
    <rect id="Rectangle_26" data-name="Rectangle 26" width="138.422" height="237.654" transform="translate(120.449 321.155)" fill="#fff"/>
    <path id="Path_110" data-name="Path 110" d="M230.568,393.984H92.145a1.205,1.205,0,0,1-1.205-1.205V155.125a1.205,1.205,0,0,1,1.205-1.205H230.568a1.205,1.205,0,0,1,1.205,1.205V392.73a1.205,1.205,0,0,1-1.205,1.253ZM93.35,391.574H229.362V156.33H93.35Z" transform="translate(28.304 166.03)" fill="#231f20"/>
    <path id="Path_111" data-name="Path 111" d="M287.681,125.83l27.4,55.027H240.97Z" transform="translate(239.889 126.415)" fill="#231f20"/>
    <path id="Path_112" data-name="Path 112" d="M315.755,182.761H241.711a1.229,1.229,0,0,1-1.109-.7,1.181,1.181,0,0,1,.193-1.278l46.711-55.027a1.133,1.133,0,0,1,1.061-.41,1.205,1.205,0,0,1,.94.651l27.381,55.027a1.157,1.157,0,0,1,0,1.157,1.181,1.181,0,0,1-1.133.578Zm-71.513-2.41H313.8l-25.718-51.628Z" transform="translate(239.22 125.716)" fill="#231f20"/>
    <path id="Path_113" data-name="Path 113" d="M173.02,203.548H349.477l64.017-93.808H246.919Z" transform="translate(144.06 103.724)" fill="#231f20"/>
    <path id="Path_114" data-name="Path 114" d="M350.207,205.458H173.7a1.205,1.205,0,0,1-.94-1.952l73.9-93.808a1.181,1.181,0,0,1,.94-.458H414.176a1.253,1.253,0,0,1,1.06.651,1.181,1.181,0,0,1,0,1.253l-64.017,93.784a1.181,1.181,0,0,1-1.012.53Zm-173.974-2.41h173.42l62.378-91.4h-163.8Z" transform="translate(143.33 103.019)" fill="#231f20"/>
    <path id="Path_115" data-name="Path 115" d="M236.737,113.52,184,181.851H314.95l49.555-68.331Z" transform="translate(159.545 109.055)" fill="#fff"/>
    <path id="Path_116" data-name="Path 116" d="M315.685,183.762H184.735a1.205,1.205,0,0,1-1.085-.675,1.277,1.277,0,0,1,0-1.277l52.761-68.331a1.181,1.181,0,0,1,.94-.458H365.1a1.157,1.157,0,0,1,1.061.651,1.181,1.181,0,0,1,0,1.253L316.6,183.256A1.181,1.181,0,0,1,315.685,183.762Zm-128.492-2.41H314.938l47.94-65.969h-124.8Z" transform="translate(158.81 108.349)" fill="#231f20"/>
    <path id="Path_117" data-name="Path 117" d="M263.442,161.785a1.2,1.2,0,0,1-1.133-.819c-6.339-18.68-15.161-39.167-18.366-39.649h0c-3.832,0-28.417,20.319-50.254,40.179a1.211,1.211,0,0,1-1.639-1.784c7.568-6.869,45.193-40.782,52.11-40.782h.265c6.17.94,17.089,31.816,20.295,41.264a1.181,1.181,0,0,1-.771,1.518.989.989,0,0,1-.506.072Z" transform="translate(170.344 116.684)" fill="#d1d3d4"/>
    <path id="Path_118" data-name="Path 118" d="M263.028,158.384a1.205,1.205,0,0,1-1.157-.892c-4.242-15.064-10.292-31.141-13.136-31.984s-16.052,11.087-26.8,22.56a1.211,1.211,0,0,1-1.76-1.663c5.5-5.857,23.814-24.826,29.261-23.187s13.257,28.3,14.751,33.744a1.205,1.205,0,0,1-.82,1.494Z" transform="translate(210.093 122.591)" fill="#d1d3d4"/>
    <path id="Path_119" data-name="Path 119" d="M256.933,132.765c-2.965,0-5.3-1.422-5.3-3.23s2.41-3.206,5.3-3.206,5.3,1.4,5.3,3.206S259.9,132.765,256.933,132.765Zm0-5.833c-2.555,0-4.821,1.181-4.821,2.6s2.145,2.627,4.821,2.627,4.7-1.205,4.7-2.627-2.145-2.531-4.7-2.531Z" transform="translate(254.922 127.12)" fill="#a7a9ac"/>
    <path id="Path_120" data-name="Path 120" d="M269,118.013H258.3a.3.3,0,0,1,0-.6H269a.3.3,0,0,1,0,.6Z" transform="translate(263.92 114.541)" fill="#a7a9ac"/>
    <path id="Path_121" data-name="Path 121" d="M246.939,178.009a1.277,1.277,0,0,1-.723-.217,1.229,1.229,0,0,1-.265-1.687l34.178-46.9a1.205,1.205,0,0,1,1.687-.265,1.229,1.229,0,0,1,.265,1.687l-34.178,47A1.229,1.229,0,0,1,246.939,178.009Z" transform="translate(246.598 130.468)" fill="#fff"/>
    <path id="Path_122" data-name="Path 122" d="M224.543,126.945a5.3,5.3,0,1,1,5.3-5.3A5.3,5.3,0,0,1,224.543,126.945Zm0-8.195a2.868,2.868,0,1,0,2.052.84,2.892,2.892,0,0,0-2.052-.84Z" transform="translate(209.243 113.032)" fill="#d1d3d4"/>
    <rect id="Rectangle_27" data-name="Rectangle 27" width="544.049" height="23.066" transform="translate(102.059 309.321)" fill="#fff"/>
    <path id="Path_123" data-name="Path 123" d="M628.588,174.487H84.515a1.205,1.205,0,0,1-1.205-1.205V150.215a1.229,1.229,0,0,1,1.205-1.205H628.588a1.229,1.229,0,0,1,1.205,1.205v23.066a1.205,1.205,0,0,1-1.205,1.205ZM85.72,172.076H627.286V151.4H85.72Z" transform="translate(17.544 159.106)" fill="#231f20"/>
    <path id="Path_124" data-name="Path 124" d="M186.226,220.671c.506,1.711-29.936,110.993-29.936,110.993l42.541,6.845L249.11,187.53Z" transform="translate(120.466 213.43)" fill="#fff"/>
    <path id="Path_125" data-name="Path 125" d="M199.542,340.4h-.193l-42.541-6.845a1.229,1.229,0,0,1-.844-.53,1.4,1.4,0,0,1-.145-.988c11.883-42.566,29.574-106.944,29.912-110.559a1.205,1.205,0,0,1,.651-1.157l62.884-33.141a1.253,1.253,0,0,1,1.35.145,1.277,1.277,0,0,1,.362,1.3l-50.3,150.98A1.181,1.181,0,0,1,199.542,340.4Zm-40.975-9.039,40.2,6.484L247.8,190.7l-59.775,31.478c-1.326,6.918-11.232,43.578-29.5,109.186Z" transform="translate(119.755 212.745)" fill="#231f20"/>
    <path id="Path_126" data-name="Path 126" d="M159.014,245.793l-6.484,20.391,101.883,7.882a42.349,42.349,0,0,0-23.139-20.849c-10.581-3.712-21.982-8.147-21.982-8.147l-5.158,12.292Z" transform="translate(115.164 294.577)" fill="#231f20"/>
    <path id="Path_127" data-name="Path 127" d="M255.066,275.971h0l-101.883-7.882a1.205,1.205,0,0,1-1.061-1.567l6.484-20.391a1.205,1.205,0,0,1,1.446-.8l44.108,11.3,4.821-11.328a1.181,1.181,0,0,1,1.543-.651c.12,0,11.5,4.459,21.958,8.123a43.385,43.385,0,0,1,23.838,21.5,1.205,1.205,0,0,1,0,1.181,1.157,1.157,0,0,1-1.253.506ZM154.774,265.8l98.219,7.617a41.336,41.336,0,0,0-21.452-18.366c-8.6-3.013-17.836-6.532-20.945-7.713l-4.7,11.184a1.229,1.229,0,0,1-1.422.723l-44.012-11.232Z" transform="translate(114.51 293.877)" fill="#231f20"/>
    <path id="Path_128" data-name="Path 128" d="M154.165,201.88l-7.231,115.115s-24.44.844-30.562,5.134-11.111,23.717-11.111,23.717h7.617s4.435-14.462,9.3-16.2,32.539-2.41,32.539-2.41,13.353,5.158,15.5,14c1.687,6.966,1.205,8.581,1.205,8.581h8.436a43.045,43.045,0,0,0-1.687-11.714c-1.687-4.821-8.026-10.581-8.026-10.581s13.955.289,18.607.289,9.5,8.87,9.5,8.87h9.087s-9.5-16-15.643-17.137-21.909-3.881-21.909-3.881l-4.29-107.257Z" transform="translate(48.5 233.667)" fill="#231f20"/>
    <path id="Path_129" data-name="Path 129" d="M180.6,351.7h-8.436a1.3,1.3,0,0,1-.988-.482,1.253,1.253,0,0,1-.169-1.085,25.525,25.525,0,0,0-1.229-7.93c-1.808-7.544-12.871-12.389-14.462-13.064-7.833.169-28.128.892-31.912,2.41-3.133,1.157-6.917,10.075-8.557,15.4a1.229,1.229,0,0,1-1.157.868H106a1.229,1.229,0,0,1-1.157-1.518c.193-.8,5.158-19.909,11.569-24.392,5.664-3.953,25.212-5.086,30.128-5.3l7.086-114.054a1.254,1.254,0,0,1,.627-.988,1.229,1.229,0,0,1,1.157,0l11.425,6.58a1.181,1.181,0,0,1,.6.988L171.7,315.426c3.519.6,15.763,2.724,20.969,3.712,6.459,1.205,15.45,16,16.438,17.692a1.205,1.205,0,0,1,0,1.205,1.229,1.229,0,0,1-1.061.627h-9.087a1.229,1.229,0,0,1-1.061-.627c-1.735-3.182-5.592-8.243-8.436-8.243-3.278,0-11.232-.145-15.619-.217a27.841,27.841,0,0,1,6.17,8.894,42.925,42.925,0,0,1,1.759,12.052A1.205,1.205,0,0,1,180.6,351.7Zm-7.231-2.41h5.953a38.76,38.76,0,0,0-1.591-10.123c-1.567-4.507-7.641-10-7.713-10.075a1.229,1.229,0,0,1-.313-1.326,1.3,1.3,0,0,1,1.157-.771c.145,0,13.98.289,18.583.289s8.894,6.628,10.2,8.87h6.218c-3.23-5.086-9.641-14-13.69-14.751-6.05-1.133-21.693-3.832-21.885-3.856a1.205,1.205,0,0,1-1.012-1.157l-4.218-106.583-9.159-5.279-7.014,113.283a1.205,1.205,0,0,1-1.157,1.133c-6.7.241-25.139,1.567-29.912,4.821-4.338,3.037-8.532,15.4-10.244,21.524h5.158c1.109-3.4,5.062-14.462,9.641-16.125s31.816-2.41,32.949-2.41h.458c.578.217,13.98,5.471,16.245,14.823a40.081,40.081,0,0,1,1.4,7.713Zm-25.742-31.647Z" transform="translate(47.859 233.018)" fill="#231f20"/>
    <path id="Path_130" data-name="Path 130" d="M206.978,171.42s96.267,5.134,102.34,18.848-38.564,164.526-38.564,164.526,47.121,16.293,39.408,19.716-84.842-3.423-84.842-3.423l36.564-139.8L166.63,224.88Z" transform="translate(135.048 190.71)" fill="#fff"/>
    <path id="Path_131" data-name="Path 131" d="M298.723,377.389c-22.608,0-66.548-3.832-72.742-4.387a1.192,1.192,0,0,1-1.061-1.519l36.154-138.278-93.808-6.315a1.3,1.3,0,0,1-1.012-.7,1.181,1.181,0,0,1,.145-1.229l40.372-53.556a1.037,1.037,0,0,1,1.012-.482c.241,0,24.392,1.3,48.977,4.29,50.351,6.074,53.412,12.991,54.424,15.281,5.953,13.473-33.744,149.437-38.131,164.261,12.8,4.459,39.794,14.462,39.986,19.4a2.241,2.241,0,0,1-1.567,2.169A44.418,44.418,0,0,1,298.723,377.389ZM227.6,370.713c22.367,1.976,76.888,6.05,82.841,3.4h0c-1.591-2.916-21.4-11.232-39.384-17.426a1.205,1.205,0,0,1-.747-1.494c12.341-41.818,43.385-152.788,38.564-163.706s-73.61-16.631-100.653-18.1L169.653,224.65l93.037,6.291a1.229,1.229,0,0,1,.916.482,1.374,1.374,0,0,1,.193,1.012ZM310.654,373.991Z" transform="translate(134.364 190)" fill="#231f20"/>
    <path id="Path_132" data-name="Path 132" d="M169.82,176.17s49.459,61.7,70.6,59.992,81.684-77.78,81.684-77.78c10.943-13.064,23.187-29.646,15.353-47.651-.771-1.735-2.121-3.591-4-3.447a5.11,5.11,0,0,0-2.193.892l-6.749,4.146c.217-1.856-2.145-3.182-3.953-2.675a8.147,8.147,0,0,0-4.146,3.615c-7.014,9.979-11.545,19.475-11.16,31.768l-70.766,36.154-28.08-31.068" transform="translate(139.547 100.25)" fill="#fff"/>
    <path id="Path_133" data-name="Path 133" d="M240.241,238.142c-21.958,0-68.693-57.847-70.693-60.474a1.205,1.205,0,0,1,1.88-1.494c.482.6,48.013,59.582,68.741,59.582h.82c20.391-1.639,80.19-76.575,80.768-77.346,11.3-13.449,22.7-29.213,15.209-46.4-.289-.675-1.3-2.82-2.8-2.724a3.978,3.978,0,0,0-1.663.723l-6.8,4.122a1.205,1.205,0,0,1-1.832-1.157.964.964,0,0,0-.434-.892,2.41,2.41,0,0,0-1.976-.482,7.231,7.231,0,0,0-3.495,3.157c-5.929,8.436-11.352,18.029-10.943,31.044a1.2,1.2,0,0,1-.651,1.109l-70.766,36.154a1.205,1.205,0,0,1-1.446-.265l-28.056-31.117a1.205,1.205,0,0,1,0-1.711,1.229,1.229,0,0,1,1.711,0l27.429,30.321,69.3-35.311c-.217-13.329,5.327-23.139,11.377-31.743a9.4,9.4,0,0,1,4.82-4.1,4.821,4.821,0,0,1,4.218.988,3.976,3.976,0,0,1,.82.988l5.4-3.3a6.146,6.146,0,0,1,2.748-1.061c2.1-.169,3.953,1.374,5.158,4.17,8.725,20.005-7.038,38.805-15.522,48.9-2.41,3.085-61.028,76.478-82.456,78.214Z" transform="translate(138.879 99.5)" fill="#231f20"/>
    <path id="Path_134" data-name="Path 134" d="M113.258,137.822s-25.477,57.726-16.028,63.9,66.958,0,66.958,0L159.2,127" transform="translate(34.211 128.065)" fill="#fff"/>
    <path id="Path_135" data-name="Path 135" d="M119.8,206.241c-10.292,0-19.282-.723-22.56-2.892-1.639-1.061-6.652-4.314,4.025-35.576,5.134-15.064,11.521-29.574,11.593-29.719a1.205,1.205,0,1,1,2.193.964c-9.641,21.958-22.7,58.281-16.486,62.306,7.231,4.821,48.206,1.639,65.078,0l-4.821-73.538a1.208,1.208,0,1,1,2.41-.169l4.989,74.719a1.205,1.205,0,0,1-1.085,1.277C163.45,203.71,139.154,206.241,119.8,206.241Z" transform="translate(33.502 127.351)" fill="#231f20"/>
    <path id="Path_136" data-name="Path 136" d="M114.363,192.571s-12.461,27.67.819,45.12,197.643,19.547,197.643,19.547l13.232-66.259-77.129-10.509-4.483-22.922Z" transform="translate(53.858 171.149)" fill="#fff"/>
    <path id="Path_137" data-name="Path 137" d="M313.648,259.192h0c-.458,0-46.663-.554-94-3.23-63.752-3.615-98.99-9.28-104.727-16.872-13.546-17.788-1.494-45.169-.964-46.326a1.181,1.181,0,0,1,.8-.675l130.155-35.021a1.133,1.133,0,0,1,.964.145,1.181,1.181,0,0,1,.53.771l4.314,22.1L326.9,190.451a1.157,1.157,0,0,1,.819.506,1.133,1.133,0,0,1,.193.916L314.829,258.2A1.205,1.205,0,0,1,313.648,259.192ZM116,194.332c-1.567,3.832-10.8,28.007.916,43.385,10.171,13.353,131.891,18.318,195.739,19.089l12.8-64.041-75.779-10.316a1.205,1.205,0,0,1-1.012-.964l-4.218-21.693Z" transform="translate(53.084 170.401)" fill="#231f20"/>
    <path id="Path_138" data-name="Path 138" d="M149.931,129.8a16.583,16.583,0,0,1-4.821-4.387,25.429,25.429,0,0,1-3.856-8.557c-6.532-23.621-6.58-53.87,14.462-70.043a48.88,48.88,0,0,1,44.2-7.833c10.22,3.326,18.9,17.378,23.452,26.513,3.736,7.4,6.267,15.45,10.7,22.44s11.5,13.112,19.788,13.522a24.971,24.971,0,0,1-21.693,1.3,14.148,14.148,0,0,0,14.341,5.375c-4.821,3.832-11.714,3.688-17.788,2.41s-12.051-3.206-18.294-2.41c-9.641,1.085-15.908,8.171-23.452,13.3C177.408,127.7,160.874,136.141,149.931,129.8Z" transform="translate(93.828 0.821)" fill="#fff"/>
    <path id="Path_139" data-name="Path 139" d="M159.674,134.093a18.873,18.873,0,0,1-9.641-2.41h0a17.28,17.28,0,0,1-5.23-4.821,26.848,26.848,0,0,1-4.049-9.063c-3.182-11.569-11.569-50.953,14.823-71.3a49.965,49.965,0,0,1,45.337-8.026c10.943,3.543,19.837,18.439,24.1,27,1.446,2.892,2.748,5.905,3.977,8.822a95.3,95.3,0,0,0,6.652,13.546c2.41,3.736,8.966,12.461,18.824,12.943a1.181,1.181,0,0,1,1.109.916,1.157,1.157,0,0,1-.579,1.326,26.224,26.224,0,0,1-17.6,2.868,12.775,12.775,0,0,0,9.448,1.591,1.205,1.205,0,0,1,1.036,2.121c-4.314,3.4-10.629,4.314-18.776,2.748-1.446-.265-2.892-.6-4.338-.94a40.782,40.782,0,0,0-13.57-1.543c-6.821.771-11.883,4.821-17.258,8.894-1.832,1.422-3.712,2.868-5.664,4.218C182.668,126.887,170.617,134.093,159.674,134.093ZM186.067,38.67A47.8,47.8,0,0,0,157,48.5c-25.187,19.451-17.065,57.533-13.956,68.765a24.369,24.369,0,0,0,3.688,8.243,15.016,15.016,0,0,0,4.507,4.073h0c11.618,6.749,30.3-4.821,35.744-8.508,1.88-1.277,3.736-2.724,5.52-4.122,5.4-4.194,10.991-8.532,18.487-9.376a42.493,42.493,0,0,1,14.462,1.591c1.422.313,2.844.651,4.266.916a26.875,26.875,0,0,0,12.2,0,15.474,15.474,0,0,1-9.955-6.026,1.205,1.205,0,0,1,0-1.446,1.157,1.157,0,0,1,1.4-.362,23.934,23.934,0,0,0,17.017.362A29.429,29.429,0,0,1,233.718,89.19a95.08,95.08,0,0,1-6.845-13.883c-1.229-2.868-2.41-5.857-3.929-8.677-3.326-6.628-12.22-22.392-22.729-25.79a45.8,45.8,0,0,0-14.148-2.169Z" transform="translate(93.172 0)" fill="#231f20"/>
    <path id="Path_140" data-name="Path 140" d="M174.072,68.25s6.58,20.584,3.133,23.5S166.6,90.087,166.6,90.087" transform="translate(135.006 45.211)" fill="#fff"/>
    <path id="Path_141" data-name="Path 141" d="M174.983,94.641a17.956,17.956,0,0,1-8.267-2.844,1.205,1.205,0,1,1,1.3-2.025c1.687,1.061,6.966,3.688,9.159,1.76,1.663-1.422-.482-12.63-3.567-22.2a1.229,1.229,0,0,1,.8-1.518,1.205,1.205,0,0,1,1.519.771c1.591,5.013,6.532,21.693,2.82,24.778a5.5,5.5,0,0,1-3.76,1.277Z" transform="translate(134.312 44.514)" fill="#231f20"/>
    <path id="Path_142" data-name="Path 142" d="M219.563,66.259c5.616,8,0,20.005-2.41,28.176q-4.989,17.258-10.774,34.25c-2.41,7.231-21.4,2-24.1-1.109l-5.158,29.671L137.18,143.436l12.847-35.985s12.847,3.712,24.416-9.087,19.62-45.434,19.62-45.434S214.092,58.425,219.563,66.259Z" transform="translate(93.516 23.606)" fill="#fff"/>
    <path id="Path_143" data-name="Path 143" d="M177.8,159.111h-.386l-39.962-13.763a1.157,1.157,0,0,1-.7-.6,1.4,1.4,0,0,1,0-.94l12.75-36.106a1.181,1.181,0,0,1,1.446-.747c.506.121,12.316,3.3,23.211-8.749s19.282-44.566,19.282-44.9a1.157,1.157,0,0,1,.554-.747,1.205,1.205,0,0,1,.916,0c.844.241,20.536,5.712,26.2,13.787h0c5.013,7.231,1.784,16.872-.844,24.826-.506,1.543-.988,3.013-1.4,4.387-3.326,11.449-6.942,22.994-10.8,34.3a6.652,6.652,0,0,1-5.544,4.025,32.9,32.9,0,0,1-18.824-3.519l-4.821,27.766a1.133,1.133,0,0,1-.578.82,1.084,1.084,0,0,1-.506.169Zm-38.4-15.763,37.456,12.967,4.821-28.3a1.205,1.205,0,0,1,2.1-.578c1.735,2,12.172,5.278,18.294,4.073,2.073-.41,3.326-1.277,3.76-2.579,3.832-11.256,7.472-22.753,10.774-34.178.41-1.4.916-2.892,1.422-4.483,2.41-7.351,5.5-16.51,1.157-22.681S199.907,56.409,195.52,55.108c-1.615,6.146-9.087,33.093-19.6,44.711-10.1,11.16-21.042,10.316-24.537,9.641Z" transform="translate(92.805 22.946)" fill="#231f20"/>
    <path id="Path_144" data-name="Path 144" d="M174.17,85.2s-10.485,2.989-12.63-7.592" transform="translate(127.87 58.412)" fill="#fff"/>
    <path id="Path_145" data-name="Path 145" d="M171.74,87.513a11.281,11.281,0,0,1-5.905-1.494,10.8,10.8,0,0,1-4.821-7.448,1.229,1.229,0,1,1,2.411-.482,8.484,8.484,0,0,0,3.615,5.857,10.774,10.774,0,0,0,7.5.819,1.248,1.248,0,0,1,.651,2.41A14.221,14.221,0,0,1,171.74,87.513Z" transform="translate(127.094 57.692)" fill="#231f20"/>
    <path id="Path_146" data-name="Path 146" d="M170.905,79.783a16.366,16.366,0,0,0-.988-8.822,24.293,24.293,0,0,0-2.7-6.411,8,8,0,0,0-5.688-3.64,7.231,7.231,0,0,0-5.52,2.41,13.4,13.4,0,0,0-3.037,5.3,25.669,25.669,0,0,0,5.23,25.043l-.458-.868" transform="translate(113.998 34.859)" fill="#fff"/>
    <path id="Path_147" data-name="Path 147" d="M158.915,95.578a1.253,1.253,0,0,1-.892-.386,27.067,27.067,0,0,1-5.5-26.344,14.461,14.461,0,0,1,3.326-5.761,8.556,8.556,0,0,1,6.484-2.675,8.918,8.918,0,0,1,6.58,4.17,25.019,25.019,0,0,1,2.868,6.725,17.475,17.475,0,0,1,1.012,9.472,1.229,1.229,0,0,1-1.494.868,1.205,1.205,0,0,1-.844-1.47,15.6,15.6,0,0,0-.988-8.147,21.909,21.909,0,0,0-2.555-6.074,6.628,6.628,0,0,0-4.821-3.133,6.074,6.074,0,0,0-4.58,1.952,12.22,12.22,0,0,0-2.772,4.821,24.609,24.609,0,0,0,3.929,22.7,1.3,1.3,0,0,1,.8.627l.434.868a1.181,1.181,0,0,1-.386,1.543,1.133,1.133,0,0,1-.6.241Z" transform="translate(113.286 34.152)" fill="#231f20"/>
    <ellipse id="Ellipse_19" data-name="Ellipse 19" cx="4.266" cy="1.687" rx="4.266" ry="1.687" transform="translate(305.612 107.318) rotate(-77.39)" fill="#231f20"/>
    <path id="Path_148" data-name="Path 148" d="M164.756,90.43A147.343,147.343,0,0,1,149.74,79.27s-2.41,20.873,11.883,25.669Z" transform="translate(111.012 60.753)" fill="#231f20"/>
    <path id="Path_149" data-name="Path 149" d="M162.334,106.813a1.084,1.084,0,0,1-.386,0c-14.992-5.037-12.8-26.055-12.7-26.947a1.229,1.229,0,0,1,.747-.988,1.253,1.253,0,0,1,1.229.193,149.436,149.436,0,0,0,14.9,11.087,1.229,1.229,0,0,1,.53,1.253l-3.133,14.462a1.229,1.229,0,0,1-.578.8,1.325,1.325,0,0,1-.6.145ZM151.536,82.4c0,5.158.675,17.475,9.93,21.572l2.651-12.317A149.58,149.58,0,0,1,151.536,82.4Z" transform="translate(110.3 60.084)" fill="#231f20"/>
    <path id="Path_150" data-name="Path 150" d="M108.16,301.05s2.169-147.509,24.3-181.47S211.995,77.954,239.376,98.2s14.2,174.986,14.2,174.986S166.272,301.05,108.16,301.05Z" transform="translate(52.589 71.806)" fill="#97bf3b"/>
    <path id="Path_151" data-name="Path 151" d="M155.107,88.11a159.85,159.85,0,0,1,40.4,23.838c18.945,15.739,58.931,83.42,58.931,83.42L201.7,227.3,154.36,168.927Z" transform="translate(117.744 73.219)" fill="#97bf3b"/>
    <path id="Path_152" data-name="Path 152" d="M168.866,91.92s-27.6,3.109-42.2,33.406c-7.906,16.438-28.152,69.512-28.152,69.512l60.884,7.014Z" transform="translate(38.98 78.593)" fill="#97bf3b"/>
    <path id="Path_153" data-name="Path 153" d="M200.58,183.215a1.181,1.181,0,0,1-.964-.506l-47.025-64.041a1.205,1.205,0,0,1,.241-1.687,1.229,1.229,0,0,1,1.687.265l47.025,64.041a1.205,1.205,0,0,1-.964,1.928Z" transform="translate(114.91 113.62)" fill="#231f20"/>
    <path id="Path_154" data-name="Path 154" d="M230.6,135.666,242.362,99.15l3.664,1.061-7.4,36.01S233.42,141.233,230.6,135.666Z" transform="translate(225.264 88.789)" fill="#231f20"/>
    <path id="Path_155" data-name="Path 155" d="M234.9,140.2h-.819a5.4,5.4,0,0,1-3.881-3.23,1.2,1.2,0,0,1,0-.916l11.69-36.564a1.253,1.253,0,0,1,1.494-.8l3.664,1.061a1.205,1.205,0,0,1,.844,1.4l-7.4,36.154a1.157,1.157,0,0,1-.337.6A8.508,8.508,0,0,1,234.9,140.2Zm-2.41-3.977a2.868,2.868,0,0,0,1.9,1.543,5.3,5.3,0,0,0,3.712-1.47l7.11-34.539-1.47-.41Z" transform="translate(224.577 88.089)" fill="#231f20"/>
    <path id="Path_156" data-name="Path 156" d="M185.52,81.217c-21.693-4.821-45.8-1.446-63.318,12.051a44.807,44.807,0,0,0-15.98,21.693,28.393,28.393,0,0,0,4.483,25.983c16.631,19.981,53.147,19.885,75.731,13.353,15.4-4.435,61-26.079,48.447-47.338C225.844,91.75,201.79,84.712,185.52,81.217Z" transform="translate(47.923 60.565)" fill="#97bf3b"/>
    <path id="Path_157" data-name="Path 157" d="M151.075,139.631a85.445,85.445,0,0,1-40.806-11.738,1.181,1.181,0,0,1-.386-1.663,1.205,1.205,0,0,1,1.663-.362c.289.193,30.1,18.728,58.329,8.026,13.546-5.134,21.693-14.245,29.478-23.042,8.6-9.641,16.727-18.752,30.755-20.029a1.205,1.205,0,0,1,1.3,1.109,1.181,1.181,0,0,1-1.085,1.3c-13.064,1.181-20.536,9.641-29.164,19.282-7.665,8.6-16.342,18.342-30.442,23.693A55.436,55.436,0,0,1,151.075,139.631Z" transform="translate(54.747 77.039)" fill="#231f20"/>
    <path id="Path_158" data-name="Path 158" d="M109.738,210.107h0a1.205,1.205,0,0,1-1.157-1.253c1.76-38.155,9.641-93.061,9.641-93.615a1.229,1.229,0,0,1,1.374-1.012,1.205,1.205,0,0,1,1.012,1.35c0,.554-7.978,55.436-9.641,93.374a1.205,1.205,0,0,1-1.229,1.157Z" transform="translate(53.181 110.036)" fill="#231f20"/>
    <path id="Path_159" data-name="Path 159" d="M187.865,261.454h51.218s5.568-12.413,17.571-14.124c0,0,46.711,19.74,39.842,23.789s-112.247,3.615-112.247,3.615Z" transform="translate(159.898 297.764)" fill="#231f20"/>
    <path id="Path_160" data-name="Path 160" d="M195.715,276.682H184.941a1.181,1.181,0,0,1-.94-.458,1.205,1.205,0,0,1-.217-1.061l3.615-13.281a1.205,1.205,0,0,1,1.181-.892h50.471c1.422-2.772,7.231-12.558,18.149-14.124a1.11,1.11,0,0,1,.627,0c9.641,4.049,40.975,17.74,41.288,23.717a2.41,2.41,0,0,1-1.277,2.217C291.982,276.32,223.65,276.682,195.715,276.682Zm-9.183-2.41c42.252.12,105.305-.651,110.077-3.471,0-2.989-20.415-13.473-39.408-21.524-10.943,1.784-16.245,13.281-16.294,13.4a1.2,1.2,0,0,1-1.109.7H189.5Z" transform="translate(159.182 297.047)" fill="#231f20"/>
    <path id="Path_161" data-name="Path 161" d="M304.342,317.372c32.611-6.869,54.472-22.126,41.65-42.71s-104.919-7.231-122.924-22.488S211.5,156,191.734,142.145,87.248,114.282,77.776,131.78s0,144.834,27.6,173.106S272.527,323.928,304.342,317.372Z" transform="translate(4.712 123.285)" fill="#f0f4f9"/>
    <path id="Path_162" data-name="Path 162" d="M209.455,326.225h-5.447c-36.636-.313-83.516-4-98.822-19.62C77.9,278.453,67.248,151.07,77.492,132.052c1.76-3.254,5.785-5.64,12.051-7.231,26.2-6.219,86.77,5.11,103.642,16.872,10.629,7.448,13.931,32.828,17.137,57.365,2.916,22.416,5.929,45.578,14.341,52.737,8,6.8,32.587,7.785,56.376,8.749,29.285,1.181,59.582,2.41,66.837,14.028,4.194,6.749,5.013,13.257,2.41,19.282-4.821,11.135-20.68,20.078-44.855,25.163h0C288.825,322.682,248.236,326.225,209.455,326.225ZM107.861,125.617a81.011,81.011,0,0,0-17.836,1.663c-5.5,1.3-9.014,3.3-10.412,5.929-9.352,17.282.844,144.4,27.4,171.684,27.019,27.742,165.851,18.68,197.836,12.051h0c23.066-4.82,38.781-13.5,43.144-23.765,2.266-5.3,1.518-11.063-2.242-17.113-6.58-10.557-36.154-11.738-64.885-12.9-25.308-1.012-49.218-1.976-57.847-9.328-9.111-7.761-12.051-30.345-15.161-54.255s-6.363-48.88-16.149-55.7C178.7,134.7,136.761,125.617,107.861,125.617ZM305.119,318.15Z" transform="translate(3.935 122.507)" fill="#231f20"/>
    <path id="Path_163" data-name="Path 163" d="M240.976,185.744h-.193L163.075,172.15a1.222,1.222,0,1,1,.41-2.41l77.707,13.594a1.21,1.21,0,1,1-.217,2.41Z" transform="translate(128.6 188.316)" fill="#d1d3d4"/>
    <path id="Path_164" data-name="Path 164" d="M298.849,302.388l-2.41-.265c0-.7,7.592-70.477-16.559-101.473l1.9-1.47c10.412,13.353,16.462,34.8,17.932,63.752a271.683,271.683,0,0,1-.868,39.456Z" transform="translate(294.763 229.859)" fill="#231f20"/>
    <path id="Path_165" data-name="Path 165" d="M291.887,284.092a8.267,8.267,0,0,1,.241-2.41c5.761-36.516-4-53.532-13.208-61.39l1.567-1.832c9.641,8.243,19.957,25.983,14.028,63.607-.145.916-.241,1.519-.241,1.759Z" transform="translate(293.409 257.05)" fill="#231f20"/>
    <path id="Path_166" data-name="Path 166" d="M299.185,213.977a13.788,13.788,0,0,0-6.411-1.88,14.775,14.775,0,0,0-11.352,3.109c-.8.771-1.494,2.073-.771,2.916a2.868,2.868,0,0,0,1.543.723,9.641,9.641,0,0,1,6.628,6.628c-1.663-1.229-3.085-2.8-4.821-4.025a8.123,8.123,0,0,0-5.761-1.88,9.641,9.641,0,0,0-5.616,3.76,22.318,22.318,0,0,0-3.832,5.616,10.34,10.34,0,0,0-.868,6.676,16.075,16.075,0,0,1,6.773-.458,8,8,0,0,1,4.387,1.808,2.194,2.194,0,0,1,.771,1.157,1.928,1.928,0,0,1-1.518,2.049,6.123,6.123,0,0,1-2.8,0,49.139,49.139,0,0,0-5.953-.844,5.856,5.856,0,0,0-2.242.145,4.821,4.821,0,0,0-2.41,4.965,2.94,2.94,0,0,0,.844,2.193c.988.771,2.41.217,3.567-.265a17.5,17.5,0,0,1,6.363-1.35,1.471,1.471,0,0,1,.723.121,1.061,1.061,0,0,1,.193,1.567,2.868,2.868,0,0,1-1.543.892,33.506,33.506,0,0,1-5.062,1.181c-.988.145-2.145.361-2.627,1.253a2.724,2.724,0,0,0-.265,1.253,15.426,15.426,0,0,0,2.7,9.183,4.409,4.409,0,0,0,1.157,1.253,4.989,4.989,0,0,0,2.145.578A35.141,35.141,0,0,0,290,259.893a1.5,1.5,0,0,0,.7-.506c.313-.554-.217-1.205-.627-1.687-1.783-2.193-1.374-5.351-.868-8.123a2.41,2.41,0,0,1,.627-1.446,1.615,1.615,0,0,1,2.169.337,4.073,4.073,0,0,1,.8,2.266,21.139,21.139,0,0,1-.675,8.508,43.094,43.094,0,0,0,8.075-2.748,24.948,24.948,0,0,0,5.881-3.254,9.642,9.642,0,0,0,3.591-5.544,1.783,1.783,0,0,0-.12-1.229,2,2,0,0,0-.723-.627,15.234,15.234,0,0,1-5.688-6.7c-.241-.578-.362-1.374.169-1.663a1.157,1.157,0,0,1,.7,0c3.037.506,4.579,3.9,7.086,5.712a1.277,1.277,0,0,0,.7.289,1.108,1.108,0,0,0,.819-.362,6.485,6.485,0,0,0,1.952-3.519,12.7,12.7,0,0,0-.434-8.026,9.087,9.087,0,0,0-5.881-5.279,10.388,10.388,0,0,0-3.76-.169c-.434,0-2.748.82-3.061.53s.916-2.025,1.205-2.6C304.2,220.485,302.1,215.906,299.185,213.977Z" transform="translate(273.602 247.866)" fill="#231f20"/>
    <path id="Path_167" data-name="Path 167" d="M300.91,210.562a11.617,11.617,0,0,0-9.641,4.989,13.305,13.305,0,0,0-1.687,8.34,38.567,38.567,0,0,0,2.073,8.364,11.786,11.786,0,0,1,9.207-6c3.929-.337-.651,3.447-1.326,4.242-2.218,2.6-4.338,5.279-6.435,7.978a3.784,3.784,0,0,0-.362,5.134,24.634,24.634,0,0,0,7.231,9.231,2.989,2.989,0,0,0,3.133.506,3.494,3.494,0,0,0,1.06-1.543,27.481,27.481,0,0,1,4.459-6.652c.434-.506,1.133-1.012,1.687-.651s.458.916.41,1.446l-.506,5.375a12.749,12.749,0,0,0,.337,5.809c1.277,3.423,5.134,5.134,8.725,5.809a5.712,5.712,0,0,0,2.989,0c1.928-.675,2.724-2.965,3.061-4.989a14.822,14.822,0,0,1,3.157-7.231,26.969,26.969,0,0,0,3.3,9.954,13.474,13.474,0,0,0,3.543,4.266,12.728,12.728,0,0,0,5.23,2.169,39.286,39.286,0,0,0,9.641.53,24.1,24.1,0,0,0,6.6-.844,8.943,8.943,0,0,0,5.206-3.929c1.9-3.423.434-7.833-2.025-10.87s-5.785-5.3-8.34-8.267a23.331,23.331,0,0,1,8.7,4.531,3.229,3.229,0,0,0,2.41,1.109,2.145,2.145,0,0,0,1.109-.627c3.808-3.808-.578-10.244-2.6-13.666a11.112,11.112,0,0,0-5.4-5.544,8.822,8.822,0,0,0-4.339,0c-2.169.362-12.919,5.254-8.34-1.181a12.63,12.63,0,0,1,9.979-4.363c1.856.169,4.676,1.663,4.628-1.808a6.509,6.509,0,0,0-1.4-3.4,74.564,74.564,0,0,0-4.821-6.435,3.157,3.157,0,0,0-1.808-1.277,3.085,3.085,0,0,0-1.808.506,41.118,41.118,0,0,1-14.317,5.351c-1.157,0-2.772-.361-2.579-1.494a1.688,1.688,0,0,1,.747-.988c3.061-2.41,7.641-1.374,10.774-3.591a3.76,3.76,0,0,0,1.711-2.7c0-1.615-1.326-2.892-2.627-3.881a22.849,22.849,0,0,0-11.5-5.327c-6.339-.506-12.051,3.664-16.318,8.412-1.422,1.615-2.41,5.809-4.6,5.544a36.633,36.633,0,0,1-4.049-1.711,13.81,13.81,0,0,0-4.29-.627Z" transform="translate(308.296 229.468)" fill="#231f20"/>
    <path id="Path_168" data-name="Path 168" d="M315.319,195.256a10.509,10.509,0,0,0-3.157-6.411c-3.23-2.941-8.074-3.085-12.389-2.41a63.369,63.369,0,0,0-9.5,2.82c-3.109.892-4.025,1.591-1.253,4.122,1.952,1.759,7.231,8.05,4.821,11.063s-6.46-4.676-8.026-5.953a11.473,11.473,0,0,0-7.617-3.254,11.883,11.883,0,0,0-6.556,3.471,69.127,69.127,0,0,0-5.351,5.279,2.675,2.675,0,0,0-.627.94c-.386,1.4,1.518,2.217,2.94,2.41,4.073.747,8.629,2.868,9.448,6.917-4.194,1.036-8.147-3.206-12.437-2.748a9.762,9.762,0,0,0-6.869,6.1,15.475,15.475,0,0,0-1.036,8.6,22.993,22.993,0,0,1,11.28-.964,1.953,1.953,0,0,1,1.253.554,1.4,1.4,0,0,1-.554,1.88,3.712,3.712,0,0,1-2.121.362h-6.99a3.037,3.037,0,0,0-1.952.458,2.748,2.748,0,0,0-.771,1.808,37.788,37.788,0,0,0-.12,9.641,8.194,8.194,0,0,0,2.193,5.351,8.413,8.413,0,0,0,3.712,1.591,49.029,49.029,0,0,0,10.774,1.35,8.485,8.485,0,0,1-1.085-7.785c1.446-3.374,3.9-1.422,4.025,1.639,0,1.446-.265,2.868-.313,4.314a1.519,1.519,0,0,0,.145.8,1.446,1.446,0,0,0,.554.434,8.846,8.846,0,0,0,6.267.82,4.026,4.026,0,0,0,1.663-.747,5.23,5.23,0,0,0,1.012-4.821l-.988-8.7a1.35,1.35,0,0,1,.241-1.181c.434-.434,1.205,0,1.663.337a7.81,7.81,0,0,1,2.6,6.339c0,1.374-.578,2.7-.675,4.049a3.929,3.929,0,0,0,1.446,3.639,4.821,4.821,0,0,0,3.712.193,7.231,7.231,0,0,0,4.218-2.193,6.508,6.508,0,0,0,.8-5.11,32.306,32.306,0,0,1-1.012-5.23c0-3.567,3.664-8.677,4.266-2.41a43.681,43.681,0,0,1-.361,6.122,1.785,1.785,0,0,0,0,.8,1.639,1.639,0,0,0,1.374.651,15.233,15.233,0,0,0,8.219-1.591,12.823,12.823,0,0,0,4.483-3.615,21.186,21.186,0,0,0,2.242-4.025c2.916-6.194,7.568-11.039,2.145-17.667-1.856-2.266-5.3-2.868-7.038-5.182-2.049-2.748,1.109-7.11,1.229-10.557a14.747,14.747,0,0,0,.072-2.29Z" transform="translate(263.181 211.416)" fill="#231f20"/>
    <path id="Path_169" data-name="Path 169" d="M274.27,239h61.462l-4.821,46.133a13.739,13.739,0,0,1-13.69,12.341H292.66a13.738,13.738,0,0,1-13.666-12.34Z" transform="translate(286.851 286.017)" fill="#fff"/>
    <path id="Path_170" data-name="Path 170" d="M318.109,299.456H293.452a14.968,14.968,0,0,1-14.92-13.474l-4.82-46.133a1.3,1.3,0,0,1,.313-.94,1.254,1.254,0,0,1,.94-.41h61.462a1.181,1.181,0,0,1,.916.41,1.133,1.133,0,0,1,.313.94l-4.82,46.133A14.944,14.944,0,0,1,318.109,299.456Zm-41.674-58.473,4.579,44.759a12.485,12.485,0,0,0,12.437,11.232h24.657a12.485,12.485,0,0,0,12.437-11.232l4.6-44.759Z" transform="translate(286.06 285.312)" fill="#231f20"/>
    <path id="Path_171" data-name="Path 171" d="M290.827,286.256c0-.434-4.821-44.59,16.872-80.166l2.073,1.253c-21.235,34.853-16.51,78.189-16.462,78.623Z" transform="translate(309.557 239.604)" fill="#231f20"/>
    <path id="Path_172" data-name="Path 172" d="M268.088,218.541a1.229,1.229,0,0,1-.82-.337,1.205,1.205,0,0,1,0-1.711c12.582-13.257,32.394-21.331,33.238-21.693a1.206,1.206,0,1,1,.892,2.242c-.193,0-20.174,8.195-32.394,21.09A1.206,1.206,0,0,1,268.088,218.541Z" transform="translate(276.474 223.562)" fill="#fff"/>
    <path id="Path_173" data-name="Path 173" d="M271.62,245a1.205,1.205,0,0,1-1.061-1.759,100.245,100.245,0,0,1,17.21-23.38,1.181,1.181,0,0,1,1.687,0,1.205,1.205,0,0,1,0,1.687,98.46,98.46,0,0,0-16.727,22.777A1.229,1.229,0,0,1,271.62,245Z" transform="translate(281.427 258.52)" fill="#fff"/>
    <path id="Path_174" data-name="Path 174" d="M332.408,244.459a1.253,1.253,0,0,1-1.012-.53c-.578-.892-14.462-21.693-30.924-33.985a1.205,1.205,0,0,1-.241-1.687,1.229,1.229,0,0,1,1.687-.241c16.438,12.413,29.984,32.346,31.478,34.563a1.205,1.205,0,0,1-.337,1.663A1.109,1.109,0,0,1,332.408,244.459Z" transform="translate(323.123 241.993)" fill="#fff"/>
    <rect id="Rectangle_28" data-name="Rectangle 28" width="146.328" height="102.726" transform="translate(502.816 67.786)" fill="#fff"/>
    <path id="Path_175" data-name="Path 175" d="M397.089,153.936h-146.3a1.205,1.205,0,0,1-1.205-1.205V50.005a1.205,1.205,0,0,1,1.205-1.205h146.3a1.205,1.205,0,0,1,1.205,1.205V152.731A1.205,1.205,0,0,1,397.089,153.936Zm-145.1-2.41H395.884V51.21H251.99Z" transform="translate(252.031 17.781)" fill="#d1d3d4"/>
    <path id="Path_176" data-name="Path 176" d="M300.488,157.148a1.229,1.229,0,0,1-1.205-1.012l-5.929-38.468-10.364,4.58a1.205,1.205,0,0,1-1.591-.627,1.181,1.181,0,0,1,.627-1.567l11.834-5.11a1.181,1.181,0,0,1,1.06,0,1.23,1.23,0,0,1,.627.868l6.17,39.89a1.181,1.181,0,0,1-1.012,1.374Z" transform="translate(296.763 110.885)" fill="#231f20"/>
    <path id="Path_177" data-name="Path 177" d="M316.356,187.517H286.179L284.54,122.56h33.455Z" transform="translate(301.335 121.804)" fill="#fff"/>
    <path id="Path_178" data-name="Path 178" d="M317.117,189.4H286.941a1.205,1.205,0,0,1-1.205-1.157L284,123.313a1.229,1.229,0,0,1,.337-.868,1.253,1.253,0,0,1,.868-.386H318.66a1.277,1.277,0,0,1,1.205,1.253l-1.639,65.078A1.205,1.205,0,0,1,317.117,189.4Zm-28.923-2.41h27.815l1.567-62.547H286.531Z" transform="translate(300.573 121.098)" fill="#231f20"/>
    <rect id="Rectangle_29" data-name="Rectangle 29" width="39.577" height="6.58" transform="translate(582.814 237.784)" fill="#fff"/>
    <path id="Path_179" data-name="Path 179" d="M323.552,128.32H283.975a1.205,1.205,0,0,1-1.205-1.205v-6.58a1.205,1.205,0,0,1,1.205-1.205h39.577a1.205,1.205,0,0,1,1.205,1.205v6.58A1.205,1.205,0,0,1,323.552,128.32Zm-38.372-2.41h37.167v-4.17H285.18Z" transform="translate(298.838 117.248)" fill="#231f20"/>
    <path id="Path_180" data-name="Path 180" d="M300.931,157.3a14.462,14.462,0,1,1,13.232-14.462A13.883,13.883,0,0,1,300.931,157.3Zm0-26.393a12.051,12.051,0,1,0,10.822,12.051A11.473,11.473,0,0,0,300.931,130.911Z" transform="translate(302.322 130.084)" fill="#d1d3d4"/>
    <path id="Path_181" data-name="Path 181" d="M285.149,123.55a26.923,26.923,0,0,1-8.677-1.494,58.57,58.57,0,0,1-10.533-4.483h0c-.82-.458-1.615-.988-2.41-1.518a17.547,17.547,0,0,1-7.737-11.593,7.712,7.712,0,0,1,.82-5.062,11.594,11.594,0,0,1,5.3-4.025,13.76,13.76,0,0,0,3.856-2.41c2.41-2.579,1.47-6.339.506-10.316-.265-1.012-.506-2-.7-2.965a20.849,20.849,0,0,1,4.58-17.547,21.235,21.235,0,0,1,17.908-6.966c9.352,1.061,16.727,5.568,20.246,12.341a20.921,20.921,0,0,1-.988,20.1,11.545,11.545,0,0,0-2.121,6.267,10.8,10.8,0,0,0,3.013,5.206,13.641,13.641,0,0,1,3.519,6.291c.578,3.953-2.025,7.737-7.954,11.569a34.154,34.154,0,0,1-18.631,6.6Zm-18-8.1a55.609,55.609,0,0,0,10.1,4.314c10.171,3.471,18.149-.313,25.26-4.821,5.062-3.3,7.231-6.291,6.869-9.207a11.616,11.616,0,0,0-2.989-5.11,12.967,12.967,0,0,1-3.543-6.484,12.992,12.992,0,0,1,2.29-7.52,18.68,18.68,0,0,0,1.061-18c-3.133-6.05-9.834-10.075-18.366-11.063a18.728,18.728,0,0,0-15.836,6.17,18.463,18.463,0,0,0-4.025,15.5c.193.916.434,1.88.675,2.844,1.036,4.218,2.218,9.014-1.085,12.533A15.546,15.546,0,0,1,263,97.591a9.642,9.642,0,0,0-4.29,3.109,5.4,5.4,0,0,0-.506,3.519,15.353,15.353,0,0,0,6.773,9.93,25.793,25.793,0,0,0,2.169,1.422Z" transform="translate(260.619 26.62)" fill="#d1d3d4"/>
    <path id="Path_182" data-name="Path 182" d="M334.906,107.742a48.4,48.4,0,0,1-18-3.736l-1.205-.482a15.474,15.474,0,0,0-16.366.627,29.187,29.187,0,0,1-8.388,2.82A19.716,19.716,0,0,1,273.709,99.5h0a27.211,27.211,0,0,1-6.6-13.907,14.775,14.775,0,0,1,8.074-15.546c5.592-2.41,11.545-.747,17.33.892a34.3,34.3,0,0,0,12.943,1.976,30.8,30.8,0,0,0,9.641-3.326,54.7,54.7,0,0,1,6.074-2.579c9.641-3.206,28.273,0,35.6,8.05a16.534,16.534,0,0,1,3.977,15.836,23.187,23.187,0,0,1-15.209,15.378A34.2,34.2,0,0,1,334.906,107.742Zm-26.682-8.677h.578a23.4,23.4,0,0,1,7.833,2.193l1.157.482a39.65,39.65,0,0,0,26.826,2.1,20.777,20.777,0,0,0,13.642-13.666,14.269,14.269,0,0,0-3.447-13.618c-6.6-7.231-24.223-10.34-33.045-7.375a51.145,51.145,0,0,0-5.809,2.41,33.094,33.094,0,0,1-10.292,3.639,36.637,36.637,0,0,1-13.883-2.073c-5.592-1.591-10.894-3.109-15.691-.988a12.461,12.461,0,0,0-6.58,13.04,24.946,24.946,0,0,0,6.122,12.7c2.555,2.868,7.906,7.592,15.137,6.676a27.426,27.426,0,0,0,7.665-2.627A23.934,23.934,0,0,1,308.224,99.065Z" transform="translate(276.494 41.729)" fill="#d1d3d4"/>
    <path id="Path_183" data-name="Path 183" d="M311.4,98.962a10.437,10.437,0,0,1-8.556-3.591,16.027,16.027,0,0,0-4-2.916,16.486,16.486,0,0,0-5.616-1.518,12.413,12.413,0,0,1-9.087-4.338,14.293,14.293,0,0,1-2.675-11.618,19.282,19.282,0,0,1,8.918-12.823c12.7-7.472,36.275.313,43.964,11.352,2.724,3.9,5.833,11.642-3.856,19.475a30.659,30.659,0,0,1-17.571,6.026h0Zm-8.677-37.456a21.957,21.957,0,0,0-11.111,2.6,16.872,16.872,0,0,0-7.761,11.184,11.69,11.69,0,0,0,2.193,9.641,10.123,10.123,0,0,0,7.52,3.471,16.245,16.245,0,0,1,10.943,5.206,8.6,8.6,0,0,0,8.267,2.868h0a29.212,29.212,0,0,0,16.2-5.471c6.146-4.989,7.231-10.605,3.4-16.221-5.158-7.424-18.415-13.281-29.646-13.281Z" transform="translate(296.578 32.455)" fill="#d1d3d4"/>
    <path id="Path_184" data-name="Path 184" d="M148.448,80.522s7.785-6.315,0-14.462H135.89s2.7,10.533,0,14.462Z" transform="translate(91.696 42.123)" fill="#231f20"/>
    <path id="Path_185" data-name="Path 185" d="M149.212,82.418H136.654a1.253,1.253,0,0,1-1.085-.651,1.229,1.229,0,0,1,0-1.253c1.952-2.82.53-10.653-.193-13.425a1.374,1.374,0,0,1,.217-1.061,1.229,1.229,0,0,1,.964-.458h12.558a1.325,1.325,0,0,1,.868.362,11.666,11.666,0,0,1,3.808,8.749,11.449,11.449,0,0,1-3.9,7.472A1.229,1.229,0,0,1,149.212,82.418Zm-10.678-2.41h10.2a8.822,8.822,0,0,0,2.651-5.5,8.99,8.99,0,0,0-2.772-6.532H138.1a27.959,27.959,0,0,1,.434,12.027Z" transform="translate(90.932 41.432)" fill="#231f20"/>
    <path id="Path_186" data-name="Path 186" d="M171.564,81.969a9.015,9.015,0,0,0-2.724-7.689,19.065,19.065,0,0,0-3.158-3.23,20.1,20.1,0,0,0-7.448-2.941c-5.857-1.422-12.7.386-18.68.506A47.53,47.53,0,0,1,120.8,65.145a12.63,12.63,0,0,1-5.327-3.495c-1.494,8.749-1.3,18.39,3.736,25.742a33.479,33.479,0,0,0,16.872,11.642A27.164,27.164,0,0,0,163.152,95.1a23.356,23.356,0,0,0,7.665-10.1A15.742,15.742,0,0,0,171.564,81.969Z" transform="translate(61.759 35.903)" fill="#fff"/>
    <path id="Path_187" data-name="Path 187" d="M147.26,102.78a32.708,32.708,0,0,1-10.943-2,34.564,34.564,0,0,1-17.426-12.051c-4.507-6.58-5.809-15.522-3.9-26.513a1.229,1.229,0,0,1,.892-.964,1.181,1.181,0,0,1,1.229.434,11.786,11.786,0,0,0,4.821,3.133,47.362,47.362,0,0,0,18.39,3.109,57.348,57.348,0,0,0,6.194-.506,37.383,37.383,0,0,1,12.8,0,21.234,21.234,0,0,1,7.906,3.133,23.6,23.6,0,0,1,3.35,3.423,10.147,10.147,0,0,1,2.965,8.653h0a16.054,16.054,0,0,1-.892,3.278,24.8,24.8,0,0,1-8.05,10.629,27.718,27.718,0,0,1-17.33,6.243ZM117.011,64.722c-1.253,9.4,0,16.872,3.881,22.584a32.057,32.057,0,0,0,16.245,11.208,26.127,26.127,0,0,0,25.935-3.736,22.343,22.343,0,0,0,7.231-9.641,14.845,14.845,0,0,0,.8-2.8,7.954,7.954,0,0,0-2.41-6.749,19.646,19.646,0,0,0-2.989-2.844,19.282,19.282,0,0,0-7.014-2.724,35.55,35.55,0,0,0-12.051,0c-2.121.217-4.339.458-6.411.506a49.892,49.892,0,0,1-19.282-3.543,19.016,19.016,0,0,1-3.929-2.266ZM172.3,82.582Z" transform="translate(61.02 35.29)" fill="#231f20"/>
    <rect id="Rectangle_30" data-name="Rectangle 30" width="102.34" height="67.584" transform="translate(382.109 55.036)" fill="#fff"/>
    <path id="Path_188" data-name="Path 188" d="M303.046,113.543H200.705a1.205,1.205,0,0,1-1.205-1.205V44.705a1.205,1.205,0,0,1,1.205-1.205h102.34a1.229,1.229,0,0,1,1.205,1.205v67.632a1.229,1.229,0,0,1-1.205,1.205Zm-101.232-2.41H301.937v-65.2H201.91Z" transform="translate(181.404 10.307)" fill="#d1d3d4"/>
    <rect id="Rectangle_31" data-name="Rectangle 31" width="102.34" height="13.377" transform="translate(382.109 122.644)" fill="#fff"/>
    <path id="Path_189" data-name="Path 189" d="M303.046,87.347H200.705a1.205,1.205,0,0,1-1.205-1.205V72.765a1.205,1.205,0,0,1,1.205-1.205h102.34a1.205,1.205,0,0,1,1.205,1.205V86.142A1.205,1.205,0,0,1,303.046,87.347Zm-101.232-2.41H301.937V73.97H201.91Z" transform="translate(181.404 49.879)" fill="#d1d3d4"/>
    <path id="Path_190" data-name="Path 190" d="M205.578,86.3a1.181,1.181,0,0,1-.94-1.952c1.157-1.446,28.923-35.5,54.81-33.455,10.316.82,17.354,6.219,18.848,14.462a16.294,16.294,0,0,1-8.942,17.74c-7.231,3.35-13.931,3.3-18.607-.145a14,14,0,0,1-4.965-13.835,10.533,10.533,0,0,1,7.544-9.641,12.606,12.606,0,0,1,12.341,3.495,5.255,5.255,0,0,1,.8,5.905c-1.832,3.543-4,5.4-6.46,5.5-3.929,0-6.821-4.459-6.942-4.652a1.205,1.205,0,0,1,.41-1.663,1.181,1.181,0,0,1,1.639.41c.627.988,2.627,3.615,4.821,3.495s3.423-2.41,4.387-4.194a2.844,2.844,0,0,0-.53-3.278,10.147,10.147,0,0,0-9.81-2.7,8.243,8.243,0,0,0-5.809,7.641,11.69,11.69,0,0,0,4,11.545c3.929,2.916,9.834,2.892,16.173,0a13.835,13.835,0,0,0,7.472-15.233c-1.277-7.062-7.5-11.714-16.655-12.437-24.513-2.025-52.375,32.2-52.641,32.563A1.229,1.229,0,0,1,205.578,86.3Z" transform="translate(188.245 20.606)" fill="#d1d3d4"/>
    <path id="Path_191" data-name="Path 191" d="M245.217,117.874H205.785a1.205,1.205,0,0,1-1.205-1.205V85.335a1.205,1.205,0,0,1,1.205-1.205h39.432a1.205,1.205,0,0,1,1.205,1.205v31.334A1.205,1.205,0,0,1,245.217,117.874Zm-38.227-2.41h37.022V86.54H206.99Z" transform="translate(188.569 67.607)" fill="#d1d3d4"/>
    <path id="Path_192" data-name="Path 192" d="M213.965,92.8a1.205,1.205,0,0,1-1.205-1.205V84.1a1.205,1.205,0,0,1,2.41,0v7.448a1.205,1.205,0,0,1-1.205,1.253Z" transform="translate(200.105 65.858)" fill="#d1d3d4"/>
  </g>
</svg>
