<svg xmlns="http://www.w3.org/2000/svg" width="425.38" height="564.348" viewBox="0 0 425.38 564.348">
  <g id="Group_86" data-name="Group 86" transform="translate(-1494.203 -515)">
    <g id="Group_10" data-name="Group 10">
      <g id="_232_designer_flatline" data-name="#232_designer_flatline" transform="translate(1430.494 679.764)">
        <path id="Path_1" data-name="Path 1" d="M351.156,264.223s51.389-134.051,24.766-154.494-138.28-12.188-144.4-4.885S189.39,273.508,189.39,273.508Z" transform="translate(70.45 36.173)" fill="#231f20"/>
        <path id="Path_2" data-name="Path 2" d="M189.617,274.58a.812.812,0,0,1-.593-.265.749.749,0,0,1-.156-.671c1.467-6.6,36.189-161.642,42.369-169.007,3.386-4.042,33.193-7.8,65.09-8.224,18.727-.25,64.123.515,80.384,12.984,11.314,8.677,10.6,37.453-2.122,85.705-9.363,35.69-22.269,69.32-22.394,69.647a.765.765,0,0,1-.687.5l-161.844,9.363ZM302.227,97.926h-5.868c-32.772.437-61.252,4.479-63.982,7.678-4.682,5.634-29.276,111.314-41.823,167.338L350.869,263.7c3.293-8.723,49.938-133.864,24.844-153.105C365.148,102.5,338.509,97.926,302.227,97.926Zm49.235,166.557Z" transform="translate(70.144 35.912)" fill="#231f20"/>
        <path id="Path_3" data-name="Path 3" d="M167.659,131.1,144.5,208.833s47.768,6.164,47.768,4.4,9.363-85.534,9.363-85.534Z" transform="translate(45.287 53.47)" fill="#fff"/>
        <path id="Path_4" data-name="Path 4" d="M190.144,214.546c-8.068,0-30.961-2.778-45.459-4.682a.8.8,0,0,1-.655-1l23.159-77.731a.78.78,0,0,1,.671-.562l33.989-3.4a.765.765,0,0,1,.624.234.718.718,0,0,1,.219.624c-3.23,28.87-9.363,83.879-9.363,85.456a1,1,0,0,1-.312.671A6.445,6.445,0,0,1,190.144,214.546ZM191.7,213.5Zm-45.974-5.025c16.6,2.122,42.385,5.072,46,4.557.593-6.742,8.193-74.781,9.238-84.16l-32.491,3.262Z" transform="translate(45.007 53.172)" fill="#231f20"/>
        <path id="Path_5" data-name="Path 5" d="M133.9,117.614c.2.218,8.427-1.982,12.672,3.121s-1.264,9.66-14.669,7.022S133.9,117.614,133.9,117.614Z" transform="translate(35.151 47.654)" fill="#fff"/>
        <path id="Path_6" data-name="Path 6" d="M139.255,129.542a38.126,38.126,0,0,1-7.225-.765c-3.87-.765-5.868-2.013-6.1-3.839-.453-3.527,6.507-7.1,7.912-7.8a.78.78,0,0,1,.5,0h.515c2.185-.265,8.833-1.108,12.609,3.418,1.685,2,2.044,4.042,1.046,5.758C147.213,128.356,143.858,129.542,139.255,129.542Zm-4.9-10.924c-3.043,1.561-7.054,4.307-6.835,6.039,0,.577.811,1.67,4.822,2.466,9.067,1.779,13.624.125,14.778-1.826a3.449,3.449,0,0,0-.89-3.9c-3.215-3.839-9-3.121-11.174-2.84A3.12,3.12,0,0,1,134.355,118.618Z" transform="translate(34.864 47.415)" fill="#231f20"/>
        <path id="Path_7" data-name="Path 7" d="M118.35,108.527s-1.685-1.935-.624-3.293a2.294,2.294,0,0,1,3.714.343S118.787,106.53,118.35,108.527Z" transform="translate(30.082 40.433)" fill="#fff"/>
        <path id="Path_8" data-name="Path 8" d="M118.638,109.61a.812.812,0,0,1-.609-.265c-.78-.905-1.81-2.84-.64-4.307a2.809,2.809,0,0,1,2.232-1.108,3.418,3.418,0,0,1,2.715,1.42.78.78,0,0,1,.156.733.8.8,0,0,1-.5.546c-.624.218-2.294,1.092-2.575,2.356a.8.8,0,0,1-.577.609Zm1.014-4.073h0a1.28,1.28,0,0,0-.983.484,1.2,1.2,0,0,0,0,1.108,6.132,6.132,0,0,1,1.685-1.436,1.264,1.264,0,0,0-.687-.094Z" transform="translate(29.794 40.146)" fill="#231f20"/>
        <path id="Path_9" data-name="Path 9" d="M121.728,105.12a4.214,4.214,0,0,0-3.808,3.464l33.474,43.555a9.363,9.363,0,0,1,8.006-8.349Z" transform="translate(30.387 40.813)" fill="#fff"/>
        <path id="Path_10" data-name="Path 10" d="M151.668,153.227a.8.8,0,0,1-.624-.312L117.57,109.36a.811.811,0,0,1-.14-.7,5.087,5.087,0,0,1,4.588-4.057.811.811,0,0,1,.577.25l37.672,38.67a.78.78,0,0,1,.187.811.8.8,0,0,1-.624.546,8.552,8.552,0,0,0-7.35,7.615.8.8,0,0,1-.577.7ZM119.1,108.72l32.163,41.838a9.988,9.988,0,0,1,6.851-6.944l-36.392-37.36a3.433,3.433,0,0,0-2.622,2.466Z" transform="translate(30.097 40.521)" fill="#231f20"/>
        <path id="Path_11" data-name="Path 11" d="M139.392,138.257l11.423,5.93,1.42-1.326L147.4,129.908S138.5,129.019,139.392,138.257Z" transform="translate(42.389 54.695)" fill="#fff"/>
        <path id="Path_12" data-name="Path 12" d="M151.129,145.278a.749.749,0,0,1-.375-.094l-11.423-5.93a.8.8,0,0,1-.437-.64,8.3,8.3,0,0,1,2.013-6.991,9.363,9.363,0,0,1,6.882-2.232.811.811,0,0,1,.687.531l4.822,12.953a.8.8,0,0,1-.2.874l-1.42,1.326A.827.827,0,0,1,151.129,145.278Zm-10.659-7.241,10.518,5.462.624-.562-4.463-11.954a7.631,7.631,0,0,0-5.119,1.779,6.554,6.554,0,0,0-1.56,5.275Z" transform="translate(42.075 54.4)" fill="#231f20"/>
        <path id="Path_13" data-name="Path 13" d="M146.69,139.526l2.185,2.341,1.03-1.17-1.795-2.5Z" transform="translate(46.514 59.356)" fill="#fff"/>
        <path id="Path_14" data-name="Path 14" d="M149.166,142.967a.749.749,0,0,1-.577-.265l-2.2-2.341a.858.858,0,0,1-.219-.577.827.827,0,0,1,.265-.562l1.42-1.326a.812.812,0,0,1,1.2.125l1.795,2.5a.8.8,0,0,1,0,1l-1.03,1.17a.765.765,0,0,1-.593.281Zm-1.046-3.121,1.03,1.108h0l-.89-1.233Z" transform="translate(46.223 59.067)" fill="#231f20"/>
        <path id="Path_15" data-name="Path 15" d="M143.148,149.368c1.841-3.73,6.461-11.642,7.522-15.075,2.934-9.363-14.248-18.134-19.8-18.134S113.7,135.573,113.7,145.951s38.468,89.841,38.468,89.841l36.907-16.885Z" transform="translate(28.022 47.001)" fill="#fff"/>
        <path id="Path_16" data-name="Path 16" d="M152.489,236.895a.8.8,0,0,1-.718-.452c-1.561-3.246-38.561-79.775-38.561-90.2s11.735-30.6,17.931-30.6c4.276,0,14.217,4.557,18.727,10.612a9.363,9.363,0,0,1,1.919,8.583,85.737,85.737,0,0,1-5.212,10.69c-.827,1.561-1.561,2.965-2.154,4.073l45.708,69.132a.843.843,0,0,1,.109.671.811.811,0,0,1-.437.5l-36.923,16.916a.593.593,0,0,1-.39.078ZM131.141,117.247c-4.885,0-16.308,18.727-16.308,29,0,9.551,34.223,80.852,38.031,88.8l35.346-16.2-45.459-68.664a.843.843,0,0,1,0-.811c.593-1.186,1.451-2.793,2.388-4.541a85.226,85.226,0,0,0,5.087-10.409,7.8,7.8,0,0,0-1.67-7.147C144.2,121.352,134.73,117.247,131.141,117.247Z" transform="translate(27.747 46.71)" fill="#231f20"/>
        <path id="Path_17" data-name="Path 17" d="M315.8,182.817l45.49-11.595c-1.561-2.2-19.913-60.456-39.263-69.991C305.095,90,264.942,82.5,229.471,85.049c0,0-9.363-.343-25.78,6.164C163.709,107.1,156,162.421,156,162.421L187.211,173.2s-5.961,71.551-11.595,108.957c0,0,69.007,13.5,169.476-3.121C345.17,279.009,315.987,193.4,315.8,182.817Z" transform="translate(51.733 29.283)" fill="#3e43b9"/>
        <path id="Path_18" data-name="Path 18" d="M298.894,115.961c-6.024,6.242-10.721,13.733-17.369,19.616-14.326,12.672-33.068,22.706-52.715,21.489-23.159-1.436-43.18-17.26-48.205-40.309-3.121-14.451.125-27.871,11.3-38.077,7.725-7.054,17.619-11.361,27.731-14.045,26.857-7.194,56.991-3.371,79.916,12.391a28.527,28.527,0,0,1,9.238,9.176c5.727,10.378-.858,21.052-8.286,28.183C300,114.868,299.471,115.414,298.894,115.961Z" transform="translate(64.894 16.161)" fill="#3e43b9"/>
        <path id="Path_19" data-name="Path 19" d="M207.08,110.853c-.234,0-4.541,5.243-4.76,5.321,2.45,9.238,5.041,21.27,15.5,22.456,21.208,2.419,24.423-25.858,28.418-39.2C231.549,103.55,221.187,105.2,207.08,110.853Z" transform="translate(77.698 37.623)" fill="#231f20"/>
        <path id="Path_20" data-name="Path 20" d="M220.58,139.864a24.207,24.207,0,0,1-2.559-.156c-10.44-1.186-13.389-12.484-15.777-21.52l-.406-1.561a.78.78,0,0,1,.312-.827c.25-.234,1.389-1.561,2.216-2.528,2.419-2.778,2.45-2.793,2.7-2.9h0a194.141,194.141,0,0,1,26.529-8.13c3.979-1,8.084-2.029,12.64-3.308a.78.78,0,0,1,.765.2.812.812,0,0,1,.187.765c-.593,1.982-1.17,4.323-1.795,6.8C242.163,120.06,237.216,139.848,220.58,139.864Zm-17.166-23.143.281,1.077c2.388,9.051,5.072,19.3,14.451,20.287,17.369,1.982,22.222-17.541,25.78-31.8.484-1.951.952-3.823,1.42-5.509-4.042,1.108-7.8,2.044-11.345,2.949a188.311,188.311,0,0,0-26.28,8.021c-.312.312-1.4,1.561-2.216,2.512-1.092,1.4-1.7,2.091-2.044,2.466Zm-.858-.234ZM207.6,111.8Z" transform="translate(77.415 37.327)" fill="#231f20"/>
        <path id="Path_21" data-name="Path 21" d="M247.281,39.352c-3.121-.125-5.119,1.233-7.8,2.2-5.228,1.841-7.662-2.528-12.157-4.853A34.535,34.535,0,0,0,184.5,45.672a25.8,25.8,0,0,0-5.821,12.953c-.655,5.4.858,10.924-.078,16.261A18.368,18.368,0,0,1,167.24,88.619a43.773,43.773,0,0,0,14.856-1.4A15.122,15.122,0,0,1,170.8,92.6a28.09,28.09,0,0,0,17.369,5.821l-11,2.575c9.363,6.008,20.771,7.8,31.8,7.3,21.973-1.139,58.77-10.128,58.13-38.592C266.741,58.8,260.748,39.976,247.281,39.352Z" transform="translate(58.034 0.276)" fill="#fff"/>
        <path id="Path_22" data-name="Path 22" d="M205.493,109.494c-8.411,0-19.179-1.561-28.511-7.522a.8.8,0,0,1-.343-.8.827.827,0,0,1,.593-.624l6.117-1.42a29.026,29.026,0,0,1-12.8-5.587.78.78,0,0,1,.468-1.4,14.31,14.31,0,0,0,8.786-3.2,43.993,43.993,0,0,1-12.391.78.78.78,0,0,1-.7-.671.765.765,0,0,1,.5-.843,17.509,17.509,0,0,0,10.924-13.124,34.77,34.77,0,0,0,.094-8.458,41.7,41.7,0,0,1,0-7.8,26.623,26.623,0,0,1,5.993-13.358,35.3,35.3,0,0,1,43.789-9.16,26.033,26.033,0,0,1,3.776,2.513c2.528,1.919,4.526,3.433,7.8,2.294.7-.25,1.358-.531,2-.8a13.389,13.389,0,0,1,6.149-1.451h0c13.514.593,20.287,18.914,20.506,31.117.281,12.937-6.788,23.127-21.021,30.259s-31.211,8.786-37.843,9.129C208.068,109.463,206.8,109.494,205.493,109.494Zm-26.061-7.8c10.081,5.852,21.645,6.632,29.744,6.242,6.492-.343,23.1-1.888,37.219-8.973,13.655-6.835,20.428-16.526,20.162-28.823-.265-11.61-6.492-29.042-19.007-29.65a12.328,12.328,0,0,0-5.477,1.326c-.671.281-1.358.577-2.091.827-4.042,1.42-6.57-.5-9.238-2.528a24.077,24.077,0,0,0-3.542-2.356,33.708,33.708,0,0,0-41.854,8.755,25.078,25.078,0,0,0-5.665,12.484,39.884,39.884,0,0,0,0,7.475,36.391,36.391,0,0,1-.125,8.833,19.086,19.086,0,0,1-9,12.937,43.7,43.7,0,0,0,11.517-1.561.78.78,0,0,1,.874.328.8.8,0,0,1,0,.921,15.964,15.964,0,0,1-9.707,5.493,27.31,27.31,0,0,0,15.184,4.432.765.765,0,0,1,.78.687.78.78,0,0,1-.593.858Z" transform="translate(57.733)" fill="#231f20"/>
        <path id="Path_23" data-name="Path 23" d="M210.6,118.815l1.561,26.873s12.282,14.045,28.09,5.415,15.2-22.316,15.2-22.316L245.075,78.334s-14.341-3.308-17.993-31.554A86.7,86.7,0,0,1,184.76,64.742s.281,31.6,5.852,44.164S210.6,118.815,210.6,118.815Z" transform="translate(67.854 8.11)" fill="#fff"/>
        <path id="Path_24" data-name="Path 24" d="M230.173,154.97c-10.737,0-18.212-8.349-18.305-8.474a.734.734,0,0,1-.187-.468l-1.561-26.046c-3.293.328-15.028.64-19.975-10.518-5.571-12.484-5.9-43.18-5.914-44.476a.8.8,0,0,1,.671-.78,86.829,86.829,0,0,0,41.916-17.759.78.78,0,0,1,.8-.14.8.8,0,0,1,.5.624c1.841,14.295,6.492,21.926,10.065,25.827a16.386,16.386,0,0,0,7.335,5.056.8.8,0,0,1,.577.609l10.393,50.5c0,.265.468,14.388-15.605,23.159a22.159,22.159,0,0,1-10.705,2.887Zm-16.963-9.363c1.561,1.7,12.734,12.843,26.982,5.056,15.169-8.3,14.794-21.489,14.794-21.614L244.7,79.112c-2.591-.858-14.326-6.039-17.9-30.7a89.747,89.747,0,0,1-40.949,17.166c0,4.682.78,31.929,5.758,43.18,5.259,11.829,18.586,9.6,19.148,9.5a.8.8,0,0,1,.624.14.843.843,0,0,1,.3.577Z" transform="translate(67.557 7.817)" fill="#231f20"/>
        <path id="Path_25" data-name="Path 25" d="M220.125,85.019a14.045,14.045,0,0,0,10.393-2.559,15.028,15.028,0,0,0,5.587-13.608,12.485,12.485,0,0,0-1.561-5.446,6.632,6.632,0,0,0-4.416-3.308,10.674,10.674,0,0,0-6.523,1.732c-3.027,1.561-3.121,3.293-4.775,5.852.187-.234.328-.89.515-1.124" transform="translate(86.952 15.564)" fill="#fff"/>
        <path id="Path_26" data-name="Path 26" d="M222.49,86.249a15.14,15.14,0,0,1-2.216-.172.8.8,0,0,1-.655-.905.765.765,0,0,1,.89-.64,13.218,13.218,0,0,0,9.785-2.45,14.232,14.232,0,0,0,5.259-12.921,11.626,11.626,0,0,0-1.389-5.119,5.883,5.883,0,0,0-3.87-2.9c-1.935-.343-3.87.546-6.024,1.654a6.6,6.6,0,0,0-3.246,3.5c-.328.593-.687,1.264-1.17,2a.687.687,0,0,1-.125.172.782.782,0,0,1-1.248-.936h0a.5.5,0,0,1,.109-.312,3.121,3.121,0,0,1,.39-.8.812.812,0,0,1,.3-.218l.3-.562a8.209,8.209,0,0,1,3.933-4.151c1.841-.952,4.385-2.263,6.991-1.81a7.444,7.444,0,0,1,5.056,3.683,13.218,13.218,0,0,1,1.561,5.79,15.715,15.715,0,0,1-5.9,14.279,14.747,14.747,0,0,1-8.723,2.825Z" transform="translate(86.679 15.286)" fill="#231f20"/>
        <path id="Path_27" data-name="Path 27" d="M202.132,110.778a18.914,18.914,0,0,0,15-9.363c5.509-9.192,3.308-15.075,3.308-15.075s-7.428,9.473-19.117,10.237Z" transform="translate(77.137 30.286)" fill="#231f20"/>
        <path id="Path_28" data-name="Path 28" d="M202.412,111.77a.765.765,0,0,1-.765-.733l-.827-14.045a.78.78,0,0,1,.733-.827c11.189-.718,18.477-9.831,18.555-9.925a.78.78,0,0,1,.733-.3.8.8,0,0,1,.609.5c.094.25,2.263,6.336-3.386,15.746a19.491,19.491,0,0,1-15.605,9.66Zm0-14.2.733,12.594a18.383,18.383,0,0,0,13.561-8.864c3.73-6.242,3.823-10.8,3.542-12.984a29.37,29.37,0,0,1-17.837,9.254Z" transform="translate(76.856 30.058)" fill="#231f20"/>
        <path id="Path_29" data-name="Path 29" d="M201.4,65.57s-5.852,15.418-3.2,17.26,8.255-1.092,8.255-1.092" transform="translate(75 18.643)" fill="#fff"/>
        <path id="Path_30" data-name="Path 30" d="M200.772,84.5a4.682,4.682,0,0,1-2.762-.749c-2.934-2.029,1.561-14.419,2.9-18.18a.778.778,0,1,1,1.451.562c-2.715,7.163-4.682,15.449-3.464,16.323,1.857,1.28,6.008-.375,7.444-1.124a.8.8,0,0,1,1.061.328.78.78,0,0,1-.343,1.046,15.419,15.419,0,0,1-6.289,1.795Z" transform="translate(74.735 18.362)" fill="#231f20"/>
        <ellipse id="Ellipse_4" data-name="Ellipse 4" cx="2.263" cy="3.199" rx="2.263" ry="3.199" transform="matrix(0.952, -0.308, 0.308, 0.952, 283.787, 78.431)" fill="#231f20"/>
        <ellipse id="Ellipse_5" data-name="Ellipse 5" cx="2.263" cy="3.199" rx="2.263" ry="3.199" transform="translate(263.726 82.562) rotate(-0.78)" fill="#231f20"/>
        <path id="Path_31" data-name="Path 31" d="M204.6,95.784a7.178,7.178,0,0,1-4.213-1.233c-4.916-3.589-5.275-11.517-5.29-11.86a.8.8,0,0,1,.624-.8c20.194-4.416,20.412-4.26,20.771-3.995a.843.843,0,0,1,.328.562h0a20.132,20.132,0,0,1-1.264,9.27,12.765,12.765,0,0,1-8.13,7.647A10.315,10.315,0,0,1,204.6,95.784ZM196.723,83.3c.187,1.888,1.03,7.413,4.557,9.972a6.679,6.679,0,0,0,5.665.624,11.283,11.283,0,0,0,7.179-6.726,18.056,18.056,0,0,0,1.186-7.8c-2.684.484-12.157,2.512-18.586,3.917Z" transform="translate(73.65 25.492)" fill="#231f20"/>
        <path id="Path_32" data-name="Path 32" d="M212.795,84.332c-3,7.241-10.5,8.973-14.045,6.461.8-2.762,2.247-5.634,4.947-6.679A13.171,13.171,0,0,1,212.795,84.332Z" transform="translate(75.696 28.642)" fill="#231f20"/>
        <path id="Path_33" data-name="Path 33" d="M202.816,92.9a7.21,7.21,0,0,1-4.214-1.217.765.765,0,0,1-.281-.843c1.061-3.808,2.887-6.242,5.4-7.194a14.045,14.045,0,0,1,9.6.2.8.8,0,0,1,.453.421.827.827,0,0,1,0,.609,12.8,12.8,0,0,1-8.13,7.631A10.362,10.362,0,0,1,202.816,92.9Zm-2.84-2.2a6.976,6.976,0,0,0,5.181.312,11.111,11.111,0,0,0,6.835-5.961,12.219,12.219,0,0,0-7.709,0c-1.919.78-3.324,2.684-4.307,5.649Z" transform="translate(75.438 28.358)" fill="#231f20"/>
        <path id="Path_34" data-name="Path 34" d="M186.56,80.961a4.682,4.682,0,0,1-4.572-3.683l-1.639-7.444a4.682,4.682,0,0,1,3.574-5.571l17.4-3.823a4.682,4.682,0,0,1,5.587,3.574l1.561,7.444a4.682,4.682,0,0,1-3.511,5.524h0l-17.4,3.808a4.355,4.355,0,0,1-1,.172Zm15.777-19.007a3.261,3.261,0,0,0-.671,0l-17.384,3.808a3.121,3.121,0,0,0-2.356,3.667l1.639,7.553a3.121,3.121,0,0,0,3.652,2.341l17.4-3.9a3.121,3.121,0,0,0,2.341-3.652L205.4,64.326a3.121,3.121,0,0,0-3-2.419Zm2.5,14.31Z" transform="translate(65.321 15.705)" fill="#231f20"/>
        <path id="Path_35" data-name="Path 35" d="M206.4,76.611a4.7,4.7,0,0,1-4.572-3.683l-1.561-7.444a4.687,4.687,0,0,1,3.574-5.587l17.385-3.808a4.682,4.682,0,0,1,5.587,3.574l1.561,7.444a4.682,4.682,0,0,1-3.5,5.587L207.495,76.5A5.757,5.757,0,0,1,206.4,76.611ZM222.18,57.572a3.277,3.277,0,0,0-.671.078l-17.385,3.823a3.027,3.027,0,0,0-1.935,1.342,3.121,3.121,0,0,0-.421,2.325l1.639,7.444a3.121,3.121,0,0,0,3.652,2.341l17.4-3.808h0a3.057,3.057,0,0,0,2.341-3.667l-1.561-7.444A3.121,3.121,0,0,0,222.18,57.572Z" transform="translate(76.486 13.267)" fill="#231f20"/>
        <path id="Path_36" data-name="Path 36" d="M197.109,64.561a.749.749,0,0,1-.406-.109.811.811,0,0,1-.3-1.092c.733-1.264,3.121-3.246,7.038-1.67a.835.835,0,1,1-.593,1.561c-3.5-1.4-4.9.733-5.041.983A.827.827,0,0,1,197.109,64.561Z" transform="translate(74.326 16.141)" fill="#231f20"/>
        <path id="Path_37" data-name="Path 37" d="M115.692,196.44H436.541l51.483,94.023H64.21Z" transform="translate(0.28 92.002)" fill="#fff"/>
        <path id="Path_38" data-name="Path 38" d="M488.3,291.524H64.487a.8.8,0,0,1-.671-.375.811.811,0,0,1,0-.78l51.5-94.023a.765.765,0,0,1,.687-.406H436.8a.765.765,0,0,1,.687.406l51.5,94.023a.812.812,0,0,1,0,.78A.8.8,0,0,1,488.3,291.524ZM65.813,289.963H486.974L436.35,197.5H116.438Z" transform="translate(0.003 91.722)" fill="#d1d3d4"/>
        <path id="Path_39" data-name="Path 39" d="M100.39,160.418l.687-2.965c1.561-2.965,3.293-4.963,7.319-4.963H261.126a8.552,8.552,0,0,1,8.193,6.149l24.828,85.3a7.615,7.615,0,0,1-4.229,9.535l-2.7.64Z" transform="translate(20.561 67.366)" fill="#fff"/>
        <path id="Path_40" data-name="Path 40" d="M287.5,255.185a.921.921,0,0,1-.343-.078L100.324,161.38a.765.765,0,0,1-.406-.874l.687-2.965a1.015,1.015,0,0,1,0-.2c1.561-2.825,3.355-5.368,8.006-5.368H261.341a9.363,9.363,0,0,1,8.942,6.71l24.844,85.409a8.4,8.4,0,0,1-4.682,10.487l-2.793.671Zm-185.877-94.9,186.033,93.29,2.419-.562c3.761-1.467,4.541-5.478,3.652-8.567l-24.828-85.3a7.8,7.8,0,0,0-7.444-5.587H108.673c-3.449,0-4.931,1.561-6.586,4.463Z" transform="translate(20.283 67.074)" fill="#231f20"/>
        <path id="Path_41" data-name="Path 41" d="M287.229,252.33H131.377a4.931,4.931,0,0,1-4.682-3.558l-26.233-90.137a2.325,2.325,0,0,1,2.232-2.965H262.712l27.107,93.212a2.684,2.684,0,0,1-2.591,3.449Z" transform="translate(20.551 69.148)" fill="#231f20"/>
        <path id="Path_42" data-name="Path 42" d="M287.528,253.385H131.676a5.758,5.758,0,0,1-5.493-4.12L99.95,159.128a3.121,3.121,0,0,1,2.981-3.948H263.012a.749.749,0,0,1,.733.546l27.122,93.212a3.48,3.48,0,0,1-3.34,4.448Zm-184.6-96.66a1.561,1.561,0,0,0-1.483,1.966l26.217,90.137a4.2,4.2,0,0,0,4.011,3H287.528a1.951,1.951,0,0,0,1.561-.765,1.919,1.919,0,0,0,.3-1.685l-27-92.65Z" transform="translate(20.252 68.874)" fill="#231f20"/>
        <path id="Path_43" data-name="Path 43" d="M252,193l-9.473,40.278a9.785,9.785,0,0,1-9.551,7.569H134.4a9.816,9.816,0,0,1-9.551-12.063L133.2,193h-8.162l-7.99,33.942a17.837,17.837,0,0,0,17.369,21.848h98.642a17.79,17.79,0,0,0,17.291-13.655L260.24,193Z" transform="translate(29.64 90.074)" fill="#fff"/>
        <path id="Path_44" data-name="Path 44" d="M233.265,249.948h-98.58a18.617,18.617,0,0,1-18.118-22.878l7.974-33.958a.78.78,0,0,1,.765-.593h8.24a.8.8,0,0,1,.609.3.765.765,0,0,1,.14.655l-8.411,35.783a9.051,9.051,0,0,0,8.8,11.111h98.642a9.02,9.02,0,0,0,8.8-6.976l9.473-40.278a.765.765,0,0,1,.749-.593h8.24a.8.8,0,0,1,.765.952l-9.909,42.135a18.539,18.539,0,0,1-18.18,14.341ZM125.853,194.081l-7.8,33.349a17.041,17.041,0,0,0,16.635,20.958h98.642a16.994,16.994,0,0,0,16.6-13.155l9.675-41.152h-6.632l-9.363,39.669a10.534,10.534,0,0,1-10.315,8.177H134.685A10.6,10.6,0,0,1,124.37,228.9l8.177-34.816Z" transform="translate(29.352 89.805)" fill="#231f20"/>
        <path id="Path_45" data-name="Path 45" d="M327.414,140.37s13.951,61.954,2.528,77.778-91.2,13.327-91.2,13.327-12.937,15.527-24.173,14.5-4.682-22.285,8.536-31.133l-1.826-7.381,70.334-11.283-9.363-44.522" transform="translate(81.348 60.572)" fill="#fff"/>
        <path id="Path_46" data-name="Path 46" d="M215.9,247.058h-1.17a6.585,6.585,0,0,1-6.117-5.228c-1.763-6.913,3.886-20.1,13.826-27.029l-1.685-6.851a.762.762,0,0,1,.624-.952L290.9,195.841l-9.207-43.7a.78.78,0,0,1,.609-.921.765.765,0,0,1,.921.593l9.363,44.522a.789.789,0,0,1-.64.936l-69.491,11.158,1.561,6.554a.765.765,0,0,1-.312.827c-9.551,6.4-15.278,19.273-13.639,25.671a4.978,4.978,0,0,0,4.682,4.042c10.69,1,23.408-14.045,23.5-14.217a.78.78,0,0,1,.624-.281c.8,0,79.588,2.294,90.605-13.015s-2.5-76.467-2.637-77.138a.8.8,0,1,1,1.561-.343c.577,2.544,13.889,62.422,2.388,78.4-11.236,15.605-84.878,13.858-91.542,13.655C237.485,234.652,226.358,247.058,215.9,247.058Z" transform="translate(81.047 60.313)" fill="#231f20"/>
        <path id="Path_47" data-name="Path 47" d="M231.478,135.281a.718.718,0,0,1-.343-.094.78.78,0,0,1-.375-1.061c11.33-23.408,40.418-39.154,40.715-39.31a.78.78,0,0,1,1.077.328.8.8,0,0,1-.328,1.092c-.281.156-28.917,15.605-40.012,38.592A.827.827,0,0,1,231.478,135.281Z" transform="translate(93.593 34.981)" fill="#231f20"/>
        <path id="Path_48" data-name="Path 48" d="M211.454,134.756a.843.843,0,0,1-.343,0c-27.185-12.484-30.477-39.919-30.509-40.184a.811.811,0,0,1,.718-.889.8.8,0,0,1,.89.7c0,.265,3.246,26.81,29.65,38.764a.811.811,0,0,1,.406,1.061A.827.827,0,0,1,211.454,134.756Z" transform="translate(65.521 34.398)" fill="#231f20"/>
        <path id="Path_49" data-name="Path 49" d="M121.211,145.875a.811.811,0,0,1,0-1.561c11.767-.359,17.478-7.007,17.541-7.069a.8.8,0,0,1,1.124-.109.811.811,0,0,1,.109,1.139c-.25.3-6.242,7.272-18.727,7.647Z" transform="translate(31.902 58.656)" fill="#231f20"/>
        <path id="Path_50" data-name="Path 50" d="M259.105,165.258a.8.8,0,0,1-.78-.609c0-.281-7.35-29.042-8.365-46.286a.8.8,0,0,1,.749-.843.811.811,0,0,1,.858.749c1.014,17.088,8.255,45.693,8.318,45.989a.812.812,0,0,1-.577.983Z" transform="translate(104.402 47.763)" fill="#231f20"/>
        <path id="Path_51" data-name="Path 51" d="M175.49,173.756h0a.8.8,0,0,1-.749-.858l3.87-60.627a.8.8,0,0,1,.858-.749.78.78,0,0,1,.749.843l-3.933,60.627a.8.8,0,0,1-.8.765Z" transform="translate(62.237 44.399)" fill="#231f20"/>
        <path id="Path_52" data-name="Path 52" d="M266.748,139.274a.78.78,0,0,1-.7-.421l-7.553-14.045a.843.843,0,0,1,0-.64.858.858,0,0,1,.421-.484l23.408-11.064a.8.8,0,0,1,1.077.375.811.811,0,0,1-.375,1.077l-22.69,10.705,6.835,12.672,22.987-7.022a.815.815,0,1,1,.468,1.561l-23.642,7.3Z" transform="translate(109.15 44.97)" fill="#231f20"/>
        <ellipse id="Ellipse_6" data-name="Ellipse 6" cx="38.53" cy="11.595" rx="38.53" ry="11.595" transform="translate(357.639 339.128)" fill="#fff"/>
        <path id="Path_53" data-name="Path 53" d="M290.87,253.17c-22.035,0-39.31-5.431-39.31-12.375s17.275-12.375,39.31-12.375,39.31,5.431,39.31,12.375S312.905,253.17,290.87,253.17Zm0-23.19c-22.581,0-37.75,5.587-37.75,10.815s15.169,10.815,37.75,10.815,37.75-5.587,37.75-10.815S313.451,229.981,290.87,229.981Z" transform="translate(105.299 109.928)" fill="#d1d3d4"/>
        <path id="Path_54" data-name="Path 54" d="M261.6,215.205l-.921.172a11.439,11.439,0,0,0-7.116,4.011,9.847,9.847,0,0,0-.234,10.409c4.089,7.366,14.045,9.363,21.723,10.128a6.9,6.9,0,0,0,3.246-.25,2.653,2.653,0,0,0,1.795-2.466,2.715,2.715,0,0,0-1.561-2.076,8.349,8.349,0,0,0-2.544-.718c-4.775-.78-9.8-1.358-14.17-3.558-2.544-1.3-6.1-4.245-4.245-7.428a6.07,6.07,0,0,1,2.684-2.278c4.385-2.091,8.552-.5,12.875.78a2.387,2.387,0,0,0,.983.14,1.748,1.748,0,0,0,1.264-1.951c-.14-1.888-2.029-3.121-3.808-3.823A19.975,19.975,0,0,0,261.6,215.205Z" transform="translate(105.523 102.404)" fill="#fff"/>
        <path id="Path_55" data-name="Path 55" d="M276.634,241.063a12.709,12.709,0,0,1-1.358-.078c-11.72-1.108-19.023-4.541-22.347-10.534a10.6,10.6,0,0,1,.3-11.252,12.25,12.25,0,0,1,7.584-4.307l.968-.172h0A20.631,20.631,0,0,1,272.2,215.86c1.561.577,4.1,1.935,4.307,4.479a2.544,2.544,0,0,1-1.935,2.793,3.386,3.386,0,0,1-1.311-.172l-1.124-.343c-3.839-1.17-7.459-2.263-11.189-.484a5.228,5.228,0,0,0-2.356,1.982,2.653,2.653,0,0,0-.3,2.185,8.38,8.38,0,0,0,4.214,4.135,41.463,41.463,0,0,0,12.188,3.215l1.763.281a8.679,8.679,0,0,1,2.793.8,3.121,3.121,0,0,1-.39,5.961A6.243,6.243,0,0,1,276.634,241.063Zm-14.622-24.8-.89.156a10.8,10.8,0,0,0-6.648,3.7,9.067,9.067,0,0,0-.172,9.582c3.043,5.493,9.956,8.677,21.114,9.722a6.351,6.351,0,0,0,2.871-.187,1.628,1.628,0,0,0,.218-3.137,7.335,7.335,0,0,0-2.294-.624l-1.763-.281a42.477,42.477,0,0,1-12.64-3.371,9.8,9.8,0,0,1-5.009-5.072,4.229,4.229,0,0,1,.453-3.433,6.7,6.7,0,0,1,3.027-2.59c4.276-2.044,8.365-.812,12.313.39l1.124.343a1.8,1.8,0,0,0,.655.109c.375,0,.609-.64.577-1.108-.125-1.748-2.356-2.778-3.308-3.121a19.069,19.069,0,0,0-9.629-1.046Z" transform="translate(105.241 102.123)" fill="#231f20"/>
        <path id="Path_56" data-name="Path 56" d="M260.45,210.07s7.21,35.986,7.8,38.155,17.634,11.08,31.211,2.325l11.876-36.782Z" transform="translate(110.282 99.642)" fill="#fff"/>
        <path id="Path_57" data-name="Path 57" d="M286.466,255.4a33.785,33.785,0,0,1-11.923-2.278c-3-1.155-6.4-3.027-6.773-4.416-.577-2.169-7.506-36.72-7.8-38.2a.749.749,0,0,1,.812-.921l50.889,3.776a.765.765,0,0,1,.687,1.014l-11.876,36.782a.764.764,0,0,1-.328.406A24.8,24.8,0,0,1,286.466,255.4ZM261.7,211.2c1.17,5.852,7.069,35.175,7.584,37.094.218.515,3.027,2.606,8.006,4.12,4.682,1.42,13.639,3.027,21.848-2.091l11.486-35.565Z" transform="translate(110 99.366)" fill="#231f20"/>
        <ellipse id="Ellipse_7" data-name="Ellipse 7" cx="11.049" cy="25.515" rx="11.049" ry="25.515" transform="translate(370.303 320.756) rotate(-87.65)" fill="#231f20"/>
        <path id="Path_58" data-name="Path 58" d="M288.229,226.85h-2.481c-14.747-.593-26.077-6.242-25.8-12.89s12.032-11.33,26.763-10.721,26.061,6.242,25.78,12.89c-.125,3.277-3.121,6.242-8.286,8.177A45.256,45.256,0,0,1,288.229,226.85Zm-3.917-22.175c-12.375,0-22.6,4.057-22.815,9.363-.219,5.556,10.924,10.721,24.313,11.267a46.083,46.083,0,0,0,17.915-2.513c4.526-1.732,7.179-4.213,7.288-6.788.234-5.571-10.924-10.737-24.3-11.283Z" transform="translate(110 95.783)" fill="#231f20"/>
        <path id="Path_59" data-name="Path 59" d="M267.609,155.316H185.04a.78.78,0,0,1-.78-.78V130.16a.8.8,0,0,1,.78-.78h82.569a.78.78,0,0,1,.78.78v24.423A.78.78,0,0,1,267.609,155.316Zm-81.788-1.561h81.008V130.941H185.821Z" transform="translate(67.574 54.412)" fill="#fff"/>
        <rect id="Rectangle_18" data-name="Rectangle 18" width="423.798" height="16.339" transform="translate(64.49 382.465)" fill="#fff"/>
        <path id="Path_60" data-name="Path 60" d="M488.3,274.089H64.49a.78.78,0,0,1-.78-.78V256.97a.8.8,0,0,1,.78-.78H488.3a.8.8,0,0,1,.78.78v16.339A.78.78,0,0,1,488.3,274.089ZM65.271,272.529H487.524V257.751H65.271Z" transform="translate(0 125.495)" fill="#d1d3d4"/>
        <path id="Path_61" data-name="Path 61" d="M293.325,187.888h0a.8.8,0,0,1-.765-.8c0-1.795,1.139-44.1,5.805-58.755s13.421-20.755,13.78-20.989a.781.781,0,1,1,.874,1.3c-.094,0-8.63,5.914-13.171,20.162s-5.712,57.881-5.727,58.318A.78.78,0,0,1,293.325,187.888Z" transform="translate(128.281 41.987)" fill="#fff"/>
      </g>
      <g id="_211_creative_process_flatline" data-name="#211_creative_process_flatline" transform="translate(1572.721 470.686)">
        <path id="Path_63" data-name="Path 63" d="M341.2,142.542a45.539,45.539,0,0,0-.17-8.822,46.248,46.248,0,0,0-14.974-28.662c-8.519-7.487-14.511-5.216-24.979-7.08a21.421,21.421,0,0,0-12.5,1.571c.549-16.167-5.8-29.343-18.571-39.272-26.172-20.3-56.888-11.87-77.324,11.217-9.39-17.085-23.749-29.618-44.6-26.059-17.928,3.057-32.9,18.846-35.022,36.916-7.572-2.84-16.347-1.514-23.664,2.035S75.892,93.454,70.1,99.171c-6.986,6.881-13.744,14.321-17.625,23.323-2.631,6.105-2.641,12.352-2.717,18.865,0,1.079,2.12,17.435,4.013,15.845-28.69,24.09-.814,68.578,29.078,75.2,13.252,2.944,28.046-.256,38.118-9.39a115.48,115.48,0,0,0,40.522,17.218c20.02,4.269,41.487,5.906,61.223-.587,5.017-1.647,9.409-4.174,14.2-6.342,5.793-2.631,6.721-.322,12.75,1.619,10.128,3.256,21.345,2.205,31.388-.852,10.734-3.266,22.083-10.63,22.869-21.827,11.453.786,23.484-4.241,29.769-13.839s5.679-23.607-2.452-31.7c1.486,1.477,8.405-13.858,8.718-15.287A61.171,61.171,0,0,0,341.2,142.542Z" transform="translate(-0.027 -0.027)" fill="#f0f4f9"/>
        <path id="Path_64" data-name="Path 64" d="M193.72,244.383a155.993,155.993,0,0,1-32.363-3.786,116.8,116.8,0,0,1-40.38-17.085c-9.854,8.765-24.478,12.305-38.26,9.257-17.984-3.985-35.638-21.932-40.276-40.863-3.322-13.479.35-25.784,10.327-34.511-2.035-2.3-3.521-15.5-3.512-16.091v-.454c.076-6.455.151-12.542,2.754-18.6,3.957-9.134,10.857-16.707,17.729-23.446,5.7-5.566,11.974-11.311,19.4-14.9,8-3.871,16.517-4.733,23.493-2.262,2.385-17.984,17.473-33.669,35.335-36.726,18.136-3.1,33.612,5.793,44.772,25.718,10.355-11.472,23.238-19.139,36.329-21.515,14.5-2.631,28.7,1.089,41.184,10.753,12.8,9.929,19.111,23.02,18.78,38.922a21.95,21.95,0,0,1,12.1-1.306,75.364,75.364,0,0,0,7.961.947c6.181.464,11.056.824,17.246,6.295a46.864,46.864,0,0,1,15.145,28.955,45.972,45.972,0,0,1,.17,8.917h0a63.724,63.724,0,0,1-1.287,8.907c-.246,1.117-5.622,13.488-8.244,15.476,7.478,8.093,8.368,21.771,1.893,31.662-6.058,9.257-17.682,14.747-29.731,14.085-.757,7.44-7.2,16.924-23.172,21.771-8.036,2.442-20.057,4.581-31.662.852a39.573,39.573,0,0,1-4.013-1.562c-2.9-1.278-4.354-1.893-8.4-.076-1.486.672-2.963,1.4-4.383,2.1a77.376,77.376,0,0,1-9.835,4.26,92.591,92.591,0,0,1-29.106,4.307Zm-72.78-21.9a.567.567,0,0,1,.265.076,115.593,115.593,0,0,0,40.352,17.152c24.194,5.159,44.147,4.969,60.986-.568a75.808,75.808,0,0,0,9.674-4.212c1.429-.7,2.906-1.429,4.411-2.111,4.42-2.016,6.209-1.231,9.172.066a37.862,37.862,0,0,0,3.909,1.524c11.359,3.663,23.191,1.562,31.1-.852,15.845-4.818,22.036-14.2,22.547-21.4a.473.473,0,0,1,.5-.445c11.87.814,23.389-4.534,29.343-13.63,6.389-9.74,5.339-23.408-2.385-31.1h0a.472.472,0,0,1,.606-.719c1.552-.511,7.572-13.081,7.979-14.993a60.515,60.515,0,0,0,1.268-8.775h0a44.126,44.126,0,0,0-.17-8.737,45.8,45.8,0,0,0-14.823-28.4C319.735,100.1,315,99.74,309,99.3a76.358,76.358,0,0,1-8.065-.947,20.938,20.938,0,0,0-12.22,1.543.473.473,0,0,1-.672-.454c.54-15.912-5.679-28.993-18.391-38.884C257.414,51.088,243.424,47.4,229.216,49.98c-13.044,2.442-25.917,10.128-36.206,21.78a.521.521,0,0,1-.407.161.492.492,0,0,1-.369-.246c-13.858-25.2-31.634-27.952-44.1-25.822-17.663,3.01-32.552,18.7-34.634,36.5a.464.464,0,0,1-.634.379c-6.834-2.575-15.325-1.8-23.3,1.988-7.288,3.568-13.526,9.2-19.158,14.766-6.806,6.7-13.63,14.2-17.521,23.172-2.527,5.878-2.6,11.879-2.679,18.231v.454c0,1.685,1.969,14.558,3.266,15.448a.473.473,0,0,1,.634.076.483.483,0,0,1-.057.672h0c-10.194,8.585-13.981,20.7-10.687,34.142,4.562,18.609,21.941,36.253,39.566,40.162,13.611,3.02,28.056-.54,37.692-9.276A.473.473,0,0,1,120.94,222.48Z" fill="#e9edf2"/>
        <path id="Path_65" data-name="Path 65" d="M151.635,190.831c-9.664,0-9.721-1.41-11.52-6.626-3.237-9.409-9.352-16.631-15.732-24.042-23.664-27.45-15.58-70.4,24.686-77.617,27.3-4.932,50.12,9.513,54.8,36.083,2.319,13.185-.615,25.7-8,36.783-5.026,7.572-9.172,15.211-10.62,24.289-.947,5.85-.5,9.3-10.772,9.3-3.72,0-7.43.577-11.141.89C159.435,190.112,155.545,190.831,151.635,190.831Z" transform="translate(-3.738 -1.992)" fill="#fff"/>
        <path id="Path_66" data-name="Path 66" d="M151.608,191.225c-9.248,0-10.015-1.2-11.756-6.323l-.208-.634c-3.275-9.522-9.57-16.82-15.646-23.882-12.428-14.425-16.546-33.574-10.734-49.978,5.376-15.145,18.051-25.282,35.694-28.472,13.943-2.508,27.2,0,37.332,7.052,9.57,6.626,15.807,16.849,17.984,29.419a50.234,50.234,0,0,1-8.065,37.133c-4.364,6.541-9.021,14.511-10.554,24.1-.076.483-.142.947-.208,1.41-.729,4.988-1.2,8.292-11.027,8.292a71.8,71.8,0,0,0-7.572.54c-1.183.123-2.357.246-3.54.35-1.325.114-2.641.256-3.966.407a67.924,67.924,0,0,1-7.733.587ZM159.4,81.946a57.334,57.334,0,0,0-10.27.947c-17.294,3.124-29.712,13.015-35.022,27.857-5.679,16.091-1.647,34.871,10.564,49.041,6.134,7.128,12.485,14.492,15.817,24.194l.218.634c1.562,4.591,1.94,5.679,10.857,5.679a68.96,68.96,0,0,0,7.667-.577c1.325-.151,2.66-.3,3.994-.416,1.174-.095,2.347-.218,3.521-.35a73.072,73.072,0,0,1,7.658-.54c9,0,9.361-2.5,10.09-7.487.066-.454.133-.947.218-1.42,1.552-9.759,6.276-17.852,10.7-24.478,7.525-11.292,10.185-23.55,7.923-36.442-2.168-12.305-8.263-22.272-17.625-28.8a45.671,45.671,0,0,0-26.3-7.837Z" transform="translate(-3.71 -1.96)" fill="#231f20"/>
        <rect id="Rectangle_21" data-name="Rectangle 21" width="39.878" height="11.33" rx="2.76" transform="matrix(-0.997, 0.082, -0.082, -0.997, 180.489, 197.483)" fill="#fff"/>
        <path id="Path_67" data-name="Path 67" d="M148.677,209.038a3.086,3.086,0,0,1-3.076-2.84l-.5-6.076a3.1,3.1,0,0,1,2.84-3.332l34.53-2.84a3.1,3.1,0,0,1,3.332,2.84l.5,6.077a3.1,3.1,0,0,1-2.84,3.332l-34.53,2.84Zm.218-.473Zm33.811-13.687h-.17l-34.53,2.84a2.139,2.139,0,0,0-1.959,2.31l.5,6.077a2.149,2.149,0,0,0,2.31,1.959l34.53-2.84a2.139,2.139,0,0,0,1.959-2.31l-.511-6.077A2.139,2.139,0,0,0,182.706,194.877Z" transform="translate(-5.55 -7.997)" fill="#231f20"/>
        <rect id="Rectangle_22" data-name="Rectangle 22" width="39.878" height="11.33" rx="2.76" transform="matrix(-0.997, 0.082, -0.082, -0.997, 181.427, 208.767)" fill="#fff"/>
        <path id="Path_68" data-name="Path 68" d="M149.667,220.967a3.086,3.086,0,0,1-3.076-2.84l-.5-6.086a3.086,3.086,0,0,1,2.84-3.322l34.53-2.84a3.1,3.1,0,0,1,3.332,2.84l.5,6.086a3.1,3.1,0,0,1-2.84,3.332l-34.53,2.84h-.256Zm.218-.483ZM183.7,206.807h-.18l-34.53,2.84a2.139,2.139,0,0,0-1.95,2.31l.5,6.086a2.139,2.139,0,0,0,2.31,1.95l34.53-2.84a2.13,2.13,0,0,0,1.95-2.31l-.5-6.086a2.149,2.149,0,0,0-2.13-1.95Z" transform="translate(-5.603 -8.635)" fill="#231f20"/>
        <path id="Path_69" data-name="Path 69" d="M152.06,221.006c.35,4.259,7.572,7.137,16.044,6.427s15.145-4.733,14.776-8.973Z" transform="translate(-5.923 -9.308)" fill="#231f20"/>
        <path id="Path_70" data-name="Path 70" d="M165.474,228c-7.667,0-13.574-2.84-13.914-6.976a.483.483,0,0,1,.435-.511L182.815,218a.483.483,0,0,1,.511.435c.379,4.581-6.3,8.756-15.211,9.466Q166.771,228,165.474,228Zm-12.9-6.626c.369,1.685,1.978,3.161,4.6,4.212a24.61,24.61,0,0,0,10.866,1.325c7.9-.653,14.151-4.184,14.35-8Z" transform="translate(-5.896 -9.283)" fill="#231f20"/>
        <path id="Path_71" data-name="Path 71" d="M154.617,187.669h0a.473.473,0,0,1-.445-.511,118.632,118.632,0,0,0-1.391-29.419,32.392,32.392,0,0,1-7.336-2.594,23.276,23.276,0,0,1-9.958-8.67,14.447,14.447,0,0,1-1.1-13.015,4.278,4.278,0,0,1,3.057-2.688c2.925-.587,6.077,2.082,6.967,2.915,5.566,5.168,7.345,14.056,8.775,21.193l.18.947.227,1.164a34.947,34.947,0,0,0,14.085,0,57.17,57.17,0,0,1,.757-7.042c1.3-7.572,3.266-13.2,5.869-16.678a9.257,9.257,0,0,1,13.507-.483,9.939,9.939,0,0,1,1.524,9.466,18.25,18.25,0,0,1-5.632,7.856,34.18,34.18,0,0,1-15.145,7.648c-.341,9.115,1.2,18.3,2.707,27.242l.189,1.117a.483.483,0,0,1-.388.549.473.473,0,0,1-.54-.388l-.189-1.117c-1.505-8.917-3.038-18.079-2.736-27.194a35.789,35.789,0,0,1-13.867.047,119.53,119.53,0,0,1,1.344,29.277.483.483,0,0,1-.464.379Zm-16.356-56.036a3.83,3.83,0,0,0-.663.066,3.389,3.389,0,0,0-2.376,2.149,13.413,13.413,0,0,0,1.051,12.144,22.462,22.462,0,0,0,9.57,8.311,32.183,32.183,0,0,0,6.721,2.423c-.047-.246-.1-.5-.151-.748l-.18-.947c-1.41-7-3.152-15.713-8.519-20.682-1.458-1.354-3.6-2.717-5.452-2.717Zm43.03-.682h-.35a7.686,7.686,0,0,0-5.906,2.792c-2.508,3.36-4.42,8.831-5.679,16.271a59.093,59.093,0,0,0-.729,6.683,33.375,33.375,0,0,0,14.444-7.374,17.4,17.4,0,0,0,5.357-7.449,9.011,9.011,0,0,0-1.335-8.519A7.648,7.648,0,0,0,181.291,130.952Z" transform="translate(-4.921 -4.585)" fill="#d1d3d4"/>
        <path id="Path_72" data-name="Path 72" d="M197.66,191.694c.388-1.505.757-3,1.155-4.5.208-.776.454-1.543.7-2.31a2.139,2.139,0,0,1,2.205-1.6c1.193,0,2.376.189,3.569.284a10.1,10.1,0,0,0,1.893.095,2.073,2.073,0,0,0,1.278-.521c1.249-1.4,2.442-2.84,3.616-4.316a2.016,2.016,0,0,0,.246-1.893c-.407-1.41-.871-2.84-1.278-4.2a6.038,6.038,0,0,1-.284-1.675,1.59,1.59,0,0,1,.464-1.126,26.077,26.077,0,0,1,6.806-3.786,1.761,1.761,0,0,1,2.073.568c1,1.164,2.045,2.3,3.01,3.493a2.84,2.84,0,0,0,2.9,1.183c1.543-.237,3.114-.388,4.666-.587a1.78,1.78,0,0,0,1.354-.947c.492-.871.947-1.761,1.429-2.631s.814-1.505,1.259-2.243a1.8,1.8,0,0,1,2.1-.947c2.224.577,4.449,1.174,6.626,1.827a1.893,1.893,0,0,1,1.335,2c0,1.212-.2,2.414-.293,3.625-.047.568-.085,1.136-.085,1.713a2.338,2.338,0,0,0,.88,1.893c1.231.947,2.471,1.959,3.654,2.991a2.546,2.546,0,0,0,2.594.511c1.524-.454,3.029-.947,4.553-1.41a2.073,2.073,0,0,1,2.688,1.022c1.032,1.779,2.026,3.568,2.991,5.386a2.205,2.205,0,0,1-.549,3.152c-.748.691-1.562,1.306-2.328,1.978a19.707,19.707,0,0,0-1.6,1.5,2.016,2.016,0,0,0-.6,1.666c.17,1.609.322,3.228.53,4.846a2.518,2.518,0,0,0,1.467,2.045c.947.464,1.893.9,2.783,1.372a16.252,16.252,0,0,1,1.685.947,1.893,1.893,0,0,1,.947,2.272q-.8,3.038-1.751,6.067a4.542,4.542,0,0,1-.407.871,1.723,1.723,0,0,1-1.751.994l-4.269-.36H255.6a3.029,3.029,0,0,0-3.124,1.382c-.719,1-1.552,1.893-2.338,2.84a3.057,3.057,0,0,0-.54,3.114c.454,1.335.9,2.669,1.287,4.023a2.078,2.078,0,0,1-1.1,2.84c-1.836,1.07-3.7,2.082-5.585,3.067a1.893,1.893,0,0,1-2.612-.464c-.833-.89-1.6-1.836-2.376-2.764-1.675-2.007-2.073-2.158-4.666-1.827l-3.029.416a2.84,2.84,0,0,0-2.272,1.581c-.54,1.07-1.041,2.158-1.609,3.209a10.073,10.073,0,0,1-1.051,1.543,1.429,1.429,0,0,1-1.581.54c-2.1-.6-4.212-1.193-6.323-1.808a3.559,3.559,0,0,1-.814-.388,1.713,1.713,0,0,1-.956-1.77c.114-1.41.237-2.84.35-4.212v-1.287a2.234,2.234,0,0,0-.852-1.827c-1.193-.947-2.376-1.893-3.569-2.84a2.442,2.442,0,0,0-2.461-.4c-1.335.445-2.688.852-4.032,1.278l-.151.047c-1.77.464-2.366.284-3.275-1.306-1-1.761-1.94-3.568-2.84-5.386a1.893,1.893,0,0,1,.54-2.622c1.022-.947,2.073-1.817,3.171-2.65a3.3,3.3,0,0,0,1.382-3.36c-.218-1.448-.369-2.906-.558-4.354a1.827,1.827,0,0,0-.947-1.458c-1.278-.682-2.565-1.344-3.786-2.035a4.032,4.032,0,0,1-2.073-1.893Zm47.053,4.487a13.876,13.876,0,0,0-15.05-12.76,14.094,14.094,0,0,0-12.532,14.965,13.9,13.9,0,0,0,14.823,12.693C240.851,210.379,245.584,202.239,244.713,196.181Z" transform="translate(-8.36 -6.395)" fill="#3e43b9"/>
        <path id="Path_73" data-name="Path 73" d="M210.819,80.811c.227-.947.454-1.8.691-2.7.123-.464.275-.947.426-1.382a1.287,1.287,0,0,1,1.316-.947c.719,0,1.429.114,2.149.17a5.944,5.944,0,0,0,1.155.057,1.221,1.221,0,0,0,.767-.312c.757-.842,1.467-1.713,2.168-2.594a1.212,1.212,0,0,0,.161-1.136c-.256-.852-.53-1.685-.776-2.527a3.719,3.719,0,0,1-.17-1.013.947.947,0,0,1,.284-.672,15.58,15.58,0,0,1,4.089-2.272,1.051,1.051,0,0,1,1.24.341c.606.7,1.23,1.382,1.808,2.1a1.742,1.742,0,0,0,1.742.71c.947-.142,1.893-.237,2.84-.36a1.051,1.051,0,0,0,.8-.577c.293-.521.568-1.051.861-1.581s.492-.947.757-1.344a1.07,1.07,0,0,1,1.259-.549c1.344.341,2.679.7,4,1.089a1.145,1.145,0,0,1,.8,1.2c0,.729-.114,1.448-.17,2.177,0,.341-.057.691-.057,1.032a1.4,1.4,0,0,0,.53,1.155c.738.6,1.486,1.174,2.2,1.8a1.552,1.552,0,0,0,1.562.312c.947-.284,1.817-.577,2.726-.852a1.24,1.24,0,0,1,1.619.615c.625,1.07,1.221,2.149,1.8,3.228a1.335,1.335,0,0,1-.331,1.893c-.445.416-.947.786-1.391,1.183a6.839,6.839,0,0,0-.947.947,1.2,1.2,0,0,0-.36,1c.1.947.189,1.893.312,2.915a1.562,1.562,0,0,0,.89,1.231l1.675.814c.341.18.682.36,1,.568a1.155,1.155,0,0,1,.549,1.363c-.341,1.212-.682,2.414-1.041,3.616a2.366,2.366,0,0,1-.246.521,1.051,1.051,0,0,1-1.051.606l-2.612-.237h-.189a1.808,1.808,0,0,0-1.893.833c-.426.6-.947,1.145-1.4,1.723a1.893,1.893,0,0,0-.322,1.893c.275.8.54,1.6.776,2.414a1.221,1.221,0,0,1-.672,1.7c-1.1.644-2.215,1.249-3.351,1.893a1.164,1.164,0,0,1-1.571-.284c-.492-.54-.947-1.1-1.429-1.656-1-1.212-1.24-1.306-2.84-1.1l-1.817.246a1.685,1.685,0,0,0-1.363.947c-.322.634-.625,1.287-.947,1.893a5.736,5.736,0,0,1-.634.947.871.871,0,0,1-.947.331l-3.786-1.089a2.612,2.612,0,0,1-.492-.237,1.041,1.041,0,0,1-.606-1.051c.066-.842.142-1.685.208-2.527v-.776a1.354,1.354,0,0,0-.511-1.1l-2.149-1.694a1.467,1.467,0,0,0-1.477-.246c-.8.265-1.619.511-2.423.767h-.095c-1.06.284-1.42.17-1.969-.776s-1.164-2.149-1.713-3.237a1.117,1.117,0,0,1,.322-1.581c.615-.549,1.249-1.089,1.893-1.59a2,2,0,0,0,.833-2.016c-.133-.871-.218-1.751-.331-2.622a1.117,1.117,0,0,0-.587-.88c-.767-.407-1.543-.8-2.31-1.221a2.4,2.4,0,0,1-1.24-1.107Zm28.273,2.679a8.339,8.339,0,0,0-9.04-7.658,8.519,8.519,0,0,0-7.572,8.992,8.349,8.349,0,0,0,8.907,7.629,8.254,8.254,0,0,0,7.7-8.964Z" transform="translate(-9.063 -1.062)" fill="#3e43b9"/>
        <path id="Path_74" data-name="Path 74" d="M103.96,204.3l.265-17.227,16.726,4.1,2.007,10.895,2.243,12.173-10.715-5.017Z" transform="translate(-3.352 -7.63)" fill="#fff"/>
        <path id="Path_75" data-name="Path 75" d="M125.174,214.682a.511.511,0,0,1-.2-.047L103.735,204.7a.492.492,0,0,1-.274-.435l.265-17.227a.521.521,0,0,1,.189-.369.492.492,0,0,1,.4-.085l16.7,4.108a.464.464,0,0,1,.35.369l4.25,23.067a.464.464,0,0,1-.17.464.54.54,0,0,1-.265.095Zm-20.767-10.668,20.143,9.466-4.032-21.865-15.855-3.89Z" transform="translate(-3.325 -7.603)" fill="#231f20"/>
        <rect id="Rectangle_23" data-name="Rectangle 23" width="7.156" height="70.859" transform="translate(109.808 185.139) rotate(142.33)" fill="#fff"/>
        <path id="Path_76" data-name="Path 76" d="M105.218,194.752h-.066a.426.426,0,0,1-.312-.18l-43.3-56.093a.473.473,0,0,1-.095-.35.5.5,0,0,1,.18-.312l5.679-4.373a.454.454,0,0,1,.653.085l43.3,56.083a.473.473,0,0,1-.076.663l-5.679,4.373a.454.454,0,0,1-.284.1ZM62.566,138.272,105.3,193.6l4.913-3.786L67.488,134.476Z" transform="translate(-1.079 -4.758)" fill="#231f20"/>
        <path id="Path_77" data-name="Path 77" d="M67.92,133.75l7.8-1.6,43.3,56.083-7.8,1.609Z" transform="translate(-1.425 -4.695)" fill="#231f20"/>
        <path id="Path_78" data-name="Path 78" d="M111.2,190.289a.483.483,0,0,1-.379-.189l-43.3-56.083a.483.483,0,0,1,.284-.757l7.8-1.6a.473.473,0,0,1,.473.17l43.3,56.093a.473.473,0,0,1-.284.748l-7.8,1.609ZM68.736,134.035l42.661,55.26,6.768-1.4-42.623-55.25Z" transform="translate(-1.399 -4.668)" fill="#231f20"/>
        <path id="Path_79" data-name="Path 79" d="M58.21,145.607l3.531-7.137,43.3,56.083-3.531,7.137Z" transform="translate(-0.907 -5.032)" fill="#231f20"/>
        <path id="Path_80" data-name="Path 80" d="M101.526,202.146a.511.511,0,0,1-.379-.189L57.8,145.874a.5.5,0,0,1-.047-.5l3.531-7.146a.445.445,0,0,1,.379-.256.464.464,0,0,1,.416.18l43.3,56.083a.464.464,0,0,1,0,.5l-3.521,7.146a.473.473,0,0,1-.379.256ZM58.742,145.571,101.4,200.83l3.057-6.2L61.771,139.323Z" transform="translate(-0.88 -5.006)" fill="#231f20"/>
        <path id="Path_81" data-name="Path 81" d="M115.08,210.063l.663-3.256,5.13-3.957,2.679.057,2.243,12.173Z" transform="translate(-3.946 -8.473)" fill="#3e43b9"/>
        <path id="Path_82" data-name="Path 82" d="M125.768,215.526a.511.511,0,0,1-.2-.047l-10.724-5.017a.473.473,0,0,1-.256-.521l.672-3.256a.445.445,0,0,1,.17-.274l5.121-3.957a.587.587,0,0,1,.3-.1l2.688.066a.454.454,0,0,1,.445.379l2.243,12.173a.464.464,0,0,1-.17.464.54.54,0,0,1-.293.095Zm-10.185-5.755,9.56,4.468-2.007-10.895L121,203.3l-4.856,3.786Z" transform="translate(-3.919 -8.447)" fill="#231f20"/>
        <path id="Path_83" data-name="Path 83" d="M83.305,67.472C68.132,70.681,57.692,82.02,59.982,92.8c1.325,6.257,6.626,10.952,13.876,13.157,2.4,4.108,7.27,9.011,17.095,12.636a27.45,27.45,0,0,1-6.342-11.264,39.036,39.036,0,0,0,6.967-.833c15.145-3.209,25.614-14.549,23.332-25.33S98.469,64.263,83.305,67.472Z" transform="translate(-0.984 -1.192)" fill="#fff"/>
        <path id="Path_84" data-name="Path 84" d="M90.916,119.012a.445.445,0,0,1-.161,0c-8.235-3.038-14.028-7.3-17.246-12.684-7.572-2.376-12.722-7.27-14.028-13.46-2.366-11.018,8.3-22.632,23.692-25.917h0C98.574,63.7,113,70,115.356,81.017s-8.3,22.623-23.664,25.888a39.518,39.518,0,0,1-6.446.824A27.327,27.327,0,0,0,91.3,118.2a.473.473,0,0,1-.331.814ZM83.344,67.9C68.474,71.06,58.185,82.163,60.409,92.669c1.24,5.888,6.181,10.554,13.555,12.807a.549.549,0,0,1,.274.208c2.84,4.865,7.894,8.812,15.041,11.737a27.9,27.9,0,0,1-5.159-10,.473.473,0,0,1,.445-.6,38.809,38.809,0,0,0,6.872-.824c14.889-3.152,25.2-14.265,22.973-24.771S98.262,64.756,83.372,67.9Z" transform="translate(-0.957 -1.164)" fill="#231f20"/>
        <path id="Path_85" data-name="Path 85" d="M308.93,191.057,237.38,167l30.64-91.1,57.087,19.206,9.494,19.622Z" transform="translate(-10.483 -1.688)" fill="#231f20"/>
        <path id="Path_86" data-name="Path 86" d="M308.933,191.505h-.151l-71.55-24.071a.464.464,0,0,1-.293-.6l30.63-91.1a.483.483,0,0,1,.606-.293l57.087,19.2a.473.473,0,0,1,.275.246L335,114.513a.473.473,0,0,1,0,.36l-25.68,76.33a.454.454,0,0,1-.237.275.51.51,0,0,1-.151.028Zm-70.991-24.828,70.66,23.758,25.453-75.724-9.314-19.253L268.288,76.528Z" transform="translate(-10.458 -1.663)" fill="#231f20"/>
        <path id="Path_87" data-name="Path 87" d="M301.32,196.027l-71.55-24.061,30.64-91.1,57.087,19.2L326.99,119.7Z" transform="translate(-10.076 -1.954)" fill="#fff"/>
        <path id="Path_88" data-name="Path 88" d="M301.293,196.446a.425.425,0,0,1-.151,0l-71.55-24.061a.473.473,0,0,1-.293-.6l30.63-91.1a.5.5,0,0,1,.246-.275.416.416,0,0,1,.35,0l57.1,19.2a.464.464,0,0,1,.274.246l9.466,19.622a.454.454,0,0,1,0,.35l-25.67,76.339a.435.435,0,0,1-.237.265.407.407,0,0,1-.161.009ZM230.3,171.609l70.66,23.768,25.453-75.724-9.324-19.272L260.677,81.44Z" transform="translate(-10.05 -1.928)" fill="#231f20"/>
        <path id="Path_89" data-name="Path 89" d="M322.143,101.15l-5.433,14.605,14.927,5.026Z" transform="translate(-14.723 -3.038)" fill="#fff"/>
        <path id="Path_90" data-name="Path 90" d="M331.611,121.22a.417.417,0,0,1-.151,0l-14.927-5.026a.454.454,0,0,1-.275-.237.5.5,0,0,1,0-.369l5.433-14.605a.47.47,0,0,1,.871-.038l9.466,19.622a.464.464,0,0,1-.076.521.483.483,0,0,1-.341.133Zm-14.321-5.783,13.413,4.477-8.519-17.625Z" transform="translate(-14.697 -3.012)" fill="#231f20"/>
        <path id="Path_91" data-name="Path 91" d="M316.164,128.238a.417.417,0,0,1-.151,0l-51.53-17.35a.473.473,0,0,1-.293-.6.464.464,0,0,1,.6-.3l51.53,17.331a.479.479,0,0,1-.151.947Z" transform="translate(-11.914 -3.509)" fill="#d1d3d4"/>
        <path id="Path_92" data-name="Path 92" d="M312.723,138.469a.417.417,0,0,1-.151,0l-51.53-17.331a.483.483,0,0,1-.3-.6.473.473,0,0,1,.606-.3l51.53,17.331a.479.479,0,1,1-.151.947Z" transform="translate(-11.73 -4.057)" fill="#d1d3d4"/>
        <path id="Path_93" data-name="Path 93" d="M309.282,148.7a.417.417,0,0,1-.151,0l-51.53-17.35a.5.5,0,0,1,.3-.947l51.53,17.331a.479.479,0,1,1-.151.947Z" transform="translate(-11.545 -4.6)" fill="#d1d3d4"/>
        <path id="Path_94" data-name="Path 94" d="M305.843,158.969a.417.417,0,0,1-.151,0l-51.53-17.331a.483.483,0,0,1-.3-.6.473.473,0,0,1,.606-.3l51.53,17.284a.479.479,0,1,1-.151.947Z" transform="translate(-11.363 -5.152)" fill="#d1d3d4"/>
        <path id="Path_95" data-name="Path 95" d="M302.4,169.157a.416.416,0,0,1-.151,0l-51.53-17.331a.5.5,0,0,1,.3-.947l51.53,17.331a.479.479,0,1,1-.151.947Z" transform="translate(-11.177 -5.694)" fill="#d1d3d4"/>
        <path id="Path_96" data-name="Path 96" d="M283.808,174.255a.388.388,0,0,1-.151,0l-36.376-12.22a.5.5,0,0,1,.3-.947l36.376,12.229a.483.483,0,0,1,.293.606.464.464,0,0,1-.445.331Z" transform="translate(-10.994 -6.24)" fill="#d1d3d4"/>
        <path id="Path_97" data-name="Path 97" d="M224.466,131.153a2.366,2.366,0,1,1,2.366-2.357A2.366,2.366,0,0,1,224.466,131.153Zm0-3.786a1.415,1.415,0,1,1,0,.009Z" transform="translate(-9.666 -4.388)" fill="#d1d3d4"/>
        <path id="Path_98" data-name="Path 98" d="M82.866,211.083a2.366,2.366,0,1,1,2.357-2.366,2.366,2.366,0,0,1-2.357,2.366Zm0-3.786a1.42,1.42,0,1,0,1.41,1.42,1.42,1.42,0,0,0-1.41-1.42Z" transform="translate(-2.097 -8.661)" fill="#d1d3d4"/>
        <path id="Path_99" data-name="Path 99" d="M99.483,132.318a.473.473,0,0,1-.473-.473V126.9a.473.473,0,0,1,.947,0v4.941a.483.483,0,0,1-.473.473Z" transform="translate(-3.087 -4.389)" fill="#d1d3d4"/>
        <path id="Path_100" data-name="Path 100" d="M101.814,129.947H96.873a.473.473,0,1,1,0-.947h4.941a.473.473,0,0,1,.473.473A.483.483,0,0,1,101.814,129.947Z" transform="translate(-2.948 -4.526)" fill="#d1d3d4"/>
        <path id="Path_101" data-name="Path 101" d="M280.7,228.668a.473.473,0,0,1-.473-.473v-4.941a.473.473,0,1,1,.947,0v4.941a.483.483,0,0,1-.473.473Z" transform="translate(-12.773 -9.539)" fill="#d1d3d4"/>
        <path id="Path_102" data-name="Path 102" d="M283.034,226.317h-4.941a.473.473,0,1,1,0-.947h4.941a.473.473,0,0,1,.473.473.483.483,0,0,1-.473.473Z" transform="translate(-12.634 -9.677)" fill="#d1d3d4"/>
        <path id="Path_103" data-name="Path 103" d="M184.6,72a.473.473,0,0,1-.473-.473V66.593a.473.473,0,1,1,.947,0v4.932A.473.473,0,0,1,184.6,72Z" transform="translate(-7.637 -1.165)" fill="#d1d3d4"/>
        <path id="Path_104" data-name="Path 104" d="M186.933,69.677h-4.96a.483.483,0,0,1-.473-.473.473.473,0,0,1,.473-.473h4.941a.473.473,0,0,1,.019.947Z" transform="translate(-7.496 -1.305)" fill="#d1d3d4"/>
        <path id="Path_105" data-name="Path 105" d="M78.16,95.307a4.479,4.479,0,0,1-.615-.076,5.84,5.84,0,0,1-4.278-3.01,4.818,4.818,0,0,1-3.256,1.893.477.477,0,0,1-.114-.947,4,4,0,0,0,2.915-1.893,5.783,5.783,0,0,1,.218-4.875.464.464,0,0,1,.407-.246.492.492,0,0,1,.416.227,5.064,5.064,0,0,1,.057,4.865v.085l.085.189a4.657,4.657,0,0,0,8.017.947,5.746,5.746,0,0,0,1.032-1.713,2.934,2.934,0,0,1,.18-3.19A.5.5,0,0,1,83.7,87.4a.492.492,0,0,1,.35.341,5.377,5.377,0,0,1-.066,2.944,2.206,2.206,0,0,0,1.893,1.136A2.489,2.489,0,0,0,87.956,90.5a3.237,3.237,0,0,0,.435-1.373,4.61,4.61,0,0,1-.3-1.543.475.475,0,0,1,.9-.218,3.493,3.493,0,0,1,.35,1.59,4.212,4.212,0,0,0,1.032,1.439,3.786,3.786,0,0,0,5.679-.35,4.676,4.676,0,0,0,.6-.947,6.248,6.248,0,0,1-.634-.871,2.026,2.026,0,0,1,.218-2.272.947.947,0,0,1,1.183-.095,1.448,1.448,0,0,1,.549,1.089,4.657,4.657,0,0,1-.208,1.893,2.5,2.5,0,0,0,2.84.435c2.347-1.022,4.136-4.648,3.474-7.052a.472.472,0,1,1,.909-.256c.8,2.84-1.231,6.976-4.013,8.178a3.408,3.408,0,0,1-3.587-.407,5.745,5.745,0,0,1-.6.852,4.733,4.733,0,0,1-7.042.445,4.8,4.8,0,0,1-.653-.738,4.59,4.59,0,0,1-.293.615,3.445,3.445,0,0,1-2.745,1.8,3.029,3.029,0,0,1-2.395-1.06,7.071,7.071,0,0,1-.947,1.41,6.049,6.049,0,0,1-4.543,2.243ZM73.427,87.9a4.922,4.922,0,0,0,0,2.007,4.127,4.127,0,0,0,.009-2.007Zm23.427-1.183a.558.558,0,0,0-.142.3,1.107,1.107,0,0,0,.076.776,2.744,2.744,0,0,0,.18.274,3.521,3.521,0,0,0,0-.947c0-.3-.1-.388-.133-.407Z" transform="translate(-1.509 -1.994)" fill="#d1d3d4"/>
        <circle id="Ellipse_8" data-name="Ellipse 8" cx="2.082" cy="2.082" r="2.082" transform="translate(203.29 147.21)" fill="#d1d3d4"/>
        <circle id="Ellipse_9" data-name="Ellipse 9" cx="2.082" cy="2.082" r="2.082" transform="translate(112.147 159.383)" fill="#d1d3d4"/>
      </g>
    </g>
    <text id="_7.3_Years" data-name="7.3+ 
Years" transform="translate(1814.952 602.588) rotate(20)" fill="#3e43b9" font-size="24" font-family="Okra-SemiBold, Okra" font-weight="600"><tspan x="0" y="0">7.3+</tspan><tspan y="0" fill="#525252"> </tspan><tspan fill="#525252"><tspan x="0" y="22">Years</tspan></tspan></text>
    <text id="UX_UI" data-name="UX/UI" transform="translate(1693 603)" fill="#3e43b9" font-size="23" font-family="Okra-SemiBold, Okra" font-weight="600"><tspan x="0" y="0">UX/UI</tspan></text>
  </g>
</svg>
