<svg xmlns="http://www.w3.org/2000/svg" xmlns:xlink="http://www.w3.org/1999/xlink" width="1741" height="803" viewBox="0 0 1741 803">
  <defs>
    <filter id="Rectangle_11" x="483" y="416" width="387" height="387" filterUnits="userSpaceOnUse">
      <feOffset dy="3" input="SourceAlpha"/>
      <feGaussianBlur stdDeviation="13" result="blur"/>
      <feFlood flood-opacity="0.043"/>
      <feComposite operator="in" in2="blur"/>
      <feComposite in="SourceGraphic"/>
    </filter>
    <filter id="Rectangle_9" x="1556" y="99" width="185" height="185" filterUnits="userSpaceOnUse">
      <feOffset dy="3" input="SourceAlpha"/>
      <feGaussianBlur stdDeviation="13" result="blur-2"/>
      <feFlood flood-opacity="0.043"/>
      <feComposite operator="in" in2="blur-2"/>
      <feComposite in="SourceGraphic"/>
    </filter>
    <filter id="Rectangle_15" x="34" y="32" width="311" height="311" filterUnits="userSpaceOnUse">
      <feOffset dy="3" input="SourceAlpha"/>
      <feGaussianBlur stdDeviation="13" result="blur-3"/>
      <feFlood flood-opacity="0.043"/>
      <feComposite operator="in" in2="blur-3"/>
      <feComposite in="SourceGraphic"/>
    </filter>
    <filter id="Rectangle_16" x="267" y="0" width="160" height="160" filterUnits="userSpaceOnUse">
      <feOffset dy="3" input="SourceAlpha"/>
      <feGaussianBlur stdDeviation="13" result="blur-4"/>
      <feFlood flood-opacity="0.043"/>
      <feComposite operator="in" in2="blur-4"/>
      <feComposite in="SourceGraphic"/>
    </filter>
    <filter id="Rectangle_17" x="0" y="265" width="160" height="160" filterUnits="userSpaceOnUse">
      <feOffset dy="3" input="SourceAlpha"/>
      <feGaussianBlur stdDeviation="13" result="blur-5"/>
      <feFlood flood-opacity="0.043"/>
      <feComposite operator="in" in2="blur-5"/>
      <feComposite in="SourceGraphic"/>
    </filter>
  </defs>
  <g id="Group_85" data-name="Group 85" transform="translate(-64 -129)">
    <g transform="matrix(1, 0, 0, 1, 64, 129)" filter="url(#Rectangle_11)">
      <rect id="Rectangle_11-2" data-name="Rectangle 11" width="309" height="309" rx="154.5" transform="translate(522 452)" fill="#f0f4f9"/>
    </g>
    <g transform="matrix(1, 0, 0, 1, 64, 129)" filter="url(#Rectangle_9)">
      <rect id="Rectangle_9-2" data-name="Rectangle 9" width="107" height="107" rx="53.5" transform="translate(1595 135)" fill="#f0f4f9"/>
    </g>
    <g id="Group_7" data-name="Group 7" transform="translate(103 165)">
      <g transform="matrix(1, 0, 0, 1, -39, -36)" filter="url(#Rectangle_15)">
        <rect id="Rectangle_15-2" data-name="Rectangle 15" width="233" height="233" rx="116.5" transform="translate(73 68)" fill="#f0f4f9"/>
      </g>
      <g transform="matrix(1, 0, 0, 1, -39, -36)" filter="url(#Rectangle_16)">
        <rect id="Rectangle_16-2" data-name="Rectangle 16" width="82" height="82" rx="41" transform="translate(306 36)" fill="#f0f4f9"/>
      </g>
      <g transform="matrix(1, 0, 0, 1, -39, -36)" filter="url(#Rectangle_17)">
        <rect id="Rectangle_17-2" data-name="Rectangle 17" width="82" height="82" rx="41" transform="translate(39 301)" fill="#f0f4f9"/>
      </g>
    </g>
  </g>
</svg>
