<svg xmlns="http://www.w3.org/2000/svg" width="140" height="96" viewBox="0 0 140 96">
  <g id="Group_38" data-name="Group 38" transform="translate(-901 -884)">
    <path id="scroll" d="M154.388,0H148.7A12.18,12.18,0,0,0,136.64,12.053L136.6,24.6a.937.937,0,0,0,.934.941h0a.938.938,0,0,0,.938-.934l.024-7.213h17.138a.938.938,0,0,0,0-1.875h-3.2V9.444a.938.938,0,0,0-1.875,0v6.073H138.5l.012-3.46A10.318,10.318,0,0,1,148.7,1.875h1.864V4.967a.938.938,0,0,0,1.875,0V1.875h1.953A10.193,10.193,0,0,1,164.57,12.056v3.46h-4.457a.938.938,0,0,0,0,1.875h4.457V33.886a10.119,10.119,0,0,1-9.527,10.1v-3.3a3.438,3.438,0,0,0-6.876,0v3.3a10.173,10.173,0,0,1-9.651-10.1V29.207a.938.938,0,0,0-1.875,0v4.679a12.051,12.051,0,0,0,11.527,11.981v6.465L145.034,49.2a3.438,3.438,0,0,0-4.862,4.862L149.111,63a3.455,3.455,0,0,0,4.862,0l3.485-3.485a.938.938,0,1,0-1.326-1.326l-3.485,3.485a1.57,1.57,0,0,1-2.21,0L141.5,52.736a1.563,1.563,0,0,1,2.21-2.21l4.719,4.719a.954.954,0,0,0,1.614-.676V40.692a1.563,1.563,0,0,1,3.125,0V54.443a.954.954,0,0,0,1.614.676l4.594-4.594a1.563,1.563,0,1,1,2.21,2.21l-2.36,2.36a.938.938,0,0,0,1.326,1.326l2.36-2.36a3.438,3.438,0,0,0-4.862-4.862l-3.007,3.007v-6.34a11.957,11.957,0,0,0,11.4-11.981V12.056A12.07,12.07,0,0,0,154.388,0Z" transform="translate(819.402 884)" fill="#525252"/>
    <text id="Start_Scrolling_" data-name="Start Scrolling " transform="translate(901 975)" fill="#525252" font-size="20" font-family="Okra-Regular, Okra"><tspan x="0" y="0">Start Scrolling </tspan></text>
  </g>
</svg>
