<svg xmlns="http://www.w3.org/2000/svg" xmlns:xlink="http://www.w3.org/1999/xlink" width="50" height="50" viewBox="0 0 50 50">
  <defs>
    <filter id="Ellipse_17" x="0" y="0" width="50" height="50" filterUnits="userSpaceOnUse">
      <feOffset dy="3" input="SourceAlpha"/>
      <feGaussianBlur stdDeviation="3" result="blur"/>
      <feFlood flood-opacity="0.161"/>
      <feComposite operator="in" in2="blur"/>
      <feComposite in="SourceGraphic"/>
    </filter>
  </defs>
  <g id="Group_20" data-name="Group 20" transform="translate(112 -474)">
    <g transform="matrix(1, 0, 0, 1, -112, 474)" filter="url(#Ellipse_17)">
      <circle id="Ellipse_17-2" data-name="Ellipse 17" cx="16" cy="16" r="16" transform="translate(9 6)" fill="#f0f4f9"/>
    </g>
    <path id="Icon_awesome-behance-square" data-name="Icon awesome-behance-square" d="M6.8,11.771c0,.7-.511.927-1.138.927H4.02v-1.93H5.7C6.376,10.771,6.8,11.052,6.8,11.771Zm-.281-3c0-.646-.5-.8-1.054-.8H4.024V9.6H5.581c.551,0,.941-.241.941-.835Zm4.826.846A1.087,1.087,0,0,0,10.192,10.7h2.269A1.04,1.04,0,0,0,11.348,9.615ZM16.342,4v12.84a1.751,1.751,0,0,1-1.751,1.751H1.751A1.751,1.751,0,0,1,0,16.841V4A1.751,1.751,0,0,1,1.751,2.25h12.84A1.751,1.751,0,0,1,16.342,4ZM9.911,7.831h2.838V7.142H9.911ZM8.343,11.855A1.814,1.814,0,0,0,7.066,9.972a1.362,1.362,0,0,0,.956-1.35c0-1.393-1.04-1.733-2.24-1.733H2.48v7h3.4C7.15,13.886,8.343,13.277,8.343,11.855Zm5.519-.54A2.493,2.493,0,0,0,11.4,8.564,2.546,2.546,0,0,0,8.8,11.249,2.471,2.471,0,0,0,11.4,13.912,2.262,2.262,0,0,0,13.77,12.2H12.541a1.154,1.154,0,0,1-1.1.66A1.144,1.144,0,0,1,10.2,11.577h3.655C13.854,11.494,13.862,11.4,13.862,11.315Z" transform="translate(-95 485.75)" fill="#004cfb"/>
  </g>
</svg>
