<svg xmlns="http://www.w3.org/2000/svg" xmlns:xlink="http://www.w3.org/1999/xlink" width="50" height="50" viewBox="0 0 50 50">
  <defs>
    <filter id="Ellipse_18" x="0" y="0" width="50" height="50" filterUnits="userSpaceOnUse">
      <feOffset dy="3" input="SourceAlpha"/>
      <feGaussianBlur stdDeviation="3" result="blur"/>
      <feFlood flood-opacity="0.161"/>
      <feComposite operator="in" in2="blur"/>
      <feComposite in="SourceGraphic"/>
    </filter>
  </defs>
  <g id="Group_19" data-name="Group 19" transform="translate(9 6)">
    <g transform="matrix(1, 0, 0, 1, -9, -6)" filter="url(#Ellipse_18)">
      <circle id="Ellipse_18-2" data-name="Ellipse 18" cx="16" cy="16" r="16" transform="translate(9 6)" fill="#f0f4f9"/>
    </g>
    <path id="Icon_awesome-dribbble-square" data-name="Icon awesome-dribbble-square" d="M3.288,9.4A5,5,0,0,1,6.047,5.913,32.155,32.155,0,0,1,7.9,8.793,18.57,18.57,0,0,1,3.288,9.4Zm8.18-2.7A4.964,4.964,0,0,0,7,5.582,26.813,26.813,0,0,1,8.858,8.5,5.651,5.651,0,0,0,11.468,6.7ZM5.107,14.352a4.972,4.972,0,0,0,5,.656,20.566,20.566,0,0,0-1.064-3.776A7,7,0,0,0,5.107,14.352Zm3.6-3.944c-.124-.284-.262-.565-.4-.846a18.241,18.241,0,0,1-5.118.707c0,.051,0,.1,0,.153a4.973,4.973,0,0,0,1.279,3.332A7.727,7.727,0,0,1,8.708,10.408ZM9.981,11a21.3,21.3,0,0,1,.966,3.55,4.987,4.987,0,0,0,2.136-3.339A7.269,7.269,0,0,0,9.981,11Zm-.74-1.764c.175.357.3.649.437.977a11.61,11.61,0,0,1,3.47.16,4.934,4.934,0,0,0-1.126-3.1A6.67,6.67,0,0,1,9.241,9.238ZM16.33,4V16.831a1.75,1.75,0,0,1-1.75,1.75H1.75A1.75,1.75,0,0,1,0,16.831V4A1.75,1.75,0,0,1,1.75,2.25H14.581A1.75,1.75,0,0,1,16.33,4ZM14,10.415a5.832,5.832,0,1,0-5.832,5.832A5.84,5.84,0,0,0,14,10.415Z" transform="translate(26.58 8) rotate(90)" fill="#ee3c79"/>
  </g>
</svg>
