<svg xmlns="http://www.w3.org/2000/svg" width="516.778" height="215.125" viewBox="0 0 516.778 215.125">
  <g id="Group_87" data-name="Group 87" transform="translate(-128 -2413.025)">
    <path id="What_s_my" data-name="What’s my" d="M8.15,0,1.1-20.6H3.75L9.45-3.925,14.9-20.6h2.625l5.45,16.675,5.7-16.675h2.65L24.275,0H21.95L16.225-17.55,10.475,0ZM42.075-15.875a5.571,5.571,0,0,1,4.2,1.687A5.962,5.962,0,0,1,47.9-9.875V0H45.65V-9.575a4.393,4.393,0,0,0-1.088-3.088,3.61,3.61,0,0,0-2.787-1.187A5.139,5.139,0,0,0,38.4-12.675a3.528,3.528,0,0,0-1.425,2.8V0h-2.25V-20.975h2.25v7.95a5.225,5.225,0,0,1,2.075-2.05A6,6,0,0,1,42.075-15.875Zm16.675,0a6.058,6.058,0,0,1,4.688,1.75A6.628,6.628,0,0,1,65.05-9.45V0H62.8V-2.425a5.294,5.294,0,0,1-2.312,2.05A7.177,7.177,0,0,1,57.35.35,6.09,6.09,0,0,1,53.263-1a4.488,4.488,0,0,1-1.588-3.6A4.559,4.559,0,0,1,53.45-8.312,6.652,6.652,0,0,1,57.775-9.75a17.052,17.052,0,0,1,5.025.875V-9.45a5.242,5.242,0,0,0-.963-3.188A3.749,3.749,0,0,0,58.6-13.95a10.357,10.357,0,0,0-4.525,1.4l-.9-1.825A12.676,12.676,0,0,1,58.75-15.875ZM54.95-2.45a4.43,4.43,0,0,0,2.775.825A6.325,6.325,0,0,0,60.9-2.463,3.836,3.836,0,0,0,62.8-4.85V-7.225a16.86,16.86,0,0,0-4.675-.625,5,5,0,0,0-3,.9,2.707,2.707,0,0,0-1.25,2.275A2.659,2.659,0,0,0,54.95-2.45Zm21.5.175,1.1,1.65A4.545,4.545,0,0,1,74.675.35,3.577,3.577,0,0,1,71.95-.762,3.968,3.968,0,0,1,70.9-3.6v-9.9H68.45v-2H70.9v-4.275h2.25V-15.5h3.8v2h-3.8v9.9a2.032,2.032,0,0,0,.487,1.4,1.529,1.529,0,0,0,1.188.55A2.1,2.1,0,0,0,76.45-2.275Zm5.475-11.1-1.1-.85A6.947,6.947,0,0,0,82.375-17a1.546,1.546,0,0,1-1.15-.488,1.608,1.608,0,0,1-.475-1.162,1.538,1.538,0,0,1,.475-1.125A1.6,1.6,0,0,1,82.4-20.25a1.593,1.593,0,0,1,1.35.675,2.822,2.822,0,0,1,.5,1.725A4.039,4.039,0,0,1,83.762-16,17.181,17.181,0,0,1,81.925-13.375ZM94.125.35a10.129,10.129,0,0,1-3.363-.6A10.081,10.081,0,0,1,87.7-1.95L88.875-3.6a8.93,8.93,0,0,0,5.25,1.95,4.226,4.226,0,0,0,2.487-.663,2.058,2.058,0,0,0,.938-1.763,1.754,1.754,0,0,0-.225-.875,2.493,2.493,0,0,0-.525-.662,3.6,3.6,0,0,0-.887-.525,9.715,9.715,0,0,0-1.025-.4Q94.45-6.675,93.65-6.9a11.808,11.808,0,0,1-4.025-1.787A3.2,3.2,0,0,1,88.45-11.3a4.083,4.083,0,0,1,1.525-3.325,5.951,5.951,0,0,1,3.9-1.25,10,10,0,0,1,5.55,1.75L98.35-12.4a8.218,8.218,0,0,0-4.475-1.45,4.018,4.018,0,0,0-2.275.6,1.9,1.9,0,0,0-.9,1.675,1.575,1.575,0,0,0,.813,1.438,18.071,18.071,0,0,0,3.213,1.262q.975.3,1.513.488a11.183,11.183,0,0,1,1.325.588,4.533,4.533,0,0,1,1.2.825,3.9,3.9,0,0,1,.725,1.112A3.674,3.674,0,0,1,99.8-4.325,4.124,4.124,0,0,1,98.188-.937,6.306,6.306,0,0,1,94.125.35ZM112.75,0V-20.6h2.325l7.65,14.35,7.65-14.35h2.35V0h-2.35V-15.575L122.725-1.2l-7.65-14.375V0Zm27.375,5.4a6.026,6.026,0,0,1-2.475-.5l.55-1.925a4.048,4.048,0,0,0,1.825.375,2.451,2.451,0,0,0,2.25-1.375l.9-1.925-6.75-15.55h2.5L144.35-2.6l5.125-12.9H151.9L144.825,1.75a6.3,6.3,0,0,1-1.913,2.775A4.647,4.647,0,0,1,140.125,5.4Z" transform="translate(128 2434)" fill="#525252"/>
    <g id="Group_30" data-name="Group 30" transform="translate(-9)">
      <path id="Path_206" data-name="Path 206" d="M0,0H484.413l32.365,121H31.2Z" transform="translate(137 2457)" fill="#3e43b9"/>
      <path id="Jobs" d="M19.748.957A23.177,23.177,0,0,1,9.293-1.64a19.984,19.984,0,0,1-7.927-6.7l6.9-6.765a12.363,12.363,0,0,0,4.476,4.92A11.162,11.162,0,0,0,18.86-8.268a8.719,8.719,0,0,0,6.833-3.007A11.208,11.208,0,0,0,28.358-19v-37.31H38.54v37.925q0,8.473-5.262,13.906A18.009,18.009,0,0,1,19.748.957Zm88.273,0A28.66,28.66,0,0,1,87.214-7.687a27.838,27.838,0,0,1-8.781-20.534,27.727,27.727,0,0,1,8.781-20.5,28.717,28.717,0,0,1,20.808-8.61A28.8,28.8,0,0,1,122.679-53.4a29.814,29.814,0,0,1,10.831,10.66,27.765,27.765,0,0,1,4.032,14.521A27.765,27.765,0,0,1,133.51-13.7,30.086,30.086,0,0,1,122.679-3.007,28.612,28.612,0,0,1,108.021.957Zm0-9.293a17.961,17.961,0,0,0,13.393-5.911,19.509,19.509,0,0,0,5.672-13.974,19.277,19.277,0,0,0-5.672-13.906,18.057,18.057,0,0,0-13.393-5.842,18.241,18.241,0,0,0-13.5,5.842A19.218,19.218,0,0,0,88.82-28.222a19.448,19.448,0,0,0,5.706,13.974A18.142,18.142,0,0,0,108.021-8.337ZM177.981,0V-56.307h27.607q7.312,0,11.992,3.963a12.665,12.665,0,0,1,4.681,10.113q0,8.063-7.927,12.437a19.77,19.77,0,0,1,7.619,6.15,13.964,13.964,0,0,1,2.7,8.337A13.816,13.816,0,0,1,219.63-4.271Q214.608,0,206.681,0Zm10.182-33.278h14.965a9.457,9.457,0,0,0,6.184-1.982,6.245,6.245,0,0,0,2.426-5.057,6.409,6.409,0,0,0-2.426-5.159,9.351,9.351,0,0,0-6.184-2.016H188.163Zm0,24.395h16.468a10.213,10.213,0,0,0,6.833-2.255,7.189,7.189,0,0,0,2.665-5.74,7.288,7.288,0,0,0-2.665-5.774,10.115,10.115,0,0,0-6.833-2.289H188.163ZM285.182.888q-14.418,0-24.122-9.088l5.945-7.312q8.542,7.653,18.518,7.653,4.988,0,7.79-2.118a6.435,6.435,0,0,0,2.8-5.33,5.471,5.471,0,0,0-2.87-4.988q-2.87-1.708-10.182-3.417a79.507,79.507,0,0,1-8.1-2.289,28.257,28.257,0,0,1-6.048-3.007,11.705,11.705,0,0,1-4.237-4.681,14.97,14.97,0,0,1-1.367-6.628,15.386,15.386,0,0,1,5.672-12.266q5.672-4.817,14.555-4.817a31.735,31.735,0,0,1,21.32,7.858l-5.6,7.585q-7.79-6.7-16.127-6.7A10.53,10.53,0,0,0,276.3-46.5a6.506,6.506,0,0,0-2.665,5.228,5.449,5.449,0,0,0,2.938,4.988q2.938,1.708,10.182,3.348,9.84,2.187,14.726,5.808t4.886,10.8a15.514,15.514,0,0,1-5.638,12.471Q295.091.888,285.182.888Z" transform="translate(240 2547)" fill="#fff"/>
    </g>
    <path id="And_Leadership_Roles" data-name="And Leadership Roles" d="M19.15,0,17.075-4.675H5.575L3.5,0H.95l9.1-20.6H12.6L21.7,0ZM6.55-6.9H16.1L11.35-17.725ZM32.3-15.875a5.571,5.571,0,0,1,4.2,1.687,5.962,5.962,0,0,1,1.625,4.313V0h-2.25V-9.575a4.393,4.393,0,0,0-1.088-3.088A3.61,3.61,0,0,0,32-13.85a5.139,5.139,0,0,0-3.375,1.175,3.528,3.528,0,0,0-1.425,2.8V0H24.95V-15.5H27.2v2.475a5.225,5.225,0,0,1,2.075-2.05A6,6,0,0,1,32.3-15.875Zm22.5-5.1h2.25V0H54.8V-2.9A6.113,6.113,0,0,1,49.15.35a6.521,6.521,0,0,1-5.1-2.287,8.48,8.48,0,0,1-2.025-5.837A8.433,8.433,0,0,1,44.05-13.6a6.537,6.537,0,0,1,5.1-2.275,6.331,6.331,0,0,1,3.3.862A6.6,6.6,0,0,1,54.8-12.6Zm-8.95,17.6A4.646,4.646,0,0,0,49.575-1.65a4.718,4.718,0,0,0,3.75-1.725,6.532,6.532,0,0,0,1.475-4.4,6.47,6.47,0,0,0-1.463-4.375,4.737,4.737,0,0,0-3.763-1.7,4.674,4.674,0,0,0-3.725,1.7A6.506,6.506,0,0,0,44.4-7.775,6.6,6.6,0,0,0,45.85-3.375ZM72.6-2.225H83.85V0H70.275V-20.6H72.6Zm21.55.575a7.761,7.761,0,0,0,2.762-.525A5.352,5.352,0,0,0,99.025-3.5l1.4,1.45A6.869,6.869,0,0,1,97.65-.312,10.04,10.04,0,0,1,94.175.35,7.547,7.547,0,0,1,88.65-1.975,7.9,7.9,0,0,1,86.325-7.8a7.971,7.971,0,0,1,2.238-5.75,7.236,7.236,0,0,1,5.412-2.325,6.538,6.538,0,0,1,5.412,2.425,10.2,10.2,0,0,1,1.938,6.55h-12.7a6,6,0,0,0,1.762,3.775A5.176,5.176,0,0,0,94.15-1.65Zm-.1-12.2a5.136,5.136,0,0,0-3.575,1.363A5.807,5.807,0,0,0,88.65-8.9H99.1a5.88,5.88,0,0,0-1.525-3.587A4.642,4.642,0,0,0,94.05-13.85Zm17.25-2.025a6.058,6.058,0,0,1,4.688,1.75A6.628,6.628,0,0,1,117.6-9.45V0h-2.25V-2.425a5.294,5.294,0,0,1-2.312,2.05A7.177,7.177,0,0,1,109.9.35,6.09,6.09,0,0,1,105.813-1a4.488,4.488,0,0,1-1.588-3.6A4.559,4.559,0,0,1,106-8.312a6.652,6.652,0,0,1,4.325-1.437,17.052,17.052,0,0,1,5.025.875V-9.45a5.242,5.242,0,0,0-.963-3.188,3.749,3.749,0,0,0-3.237-1.312,10.357,10.357,0,0,0-4.525,1.4l-.9-1.825A12.676,12.676,0,0,1,111.3-15.875ZM107.5-2.45a4.43,4.43,0,0,0,2.775.825,6.325,6.325,0,0,0,3.175-.838,3.836,3.836,0,0,0,1.9-2.387V-7.225a16.86,16.86,0,0,0-4.675-.625,5,5,0,0,0-3,.9,2.707,2.707,0,0,0-1.25,2.275A2.659,2.659,0,0,0,107.5-2.45Zm26.8-18.525h2.25V0H134.3V-2.9A6.113,6.113,0,0,1,128.65.35a6.521,6.521,0,0,1-5.1-2.287,8.48,8.48,0,0,1-2.025-5.837A8.433,8.433,0,0,1,123.55-13.6a6.537,6.537,0,0,1,5.1-2.275,6.331,6.331,0,0,1,3.3.862A6.6,6.6,0,0,1,134.3-12.6Zm-8.95,17.6a4.646,4.646,0,0,0,3.725,1.725,4.718,4.718,0,0,0,3.75-1.725,6.532,6.532,0,0,0,1.475-4.4,6.47,6.47,0,0,0-1.463-4.375,4.736,4.736,0,0,0-3.762-1.7,4.674,4.674,0,0,0-3.725,1.7,6.506,6.506,0,0,0-1.45,4.375A6.6,6.6,0,0,0,125.35-3.375ZM148.3-1.65a7.761,7.761,0,0,0,2.763-.525A5.352,5.352,0,0,0,153.175-3.5l1.4,1.45A6.87,6.87,0,0,1,151.8-.312a10.04,10.04,0,0,1-3.475.662A7.547,7.547,0,0,1,142.8-1.975,7.9,7.9,0,0,1,140.475-7.8a7.971,7.971,0,0,1,2.238-5.75,7.236,7.236,0,0,1,5.413-2.325,6.538,6.538,0,0,1,5.412,2.425,10.2,10.2,0,0,1,1.938,6.55h-12.7a6,6,0,0,0,1.762,3.775A5.176,5.176,0,0,0,148.3-1.65Zm-.1-12.2a5.136,5.136,0,0,0-3.575,1.363A5.807,5.807,0,0,0,142.8-8.9h10.45a5.88,5.88,0,0,0-1.525-3.587A4.642,4.642,0,0,0,148.2-13.85Zm13.425,1.375a5.319,5.319,0,0,1,2.288-2.488,7.32,7.32,0,0,1,3.712-.912v2.025a6.382,6.382,0,0,0-4.312,1.45,4.688,4.688,0,0,0-1.687,3.725V0h-2.25V-15.5h2.25ZM176.225.35a10.129,10.129,0,0,1-3.362-.6,10.081,10.081,0,0,1-3.062-1.7l1.175-1.65a8.93,8.93,0,0,0,5.25,1.95,4.226,4.226,0,0,0,2.488-.663,2.058,2.058,0,0,0,.938-1.763,1.755,1.755,0,0,0-.225-.875,2.493,2.493,0,0,0-.525-.662,3.6,3.6,0,0,0-.887-.525,9.714,9.714,0,0,0-1.025-.4q-.438-.138-1.238-.363a11.808,11.808,0,0,1-4.025-1.787A3.2,3.2,0,0,1,170.55-11.3a4.083,4.083,0,0,1,1.525-3.325,5.951,5.951,0,0,1,3.9-1.25,10,10,0,0,1,5.55,1.75L180.45-12.4a8.218,8.218,0,0,0-4.475-1.45,4.018,4.018,0,0,0-2.275.6,1.9,1.9,0,0,0-.9,1.675,1.575,1.575,0,0,0,.813,1.438,18.071,18.071,0,0,0,3.212,1.262q.975.3,1.512.488a11.181,11.181,0,0,1,1.325.588,4.533,4.533,0,0,1,1.2.825,3.9,3.9,0,0,1,.725,1.112,3.674,3.674,0,0,1,.313,1.538,4.124,4.124,0,0,1-1.613,3.387A6.306,6.306,0,0,1,176.225.35Zm16.75-16.225a5.572,5.572,0,0,1,4.2,1.687A5.962,5.962,0,0,1,198.8-9.875V0h-2.25V-9.575a4.393,4.393,0,0,0-1.088-3.088,3.61,3.61,0,0,0-2.787-1.187,5.139,5.139,0,0,0-3.375,1.175,3.528,3.528,0,0,0-1.425,2.8V0h-2.25V-20.975h2.25v7.95a5.225,5.225,0,0,1,2.075-2.05A6,6,0,0,1,192.975-15.875Zm11.5-2.45a1.427,1.427,0,0,1-1.062-.45,1.459,1.459,0,0,1-.437-1.05,1.418,1.418,0,0,1,.438-1.038,1.447,1.447,0,0,1,1.063-.437,1.377,1.377,0,0,1,1.025.437,1.439,1.439,0,0,1,.425,1.038,1.481,1.481,0,0,1-.425,1.05A1.359,1.359,0,0,1,204.475-18.325ZM203.325,0V-15.5h2.25V0ZM218.2-15.875a6.574,6.574,0,0,1,5.113,2.275,8.4,8.4,0,0,1,2.037,5.825,8.448,8.448,0,0,1-2.037,5.837A6.559,6.559,0,0,1,218.2.35a6.093,6.093,0,0,1-5.625-3.25V5.15h-2.25V-15.5h2.25v2.9A6.085,6.085,0,0,1,218.2-15.875Zm-4.175,12.5a4.718,4.718,0,0,0,3.75,1.725,4.682,4.682,0,0,0,3.738-1.725,6.568,6.568,0,0,0,1.462-4.4,6.47,6.47,0,0,0-1.462-4.375,4.71,4.71,0,0,0-3.738-1.7,4.7,4.7,0,0,0-3.75,1.7,6.506,6.506,0,0,0-1.45,4.375A6.6,6.6,0,0,0,214.025-3.375ZM253.975-14a5.961,5.961,0,0,1-1.55,4.125,7.29,7.29,0,0,1-4.05,2.25L253.7,0h-2.65l-5.225-7.4H240.35V0h-2.325V-20.6H246.4a8.012,8.012,0,0,1,5.4,1.863A5.963,5.963,0,0,1,253.975-14ZM240.35-18.4v8.775h5.625a6.56,6.56,0,0,0,4.088-1.175A3.812,3.812,0,0,0,251.6-14a3.837,3.837,0,0,0-1.537-3.225,6.56,6.56,0,0,0-4.088-1.175Zm29.9,16.35a7.649,7.649,0,0,1-5.625,2.4,7.67,7.67,0,0,1-5.638-2.412A7.848,7.848,0,0,1,256.6-7.775a7.828,7.828,0,0,1,2.375-5.7,7.677,7.677,0,0,1,5.65-2.4,7.677,7.677,0,0,1,5.65,2.4,7.828,7.828,0,0,1,2.375,5.7A7.869,7.869,0,0,1,270.25-2.05Zm-5.625.4A5.237,5.237,0,0,0,268.6-3.463a6.138,6.138,0,0,0,1.675-4.312A6.063,6.063,0,0,0,268.6-12.05a5.253,5.253,0,0,0-3.975-1.8,5.279,5.279,0,0,0-4,1.8,6.063,6.063,0,0,0-1.675,4.275,6.138,6.138,0,0,0,1.675,4.312A5.263,5.263,0,0,0,264.625-1.65ZM276.35,0V-20.975h2.25V0Zm13.8-1.65a7.762,7.762,0,0,0,2.763-.525A5.352,5.352,0,0,0,295.025-3.5l1.4,1.45A6.869,6.869,0,0,1,293.65-.312a10.04,10.04,0,0,1-3.475.662,7.547,7.547,0,0,1-5.525-2.325A7.9,7.9,0,0,1,282.325-7.8a7.971,7.971,0,0,1,2.237-5.75,7.236,7.236,0,0,1,5.413-2.325,6.538,6.538,0,0,1,5.413,2.425,10.2,10.2,0,0,1,1.938,6.55h-12.7a6,6,0,0,0,1.763,3.775A5.176,5.176,0,0,0,290.15-1.65Zm-.1-12.2a5.136,5.136,0,0,0-3.575,1.363A5.807,5.807,0,0,0,284.65-8.9H295.1a5.88,5.88,0,0,0-1.525-3.587A4.642,4.642,0,0,0,290.05-13.85ZM306.5.35a10.129,10.129,0,0,1-3.362-.6,10.081,10.081,0,0,1-3.062-1.7L301.25-3.6a8.93,8.93,0,0,0,5.25,1.95,4.226,4.226,0,0,0,2.488-.663,2.058,2.058,0,0,0,.938-1.763,1.755,1.755,0,0,0-.225-.875,2.493,2.493,0,0,0-.525-.662,3.6,3.6,0,0,0-.888-.525,9.715,9.715,0,0,0-1.025-.4q-.437-.138-1.238-.363A11.809,11.809,0,0,1,302-8.687a3.2,3.2,0,0,1-1.175-2.613,4.083,4.083,0,0,1,1.525-3.325,5.951,5.951,0,0,1,3.9-1.25,10,10,0,0,1,5.55,1.75L310.725-12.4a8.218,8.218,0,0,0-4.475-1.45,4.018,4.018,0,0,0-2.275.6,1.9,1.9,0,0,0-.9,1.675,1.575,1.575,0,0,0,.813,1.438A18.07,18.07,0,0,0,307.1-8.875q.975.3,1.513.488a11.184,11.184,0,0,1,1.325.588,4.533,4.533,0,0,1,1.2.825,3.9,3.9,0,0,1,.725,1.112,3.674,3.674,0,0,1,.313,1.538,4.124,4.124,0,0,1-1.613,3.387A6.306,6.306,0,0,1,306.5.35Z" transform="translate(331 2623)" fill="#525252"/>
  </g>
</svg>
