<svg xmlns="http://www.w3.org/2000/svg" width="190.654" height="57" viewBox="0 0 190.654 57">
  <g id="Group_83" data-name="Group 83" transform="translate(71 187)">
    <path id="Path_238" data-name="Path 238" d="M8.84-3.92A2.368,2.368,0,0,1,6.16-6.4c0-1.56,1.08-2.56,3.2-2.96a23.04,23.04,0,0,0,4.24-1.28v1.96A4.374,4.374,0,0,1,8.84-3.92Zm1.24-13.2c2.2,0,3.32.6,3.44,1.8,0,1.16-1.16,1.84-3.44,2.12-5.36.52-9.04,1.88-9.16,6.96C.92-1.56,4.44.8,9.52.4c5.72-.4,9.24-3,9.24-8.84v-7.2c-.12-3.92-3.08-5.84-8.92-5.84-4.88,0-7.64,1.92-8.28,5.84H6.88C7.16-16.64,8.2-17.12,10.08-17.12ZM26.16-6.96H20.72a6.425,6.425,0,0,0,2.4,5.48C24.56-.24,26.8.4,29.76.4c5.6,0,9.68-1.92,9.68-7.12a5.255,5.255,0,0,0-1.48-3.76c-1.16-1.08-3.52-2-7.12-2.72-2.76-.52-4.12-1.36-4.12-2.44s1.04-1.64,3.12-1.64c1.76,0,2.84.52,3.2,1.44a2.317,2.317,0,0,0,2.36,1.32h3.36a6.725,6.725,0,0,0-2.52-5.16,10.558,10.558,0,0,0-6.48-1.8c-4.84.08-8.44,2.24-8.44,6.8.04,3.32,2.44,5.4,7.12,6.24,3.64.64,5.48,1.52,5.48,2.6,0,1.36-1.12,2-3.36,2C27.96-3.84,26.28-4.64,26.16-6.96ZM56-10.84V0h5.28V-12.28q.24-6.9-4.2-8.52a8.472,8.472,0,0,0-10,2.6v-6.32a2.362,2.362,0,0,0-2.64-2.68H41.76V0h5.32V-10.84c0-3.24,1.36-5.88,4.52-5.88C54.64-16.72,56-14.4,56-10.84ZM64-27.2v4.16h5.32V-24.6a2.249,2.249,0,0,0-2.56-2.6Zm0,6.04V0h5.32V-18.6a2.252,2.252,0,0,0-2.56-2.56ZM77.16-6.96H71.72a6.425,6.425,0,0,0,2.4,5.48C75.56-.24,77.8.4,80.76.4c5.6,0,9.68-1.92,9.68-7.12a5.255,5.255,0,0,0-1.48-3.76c-1.16-1.08-3.52-2-7.12-2.72-2.76-.52-4.12-1.36-4.12-2.44s1.04-1.64,3.12-1.64c1.76,0,2.84.52,3.2,1.44a2.317,2.317,0,0,0,2.36,1.32h3.36a6.725,6.725,0,0,0-2.52-5.16,10.558,10.558,0,0,0-6.48-1.8c-4.84.08-8.44,2.24-8.44,6.8.04,3.32,2.44,5.4,7.12,6.24,3.64.64,5.48,1.52,5.48,2.6,0,1.36-1.12,2-3.36,2C78.96-3.84,77.28-4.64,77.16-6.96ZM107-10.84V0h5.28V-12.28q.24-6.9-4.2-8.52a8.472,8.472,0,0,0-10,2.6v-6.32a2.362,2.362,0,0,0-2.64-2.68H92.76V0h5.32V-10.84c0-3.24,1.36-5.88,4.52-5.88C105.64-16.72,107-14.4,107-10.84Z" transform="translate(7 -158)" fill="#3e43b9"/>
    <g id="Group_81" data-name="Group 81" transform="translate(-8 -2)">
      <line id="Line_8" data-name="Line 8" x2="18" transform="translate(-28.5 -131.5)" fill="none" stroke="#878ad6" stroke-linecap="round" stroke-width="2"/>
      <line id="Line_9" data-name="Line 9" x2="15" transform="translate(-16.764 -135.5)" fill="none" stroke="#878ad6" stroke-linecap="round" stroke-width="2"/>
      <line id="Line_10" data-name="Line 10" x2="23" transform="translate(-16.5 -139.5)" fill="none" stroke="#878ad6" stroke-linecap="round" stroke-width="2"/>
    </g>
    <g id="Group_82" data-name="Group 82" transform="translate(0 2)">
      <circle id="Ellipse_3" data-name="Ellipse 3" cx="28.5" cy="28.5" r="28.5" transform="translate(-71 -189)" fill="#3e43b9"/>
      <g id="ux-design" transform="translate(-65 -199)" opacity="0.26">
        <path id="Path_221" data-name="Path 221" d="M37.821,31.077c0-.084,0-.168,0-.252a14.824,14.824,0,0,0-29.648,0c0,.084,0,.168,0,.252A14.83,14.83,0,1,0,23,56.719a14.737,14.737,0,0,0,8.086,2.406,14.808,14.808,0,0,0,6.735-28.048ZM23,53.333A12.106,12.106,0,0,1,18.984,45.1a14.857,14.857,0,0,0,8.033,0A12.106,12.106,0,0,1,23,53.333Zm0-10.38a12.079,12.079,0,0,1-3.88-.636A12.122,12.122,0,0,1,23,35.269a12.122,12.122,0,0,1,3.88,7.048A12.079,12.079,0,0,1,23,42.953Zm-6.395-1.827A12.155,12.155,0,0,1,11.033,32.8a12.251,12.251,0,0,1,3.881-.628,12.053,12.053,0,0,1,5.845,1.5A14.818,14.818,0,0,0,16.605,41.126Zm8.636-7.449a12.053,12.053,0,0,1,5.845-1.5,12.251,12.251,0,0,1,3.881.628,12.155,12.155,0,0,1-5.572,8.326A14.818,14.818,0,0,0,25.241,33.676ZM23,18.7A12.144,12.144,0,0,1,35.1,30.023a14.96,14.96,0,0,0-4.016-.547A14.737,14.737,0,0,0,23,31.882a14.737,14.737,0,0,0-8.086-2.406,14.96,14.96,0,0,0-4.016.547A12.144,12.144,0,0,1,23,18.7ZM14.914,56.43a12.11,12.11,0,0,1-6.4-22.456,14.879,14.879,0,0,0,7.752,10.055c0,.091,0,.181,0,.272a14.78,14.78,0,0,0,4.5,10.624A12.053,12.053,0,0,1,14.914,56.43Zm16.172,0a12.053,12.053,0,0,1-5.845-1.5,14.78,14.78,0,0,0,4.5-10.624c0-.091,0-.182,0-.272a14.879,14.879,0,0,0,7.752-10.055,12.11,12.11,0,0,1-6.4,22.456Z" fill="#878ad6"/>
      </g>
      <path id="Path_237" data-name="Path 237" d="M7.956-3.528A2.132,2.132,0,0,1,5.544-5.76c0-1.4.972-2.3,2.88-2.664A20.736,20.736,0,0,0,12.24-9.576v1.764A3.937,3.937,0,0,1,7.956-3.528Zm1.116-11.88c1.98,0,2.988.54,3.1,1.62,0,1.044-1.044,1.656-3.1,1.908C4.248-11.412.936-10.188.828-5.616.828-1.4,4,.72,8.568.36,13.716,0,16.884-2.34,16.884-7.6v-6.48c-.108-3.528-2.772-5.256-8.028-5.256-4.392,0-6.876,1.728-7.452,5.256H6.192C6.444-14.976,7.38-15.408,9.072-15.408ZM36-5.832H32.4a2.206,2.206,0,0,0-1.62.684A3.737,3.737,0,0,1,27.9-3.78c-2.664.036-4-1.872-4-5.652s1.26-5.688,3.78-5.688a3.119,3.119,0,0,1,3.1,1.98H36c-.828-4.14-3.564-6.192-8.172-6.192-5.868.108-8.784,3.384-8.784,9.9C19.188-2.88,22.14.432,27.9.432A7.541,7.541,0,0,0,36-5.832Z" transform="translate(-61 -150)" fill="#fff"/>
    </g>
    <path id="Path_239" data-name="Path 239" d="M15.562-5.022h-3.1a1.9,1.9,0,0,0-1.4.589,3.218,3.218,0,0,1-2.48,1.178c-2.294.031-3.441-1.612-3.441-4.867s1.085-4.9,3.255-4.9a2.686,2.686,0,0,1,2.666,1.7h4.495c-.713-3.565-3.069-5.332-7.037-5.332C3.472-16.554.961-13.733.961-8.122,1.085-2.48,3.627.372,8.587.372A6.494,6.494,0,0,0,15.562-5.022ZM28.768-8.4V0H32.86V-9.517q.186-5.347-3.255-6.6a6.566,6.566,0,0,0-7.75,2.015V-19a1.831,1.831,0,0,0-2.046-2.077H17.732V0h4.123V-8.4c0-2.511,1.054-4.557,3.5-4.557C27.714-12.958,28.768-11.16,28.768-8.4ZM40.734-3.038A1.836,1.836,0,0,1,38.657-4.96c0-1.209.837-1.984,2.48-2.294a17.856,17.856,0,0,0,3.286-.992v1.519A3.39,3.39,0,0,1,40.734-3.038Zm.961-10.23c1.705,0,2.573.465,2.666,1.4,0,.9-.9,1.426-2.666,1.643-4.154.4-7.006,1.457-7.1,5.394C34.6-1.209,37.324.62,41.261.31c4.433-.31,7.161-2.325,7.161-6.851v-5.58c-.093-3.038-2.387-4.526-6.913-4.526-3.782,0-5.921,1.488-6.417,4.526h4.123C39.432-12.9,40.238-13.268,41.695-13.268ZM64.2-16.4H62.093a1.754,1.754,0,0,0-1.984,2.046V-5.7c0,1.829-.93,2.728-2.79,2.728s-2.79-.9-2.79-2.728V-16.4H50.406v9.858c0,2.759.713,4.557,2.139,5.456a8.273,8.273,0,0,0,4.65,1.4A9.547,9.547,0,0,0,62.031-.961c1.457-.9,2.17-2.759,2.17-5.58Zm12.834,8V0h4.092V-9.517q.186-5.347-3.255-6.6a6.566,6.566,0,0,0-7.75,2.015V-19a1.831,1.831,0,0,0-2.046-2.077H66V0h4.123V-8.4c0-2.511,1.054-4.557,3.5-4.557C75.981-12.958,77.035-11.16,77.035-8.4ZM89-3.038A1.836,1.836,0,0,1,86.924-4.96c0-1.209.837-1.984,2.48-2.294a17.856,17.856,0,0,0,3.286-.992v1.519A3.39,3.39,0,0,1,89-3.038Zm.961-10.23c1.7,0,2.573.465,2.666,1.4,0,.9-.9,1.426-2.666,1.643-4.154.4-7.006,1.457-7.1,5.394,0,3.627,2.728,5.456,6.665,5.146,4.433-.31,7.161-2.325,7.161-6.851v-5.58c-.093-3.038-2.387-4.526-6.913-4.526-3.782,0-5.921,1.488-6.417,4.526h4.123C87.7-12.9,88.505-13.268,89.962-13.268ZM112.654,0V-9.641c.031-4.681-2.263-7.006-6.944-7.006s-7.037,2.325-7.037,7.006V0h4.185V-10.478c.031-1.705.961-2.542,2.79-2.542s2.759.837,2.852,2.542v8.432c0,1.3.682,1.953,2.046,2.046Z" transform="translate(7 -135)" fill="#525252"/>
  </g>
</svg>
