<svg xmlns="http://www.w3.org/2000/svg" width="643.735" height="247.258" viewBox="0 0 643.735 247.258">
  <g id="Group_31" data-name="Group 31" transform="translate(-128 -2413.15)">
    <path id="Meet_my_design" data-name="Meet my design" d="M3.3,0V-24.033H6.008L14.933-7.292l8.925-16.742H26.6V0H23.858V-18.171L14.933-1.4,6.008-18.171V0ZM40.688-1.925a9.055,9.055,0,0,0,3.223-.612,6.244,6.244,0,0,0,2.465-1.546l1.633,1.692A8.014,8.014,0,0,1,44.771-.365a11.714,11.714,0,0,1-4.054.773A8.805,8.805,0,0,1,34.271-2.3a9.218,9.218,0,0,1-2.712-6.8,9.3,9.3,0,0,1,2.61-6.708,8.442,8.442,0,0,1,6.315-2.712A7.627,7.627,0,0,1,46.8-15.692a11.9,11.9,0,0,1,2.26,7.642H34.242a7,7,0,0,0,2.056,4.4A6.038,6.038,0,0,0,40.688-1.925Zm-.117-14.233a5.992,5.992,0,0,0-4.171,1.59,6.775,6.775,0,0,0-2.129,4.185H46.463a6.86,6.86,0,0,0-1.779-4.185A5.415,5.415,0,0,0,40.571-16.158ZM61.512-1.925a9.055,9.055,0,0,0,3.223-.612A6.244,6.244,0,0,0,67.2-4.083l1.633,1.692A8.014,8.014,0,0,1,65.6-.365a11.714,11.714,0,0,1-4.054.773A8.805,8.805,0,0,1,55.1-2.3a9.218,9.218,0,0,1-2.713-6.8,9.3,9.3,0,0,1,2.61-6.708,8.442,8.442,0,0,1,6.315-2.712,7.627,7.627,0,0,1,6.315,2.829,11.9,11.9,0,0,1,2.26,7.642H55.067a7,7,0,0,0,2.056,4.4A6.038,6.038,0,0,0,61.512-1.925ZM61.4-16.158a5.992,5.992,0,0,0-4.171,1.59A6.775,6.775,0,0,0,55.1-10.383H67.287a6.86,6.86,0,0,0-1.779-4.185A5.415,5.415,0,0,0,61.4-16.158Zm20.738,13.5L83.417-.729A5.3,5.3,0,0,1,80.063.408a4.173,4.173,0,0,1-3.179-1.3A4.629,4.629,0,0,1,75.658-4.2V-15.75H72.8v-2.333h2.858v-4.988h2.625v4.988h4.433v2.333H78.283V-4.2a2.371,2.371,0,0,0,.569,1.633,1.783,1.783,0,0,0,1.385.642A2.447,2.447,0,0,0,82.133-2.654ZM97.912,0V-24.033h2.713L109.55-7.292l8.925-16.742h2.742V0h-2.742V-18.171L109.55-1.4l-8.925-16.771V0ZM129.85,6.3a7.03,7.03,0,0,1-2.887-.583l.642-2.246a4.723,4.723,0,0,0,2.129.438,2.86,2.86,0,0,0,2.625-1.6l1.05-2.246-7.875-18.142h2.917l6.329,15.05,5.979-15.05h2.829L135.333,2.042A7.354,7.354,0,0,1,133.1,5.279,5.422,5.422,0,0,1,129.85,6.3ZM158.667,0V-24.033h8.108a13.327,13.327,0,0,1,9.392,3.354,11.2,11.2,0,0,1,3.646,8.633,11.271,11.271,0,0,1-3.66,8.663A13.272,13.272,0,0,1,166.775,0Zm2.712-2.479h5.4a10.4,10.4,0,0,0,7.394-2.683,9,9,0,0,0,2.873-6.883,8.919,8.919,0,0,0-2.873-6.84,10.432,10.432,0,0,0-7.394-2.669h-5.4Zm31.471.554a9.055,9.055,0,0,0,3.223-.612,6.244,6.244,0,0,0,2.465-1.546l1.633,1.692a8.014,8.014,0,0,1-3.238,2.027,11.714,11.714,0,0,1-4.054.773A8.805,8.805,0,0,1,186.433-2.3a9.218,9.218,0,0,1-2.712-6.8,9.3,9.3,0,0,1,2.61-6.708,8.442,8.442,0,0,1,6.315-2.712,7.627,7.627,0,0,1,6.315,2.829,11.9,11.9,0,0,1,2.26,7.642H186.4a7,7,0,0,0,2.056,4.4A6.038,6.038,0,0,0,192.85-1.925Zm-.117-14.233a5.992,5.992,0,0,0-4.171,1.59,6.775,6.775,0,0,0-2.129,4.185h12.192a6.86,6.86,0,0,0-1.779-4.185A5.415,5.415,0,0,0,192.733-16.158ZM211.925.408A11.817,11.817,0,0,1,208-.292a11.761,11.761,0,0,1-3.573-1.983L205.8-4.2a10.419,10.419,0,0,0,6.125,2.275,4.931,4.931,0,0,0,2.9-.773,2.4,2.4,0,0,0,1.094-2.056,2.047,2.047,0,0,0-.262-1.021,2.908,2.908,0,0,0-.613-.773,4.2,4.2,0,0,0-1.035-.612,11.333,11.333,0,0,0-1.2-.467q-.51-.16-1.444-.423a13.776,13.776,0,0,1-4.7-2.085,3.732,3.732,0,0,1-1.371-3.048,4.763,4.763,0,0,1,1.779-3.879,6.943,6.943,0,0,1,4.55-1.458,11.668,11.668,0,0,1,6.475,2.042l-1.254,2.012a9.588,9.588,0,0,0-5.221-1.692,4.688,4.688,0,0,0-2.654.7,2.221,2.221,0,0,0-1.05,1.954,1.838,1.838,0,0,0,.948,1.677,21.083,21.083,0,0,0,3.748,1.473q1.138.35,1.765.569a13.046,13.046,0,0,1,1.546.685,5.288,5.288,0,0,1,1.4.962,4.545,4.545,0,0,1,.846,1.3,4.286,4.286,0,0,1,.365,1.794,4.812,4.812,0,0,1-1.881,3.952A7.357,7.357,0,0,1,211.925.408Zm12.25-21.788a1.664,1.664,0,0,1-1.24-.525,1.7,1.7,0,0,1-.51-1.225,1.654,1.654,0,0,1,.51-1.21,1.688,1.688,0,0,1,1.24-.51,1.607,1.607,0,0,1,1.2.51,1.678,1.678,0,0,1,.5,1.21,1.728,1.728,0,0,1-.5,1.225A1.586,1.586,0,0,1,224.175-21.379ZM222.833,0V-18.083h2.625V0Zm21.992-18.083h2.625V-1.925a7.3,7.3,0,0,1-2.494,5.717,9.276,9.276,0,0,1-6.4,2.217,12.832,12.832,0,0,1-4.113-.656,9.494,9.494,0,0,1-3.208-1.735L232.4,1.546a8.029,8.029,0,0,0,5.8,2.129A7.341,7.341,0,0,0,243.075,2.2a5.1,5.1,0,0,0,1.75-4.127V-4.871a7.243,7.243,0,0,1-2.756,2.61,7.959,7.959,0,0,1-3.835.919,8.013,8.013,0,0,1-5.994-2.406,8.5,8.5,0,0,1-2.348-6.2,8.452,8.452,0,0,1,2.348-6.183,8.039,8.039,0,0,1,5.994-2.392,7.959,7.959,0,0,1,3.835.919,7.243,7.243,0,0,1,2.756,2.61Zm-6.1,14.408a5.838,5.838,0,0,0,4.39-1.765,6.216,6.216,0,0,0,1.706-4.506,6.115,6.115,0,0,0-1.706-4.477,5.888,5.888,0,0,0-4.39-1.735,5.852,5.852,0,0,0-4.36,1.735,6.115,6.115,0,0,0-1.706,4.477,6.216,6.216,0,0,0,1.706,4.506A5.8,5.8,0,0,0,238.729-3.675ZM261.6-18.521a6.5,6.5,0,0,1,4.9,1.969,6.956,6.956,0,0,1,1.9,5.031V0h-2.625V-11.171a5.125,5.125,0,0,0-1.269-3.6,4.212,4.212,0,0,0-3.252-1.385,6,6,0,0,0-3.937,1.371,4.116,4.116,0,0,0-1.662,3.267V0h-2.625V-18.083h2.625V-15.2a6.1,6.1,0,0,1,2.421-2.392A6.994,6.994,0,0,1,261.6-18.521Z" transform="translate(128 2438)" fill="#fff"/>
    <g id="Group_30" data-name="Group 30" transform="translate(128 2466.013)">
      <path id="Path_206" data-name="Path 206" d="M0,0H603.418l40.317,141.973H38.868Z" fill="#3e43b9"/>
      <path id="Skills" d="M30.875,1.029q-16.7,0-27.946-10.529l6.887-8.471Q19.713-9.1,31.271-9.1q5.779,0,9.025-2.454a7.456,7.456,0,0,0,3.246-6.175,6.338,6.338,0,0,0-3.325-5.779q-3.325-1.979-11.8-3.958a92.112,92.112,0,0,1-9.381-2.652,32.738,32.738,0,0,1-7.006-3.483,13.561,13.561,0,0,1-4.908-5.423,17.343,17.343,0,0,1-1.583-7.679,17.825,17.825,0,0,1,6.571-14.21Q18.683-66.5,28.975-66.5a36.766,36.766,0,0,1,24.7,9.1l-6.492,8.788Q38.158-56.367,28.5-56.367a12.2,12.2,0,0,0-7.917,2.494A7.537,7.537,0,0,0,17.5-47.817a6.313,6.313,0,0,0,3.4,5.779q3.4,1.979,11.8,3.879,11.4,2.533,17.06,6.729t5.66,12.508A17.974,17.974,0,0,1,48.885-4.473Q42.354,1.029,30.875,1.029ZM102.03,0V-65.233h11.875v31.9l28.579-31.9h14.567L130.926-36.5,158.951,0H144.3L122.693-28.1l-8.787,9.5V0Zm99.655,0V-65.233H213.4V0Zm71.709-10.846h33.488V0H261.6V-65.233h11.8Zm89.363,0h33.488V0H350.962V-65.233h11.8ZM465.025,1.029q-16.7,0-27.946-10.529l6.888-8.471q9.9,8.867,21.454,8.867,5.779,0,9.025-2.454a7.456,7.456,0,0,0,3.246-6.175,6.338,6.338,0,0,0-3.325-5.779q-3.325-1.979-11.8-3.958a92.11,92.11,0,0,1-9.381-2.652,32.738,32.738,0,0,1-7.006-3.483,13.561,13.561,0,0,1-4.908-5.423,17.342,17.342,0,0,1-1.583-7.679,17.825,17.825,0,0,1,6.571-14.21q6.571-5.581,16.863-5.581a36.766,36.766,0,0,1,24.7,9.1l-6.492,8.788q-9.025-7.758-18.683-7.758a12.2,12.2,0,0,0-7.917,2.494,7.537,7.537,0,0,0-3.088,6.056,6.313,6.313,0,0,0,3.4,5.779q3.4,1.979,11.8,3.879,11.4,2.533,17.06,6.729t5.66,12.508a17.974,17.974,0,0,1-6.531,14.448Q476.5,1.029,465.025,1.029Z" transform="translate(70 104.986)" fill="#fff"/>
    </g>
    <path id="And_tools" data-name="And tools" d="M22.342,0,19.921-5.454H6.5L4.083,0H1.108L11.725-24.033H14.7L25.317,0ZM7.642-8.05H18.783L13.242-20.679ZM37.683-18.521a6.5,6.5,0,0,1,4.9,1.969,6.956,6.956,0,0,1,1.9,5.031V0H41.854V-11.171a5.125,5.125,0,0,0-1.269-3.6,4.212,4.212,0,0,0-3.252-1.385A6,6,0,0,0,33.4-14.788a4.116,4.116,0,0,0-1.662,3.267V0H29.108V-18.083h2.625V-15.2a6.1,6.1,0,0,1,2.421-2.392A6.994,6.994,0,0,1,37.683-18.521Zm26.25-5.95h2.625V0H63.933V-3.383A7.132,7.132,0,0,1,57.342.408a7.608,7.608,0,0,1-5.95-2.669,9.894,9.894,0,0,1-2.363-6.81,9.839,9.839,0,0,1,2.363-6.8,7.626,7.626,0,0,1,5.95-2.654,7.386,7.386,0,0,1,3.85,1.006A7.7,7.7,0,0,1,63.933-14.7ZM53.492-3.937a5.42,5.42,0,0,0,4.346,2.013,5.5,5.5,0,0,0,4.375-2.013,7.621,7.621,0,0,0,1.721-5.133,7.549,7.549,0,0,0-1.706-5.1,5.526,5.526,0,0,0-4.39-1.983,5.452,5.452,0,0,0-4.346,1.983,7.59,7.59,0,0,0-1.692,5.1A7.7,7.7,0,0,0,53.492-3.937ZM89.25,0V-21.467H81.171v-2.567h18.9v2.567H91.992V0Zm30.013-2.392A8.924,8.924,0,0,1,112.7.408a8.949,8.949,0,0,1-6.577-2.815,9.157,9.157,0,0,1-2.785-6.665,9.132,9.132,0,0,1,2.771-6.65,8.957,8.957,0,0,1,6.592-2.8,8.957,8.957,0,0,1,6.592,2.8,9.132,9.132,0,0,1,2.771,6.65A9.181,9.181,0,0,1,119.263-2.392Zm-6.562.467a6.11,6.11,0,0,0,4.637-2.115,7.161,7.161,0,0,0,1.954-5.031,7.073,7.073,0,0,0-1.954-4.988,6.128,6.128,0,0,0-4.637-2.1,6.158,6.158,0,0,0-4.667,2.1,7.073,7.073,0,0,0-1.954,4.988,7.161,7.161,0,0,0,1.954,5.031A6.14,6.14,0,0,0,112.7-1.925Zm28.642-.467a8.924,8.924,0,0,1-6.562,2.8A8.949,8.949,0,0,1,128.2-2.406a9.156,9.156,0,0,1-2.785-6.665,9.132,9.132,0,0,1,2.771-6.65,8.956,8.956,0,0,1,6.592-2.8,8.957,8.957,0,0,1,6.592,2.8,9.132,9.132,0,0,1,2.771,6.65A9.181,9.181,0,0,1,141.342-2.392Zm-6.562.467a6.11,6.11,0,0,0,4.638-2.115,7.161,7.161,0,0,0,1.954-5.031,7.073,7.073,0,0,0-1.954-4.988,6.128,6.128,0,0,0-4.638-2.1,6.158,6.158,0,0,0-4.667,2.1,7.073,7.073,0,0,0-1.954,4.988,7.161,7.161,0,0,0,1.954,5.031A6.14,6.14,0,0,0,134.779-1.925ZM148.458,0V-24.471h2.625V0Zm14.35.408a11.817,11.817,0,0,1-3.923-.7,11.761,11.761,0,0,1-3.573-1.983L156.683-4.2a10.419,10.419,0,0,0,6.125,2.275,4.931,4.931,0,0,0,2.9-.773A2.4,2.4,0,0,0,166.8-4.754a2.047,2.047,0,0,0-.262-1.021,2.908,2.908,0,0,0-.613-.773,4.2,4.2,0,0,0-1.035-.612,11.333,11.333,0,0,0-1.2-.467q-.51-.16-1.444-.423a13.776,13.776,0,0,1-4.7-2.085,3.732,3.732,0,0,1-1.371-3.048,4.763,4.763,0,0,1,1.779-3.879,6.943,6.943,0,0,1,4.55-1.458,11.668,11.668,0,0,1,6.475,2.042l-1.254,2.012a9.588,9.588,0,0,0-5.221-1.692,4.688,4.688,0,0,0-2.654.7,2.221,2.221,0,0,0-1.05,1.954,1.838,1.838,0,0,0,.948,1.677,21.083,21.083,0,0,0,3.748,1.473q1.138.35,1.765.569a13.046,13.046,0,0,1,1.546.685,5.288,5.288,0,0,1,1.4.962,4.545,4.545,0,0,1,.846,1.3,4.286,4.286,0,0,1,.365,1.794,4.812,4.812,0,0,1-1.881,3.952A7.357,7.357,0,0,1,162.808.408Z" transform="translate(600 2660)" fill="#fff"/>
  </g>
</svg>
