<svg xmlns="http://www.w3.org/2000/svg" width="337.529" height="1025.756" viewBox="0 0 337.529 1025.756">
  <g id="Group_61" data-name="Group 61" transform="translate(-1250.19 -2176.159)" opacity="0.51">
    <path id="About_Me" data-name="About Me" d="M128.934,0,117.542-26.944H45.57L34.358,0H4.159L66.366-149.007h30.2L158.772,0Zm-73.6-50.272h52.442L81.556-113.021Zm188.428-64.557q22.423,0,36.98,16.456T295.3-56.239q0,25.859-14.557,42.315T243.763,2.532q-25.136,0-39.06-20.253V0H178.3V-151.719h26.4V-94.4Q218.808-114.829,243.763-114.829Zm-7.053,94.937A29.675,29.675,0,0,0,259.948-30.2q9.132-10.308,9.132-26.04T259.948-82.1q-9.132-10.127-23.237-10.127-13.924,0-22.785,10.127t-8.861,25.859q0,15.733,8.861,26.04A28.676,28.676,0,0,0,236.711-19.892Zm178.844,5.063q-17.9,17.36-42.315,17.36t-42.225-17.45Q313.2-32.369,313.2-56.239t17.812-41.23q17.812-17.36,42.225-17.36t42.315,17.36q17.9,17.36,17.9,41.23T415.555-14.828ZM349.189-30.561q10.127,10.669,24.051,10.669t24.051-10.76a36.06,36.06,0,0,0,10.127-25.588,35.528,35.528,0,0,0-10.127-25.317Q387.164-92.225,373.24-92.225T349.189-81.556a35.528,35.528,0,0,0-10.127,25.317A36.375,36.375,0,0,0,349.189-30.561Zm183-81.556h26.583V0H532.193V-15.009A37.754,37.754,0,0,1,517.726-2.26a43.261,43.261,0,0,1-20.253,4.792q-18.445,0-30.018-12.206T455.881-40.868v-71.248h25.678v66.185q0,11.393,6.51,18.716t17,7.324A27.948,27.948,0,0,0,523.06-26.04a23.816,23.816,0,0,0,9.132-15.19ZM643.767-24.051l7.6,17.722a35.518,35.518,0,0,1-23.87,8.861q-13.924,0-22.785-9.042t-8.861-23.147V-90.236H579.571v-21.881h16.275v-30.923H621.7v30.923h25.317v21.881H621.7v57.324A13.841,13.841,0,0,0,624.87-23.6a9.932,9.932,0,0,0,7.866,3.707Q639.607-19.892,643.767-24.051ZM735.992,0V-149.007h27.125l49.006,90.778,49.367-90.778h26.763V0H861.49V-99.639L812.122-8.68,763.117-99.639V0ZM972.7-20.8a43.365,43.365,0,0,0,16-3.255,36.083,36.083,0,0,0,12.93-8.137l16.818,17.36Q1011.22-7.052,998.29-2.26a72.8,72.8,0,0,1-25.407,4.792q-24.593,0-41.592-16.727t-17-42.225q0-25.136,16.456-41.772t40.507-16.637q25.859,0,40.416,18.264t14.557,49.548H941.6a33.8,33.8,0,0,0,10.85,18.988A29.8,29.8,0,0,0,972.7-20.8Zm-.362-70.525a30.392,30.392,0,0,0-19.44,6.51A31.99,31.99,0,0,0,941.78-67.27h59.133q-2.351-11.031-9.675-17.541T972.341-91.321Z" transform="translate(1436 2172) rotate(90)" fill="#fff" opacity="0.172"/>
    <path id="_Experience" data-name="&amp; Experience" d="M104.355-5.535,87.48,2.16,74.79-11.07Q60.345,1.89,41.985,1.89q-16.2,0-26.392-8.573T5.4-30.1q0-10.8,5.8-18.293T29.835-61.83Q21.33-73.71,21.33-85.05A25.473,25.473,0,0,1,30.1-104.558q8.775-8.032,21.735-8.032,12.825,0,21.263,7.9A25.655,25.655,0,0,1,81.54-85.185,20.735,20.735,0,0,1,75.4-69.795q-6.142,6.075-19.642,12.15,9.99,11.61,19.71,21.87a114.262,114.262,0,0,0,11.34-21.87l15.12,7.155a177.7,177.7,0,0,1-15.39,26.325q2.7,2.97,8.707,9.18T104.355-5.535ZM52.11-97.875a13.114,13.114,0,0,0-9.382,3.51,12.219,12.219,0,0,0-3.712,9.315q0,7.29,7.695,16.74,9.585-3.915,13.433-7.425A12,12,0,0,0,63.99-85.05a13.051,13.051,0,0,0-3.375-9.113A11,11,0,0,0,52.11-97.875Zm-8.235,84.1q9.99,0,20.115-8.64Q51.165-35.64,38.88-50.085q-13.9,7.56-13.9,19.035A15.769,15.769,0,0,0,30.442-18.5,19.826,19.826,0,0,0,43.875-13.77ZM250.56-92.88H186.975v27h57.51v18.36h-57.51V-18.5H250.56V0H166.725V-111.24H250.56ZM346.005,0h-21.87L303.75-28.08,283.23,0h-21.6l31.455-42.795-29.97-40.9H284.85l19.035,26.055L323.055-83.7H344.52L314.55-42.93Zm63.45-85.725q16.74,0,27.608,12.285T447.93-41.985q0,19.3-10.867,31.59T409.455,1.89q-18.765,0-29.16-15.12V27.81h-19.71V-83.7h19.71v13.23Q390.825-85.725,409.455-85.725ZM404.19-14.85a22.154,22.154,0,0,0,17.347-7.695q6.818-7.695,6.818-19.44T421.537-61.29a22.33,22.33,0,0,0-17.347-7.56,21.572,21.572,0,0,0-17.01,7.56q-6.615,7.56-6.615,19.305t6.615,19.44A21.408,21.408,0,0,0,404.19-14.85Zm100.575-.675a32.374,32.374,0,0,0,11.948-2.43,26.938,26.938,0,0,0,9.652-6.075L538.92-11.07q-5.4,5.805-15.052,9.383A54.345,54.345,0,0,1,504.9,1.89q-18.36,0-31.05-12.487T461.16-42.12q0-18.765,12.285-31.185t30.24-12.42q19.3,0,30.172,13.635T544.725-35.1h-63.18a25.229,25.229,0,0,0,8.1,14.175A22.243,22.243,0,0,0,504.765-15.525Zm-.27-52.65a22.689,22.689,0,0,0-14.512,4.86,23.882,23.882,0,0,0-8.3,13.1h44.145a23.488,23.488,0,0,0-7.223-13.1Q513.135-68.175,504.495-68.175Zm77.49.675a31.126,31.126,0,0,1,11.88-13.365,33.59,33.59,0,0,1,18.09-4.86V-68.85q-13.5,0-21.735,7.29t-8.235,19.305V0h-19.71V-83.7h19.71ZM636.66-96.39a10.826,10.826,0,0,1-8.032-3.375,11,11,0,0,1-3.307-7.965,10.85,10.85,0,0,1,3.307-7.83,10.826,10.826,0,0,1,8.032-3.375,10.674,10.674,0,0,1,7.9,3.375,10.85,10.85,0,0,1,3.307,7.83,11.076,11.076,0,0,1-3.307,7.9A10.574,10.574,0,0,1,636.66-96.39ZM626.535,0V-83.7H646.38V0Zm80.73-15.525a32.374,32.374,0,0,0,11.948-2.43,26.938,26.938,0,0,0,9.652-6.075L741.42-11.07q-5.4,5.805-15.052,9.383A54.345,54.345,0,0,1,707.4,1.89q-18.36,0-31.05-12.487T663.66-42.12q0-18.765,12.285-31.185t30.24-12.42q19.3,0,30.172,13.635T747.225-35.1h-63.18a25.229,25.229,0,0,0,8.1,14.175A22.243,22.243,0,0,0,707.265-15.525Zm-.27-52.65a22.689,22.689,0,0,0-14.513,4.86,23.882,23.882,0,0,0-8.3,13.1h44.145a23.488,23.488,0,0,0-7.223-13.1Q715.635-68.175,706.995-68.175ZM810-85.725q13.77,0,22.41,9.112t8.64,23.288V0H822.015V-49.41q0-8.5-4.927-13.973A16.381,16.381,0,0,0,804.33-68.85,20.865,20.865,0,0,0,790.9-64.26a17.78,17.78,0,0,0-6.818,11.34V0H764.235V-83.7H784.08v11.07a28.185,28.185,0,0,1,10.8-9.518A32.3,32.3,0,0,1,810-85.725ZM902.745,1.89q-18.09,0-31.387-13.027t-13.3-30.847q0-17.82,13.365-30.78a44.022,44.022,0,0,1,31.725-12.96q18.5,0,31.725,13.635L921.51-60.48a24.388,24.388,0,0,0-18.63-8.37q-10.26,0-17.753,7.965a26.65,26.65,0,0,0-7.492,18.9,27.051,27.051,0,0,0,7.492,19.1q7.492,8.032,17.753,8.032a24.46,24.46,0,0,0,19.17-8.775L935.28-12.15A42.952,42.952,0,0,1,902.745,1.89Zm87.21-17.415a32.374,32.374,0,0,0,11.948-2.43,26.938,26.938,0,0,0,9.652-6.075l12.555,12.96q-5.4,5.805-15.052,9.383A54.345,54.345,0,0,1,990.09,1.89q-18.36,0-31.05-12.487T946.35-42.12q0-18.765,12.285-31.185t30.24-12.42q19.3,0,30.172,13.635t10.868,36.99h-63.18a25.229,25.229,0,0,0,8.1,14.175A22.243,22.243,0,0,0,989.955-15.525Zm-.27-52.65a22.689,22.689,0,0,0-14.513,4.86,23.882,23.882,0,0,0-8.3,13.1h44.145a23.488,23.488,0,0,0-7.223-13.1Q998.325-68.175,989.685-68.175Z" transform="translate(1278 2172) rotate(90)" fill="#fff" opacity="0.172"/>
  </g>
</svg>
