<svg xmlns="http://www.w3.org/2000/svg" width="58.655" height="58.655" viewBox="0 0 58.655 58.655">
  <g id="right" transform="translate(58.656 -0.001) rotate(90)">
    <path id="Path_107" data-name="Path 107" d="M3.911,58.656A3.915,3.915,0,0,1,0,54.745,42.981,42.981,0,0,1,42.949,11.732h.065L36.758,7.04A3.91,3.91,0,1,1,41.448.782h0L57.092,12.514a3.91,3.91,0,0,1,0,6.257L41.45,30.5a3.911,3.911,0,0,1-4.692-6.257l6.257-4.692A35.193,35.193,0,0,0,7.821,54.745,3.915,3.915,0,0,1,3.911,58.656Zm39.1-44.969A41.026,41.026,0,0,0,1.956,54.679v.066a1.955,1.955,0,1,0,3.91,0A37.148,37.148,0,0,1,43.015,17.6h2.933a.978.978,0,0,1,.587,1.76l-8.6,6.452a1.955,1.955,0,1,0,2.346,3.128L55.919,17.206a1.955,1.955,0,0,0,0-3.128L40.277,2.347a1.955,1.955,0,1,0-2.346,3.128l8.6,6.452a.978.978,0,0,1-.587,1.76Z" transform="translate(0 0)" fill="#fff"/>
  </g>
</svg>
