<svg xmlns="http://www.w3.org/2000/svg" width="399.744" height="352.285" viewBox="0 0 399.744 352.285">
  <g id="_230_designer_flatline" data-name="#230_designer_flatline" transform="translate(-70.87 -36.191)">
    <path id="Path_108" data-name="Path 108" d="M469.84,242.668H71.644a.774.774,0,1,1,0-1.548h398.2a.774.774,0,1,1,0,1.548Z" transform="translate(0 112.267)" fill="#d1d3d4"/>
    <rect id="Rectangle_25" data-name="Rectangle 25" width="88.892" height="152.617" transform="translate(347.608 219.19)" fill="#fff"/>
    <path id="Path_109" data-name="Path 109" d="M338.826,308.084H249.934a.774.774,0,0,1-.774-.774V154.694a.774.774,0,0,1,.774-.774h88.892a.774.774,0,0,1,.774.774V307.28a.774.774,0,0,1-.774.8Zm-88.118-1.548h87.344V155.468H250.708Z" transform="translate(97.674 64.496)" fill="#231f20"/>
    <rect id="Rectangle_26" data-name="Rectangle 26" width="88.892" height="152.617" transform="translate(102.709 219.19)" fill="#fff"/>
    <path id="Path_110" data-name="Path 110" d="M180.606,308.084H91.714a.774.774,0,0,1-.774-.774V154.694a.774.774,0,0,1,.774-.774h88.892a.774.774,0,0,1,.774.774V307.28a.774.774,0,0,1-.774.8Zm-88.118-1.548h87.344V155.468H92.488Z" transform="translate(10.995 64.496)" fill="#231f20"/>
    <path id="Path_111" data-name="Path 111" d="M270.967,125.83l17.6,35.337h-47.6Z" transform="translate(93.187 49.107)" fill="#231f20"/>
    <path id="Path_112" data-name="Path 112" d="M288.826,162.213H241.276a.789.789,0,0,1-.712-.449.758.758,0,0,1,.124-.82l30-35.337a.727.727,0,0,1,.681-.263.774.774,0,0,1,.6.418L289.553,161.1a.743.743,0,0,1,0,.743.758.758,0,0,1-.727.371ZM242.9,160.665h44.671L271.057,127.51Z" transform="translate(92.927 48.836)" fill="#231f20"/>
    <path id="Path_113" data-name="Path 113" d="M173.02,169.982H286.337l41.111-60.242H220.477Z" transform="translate(55.961 40.292)" fill="#231f20"/>
    <path id="Path_114" data-name="Path 114" d="M286.621,171.03H173.273a.774.774,0,0,1-.6-1.254l47.457-60.242a.758.758,0,0,1,.6-.294H327.7a.8.8,0,0,1,.681.418.758.758,0,0,1,0,.8l-41.111,60.226a.758.758,0,0,1-.65.34ZM174.9,169.482H286.265l40.058-58.694H221.132Z" transform="translate(55.678 40.019)" fill="#231f20"/>
    <path id="Path_115" data-name="Path 115" d="M217.867,113.52,184,157.4h84.094l31.824-43.881Z" transform="translate(61.977 42.363)" fill="#fff"/>
    <path id="Path_116" data-name="Path 116" d="M268.379,158.449H184.285a.774.774,0,0,1-.7-.433.82.82,0,0,1,0-.82l33.882-43.881a.758.758,0,0,1,.6-.294H300.11a.743.743,0,0,1,.681.418.758.758,0,0,1,0,.8l-31.824,43.881A.758.758,0,0,1,268.379,158.449ZM185.864,156.9H267.9l30.786-42.364H218.539Z" transform="translate(61.691 42.089)" fill="#231f20"/>
    <path id="Path_117" data-name="Path 117" d="M237.756,146.451a.774.774,0,0,1-.727-.526c-4.071-12-9.736-25.152-11.794-25.462h0c-2.461,0-18.249,13.048-32.272,25.8a.778.778,0,0,1-1.053-1.145c4.86-4.411,29.022-26.189,33.464-26.189h.17c3.962.6,10.974,20.431,13.033,26.5a.758.758,0,0,1-.5.975.635.635,0,0,1-.325.046Z" transform="translate(66.172 45.327)" fill="#d1d3d4"/>
    <path id="Path_118" data-name="Path 118" d="M247.576,145.766a.774.774,0,0,1-.743-.573c-2.724-9.674-6.609-20-8.436-20.54s-10.309,7.12-17.212,14.488a.777.777,0,0,1-1.13-1.068c3.529-3.761,15.293-15.943,18.791-14.89s8.513,18.172,9.473,21.67a.774.774,0,0,1-.526.96Z" transform="translate(81.613 47.622)" fill="#d1d3d4"/>
    <path id="Path_119" data-name="Path 119" d="M255.035,130.463c-1.9,0-3.405-.913-3.405-2.074s1.548-2.059,3.405-2.059,3.405.9,3.405,2.059S256.939,130.463,255.035,130.463Zm0-3.746c-1.641,0-3.1.758-3.1,1.672s1.378,1.687,3.1,1.687,3.018-.774,3.018-1.687-1.378-1.625-3.018-1.625Z" transform="translate(99.027 49.381)" fill="#a7a9ac"/>
    <path id="Path_120" data-name="Path 120" d="M265.068,117.8H258.2a.194.194,0,0,1,0-.387h6.872a.194.194,0,0,1,0,.387Z" transform="translate(102.522 44.494)" fill="#a7a9ac"/>
    <path id="Path_121" data-name="Path 121" d="M246.505,160.367a.82.82,0,0,1-.464-.139.789.789,0,0,1-.17-1.083l21.948-30.121a.774.774,0,0,1,1.084-.17.789.789,0,0,1,.17,1.083l-21.948,30.183A.789.789,0,0,1,246.505,160.367Z" transform="translate(95.793 50.681)" fill="#fff"/>
    <path id="Path_122" data-name="Path 122" d="M222.645,123.15a3.405,3.405,0,1,1,3.405-3.405A3.405,3.405,0,0,1,222.645,123.15Zm0-5.263a1.842,1.842,0,1,0,1.318.539,1.857,1.857,0,0,0-1.318-.539Z" transform="translate(81.282 43.908)" fill="#d1d3d4"/>
    <rect id="Rectangle_27" data-name="Rectangle 27" width="349.378" height="14.813" transform="translate(90.899 211.59)" fill="#fff"/>
    <path id="Path_123" data-name="Path 123" d="M433.477,165.371H84.084a.774.774,0,0,1-.774-.774V149.784a.789.789,0,0,1,.774-.774H433.477a.789.789,0,0,1,.774.774V164.6a.774.774,0,0,1-.774.774ZM84.858,163.823H432.641v-13.28H84.858Z" transform="translate(6.815 61.806)" fill="#231f20"/>
    <path id="Path_124" data-name="Path 124" d="M175.514,208.813c.325,1.1-19.224,71.278-19.224,71.278l27.319,4.4L215.9,187.53Z" transform="translate(46.796 82.909)" fill="#fff"/>
    <path id="Path_125" data-name="Path 125" d="M183.885,285.526h-.124l-27.319-4.4a.789.789,0,0,1-.542-.341.9.9,0,0,1-.093-.635c7.631-27.335,18.992-68.677,19.209-71a.774.774,0,0,1,.418-.743l40.383-21.283a.8.8,0,0,1,.867.093.82.82,0,0,1,.232.836l-32.3,96.956A.758.758,0,0,1,183.885,285.526Zm-26.313-5.8,25.818,4.164,31.483-94.5L176.487,209.6c-.851,4.442-7.213,27.985-18.945,70.117Z" transform="translate(46.52 82.643)" fill="#231f20"/>
    <path id="Path_126" data-name="Path 126" d="M156.694,245.534l-4.164,13.095,65.427,5.061A27.2,27.2,0,0,0,203.1,250.3c-6.795-2.384-14.116-5.232-14.116-5.232l-3.312,7.894Z" transform="translate(44.736 114.431)" fill="#231f20"/>
    <path id="Path_127" data-name="Path 127" d="M218.211,264.736h0l-65.427-5.061a.774.774,0,0,1-.681-1.006l4.164-13.095a.774.774,0,0,1,.929-.511l28.325,7.259,3.1-7.275a.758.758,0,0,1,.991-.418c.077,0,7.383,2.864,14.1,5.216a27.861,27.861,0,0,1,15.308,13.807.774.774,0,0,1,0,.758.743.743,0,0,1-.8.325ZM153.805,258.2,216.88,263.1A26.545,26.545,0,0,0,203.1,251.3c-5.526-1.935-11.454-4.195-13.451-4.953l-3.018,7.182a.789.789,0,0,1-.913.464l-28.264-7.213Z" transform="translate(44.482 114.159)" fill="#231f20"/>
    <path id="Path_128" data-name="Path 128" d="M136.666,201.88,132.022,275.8s-15.7.542-19.627,3.3-7.136,15.231-7.136,15.231h4.891s2.848-9.287,5.975-10.4,20.9-1.548,20.9-1.548,8.575,3.312,9.953,8.993c1.083,4.473.774,5.51.774,5.51h5.417a27.643,27.643,0,0,0-1.083-7.522c-1.083-3.1-5.154-6.8-5.154-6.8s8.962.186,11.949.186,6.1,5.7,6.1,5.7h5.835s-6.1-10.278-10.045-11.005-14.07-2.492-14.07-2.492l-2.755-68.879Z" transform="translate(18.84 90.77)" fill="#231f20"/>
    <path id="Path_129" data-name="Path 129" d="M153.476,297.928h-5.417a.836.836,0,0,1-.635-.31.8.8,0,0,1-.108-.7,16.391,16.391,0,0,0-.789-5.092c-1.161-4.845-8.265-7.956-9.287-8.389-5.03.108-18.063.573-20.493,1.548-2.012.743-4.442,6.47-5.495,9.891a.789.789,0,0,1-.743.557h-4.938a.789.789,0,0,1-.743-.975c.124-.511,3.312-12.785,7.43-15.664,3.637-2.538,16.19-3.266,19.348-3.405l4.551-73.244a.805.805,0,0,1,.4-.635.789.789,0,0,1,.743,0l7.337,4.226a.758.758,0,0,1,.387.635l2.74,68.26c2.26.387,10.123,1.749,13.466,2.384,4.148.774,9.922,10.278,10.556,11.361a.774.774,0,0,1,0,.774.789.789,0,0,1-.681.4h-5.835a.789.789,0,0,1-.681-.4c-1.114-2.043-3.591-5.294-5.417-5.294-2.105,0-7.213-.093-10.03-.139a17.878,17.878,0,0,1,3.962,5.711,27.567,27.567,0,0,1,1.13,7.739A.774.774,0,0,1,153.476,297.928Zm-4.643-1.548h3.823a24.891,24.891,0,0,0-1.022-6.5c-1.006-2.894-4.907-6.424-4.953-6.47a.789.789,0,0,1-.2-.851.836.836,0,0,1,.743-.5c.093,0,8.977.186,11.934.186s5.712,4.257,6.547,5.7H169.7c-2.074-3.266-6.191-8.993-8.792-9.473-3.885-.728-13.931-2.461-14.054-2.477a.774.774,0,0,1-.65-.743l-2.709-68.445-5.882-3.39-4.5,72.748a.774.774,0,0,1-.743.728c-4.3.155-16.144,1.006-19.209,3.1-2.786,1.95-5.479,9.891-6.578,13.822h3.312c.712-2.182,3.25-9.287,6.191-10.355s20.431-1.548,21.159-1.548h.294c.371.139,8.977,3.514,10.432,9.519a25.738,25.738,0,0,1,.9,4.953ZM132.3,276.057Z" transform="translate(18.591 90.518)" fill="#231f20"/>
    <path id="Path_130" data-name="Path 130" d="M192.541,171.42s61.821,3.3,65.721,12.1S233.5,289.179,233.5,289.179s30.26,10.463,25.307,12.661-54.484-2.2-54.484-2.2L227.8,209.868l-61.17-4.117Z" transform="translate(52.461 74.083)" fill="#fff"/>
    <path id="Path_131" data-name="Path 131" d="M251.284,303.51c-14.519,0-42.736-2.461-46.714-2.817a.766.766,0,0,1-.681-.975l23.218-88.8-60.242-4.055a.836.836,0,0,1-.65-.449.758.758,0,0,1,.093-.789l25.926-34.393a.666.666,0,0,1,.65-.31c.155,0,15.664.836,31.452,2.755,32.334,3.9,34.3,8.343,34.95,9.813,3.823,8.652-21.67,95.966-24.487,105.485,8.219,2.863,25.555,9.287,25.679,12.46a1.439,1.439,0,0,1-1.006,1.393A28.524,28.524,0,0,1,251.284,303.51Zm-45.677-4.288c14.364,1.269,49.376,3.885,53.2,2.182h0c-1.022-1.873-13.745-7.213-25.292-11.191a.774.774,0,0,1-.48-.96C240.96,262.4,260.9,191.137,257.8,184.125s-47.271-10.68-64.638-11.624L168.4,205.423l59.746,4.04a.789.789,0,0,1,.588.31.882.882,0,0,1,.124.65ZM258.946,301.327Z" transform="translate(52.195 73.807)" fill="#231f20"/>
    <path id="Path_132" data-name="Path 132" d="M169.82,151.519s31.762,39.625,45.336,38.526S267.612,140.1,267.612,140.1c7.027-8.389,14.89-19.038,9.86-30.6-.5-1.114-1.362-2.306-2.569-2.213a3.281,3.281,0,0,0-1.409.573l-4.334,2.662c.139-1.192-1.378-2.043-2.538-1.718a5.232,5.232,0,0,0-2.662,2.322c-4.5,6.408-7.414,12.507-7.166,20.4l-45.444,23.218-18.032-19.952" transform="translate(54.208 38.943)" fill="#fff"/>
    <path id="Path_133" data-name="Path 133" d="M214.874,191.125c-14.1,0-44.113-37.148-45.4-38.835a.774.774,0,0,1,1.207-.96c.31.387,30.833,38.263,44.144,38.263h.526c13.095-1.053,51.5-49.175,51.868-49.67,7.259-8.637,14.581-18.76,9.767-29.8-.186-.433-.836-1.811-1.8-1.749a2.554,2.554,0,0,0-1.068.464l-4.365,2.647a.774.774,0,0,1-1.176-.743.619.619,0,0,0-.279-.573,1.548,1.548,0,0,0-1.269-.31,4.644,4.644,0,0,0-2.244,2.028c-3.808,5.417-7.29,11.578-7.027,19.936a.774.774,0,0,1-.418.712L211.9,155.757a.774.774,0,0,1-.929-.17L192.956,135.6a.774.774,0,0,1,0-1.1.789.789,0,0,1,1.1,0l17.614,19.472,44.5-22.676c-.139-8.56,3.421-14.859,7.306-20.385a6.036,6.036,0,0,1,3.1-2.631,3.1,3.1,0,0,1,2.709.635,2.553,2.553,0,0,1,.526.635l3.467-2.121a3.947,3.947,0,0,1,1.765-.681c1.347-.108,2.538.882,3.312,2.678,5.6,12.847-4.52,24.92-9.968,31.406-1.548,1.981-39.191,49.113-52.951,50.227Z" transform="translate(53.949 38.652)" fill="#231f20"/>
    <path id="Path_134" data-name="Path 134" d="M106.771,133.95S90.41,171.02,96.478,174.983s43,0,43,0L136.272,127" transform="translate(13.29 49.748)" fill="#fff"/>
    <path id="Path_135" data-name="Path 135" d="M110.792,177.706c-6.609,0-12.383-.464-14.488-1.857-1.053-.681-4.272-2.771,2.585-22.846,3.3-9.674,7.4-18.992,7.445-19.085a.774.774,0,1,1,1.409.619c-6.191,14.1-14.581,37.427-10.587,40.012,4.644,3.1,30.957,1.053,41.792,0l-3.1-47.225a.776.776,0,1,1,1.548-.108l3.2,47.983a.774.774,0,0,1-.7.82C138.823,176.081,123.221,177.706,110.792,177.706Z" transform="translate(13.014 49.471)" fill="#231f20"/>
    <path id="Path_136" data-name="Path 136" d="M112.465,180.04s-8,17.769.526,28.975,126.923,12.553,126.923,12.553l8.5-42.55-49.531-6.749L196,157.55Z" transform="translate(20.922 66.485)" fill="#fff"/>
    <path id="Path_137" data-name="Path 137" d="M240.246,222.633h0c-.294,0-29.966-.356-60.366-2.074-40.94-2.322-63.57-5.959-67.253-10.835-8.7-11.423-.96-29.006-.619-29.749a.758.758,0,0,1,.511-.433l83.583-22.49a.728.728,0,0,1,.619.093.758.758,0,0,1,.341.5l2.771,14.194,48.927,6.656a.743.743,0,0,1,.526.325.728.728,0,0,1,.124.588L241,222A.774.774,0,0,1,240.246,222.633ZM113.323,180.981c-1.006,2.461-6.934,17.986.588,27.861,6.532,8.575,84.7,11.764,125.7,12.259l8.219-41.126-48.664-6.625a.774.774,0,0,1-.65-.619L195.807,158.8Z" transform="translate(20.621 66.194)" fill="#231f20"/>
    <path id="Path_138" data-name="Path 138" d="M145.448,96.514a10.649,10.649,0,0,1-3.1-2.817,16.33,16.33,0,0,1-2.477-5.495c-4.195-15.169-4.226-34.594,9.287-44.98a31.39,31.39,0,0,1,28.387-5.03c6.563,2.136,12.135,11.16,15.06,17.026,2.4,4.752,4.024,9.922,6.872,14.41s7.383,8.42,12.708,8.683a16.036,16.036,0,0,1-13.931.836,9.086,9.086,0,0,0,9.21,3.452c-3.1,2.461-7.522,2.368-11.423,1.548S188.307,82.089,184.3,82.6c-6.191.7-10.216,5.247-15.06,8.544C163.093,95.168,152.475,100.585,145.448,96.514Z" transform="translate(36.449 0.319)" fill="#fff"/>
    <path id="Path_139" data-name="Path 139" d="M151.538,99.062a12.12,12.12,0,0,1-6.191-1.548h0a11.1,11.1,0,0,1-3.359-3.1,17.242,17.242,0,0,1-2.6-5.82c-2.043-7.43-7.43-32.721,9.519-45.785a32.087,32.087,0,0,1,29.115-5.154C185.049,39.935,190.76,49.5,193.5,55c.929,1.857,1.765,3.792,2.554,5.665a61.2,61.2,0,0,0,4.272,8.7c1.548,2.4,5.758,8,12.089,8.312a.758.758,0,0,1,.712.588.743.743,0,0,1-.372.851,16.84,16.84,0,0,1-11.3,1.842,8.2,8.2,0,0,0,6.067,1.022.774.774,0,0,1,.666,1.362c-2.771,2.182-6.826,2.771-12.058,1.765-.929-.17-1.857-.387-2.786-.6a26.19,26.19,0,0,0-8.714-.991c-4.38.5-7.631,3.1-11.083,5.712-1.176.913-2.384,1.842-3.637,2.709C166.3,94.434,158.565,99.062,151.538,99.062Zm16.949-61.279A30.694,30.694,0,0,0,149.82,44.1c-16.175,12.491-10.959,36.947-8.962,44.16a15.649,15.649,0,0,0,2.368,5.294,9.643,9.643,0,0,0,2.894,2.616h0c7.461,4.334,19.456-3.1,22.954-5.464,1.207-.82,2.4-1.749,3.545-2.647,3.467-2.693,7.058-5.479,11.872-6.021a27.288,27.288,0,0,1,9.287,1.022c.913.2,1.826.418,2.74.588a17.258,17.258,0,0,0,7.832,0,9.937,9.937,0,0,1-6.393-3.87.774.774,0,0,1,0-.929.743.743,0,0,1,.9-.232,15.37,15.37,0,0,0,10.928.232,18.9,18.9,0,0,1-10.7-8.621,61.06,61.06,0,0,1-4.4-8.916c-.789-1.842-1.548-3.761-2.523-5.572-2.136-4.257-7.848-14.379-14.6-16.562a29.409,29.409,0,0,0-9.086-1.393Z" transform="translate(36.194)" fill="#231f20"/>
    <path id="Path_140" data-name="Path 140" d="M171.4,68.25s4.226,13.219,2.012,15.091-6.81-1.068-6.81-1.068" transform="translate(52.444 17.563)" fill="#fff"/>
    <path id="Path_141" data-name="Path 141" d="M171.807,85.021a11.531,11.531,0,0,1-5.309-1.826.774.774,0,1,1,.836-1.3c1.083.681,4.473,2.368,5.882,1.13,1.068-.913-.31-8.111-2.291-14.256a.789.789,0,0,1,.511-.975.774.774,0,0,1,.975.5c1.022,3.22,4.195,13.931,1.811,15.912a3.529,3.529,0,0,1-2.415.82Z" transform="translate(52.175 17.292)" fill="#231f20"/>
    <path id="Path_142" data-name="Path 142" d="M190.085,61.49c3.606,5.139,0,12.847-1.548,18.094q-3.2,11.083-6.919,21.995c-1.548,4.644-13.745,1.285-15.478-.712l-3.312,19.054-25.648-8.869,8.25-23.109s8.25,2.384,15.68-5.835,12.6-29.177,12.6-29.177S186.571,56.459,190.085,61.49Z" transform="translate(36.327 9.17)" fill="#fff"/>
    <path id="Path_143" data-name="Path 143" d="M163.088,120.95h-.248l-25.663-8.838a.743.743,0,0,1-.449-.387.9.9,0,0,1,0-.6l8.188-23.187a.758.758,0,0,1,.929-.48c.325.077,7.909,2.121,14.906-5.619S173.134,53.217,173.134,53a.743.743,0,0,1,.356-.48.774.774,0,0,1,.588,0c.542.155,13.188,3.668,16.825,8.854h0c3.219,4.644,1.145,10.835-.542,15.943-.325.991-.635,1.935-.9,2.817-2.136,7.352-4.458,14.766-6.934,22.026a4.272,4.272,0,0,1-3.56,2.585,21.128,21.128,0,0,1-12.089-2.26l-3.1,17.831a.727.727,0,0,1-.371.526.7.7,0,0,1-.325.108Zm-24.657-10.123,24.053,8.327,3.1-18.172a.774.774,0,0,1,1.347-.371c1.114,1.285,7.817,3.39,11.748,2.616,1.331-.263,2.136-.82,2.415-1.656,2.461-7.228,4.8-14.612,6.919-21.948.263-.9.588-1.857.913-2.879,1.548-4.721,3.529-10.6.743-14.565s-12.383-7.182-15.2-8.018c-1.037,3.947-5.835,21.252-12.584,28.712-6.485,7.166-13.513,6.625-15.757,6.191Z" transform="translate(36.051 8.914)" fill="#231f20"/>
    <path id="Path_144" data-name="Path 144" d="M169.651,82.486s-6.733,1.919-8.111-4.876" transform="translate(49.672 22.69)" fill="#fff"/>
    <path id="Path_145" data-name="Path 145" d="M167.893,83.787a7.244,7.244,0,0,1-3.792-.96,6.934,6.934,0,0,1-3.1-4.783.789.789,0,1,1,1.548-.31,5.448,5.448,0,0,0,2.322,3.761,6.919,6.919,0,0,0,4.814.526.8.8,0,0,1,.418,1.548A9.132,9.132,0,0,1,167.893,83.787Z" transform="translate(49.371 22.411)" fill="#231f20"/>
    <path id="Path_146" data-name="Path 146" d="M164.034,73.03a10.51,10.51,0,0,0-.635-5.665,15.6,15.6,0,0,0-1.734-4.117,5.139,5.139,0,0,0-3.653-2.337,4.644,4.644,0,0,0-3.545,1.548,8.606,8.606,0,0,0-1.95,3.405,16.484,16.484,0,0,0,3.359,16.082l-.294-.557" transform="translate(44.283 13.541)" fill="#fff"/>
    <path id="Path_147" data-name="Path 147" d="M156.154,82.994a.8.8,0,0,1-.573-.248,17.382,17.382,0,0,1-3.529-16.918,9.287,9.287,0,0,1,2.136-3.7,5.5,5.5,0,0,1,4.164-1.718,5.727,5.727,0,0,1,4.226,2.678,16.066,16.066,0,0,1,1.842,4.318,11.222,11.222,0,0,1,.65,6.083.789.789,0,0,1-.96.557.774.774,0,0,1-.542-.944,10.014,10.014,0,0,0-.635-5.232,14.069,14.069,0,0,0-1.641-3.9,4.256,4.256,0,0,0-3.1-2.012,3.9,3.9,0,0,0-2.941,1.254,7.847,7.847,0,0,0-1.78,3.1A15.8,15.8,0,0,0,156,80.889a.836.836,0,0,1,.511.4l.279.557a.758.758,0,0,1-.248.991.728.728,0,0,1-.387.155Z" transform="translate(44.007 13.267)" fill="#231f20"/>
    <ellipse id="Ellipse_19" data-name="Ellipse 19" cx="2.74" cy="1.083" rx="2.74" ry="1.083" transform="translate(221.617 81.868) rotate(-77.39)" fill="#231f20"/>
    <path id="Path_148" data-name="Path 148" d="M159.328,86.436a94.621,94.621,0,0,1-9.643-7.166s-1.548,13.4,7.631,16.484Z" transform="translate(43.124 23.6)" fill="#231f20"/>
    <path id="Path_149" data-name="Path 149" d="M157.592,96.788a.7.7,0,0,1-.248,0c-9.628-3.235-8.219-16.732-8.157-17.3a.789.789,0,0,1,.48-.635.8.8,0,0,1,.789.124,95.966,95.966,0,0,0,9.566,7.12.789.789,0,0,1,.34.8l-2.012,9.287a.789.789,0,0,1-.372.511.851.851,0,0,1-.387.093Zm-6.934-15.68c0,3.312.433,11.222,6.377,13.853l1.7-7.909a96.054,96.054,0,0,1-8.08-5.944Z" transform="translate(42.847 23.34)" fill="#231f20"/>
    <path id="Path_150" data-name="Path 150" d="M108.16,224.5s1.393-94.728,15.6-116.537,51.079-26.731,68.662-13.729S201.541,206.6,201.541,206.6,145.478,224.5,108.16,224.5Z" transform="translate(20.429 27.894)" fill="#3e43b9"/>
    <path id="Path_151" data-name="Path 151" d="M154.84,88.11a102.652,102.652,0,0,1,25.942,15.308c12.166,10.107,37.845,53.571,37.845,53.571L184.759,177.5l-30.4-37.489Z" transform="translate(45.739 28.443)" fill="#3e43b9"/>
    <path id="Path_152" data-name="Path 152" d="M143.691,91.92s-17.723,2-27.1,21.453c-5.077,10.556-18.079,44.64-18.079,44.64l39.1,4.5Z" transform="translate(15.142 30.53)" fill="#3e43b9"/>
    <path id="Path_153" data-name="Path 153" d="M183.322,159.435a.758.758,0,0,1-.619-.325l-30.2-41.126a.774.774,0,0,1,.155-1.083.789.789,0,0,1,1.083.17l30.2,41.126a.774.774,0,0,1-.619,1.238Z" transform="translate(44.638 44.137)" fill="#231f20"/>
    <path id="Path_154" data-name="Path 154" d="M230.6,122.6l7.553-23.45,2.353.681-4.752,23.125S232.411,126.175,230.6,122.6Z" transform="translate(87.506 34.491)" fill="#231f20"/>
    <path id="Path_155" data-name="Path 155" d="M233.189,125.333h-.526a3.467,3.467,0,0,1-2.492-2.074.774.774,0,0,1,0-.588l7.507-23.481a.8.8,0,0,1,.96-.511l2.353.681a.774.774,0,0,1,.542.9l-4.752,23.218a.743.743,0,0,1-.217.387A5.464,5.464,0,0,1,233.189,125.333Zm-1.548-2.554a1.842,1.842,0,0,0,1.223.991,3.405,3.405,0,0,0,2.384-.944l4.566-22.18-.944-.263Z" transform="translate(87.239 34.219)" fill="#231f20"/>
    <path id="Path_156" data-name="Path 156" d="M156.655,80.473c-13.931-3.1-29.409-.929-40.662,7.739a28.774,28.774,0,0,0-10.262,13.931,18.233,18.233,0,0,0,2.879,16.686c10.68,12.832,34.13,12.77,48.633,8.575,9.891-2.848,39.176-16.748,31.112-30.4C182.551,87.237,167.1,82.717,156.655,80.473Z" transform="translate(18.616 23.527)" fill="#3e43b9"/>
    <path id="Path_157" data-name="Path 157" d="M136.266,122.165a54.871,54.871,0,0,1-26.2-7.538.758.758,0,0,1-.248-1.068.774.774,0,0,1,1.068-.232c.186.124,19.332,12.027,37.458,5.154,8.7-3.3,13.931-9.148,18.93-14.8,5.526-6.191,10.742-12.042,19.75-12.863a.774.774,0,0,1,.836.712.758.758,0,0,1-.7.836c-8.389.758-13.188,6.191-18.729,12.383-4.922,5.526-10.494,11.779-19.549,15.215A35.6,35.6,0,0,1,136.266,122.165Z" transform="translate(21.267 29.926)" fill="#231f20"/>
    <path id="Path_158" data-name="Path 158" d="M109.323,175.8h0a.774.774,0,0,1-.743-.8c1.13-24.5,6.191-59.762,6.191-60.118a.789.789,0,0,1,.882-.65.774.774,0,0,1,.65.867c0,.356-5.123,35.6-6.191,59.963a.774.774,0,0,1-.789.743Z" transform="translate(20.659 42.744)" fill="#231f20"/>
    <path id="Path_159" data-name="Path 159" d="M186.572,256.4h32.892s3.576-7.971,11.284-9.07c0,0,30,12.677,25.586,15.277s-72.083,2.322-72.083,2.322Z" transform="translate(62.114 115.669)" fill="#231f20"/>
    <path id="Path_160" data-name="Path 160" d="M191.431,266h-6.919a.758.758,0,0,1-.6-.294.774.774,0,0,1-.139-.681l2.322-8.529a.774.774,0,0,1,.758-.573h32.412c.913-1.78,4.644-8.064,11.655-9.07a.713.713,0,0,1,.4,0c6.191,2.6,26.313,11.392,26.514,15.231a1.548,1.548,0,0,1-.82,1.424C253.252,265.765,209.371,266,191.431,266Zm-5.9-1.548c27.134.077,67.625-.418,70.69-2.229,0-1.919-13.11-8.652-25.307-13.822-7.027,1.145-10.432,8.529-10.463,8.606a.774.774,0,0,1-.712.449h-32.3Z" transform="translate(61.836 115.391)" fill="#231f20"/>
    <path id="Path_161" data-name="Path 161" d="M222,248.04c20.942-4.411,34.981-14.209,26.747-27.428s-67.377-4.643-78.94-14.441-7.43-61.759-20.122-70.659-67.1-17.893-73.182-6.656,0,93.009,17.723,111.166S201.565,252.25,222,248.04Z" transform="translate(1.83 47.891)" fill="#f0f4f9"/>
    <path id="Path_162" data-name="Path 162" d="M160.865,253.528h-3.5c-23.527-.2-53.633-2.569-63.461-12.6C76.384,222.85,69.543,141.047,76.121,128.834c1.13-2.09,3.715-3.622,7.739-4.644,16.825-3.993,55.722,3.281,66.557,10.835,6.826,4.783,8.946,21.082,11.005,36.839,1.873,14.395,3.808,29.27,9.21,33.867,5.139,4.365,20.927,5,36.2,5.619,18.806.758,38.263,1.548,42.921,9.008,2.693,4.334,3.22,8.513,1.548,12.383-3.1,7.151-13.28,12.894-28.805,16.159h0C211.835,251.253,185.77,253.528,160.865,253.528ZM95.624,124.7A52.023,52.023,0,0,0,84.17,125.77c-3.529.836-5.789,2.121-6.687,3.808-6.006,11.1.542,92.731,17.6,110.252,17.351,17.816,106.507,12,127.046,7.739h0c14.813-3.1,24.9-8.668,27.706-15.262,1.455-3.405.975-7.1-1.439-10.99-4.226-6.78-23.218-7.538-41.668-8.281-16.252-.65-31.607-1.269-37.148-5.99-5.851-4.984-7.739-19.487-9.736-34.842s-4.086-31.39-10.37-35.77C141.114,130.537,114.182,124.7,95.624,124.7ZM222.3,248.343Z" transform="translate(1.529 47.589)" fill="#231f20"/>
    <path id="Path_163" data-name="Path 163" d="M212.737,180.012h-.124l-49.9-8.73a.785.785,0,1,1,.263-1.548l49.9,8.73a.777.777,0,0,1-.139,1.548Z" transform="translate(49.956 73.153)" fill="#d1d3d4"/>
    <path id="Path_164" data-name="Path 164" d="M292.061,265.458l-1.548-.17c0-.449,4.876-45.259-10.634-65.164l1.223-.944c6.687,8.575,10.572,22.351,11.516,40.94a174.472,174.472,0,0,1-.557,25.338Z" transform="translate(114.503 89.291)" fill="#231f20"/>
    <path id="Path_165" data-name="Path 165" d="M287.247,260.608a5.309,5.309,0,0,1,.155-1.548c3.7-23.45-2.569-34.377-8.482-39.423l1.006-1.176c6.191,5.294,12.816,16.686,9.008,40.847-.093.588-.155.975-.155,1.13Z" transform="translate(113.977 99.853)" fill="#231f20"/>
    <path id="Path_166" data-name="Path 166" d="M286.908,213.251a8.854,8.854,0,0,0-4.117-1.207,9.488,9.488,0,0,0-7.29,2c-.511.5-.96,1.331-.5,1.873a1.842,1.842,0,0,0,.991.464,6.191,6.191,0,0,1,4.257,4.257c-1.068-.789-1.981-1.8-3.1-2.585a5.216,5.216,0,0,0-3.7-1.207,6.191,6.191,0,0,0-3.606,2.415,14.332,14.332,0,0,0-2.461,3.606,6.64,6.64,0,0,0-.557,4.287,10.324,10.324,0,0,1,4.349-.294A5.139,5.139,0,0,1,274,228.018a1.409,1.409,0,0,1,.5.743,1.238,1.238,0,0,1-.975,1.316,3.932,3.932,0,0,1-1.8,0,31.555,31.555,0,0,0-3.823-.542,3.761,3.761,0,0,0-1.439.093,3.1,3.1,0,0,0-1.548,3.189,1.888,1.888,0,0,0,.542,1.409c.635.5,1.548.139,2.291-.17a11.238,11.238,0,0,1,4.086-.867.944.944,0,0,1,.464.077.681.681,0,0,1,.124,1.006,1.842,1.842,0,0,1-.991.573,21.515,21.515,0,0,1-3.25.758c-.635.093-1.378.232-1.687.8a1.749,1.749,0,0,0-.17.8,9.906,9.906,0,0,0,1.734,5.9,2.832,2.832,0,0,0,.743.8,3.2,3.2,0,0,0,1.378.371,22.567,22.567,0,0,0,10.835-1.548.96.96,0,0,0,.449-.325c.2-.356-.139-.774-.4-1.083-1.145-1.409-.882-3.436-.557-5.216a1.548,1.548,0,0,1,.4-.929,1.037,1.037,0,0,1,1.393.217,2.615,2.615,0,0,1,.511,1.455,13.575,13.575,0,0,1-.433,5.464,27.675,27.675,0,0,0,5.185-1.765,16.021,16.021,0,0,0,3.777-2.09,6.192,6.192,0,0,0,2.306-3.56,1.145,1.145,0,0,0-.077-.789,1.285,1.285,0,0,0-.464-.4,9.783,9.783,0,0,1-3.653-4.3c-.155-.371-.232-.882.108-1.068a.743.743,0,0,1,.449,0c1.95.325,2.941,2.507,4.551,3.668a.82.82,0,0,0,.449.186.712.712,0,0,0,.526-.232,4.164,4.164,0,0,0,1.254-2.26,8.157,8.157,0,0,0-.279-5.154,5.835,5.835,0,0,0-3.777-3.39,6.671,6.671,0,0,0-2.415-.108c-.279,0-1.765.526-1.966.341s.588-1.3.774-1.672C290.128,217.43,288.781,214.49,286.908,213.251Z" transform="translate(106.283 96.286)" fill="#231f20"/>
    <path id="Path_167" data-name="Path 167" d="M296.819,206.39a7.461,7.461,0,0,0-6.191,3.2,8.544,8.544,0,0,0-1.084,5.356,24.766,24.766,0,0,0,1.331,5.371,7.569,7.569,0,0,1,5.913-3.854c2.523-.217-.418,2.213-.851,2.724-1.424,1.672-2.786,3.39-4.133,5.123a2.43,2.43,0,0,0-.232,3.3,15.82,15.82,0,0,0,4.644,5.928,1.919,1.919,0,0,0,2.012.325,2.244,2.244,0,0,0,.681-.991,17.647,17.647,0,0,1,2.864-4.272c.279-.325.728-.65,1.083-.418s.294.588.263.929l-.325,3.452a8.187,8.187,0,0,0,.217,3.73c.82,2.2,3.3,3.3,5.6,3.73a3.668,3.668,0,0,0,1.919,0c1.238-.433,1.749-1.9,1.966-3.2a9.518,9.518,0,0,1,2.028-4.643,17.319,17.319,0,0,0,2.12,6.393,8.653,8.653,0,0,0,2.275,2.74,8.173,8.173,0,0,0,3.359,1.393,25.229,25.229,0,0,0,6.191.341,15.478,15.478,0,0,0,4.241-.542,5.743,5.743,0,0,0,3.343-2.523c1.223-2.2.279-5.03-1.3-6.981s-3.715-3.405-5.356-5.309a14.983,14.983,0,0,1,5.588,2.91,2.074,2.074,0,0,0,1.548.712,1.378,1.378,0,0,0,.712-.4c2.446-2.446-.371-6.578-1.672-8.776a7.136,7.136,0,0,0-3.467-3.56,5.665,5.665,0,0,0-2.786,0c-1.393.232-8.3,3.374-5.356-.758a8.111,8.111,0,0,1,6.408-2.8c1.192.108,3,1.068,2.972-1.161a4.18,4.18,0,0,0-.9-2.182,47.881,47.881,0,0,0-3.1-4.133,2.027,2.027,0,0,0-1.161-.82,1.981,1.981,0,0,0-1.161.325,26.406,26.406,0,0,1-9.194,3.436c-.743,0-1.78-.232-1.656-.96a1.084,1.084,0,0,1,.48-.635c1.966-1.548,4.907-.882,6.919-2.306a2.415,2.415,0,0,0,1.1-1.734,3.458,3.458,0,0,0-1.687-2.492,14.674,14.674,0,0,0-7.383-3.421c-4.071-.325-7.739,2.353-10.479,5.4-.913,1.037-1.548,3.73-2.956,3.56a23.524,23.524,0,0,1-2.6-1.1,8.868,8.868,0,0,0-2.755-.4Z" transform="translate(119.76 89.139)" fill="#231f20"/>
    <path id="Path_168" data-name="Path 168" d="M294.625,191.981a6.749,6.749,0,0,0-2.028-4.117c-2.074-1.888-5.185-1.981-7.956-1.548a40.694,40.694,0,0,0-6.1,1.811c-2,.573-2.585,1.022-.8,2.647,1.254,1.13,4.643,5.17,3.1,7.1s-4.148-3-5.154-3.823a7.368,7.368,0,0,0-4.891-2.09,7.631,7.631,0,0,0-4.21,2.229,44.4,44.4,0,0,0-3.436,3.39,1.718,1.718,0,0,0-.4.6c-.248.9.975,1.424,1.888,1.548,2.616.48,5.541,1.842,6.068,4.442-2.693.666-5.232-2.059-7.987-1.765a6.269,6.269,0,0,0-4.411,3.916,9.938,9.938,0,0,0-.666,5.526,14.766,14.766,0,0,1,7.244-.619,1.254,1.254,0,0,1,.8.356.9.9,0,0,1-.356,1.207,2.384,2.384,0,0,1-1.362.232h-4.489a1.95,1.95,0,0,0-1.254.294,1.764,1.764,0,0,0-.5,1.161,24.267,24.267,0,0,0-.077,6.191,5.262,5.262,0,0,0,1.408,3.436,5.4,5.4,0,0,0,2.384,1.022,31.484,31.484,0,0,0,6.919.867,5.449,5.449,0,0,1-.7-5c.929-2.167,2.508-.913,2.585,1.053,0,.929-.17,1.842-.2,2.771a.976.976,0,0,0,.093.511.929.929,0,0,0,.356.279,5.681,5.681,0,0,0,4.024.526,2.586,2.586,0,0,0,1.068-.48,3.359,3.359,0,0,0,.65-3.1l-.635-5.588a.867.867,0,0,1,.155-.758c.279-.279.774,0,1.068.217a5.015,5.015,0,0,1,1.672,4.071c0,.882-.371,1.734-.433,2.6a2.523,2.523,0,0,0,.929,2.337,3.1,3.1,0,0,0,2.384.124,4.644,4.644,0,0,0,2.709-1.409,4.179,4.179,0,0,0,.511-3.281,20.748,20.748,0,0,1-.65-3.359c0-2.291,2.353-5.572,2.74-1.548a28.054,28.054,0,0,1-.232,3.931,1.145,1.145,0,0,0,0,.511,1.053,1.053,0,0,0,.882.418,9.782,9.782,0,0,0,5.278-1.022,8.234,8.234,0,0,0,2.879-2.322,13.6,13.6,0,0,0,1.44-2.585c1.873-3.978,4.86-7.089,1.378-11.346-1.192-1.455-3.405-1.842-4.52-3.328-1.316-1.765.712-4.566.789-6.78a9.469,9.469,0,0,0,.046-1.47Z" transform="translate(102.235 82.126)" fill="#231f20"/>
    <path id="Path_169" data-name="Path 169" d="M274.27,239h39.47l-3.1,29.626a8.823,8.823,0,0,1-8.792,7.925H286.08a8.823,8.823,0,0,1-8.776-7.924Z" transform="translate(111.43 111.106)" fill="#fff"/>
    <path id="Path_170" data-name="Path 170" d="M302.222,277.645H286.387a9.612,9.612,0,0,1-9.581-8.652l-3.1-29.626a.836.836,0,0,1,.2-.6.805.805,0,0,1,.6-.263h39.47a.759.759,0,0,1,.588.263.727.727,0,0,1,.2.6l-3.1,29.626A9.6,9.6,0,0,1,302.222,277.645Zm-26.762-37.55,2.941,28.743a8.018,8.018,0,0,0,7.987,7.213h15.834a8.018,8.018,0,0,0,7.987-7.213l2.956-28.743Z" transform="translate(111.122 110.832)" fill="#231f20"/>
    <path id="Path_171" data-name="Path 171" d="M290.664,257.571c0-.279-3.1-28.635,10.835-51.481l1.331.8c-13.636,22.382-10.6,50.212-10.572,50.49Z" transform="translate(120.25 93.076)" fill="#231f20"/>
    <path id="Path_172" data-name="Path 172" d="M267.667,210.016a.79.79,0,0,1-.526-.217.774.774,0,0,1,0-1.1c8.08-8.513,20.8-13.7,21.345-13.931a.775.775,0,1,1,.573,1.439c-.124,0-12.955,5.263-20.8,13.544A.774.774,0,0,1,267.667,210.016Z" transform="translate(107.399 86.845)" fill="#fff"/>
    <path id="Path_173" data-name="Path 173" d="M271.192,235.874a.774.774,0,0,1-.681-1.13,64.375,64.375,0,0,1,11.052-15.014.758.758,0,0,1,1.083,0,.774.774,0,0,1,0,1.083A63.23,63.23,0,0,0,271.9,235.441.789.789,0,0,1,271.192,235.874Z" transform="translate(109.323 100.425)" fill="#fff"/>
    <path id="Path_174" data-name="Path 174" d="M320.808,231.336a.8.8,0,0,1-.65-.341c-.371-.573-9.287-13.931-19.859-21.825a.774.774,0,0,1-.155-1.083.789.789,0,0,1,1.084-.155c10.556,7.971,19.255,20.772,20.215,22.2a.774.774,0,0,1-.217,1.068A.712.712,0,0,1,320.808,231.336Z" transform="translate(125.52 94.004)" fill="#fff"/>
    <rect id="Rectangle_28" data-name="Rectangle 28" width="93.969" height="65.969" transform="translate(348.258 56.481)" fill="#fff"/>
    <path id="Path_175" data-name="Path 175" d="M344.308,116.317H250.354a.774.774,0,0,1-.774-.774V49.574a.774.774,0,0,1,.774-.774h93.954a.774.774,0,0,1,.774.774v65.969A.774.774,0,0,1,344.308,116.317Zm-93.18-1.548h92.406V50.348H251.128Z" transform="translate(97.904 6.907)" fill="#d1d3d4"/>
    <path id="Path_176" data-name="Path 176" d="M293.622,142a.789.789,0,0,1-.774-.65l-3.808-24.7-6.656,2.941a.774.774,0,0,1-1.022-.4.758.758,0,0,1,.4-1.006l7.6-3.281a.758.758,0,0,1,.681,0,.79.79,0,0,1,.4.557l3.962,25.617a.758.758,0,0,1-.65.882Z" transform="translate(115.28 43.074)" fill="#231f20"/>
    <path id="Path_177" data-name="Path 177" d="M304.971,164.274H285.593L284.54,122.56h21.484Z" transform="translate(117.056 47.316)" fill="#fff"/>
    <path id="Path_178" data-name="Path 178" d="M305.267,165.307H285.888a.774.774,0,0,1-.774-.743L284,122.865a.789.789,0,0,1,.217-.557.8.8,0,0,1,.557-.248h21.484a.82.82,0,0,1,.774.8l-1.053,41.792A.774.774,0,0,1,305.267,165.307Zm-18.574-1.548h17.862l1.006-40.166H285.625Z" transform="translate(116.76 47.042)" fill="#231f20"/>
    <rect id="Rectangle_29" data-name="Rectangle 29" width="25.415" height="4.226" transform="translate(399.63 165.65)" fill="#fff"/>
    <path id="Path_179" data-name="Path 179" d="M308.959,125.1H283.544a.774.774,0,0,1-.774-.774V120.1a.774.774,0,0,1,.774-.774h25.415a.774.774,0,0,1,.774.774v4.226A.774.774,0,0,1,308.959,125.1Zm-24.642-1.548h23.868v-2.678H284.318Z" transform="translate(116.086 45.546)" fill="#231f20"/>
    <path id="Path_180" data-name="Path 180" d="M295.316,146.972a9.287,9.287,0,1,1,8.5-9.287A8.916,8.916,0,0,1,295.316,146.972Zm0-16.949a7.739,7.739,0,1,0,6.95,7.739A7.368,7.368,0,0,0,295.316,130.023Z" transform="translate(117.44 50.532)" fill="#d1d3d4"/>
    <path id="Path_181" data-name="Path 181" d="M274.6,99.046a17.29,17.29,0,0,1-5.572-.96,37.613,37.613,0,0,1-6.764-2.879h0c-.526-.294-1.037-.635-1.548-.975a11.268,11.268,0,0,1-4.969-7.445,4.953,4.953,0,0,1,.526-3.25,7.445,7.445,0,0,1,3.405-2.585,8.837,8.837,0,0,0,2.477-1.548c1.548-1.656.944-4.071.325-6.625-.17-.65-.325-1.285-.449-1.9a13.389,13.389,0,0,1,2.941-11.268,13.637,13.637,0,0,1,11.5-4.473c6.006.681,10.742,3.576,13,7.925a13.435,13.435,0,0,1-.635,12.909,7.414,7.414,0,0,0-1.362,4.024,6.935,6.935,0,0,0,1.935,3.343,8.76,8.76,0,0,1,2.26,4.04c.371,2.538-1.3,4.969-5.108,7.43A21.933,21.933,0,0,1,274.6,99.046Zm-11.562-5.2a35.711,35.711,0,0,0,6.485,2.771c6.532,2.229,11.655-.2,16.221-3.1,3.25-2.121,4.643-4.04,4.411-5.913a7.46,7.46,0,0,0-1.919-3.281,8.327,8.327,0,0,1-2.275-4.164,8.343,8.343,0,0,1,1.47-4.829,12,12,0,0,0,.681-11.562c-2.012-3.885-6.315-6.47-11.794-7.1a12.027,12.027,0,0,0-10.169,3.962,11.856,11.856,0,0,0-2.585,9.953c.124.588.279,1.207.433,1.826.666,2.709,1.424,5.789-.7,8.049a9.983,9.983,0,0,1-2.925,1.919,6.192,6.192,0,0,0-2.755,2,3.467,3.467,0,0,0-.325,2.26,9.86,9.86,0,0,0,4.349,6.377,16.57,16.57,0,0,0,1.393.913Z" transform="translate(101.24 10.341)" fill="#d1d3d4"/>
    <path id="Path_182" data-name="Path 182" d="M310.581,92.727a31.08,31.08,0,0,1-11.562-2.4l-.774-.31a9.937,9.937,0,0,0-10.51.4,18.744,18.744,0,0,1-5.387,1.811,12.661,12.661,0,0,1-11.067-4.8h0a17.475,17.475,0,0,1-4.241-8.931,9.488,9.488,0,0,1,5.185-9.984c3.591-1.548,7.414-.48,11.129.573a22.026,22.026,0,0,0,8.312,1.269,19.781,19.781,0,0,0,6.191-2.136,35.127,35.127,0,0,1,3.9-1.656c6.191-2.059,18.156,0,22.861,5.17a10.618,10.618,0,0,1,2.554,10.169,14.89,14.89,0,0,1-9.767,9.875A21.964,21.964,0,0,1,310.581,92.727Zm-17.135-5.572h.371a15.029,15.029,0,0,1,5.03,1.409l.743.31a25.462,25.462,0,0,0,17.227,1.347,13.342,13.342,0,0,0,8.761-8.776,9.163,9.163,0,0,0-2.213-8.745c-4.241-4.644-15.556-6.64-21.221-4.736a32.847,32.847,0,0,0-3.73,1.548,21.252,21.252,0,0,1-6.609,2.337,23.527,23.527,0,0,1-8.916-1.331c-3.591-1.022-7-2-10.076-.635a8,8,0,0,0-4.226,8.374,16.02,16.02,0,0,0,3.931,8.157c1.641,1.842,5.077,4.876,9.72,4.287a17.613,17.613,0,0,0,4.922-1.687A15.37,15.37,0,0,1,293.447,87.155Z" transform="translate(107.406 16.21)" fill="#d1d3d4"/>
    <path id="Path_183" data-name="Path 183" d="M300.581,84.737a6.7,6.7,0,0,1-5.495-2.306,10.293,10.293,0,0,0-2.569-1.873,10.587,10.587,0,0,0-3.606-.975,7.971,7.971,0,0,1-5.835-2.786,9.179,9.179,0,0,1-1.718-7.461,12.383,12.383,0,0,1,5.727-8.234c8.157-4.8,23.295.2,28.233,7.29,1.749,2.507,3.746,7.476-2.477,12.507a19.689,19.689,0,0,1-11.284,3.87h0Zm-5.572-24.053a14.1,14.1,0,0,0-7.135,1.672,10.835,10.835,0,0,0-4.984,7.182,7.507,7.507,0,0,0,1.408,6.191,6.5,6.5,0,0,0,4.829,2.229,10.432,10.432,0,0,1,7.027,3.343,5.526,5.526,0,0,0,5.309,1.842h0a18.759,18.759,0,0,0,10.4-3.514c3.947-3.2,4.644-6.81,2.182-10.417-3.312-4.767-11.825-8.529-19.038-8.529Z" transform="translate(115.208 12.608)" fill="#d1d3d4"/>
    <path id="Path_184" data-name="Path 184" d="M143.954,75.347s5-4.055,0-9.287H135.89s1.734,6.764,0,9.287Z" transform="translate(35.62 16.363)" fill="#231f20"/>
    <path id="Path_185" data-name="Path 185" d="M144.251,76.389h-8.064a.8.8,0,0,1-.7-.418.789.789,0,0,1,0-.8c1.254-1.811.341-6.841-.124-8.621a.882.882,0,0,1,.139-.681.789.789,0,0,1,.619-.294h8.064a.851.851,0,0,1,.557.232,7.492,7.492,0,0,1,2.446,5.619,7.352,7.352,0,0,1-2.507,4.8A.789.789,0,0,1,144.251,76.389Zm-6.857-1.548h6.547a5.665,5.665,0,0,0,1.7-3.529,5.773,5.773,0,0,0-1.78-4.195h-6.749a17.955,17.955,0,0,1,.279,7.724Z" transform="translate(35.324 16.095)" fill="#231f20"/>
    <path id="Path_186" data-name="Path 186" d="M151.2,74.7a5.789,5.789,0,0,0-1.749-4.938,12.244,12.244,0,0,0-2.028-2.074,12.909,12.909,0,0,0-4.783-1.888c-3.761-.913-8.157.248-12,.325a30.523,30.523,0,0,1-12.042-2.229,8.111,8.111,0,0,1-3.421-2.244c-.96,5.619-.836,11.81,2.4,16.531a21.5,21.5,0,0,0,10.835,7.476A17.444,17.444,0,0,0,145.8,83.134a15,15,0,0,0,4.922-6.485A10.108,10.108,0,0,0,151.2,74.7Z" transform="translate(23.991 13.947)" fill="#fff"/>
    <path id="Path_187" data-name="Path 187" d="M135.408,87.907a21,21,0,0,1-7.027-1.285,22.2,22.2,0,0,1-11.191-7.739c-2.894-4.226-3.73-9.968-2.508-17.026a.789.789,0,0,1,.573-.619.758.758,0,0,1,.789.279,7.569,7.569,0,0,0,3.1,2.012,30.415,30.415,0,0,0,11.81,2,36.828,36.828,0,0,0,3.978-.325,24.007,24.007,0,0,1,8.219,0,13.636,13.636,0,0,1,5.077,2.012,15.154,15.154,0,0,1,2.152,2.2,6.517,6.517,0,0,1,1.9,5.557h0a10.309,10.309,0,0,1-.573,2.105,15.927,15.927,0,0,1-5.17,6.826,17.8,17.8,0,0,1-11.129,4.009Zm-19.425-24.44c-.8,6.037,0,10.835,2.492,14.5a20.586,20.586,0,0,0,10.432,7.2,16.779,16.779,0,0,0,16.655-2.4,14.349,14.349,0,0,0,4.644-6.191,9.534,9.534,0,0,0,.511-1.8,5.108,5.108,0,0,0-1.548-4.334,12.617,12.617,0,0,0-1.919-1.826,12.383,12.383,0,0,0-4.5-1.749,22.83,22.83,0,0,0-7.739,0c-1.362.139-2.786.294-4.117.325a32.04,32.04,0,0,1-12.383-2.275,12.212,12.212,0,0,1-2.523-1.455ZM151.49,74.936Z" transform="translate(23.704 13.709)" fill="#231f20"/>
    <rect id="Rectangle_30" data-name="Rectangle 30" width="65.721" height="43.401" transform="translate(270.742 48.293)" fill="#fff"/>
    <path id="Path_188" data-name="Path 188" d="M266,88.48H200.274a.774.774,0,0,1-.774-.774V44.274a.774.774,0,0,1,.774-.774H266a.789.789,0,0,1,.774.774V87.706a.789.789,0,0,1-.774.774Zm-65.009-1.548h64.3V45.063H201.048Z" transform="translate(70.468 4.004)" fill="#d1d3d4"/>
    <rect id="Rectangle_31" data-name="Rectangle 31" width="65.721" height="8.59" transform="translate(270.742 91.71)" fill="#fff"/>
    <path id="Path_189" data-name="Path 189" d="M266,81.7H200.274a.774.774,0,0,1-.774-.774v-8.59a.774.774,0,0,1,.774-.774H266a.774.774,0,0,1,.774.774v8.59A.774.774,0,0,1,266,81.7ZM200.986,80.15h64.3V73.108H201.048Z" transform="translate(70.468 19.376)" fill="#d1d3d4"/>
    <path id="Path_190" data-name="Path 190" d="M205.139,73.6a.758.758,0,0,1-.6-1.254c.743-.929,18.574-22.8,35.2-21.484,6.625.526,11.144,3.993,12.1,9.287a10.464,10.464,0,0,1-5.743,11.392c-4.643,2.152-8.946,2.121-11.949-.093a8.993,8.993,0,0,1-3.189-8.885A6.764,6.764,0,0,1,235.8,56.37a8.1,8.1,0,0,1,7.925,2.244,3.374,3.374,0,0,1,.511,3.792c-1.176,2.275-2.569,3.467-4.148,3.529-2.523,0-4.38-2.863-4.458-2.987a.774.774,0,0,1,.263-1.068.758.758,0,0,1,1.053.263c.4.635,1.687,2.322,3.1,2.244s2.2-1.548,2.817-2.693a1.826,1.826,0,0,0-.341-2.105,6.516,6.516,0,0,0-6.3-1.734,5.294,5.294,0,0,0-3.73,4.907,7.507,7.507,0,0,0,2.569,7.414c2.523,1.873,6.315,1.857,10.386,0a8.885,8.885,0,0,0,4.8-9.782c-.82-4.535-4.814-7.522-10.7-7.987-15.741-1.3-33.634,20.679-33.8,20.911A.789.789,0,0,1,205.139,73.6Z" transform="translate(73.126 8.005)" fill="#d1d3d4"/>
    <path id="Path_191" data-name="Path 191" d="M230.677,105.8H205.354a.774.774,0,0,1-.774-.774V84.9a.774.774,0,0,1,.774-.774h25.323a.774.774,0,0,1,.774.774v20.122A.774.774,0,0,1,230.677,105.8Zm-24.549-1.548H229.9V85.678H206.128Z" transform="translate(73.251 26.262)" fill="#d1d3d4"/>
    <path id="Path_192" data-name="Path 192" d="M213.534,89.252a.774.774,0,0,1-.774-.774V83.664a.774.774,0,0,1,1.548,0v4.783a.774.774,0,0,1-.774.8Z" transform="translate(77.733 25.583)" fill="#d1d3d4"/>
  </g>
</svg>
