<svg xmlns="http://www.w3.org/2000/svg" width="269.844" height="77.088" viewBox="0 0 269.844 77.088">
  <g id="Group_12" data-name="Group 12" transform="translate(-70.112 -1291.16)">
    <path id="approach" d="M20.864-43.52a4.011,4.011,0,0,0-4.224,2.88L2.112,0h9.536l2.88-8.9H31.36L34.24,0h9.408L28.032-43.52Zm1.984,8.768,6.016,18.5H16.9ZM54.592,9.024q0,4.224-4.224,4.224H46.08V-19.136c.448-10.112,5.7-15.1,15.872-15.1Q77.7-34.24,77.7-17.152C77.7-5.632,73.216.32,64.192.64a10.564,10.564,0,0,1-9.6-5.248Zm7.232-16c4.608,0,6.976-3.264,7.168-9.792,0-6.848-2.432-10.24-7.3-10.24s-7.168,3.392-7.1,10.24C54.848-10.24,57.216-6.976,61.824-6.976Zm28.352,16q0,4.224-4.224,4.224H81.664V-19.136c.448-10.112,5.7-15.1,15.872-15.1q15.744,0,15.744,17.088C113.28-5.632,108.8.32,99.776.64a10.564,10.564,0,0,1-9.6-5.248Zm7.232-16c4.608,0,6.976-3.264,7.168-9.792,0-6.848-2.432-10.24-7.3-10.24s-7.168,3.392-7.1,10.24C90.432-10.24,92.8-6.976,97.408-6.976ZM117.248,0h8.64V-17.6c0-4.928,2.368-7.424,7.1-7.424h2.88v-8.832h-1.216c-11.328,0-17.152,5.44-17.408,16.384Zm37.7-34.368c-10.24,0-15.36,5.824-15.36,17.6,0,11.648,5.12,17.536,15.36,17.536s15.424-5.888,15.424-17.536C170.368-28.544,165.184-34.368,154.944-34.368Zm0,7.488c4.352,0,6.528,3.264,6.528,9.856-.064,6.72-2.24,10.176-6.592,10.176s-6.592-3.328-6.656-9.92C148.224-23.488,150.464-26.88,154.944-26.88ZM186.368-6.272c-2.688,0-4.1-1.28-4.288-3.968,0-2.5,1.728-4.1,5.12-4.736a36.864,36.864,0,0,0,6.784-2.048v3.136C193.984-9.088,191.1-6.272,186.368-6.272Zm1.984-21.12c3.52,0,5.312.96,5.5,2.88,0,1.856-1.856,2.944-5.5,3.392-8.576.832-14.464,3.008-14.656,11.136C173.7-2.5,179.328,1.28,187.456.64,196.608,0,202.24-4.16,202.24-13.5v-11.52c-.192-6.272-4.928-9.344-14.272-9.344-7.808,0-12.224,3.072-13.248,9.344h8.512C183.68-26.624,185.344-27.392,188.352-27.392Zm47.872,17.024h-6.4a3.922,3.922,0,0,0-2.88,1.216,6.643,6.643,0,0,1-5.12,2.432c-4.736.064-7.1-3.328-7.1-10.048s2.24-10.112,6.72-10.112a5.545,5.545,0,0,1,5.5,3.52h9.28c-1.472-7.36-6.336-11.008-14.528-11.008-10.432.192-15.616,6.016-15.616,17.6C206.336-5.12,211.584.768,221.824.768,229.7.96,234.688-3.456,236.224-10.368Zm27.264-6.976V0h8.448V-19.648q.384-11.04-6.72-13.632c-6.336-2.24-11.648-.832-16,4.16V-39.232c0-2.816-1.408-4.288-4.224-4.288H240.7V0h8.512V-17.344c0-5.184,2.176-9.408,7.232-9.408C261.312-26.752,263.488-23.04,263.488-17.344Z" transform="translate(68 1355)" fill="#fff"/>
    <path id="UI_UX_Design" data-name="UI/UX Design" d="M9,.28A6.812,6.812,0,0,1,3.9-1.75,7.124,7.124,0,0,1,1.92-6.94v-9.54H4.34v9.5a5.181,5.181,0,0,0,1.3,3.64A4.347,4.347,0,0,0,9-1.92a4.324,4.324,0,0,0,3.34-1.42,5.181,5.181,0,0,0,1.3-3.64v-9.5h2.44v9.54a7.1,7.1,0,0,1-1.99,5.19A6.82,6.82,0,0,1,9,.28ZM19.78,0V-16.48H22.2V0Zm3.78,1.78,8.38-19.62h2.6L26.16,1.78ZM43.36.28a6.812,6.812,0,0,1-5.1-2.03,7.124,7.124,0,0,1-1.98-5.19v-9.54H38.7v9.5A5.181,5.181,0,0,0,40-3.34a4.347,4.347,0,0,0,3.36,1.42A4.324,4.324,0,0,0,46.7-3.34,5.181,5.181,0,0,0,48-6.98v-9.5h2.44v9.54a7.1,7.1,0,0,1-1.99,5.19A6.82,6.82,0,0,1,43.36.28ZM68.42-16.48,62.2-8.26,68.42,0H65.48L60.72-6.32,55.96,0h-2.9l6.22-8.24-6.22-8.24H56l4.74,6.3,4.78-6.3ZM78.1,0V-16.48h5.7a9.444,9.444,0,0,1,6.56,2.3,7.6,7.6,0,0,1,2.56,5.92,7.657,7.657,0,0,1-2.56,5.94A9.394,9.394,0,0,1,83.8,0Zm2.44-2.2h3.4a6.569,6.569,0,0,0,4.67-1.69,5.708,5.708,0,0,0,1.81-4.37,5.661,5.661,0,0,0-1.81-4.33,6.569,6.569,0,0,0-4.67-1.69h-3.4Zm27.68-12.04H98.54v4.72h8.74v2.24H98.54v5.02h9.68V0H96.1V-16.48h12.12ZM117.16.26a9.436,9.436,0,0,1-6.78-2.64l1.46-1.8a7.636,7.636,0,0,0,5.42,2.3,3.977,3.977,0,0,0,2.55-.73,2.217,2.217,0,0,0,.91-1.79,1.874,1.874,0,0,0-.96-1.69,11.168,11.168,0,0,0-3.18-1.09,22.648,22.648,0,0,1-2.31-.68,7.748,7.748,0,0,1-1.72-.88,3.356,3.356,0,0,1-1.17-1.34,4.34,4.34,0,0,1-.38-1.88,4.368,4.368,0,0,1,1.61-3.46,6.063,6.063,0,0,1,4.09-1.38,8.841,8.841,0,0,1,6.04,2.32l-1.4,1.84a6.879,6.879,0,0,0-4.72-2.02,3.441,3.441,0,0,0-2.26.74,2.217,2.217,0,0,0-.9,1.76,1.753,1.753,0,0,0,.94,1.62,13.1,13.1,0,0,0,3.2,1.08,11.128,11.128,0,0,1,4.16,1.7,3.67,3.67,0,0,1,1.4,3.12,4.446,4.446,0,0,1-1.59,3.53A6.54,6.54,0,0,1,117.16.26Zm9-.26V-16.48h2.42V0ZM139.8-6.76V-8.88h6.82V-2.3a8.327,8.327,0,0,1-2.94,1.88,9.616,9.616,0,0,1-3.54.7,8.276,8.276,0,0,1-6.03-2.53,8.179,8.179,0,0,1-2.55-6.01,8.146,8.146,0,0,1,2.55-6,8.292,8.292,0,0,1,6.03-2.52,9.5,9.5,0,0,1,3.54.71,8.439,8.439,0,0,1,2.94,1.89l-1.7,1.62A5.806,5.806,0,0,0,142.77-14a6.953,6.953,0,0,0-2.63-.54,5.786,5.786,0,0,0-4.29,1.86,6.121,6.121,0,0,0-1.81,4.42,6.2,6.2,0,0,0,1.8,4.45,5.762,5.762,0,0,0,4.3,1.87,6.531,6.531,0,0,0,4.08-1.38V-6.76ZM150.32,0V-16.48h2.44l9.48,12.5v-12.5h2.42V0h-2.42l-9.48-12.5V0Z" transform="translate(124 1309)" fill="#fff"/>
  </g>
</svg>
