<svg xmlns="http://www.w3.org/2000/svg" width="842.715" height="432" viewBox="0 0 842.715 432">
  <g id="Group_17" data-name="Group 17" transform="translate(-504.551 -1524)">
    <g id="Ellipse_10" data-name="Ellipse 10" transform="translate(773 1524)" fill="none" stroke="#fff" stroke-width="6">
      <ellipse cx="187" cy="216" rx="187" ry="216" stroke="none"/>
      <ellipse cx="187" cy="216" rx="184" ry="213" fill="none"/>
    </g>
    <g id="Ellipse_11" data-name="Ellipse 11" transform="translate(927 1583)" fill="#e6a751" stroke="#fff" stroke-width="4">
      <circle cx="33" cy="33" r="33" stroke="none"/>
      <circle cx="33" cy="33" r="31" fill="none"/>
    </g>
    <g id="Ellipse_12" data-name="Ellipse 12" transform="translate(927 1820)" fill="#4595e5" stroke="#fff" stroke-width="4">
      <circle cx="33" cy="33" r="33" stroke="none"/>
      <circle cx="33" cy="33" r="31" fill="none"/>
    </g>
    <path id="Output" d="M8.928.257A7.689,7.689,0,0,1,3.346-2.062,7.469,7.469,0,0,1,.99-7.572a7.439,7.439,0,0,1,2.356-5.5,7.7,7.7,0,0,1,5.582-2.31,7.728,7.728,0,0,1,3.932,1.054,8,8,0,0,1,2.906,2.86,7.449,7.449,0,0,1,1.082,3.9,7.449,7.449,0,0,1-1.082,3.9A8.072,8.072,0,0,1,12.861-.807,7.676,7.676,0,0,1,8.928.257Zm0-2.493a4.819,4.819,0,0,0,3.593-1.586,5.234,5.234,0,0,0,1.522-3.749A5.172,5.172,0,0,0,12.522-11.3,4.845,4.845,0,0,0,8.928-12.87,4.894,4.894,0,0,0,5.307-11.3,5.156,5.156,0,0,0,3.777-7.572,5.218,5.218,0,0,0,5.307-3.822,4.867,4.867,0,0,0,8.928-2.237Zm18.058-9.13h2.7V0h-2.7V-1.522A3.828,3.828,0,0,1,25.52-.229a4.386,4.386,0,0,1-2.053.486A4,4,0,0,1,20.423-.981,4.411,4.411,0,0,1,19.25-4.143v-7.223h2.6v6.71a2.75,2.75,0,0,0,.66,1.9,2.2,2.2,0,0,0,1.723.743,2.833,2.833,0,0,0,1.824-.623,2.415,2.415,0,0,0,.926-1.54ZM38.3-2.438l.77,1.8a3.6,3.6,0,0,1-2.42.9,3.094,3.094,0,0,1-2.31-.917,3.212,3.212,0,0,1-.9-2.347V-9.148H31.79v-2.218h1.65V-14.5h2.622v3.135h2.567v2.218H36.062v5.812a1.4,1.4,0,0,0,.321.944,1.007,1.007,0,0,0,.8.376A1.512,1.512,0,0,0,38.3-2.438Zm9.552-9.2A4.786,4.786,0,0,1,51.6-9.973,6.208,6.208,0,0,1,53.075-5.7,6.235,6.235,0,0,1,51.6-1.412,4.786,4.786,0,0,1,47.85.257,4.534,4.534,0,0,1,43.89-1.8V3.777H41.213V-11.367H43.89v1.8A4.551,4.551,0,0,1,47.85-11.642Zm-.715,9.625a3.009,3.009,0,0,0,2.356-1.045,3.834,3.834,0,0,0,.926-2.64,3.766,3.766,0,0,0-.926-2.622A3.032,3.032,0,0,0,47.135-9.35a2.929,2.929,0,0,0-2.31,1.027,3.836,3.836,0,0,0-.9,2.622,3.906,3.906,0,0,0,.9,2.64A2.907,2.907,0,0,0,47.135-2.017Zm16.042-9.35h2.695V0H63.177V-1.522A3.828,3.828,0,0,1,61.71-.229a4.386,4.386,0,0,1-2.053.486A4,4,0,0,1,56.613-.981,4.411,4.411,0,0,1,55.44-4.143v-7.223h2.6v6.71a2.75,2.75,0,0,0,.66,1.9,2.2,2.2,0,0,0,1.723.743,2.833,2.833,0,0,0,1.824-.623,2.415,2.415,0,0,0,.926-1.54ZM74.488-2.438l.77,1.8a3.6,3.6,0,0,1-2.42.9,3.094,3.094,0,0,1-2.31-.917,3.212,3.212,0,0,1-.9-2.347V-9.148H67.98v-2.218h1.65V-14.5h2.622v3.135h2.567v2.218H72.252v5.812a1.4,1.4,0,0,0,.321.944,1.007,1.007,0,0,0,.8.376A1.512,1.512,0,0,0,74.488-2.438Z" transform="translate(922.068 1569)" fill="#fff"/>
    <path id="Input" d="M1.613,0V-15.107H4.327V0ZM13.622-11.642A4,4,0,0,1,16.665-10.4a4.411,4.411,0,0,1,1.173,3.162V0H15.253V-6.71a2.727,2.727,0,0,0-.669-1.9,2.225,2.225,0,0,0-1.733-.743,2.833,2.833,0,0,0-1.824.623,2.415,2.415,0,0,0-.926,1.54V0h-2.7V-11.367h2.7v1.5a3.828,3.828,0,0,1,1.467-1.293A4.386,4.386,0,0,1,13.622-11.642Zm13.823,0a4.786,4.786,0,0,1,3.749,1.668A6.208,6.208,0,0,1,32.67-5.7a6.234,6.234,0,0,1-1.476,4.29A4.786,4.786,0,0,1,27.445.257,4.534,4.534,0,0,1,23.485-1.8V3.777H20.808V-11.367h2.677v1.8A4.551,4.551,0,0,1,27.445-11.642ZM26.73-2.017a3.009,3.009,0,0,0,2.356-1.045,3.834,3.834,0,0,0,.926-2.64,3.766,3.766,0,0,0-.926-2.622A3.032,3.032,0,0,0,26.73-9.35a2.929,2.929,0,0,0-2.31,1.027,3.836,3.836,0,0,0-.9,2.622,3.906,3.906,0,0,0,.9,2.64A2.907,2.907,0,0,0,26.73-2.017Zm16.042-9.35h2.695V0H42.772V-1.522A3.828,3.828,0,0,1,41.305-.229a4.386,4.386,0,0,1-2.053.486A4,4,0,0,1,36.208-.981a4.411,4.411,0,0,1-1.173-3.163v-7.223h2.6v6.71a2.75,2.75,0,0,0,.66,1.9,2.2,2.2,0,0,0,1.723.743,2.833,2.833,0,0,0,1.824-.623,2.415,2.415,0,0,0,.926-1.54ZM54.083-2.438l.77,1.8a3.6,3.6,0,0,1-2.42.9,3.094,3.094,0,0,1-2.31-.917,3.212,3.212,0,0,1-.9-2.347V-9.148h-1.65v-2.218h1.65V-14.5h2.622v3.135h2.567v2.218H51.847v5.812a1.4,1.4,0,0,0,.321.944,1.007,1.007,0,0,0,.8.376A1.512,1.512,0,0,0,54.083-2.438Z" transform="translate(932.271 1916)" fill="#fff"/>
    <path id="Interface" d="M1.05,0H5.22V-20.4H3.15c-1.41,0-2.1.75-2.1,2.19ZM20.82,0V-9.33c.03-4.53-2.19-6.78-6.72-6.78S7.29-13.86,7.29-9.33V0h4.05V-10.14c.03-1.65.93-2.46,2.7-2.46s2.67.81,2.76,2.46v8.16c0,1.26.66,1.89,1.98,1.98Zm8.19-15v-.87h-2.4v-2.52a2.013,2.013,0,0,0-1.92-2.01H22.62V-3.06c-.03,1.77.69,2.7,2.19,2.85a21.92,21.92,0,0,0,4.2.03V-3.21H27.78c-.78,0-1.17-.36-1.17-1.02v-8.79h.42A1.941,1.941,0,0,0,29.01-15ZM44.7-4.86H41.76a1.748,1.748,0,0,0-1.35.57,3.686,3.686,0,0,1-2.58,1.14c-1.95,0-3-1.23-3.15-3.66H44.94c.3-6.21-2.07-9.3-7.11-9.3-4.83.03-7.26,2.73-7.26,8.13S32.97.21,37.77.36C41.67.36,43.83-1.5,44.7-4.86Zm-6.93-7.98c1.71,0,2.7,1.08,2.94,3.18H34.74C35.04-11.76,36.06-12.84,37.77-12.84ZM46.8,0h4.05V-8.25c0-2.31,1.11-3.48,3.33-3.48h1.35v-4.14h-.57c-5.31,0-8.04,2.55-8.16,7.68ZM63.9-13.95v-.93H61.32v-1.05q.135-1.17,1.53-1.17H63.9v-3.3a12.929,12.929,0,0,0-1.92-.12c-2.97,0-4.74,1.2-4.59,4.23V0h3.99V-11.94h.54A2.024,2.024,0,0,0,63.9-13.95ZM70.59-2.94A1.776,1.776,0,0,1,68.58-4.8c0-1.17.81-1.92,2.4-2.22a17.28,17.28,0,0,0,3.18-.96v1.47A3.281,3.281,0,0,1,70.59-2.94Zm.93-9.9c1.65,0,2.49.45,2.58,1.35,0,.87-.87,1.38-2.58,1.59-4.02.39-6.78,1.41-6.87,5.22C64.65-1.17,67.29.6,71.1.3c4.29-.3,6.93-2.25,6.93-6.63v-5.4c-.09-2.94-2.31-4.38-6.69-4.38-3.66,0-5.73,1.44-6.21,4.38h3.99C69.33-12.48,70.11-12.84,71.52-12.84ZM93.96-4.86h-3a1.839,1.839,0,0,0-1.35.57,3.114,3.114,0,0,1-2.4,1.14c-2.22.03-3.33-1.56-3.33-4.71s1.05-4.74,3.15-4.74a2.6,2.6,0,0,1,2.58,1.65h4.35c-.69-3.45-2.97-5.16-6.81-5.16-4.89.09-7.32,2.82-7.32,8.25C79.95-2.4,82.41.36,87.21.36A6.284,6.284,0,0,0,93.96-4.86Zm16.11,0h-2.94a1.748,1.748,0,0,0-1.35.57,3.686,3.686,0,0,1-2.58,1.14c-1.95,0-3-1.23-3.15-3.66h10.26c.3-6.21-2.07-9.3-7.11-9.3-4.83.03-7.26,2.73-7.26,8.13s2.4,8.19,7.2,8.34C107.04.36,109.2-1.5,110.07-4.86Zm-6.93-7.98c1.71,0,2.7,1.08,2.94,3.18h-5.97C100.41-11.76,101.43-12.84,103.14-12.84Z" transform="translate(904.44 1744)" fill="#fff"/>
    <g id="Group_13" data-name="Group 13" transform="translate(0 13.385)">
      <g id="right-drawn-arrow" transform="translate(1297.842 1544.615) rotate(90)">
        <path id="Path_106" data-name="Path 106" d="M114.3,13.631c-2.191,6.743-5.563,13.149-8.429,19.555a1.461,1.461,0,0,1-2.192.337c-2.866-3.034-6.069-6.069-7.923-9.777h-.169C75.017,22.228,55.125,39.76,40.964,52.572,24.612,67.238,9.777,85.107,3.877,106.517a68.242,68.242,0,0,0-.674,8.429,1.012,1.012,0,1,1-2.023,0v-1.517A1.2,1.2,0,0,1,0,112.08c.169-1.854.674-3.709,1.011-5.563C2.36,60.832,47.876,16.833,92.38,13.968c-1.517-2.7-2.866-5.563-4.551-8.26-.843-1.18.506-2.36,1.686-2.191,8.429,1.18,16.015,5.226,23.769,8.26a1.388,1.388,0,0,1,1.016,1.854ZM91.706,6.887c1.012,2.192,1.686,4.383,2.866,6.575a1.245,1.245,0,0,1-.674,1.686,1.068,1.068,0,0,1-.843,1.011C52.765,22.9,20.061,50.38,7.923,87.636c7.923-14.666,20.061-27.478,32.03-38.267A169.226,169.226,0,0,1,68.1,28.469c7.923-4.552,17.869-8.766,26.972-5.9h0c-.506-1.349,1.517-2.023,2.191-1.011,2.192,2.866,4.383,5.563,6.743,8.092,2.36-5.226,4.889-10.452,6.743-15.846C104.518,11.439,98.281,8.4,91.706,6.887Z" transform="translate(0 -3.5)" fill="#fff"/>
      </g>
      <g id="right-drawn-arrow-2" data-name="right-drawn-arrow" transform="translate(1312.898 1895.397) rotate(171)">
        <path id="Path_106-2" data-name="Path 106" d="M114.3,13.631c-2.191,6.743-5.563,13.149-8.429,19.555a1.461,1.461,0,0,1-2.192.337c-2.866-3.034-6.069-6.069-7.923-9.777h-.169C75.017,22.228,55.125,39.76,40.964,52.572,24.612,67.238,9.777,85.107,3.877,106.517a68.242,68.242,0,0,0-.674,8.429,1.012,1.012,0,1,1-2.023,0v-1.517A1.2,1.2,0,0,1,0,112.08c.169-1.854.674-3.709,1.011-5.563C2.36,60.832,47.876,16.833,92.38,13.968c-1.517-2.7-2.866-5.563-4.551-8.26-.843-1.18.506-2.36,1.686-2.191,8.429,1.18,16.015,5.226,23.769,8.26a1.388,1.388,0,0,1,1.016,1.854ZM91.706,6.887c1.012,2.192,1.686,4.383,2.866,6.575a1.245,1.245,0,0,1-.674,1.686,1.068,1.068,0,0,1-.843,1.011C52.765,22.9,20.061,50.38,7.923,87.636c7.923-14.666,20.061-27.478,32.03-38.267A169.226,169.226,0,0,1,68.1,28.469c7.923-4.552,17.869-8.766,26.972-5.9h0c-.506-1.349,1.517-2.023,2.191-1.011,2.192,2.866,4.383,5.563,6.743,8.092,2.36-5.226,4.889-10.452,6.743-15.846C104.518,11.439,98.281,8.4,91.706,6.887Z" transform="translate(0 -3.5)" fill="#fff"/>
      </g>
    </g>
    <g id="Group_14" data-name="Group 14">
      <g id="right-drawn-arrow-3" data-name="right-drawn-arrow" transform="translate(594.612 1567.294) rotate(6.024)">
        <path id="Path_106-3" data-name="Path 106" d="M114.3,10.131c-2.191,6.743-5.563,13.149-8.429,19.555a1.461,1.461,0,0,1-2.192.337c-2.866-3.034-6.069-6.069-7.923-9.777h-.169C75.017,18.728,55.125,36.26,40.964,49.072,24.612,63.738,9.777,81.607,3.877,103.017a68.242,68.242,0,0,0-.674,8.429,1.012,1.012,0,1,1-2.023,0v-1.517A1.2,1.2,0,0,1,0,108.58c.169-1.854.674-3.709,1.011-5.563C2.36,57.332,47.876,13.333,92.38,10.468c-1.517-2.7-2.866-5.563-4.551-8.26-.843-1.18.506-2.36,1.686-2.191,8.429,1.18,16.015,5.226,23.769,8.26a1.388,1.388,0,0,1,1.016,1.854ZM91.706,3.387c1.012,2.192,1.686,4.383,2.866,6.575a1.245,1.245,0,0,1-.674,1.686,1.068,1.068,0,0,1-.843,1.011C52.765,19.4,20.061,46.88,7.923,84.136c7.923-14.666,20.061-27.478,32.03-38.267a169.227,169.227,0,0,1,28.152-20.9c7.923-4.552,17.869-8.766,26.972-5.9h0c-.506-1.349,1.517-2.023,2.191-1.011,2.192,2.866,4.383,5.563,6.743,8.092,2.36-5.226,4.889-10.452,6.743-15.846C104.518,7.939,98.281,4.9,91.706,3.387Z" fill="#fff"/>
      </g>
      <g id="right-drawn-arrow-4" data-name="right-drawn-arrow" transform="translate(594.584 1902.068) rotate(-94.992)">
        <path id="Path_106-4" data-name="Path 106" d="M114.3,10.131c-2.191,6.743-5.563,13.149-8.429,19.555a1.461,1.461,0,0,1-2.192.337c-2.866-3.034-6.069-6.069-7.923-9.777h-.169C75.017,18.728,55.125,36.26,40.964,49.072,24.612,63.738,9.778,81.607,3.877,103.017a68.242,68.242,0,0,0-.674,8.429,1.012,1.012,0,1,1-2.023,0q0-.759,0-1.517A1.2,1.2,0,0,1,0,108.58c.169-1.854.674-3.709,1.011-5.563C2.36,57.332,47.876,13.333,92.38,10.468c-1.517-2.7-2.866-5.563-4.551-8.26-.843-1.18.506-2.36,1.686-2.191,8.429,1.18,16.015,5.226,23.769,8.26a1.388,1.388,0,0,1,1.016,1.854ZM91.706,3.387c1.012,2.192,1.686,4.383,2.866,6.575a1.245,1.245,0,0,1-.674,1.686,1.068,1.068,0,0,1-.843,1.011C52.765,19.4,20.061,46.88,7.923,84.136c7.923-14.666,20.061-27.478,32.03-38.267A169.226,169.226,0,0,1,68.1,24.969c7.923-4.552,17.869-8.766,26.972-5.9h0c-.506-1.349,1.517-2.023,2.192-1.011,2.192,2.866,4.383,5.563,6.743,8.092,2.36-5.226,4.889-10.452,6.743-15.846C104.518,7.939,98.281,4.9,91.706,3.387Z" fill="#fff"/>
      </g>
    </g>
    <path id="System_Design" data-name="System Design" d="M7.058.238A8.65,8.65,0,0,1,.843-2.182l1.338-1.65A7,7,0,0,0,7.15-1.723a3.645,3.645,0,0,0,2.338-.669,2.032,2.032,0,0,0,.834-1.641,1.718,1.718,0,0,0-.88-1.549,10.237,10.237,0,0,0-2.915-1A20.761,20.761,0,0,1,4.409-7.2a7.1,7.1,0,0,1-1.577-.807A3.076,3.076,0,0,1,1.76-9.24a3.979,3.979,0,0,1-.348-1.723,4,4,0,0,1,1.476-3.172A5.557,5.557,0,0,1,6.637-15.4a8.1,8.1,0,0,1,5.537,2.127L10.89-11.587a6.306,6.306,0,0,0-4.327-1.852,3.154,3.154,0,0,0-2.072.678,2.032,2.032,0,0,0-.825,1.613,1.607,1.607,0,0,0,.862,1.485,12.012,12.012,0,0,0,2.933.99,10.2,10.2,0,0,1,3.813,1.558,3.364,3.364,0,0,1,1.283,2.86A4.075,4.075,0,0,1,11.1-1.018,6,6,0,0,1,7.058.238ZM17.233,3.96a4.561,4.561,0,0,1-2.163-.477L15.547,1.8a2.9,2.9,0,0,0,1.393.367,1.662,1.662,0,0,0,1.558-.88l.568-1.21L14.19-11.367h2.328L20.167-2.4l3.465-8.965h2.255l-5,12.393Q19.745,3.923,17.233,3.96ZM32.45.257a7.952,7.952,0,0,1-2.576-.44A7.3,7.3,0,0,1,27.592-1.43l1.027-1.558a6.484,6.484,0,0,0,3.85,1.375,2.748,2.748,0,0,0,1.568-.4,1.231,1.231,0,0,0,.6-1.063,1.027,1.027,0,0,0-.156-.559,1.883,1.883,0,0,0-.33-.4,2.186,2.186,0,0,0-.6-.33q-.422-.174-.669-.247t-.834-.238A8.954,8.954,0,0,1,29.04-6.151a2.424,2.424,0,0,1-.9-2.026,3.047,3.047,0,0,1,1.137-2.512,4.54,4.54,0,0,1,2.988-.953,7.558,7.558,0,0,1,4.2,1.32l-.953,1.613a6.236,6.236,0,0,0-3.245-1.063,2.64,2.64,0,0,0-1.43.358,1.106,1.106,0,0,0-.568.981,1.036,1.036,0,0,0,.532.944,10.8,10.8,0,0,0,2.09.8q.733.22,1.137.358a9.273,9.273,0,0,1,1.008.431,3.259,3.259,0,0,1,.917.614,3.112,3.112,0,0,1,.559.843,2.729,2.729,0,0,1,.247,1.183,3.113,3.113,0,0,1-1.2,2.557A4.815,4.815,0,0,1,32.45.257ZM44.6-2.053l.788,1.5A3.45,3.45,0,0,1,43.12.257a2.866,2.866,0,0,1-2.154-.862,3.081,3.081,0,0,1-.834-2.237V-9.533h-1.7v-1.833h1.7V-14.5h2.145v3.135h2.677v1.833H42.277v6.545a1.44,1.44,0,0,0,.33.972,1.042,1.042,0,0,0,.825.385A1.586,1.586,0,0,0,44.6-2.053Zm8.213.385a5.11,5.11,0,0,0,1.806-.348,3.854,3.854,0,0,0,1.439-.88L57.438-1.5A5.207,5.207,0,0,1,55.394-.229a7.334,7.334,0,0,1-2.557.486,5.665,5.665,0,0,1-4.134-1.7A5.77,5.77,0,0,1,46.988-5.72a5.837,5.837,0,0,1,1.641-4.226,5.382,5.382,0,0,1,4.024-1.7,4.871,4.871,0,0,1,4.033,1.815,7.63,7.63,0,0,1,1.448,4.9H49.188a3.9,3.9,0,0,0,1.2,2.356A3.442,3.442,0,0,0,52.818-1.668ZM52.745-9.7a3.454,3.454,0,0,0-2.31.825,3.666,3.666,0,0,0-1.228,2.2h6.82A3.645,3.645,0,0,0,55-8.873,3.086,3.086,0,0,0,52.745-9.7ZM73.37-11.642A3.83,3.83,0,0,1,76.313-10.4a4.472,4.472,0,0,1,1.146,3.162V0H75.332V-6.912a3.045,3.045,0,0,0-.678-2.044,2.183,2.183,0,0,0-1.742-.8,2.778,2.778,0,0,0-2,.733,2.514,2.514,0,0,0-.77,1.907V0H68V-6.912a3.045,3.045,0,0,0-.678-2.044,2.183,2.183,0,0,0-1.742-.8,2.778,2.778,0,0,0-2,.733,2.514,2.514,0,0,0-.77,1.907V0H60.628V-11.367H62.81V-9.79A3.34,3.34,0,0,1,64.1-11.138a3.692,3.692,0,0,1,1.916-.5,3.985,3.985,0,0,1,2.191.614A3.894,3.894,0,0,1,69.667-9.35a3.3,3.3,0,0,1,1.4-1.677A4.3,4.3,0,0,1,73.37-11.642ZM87.193,0V-15.107h5.225A8.657,8.657,0,0,1,98.432-13a6.963,6.963,0,0,1,2.347,5.427,7.019,7.019,0,0,1-2.347,5.445A8.611,8.611,0,0,1,92.418,0ZM89.43-2.017h3.117a6.022,6.022,0,0,0,4.281-1.549,5.232,5.232,0,0,0,1.659-4.006,5.189,5.189,0,0,0-1.659-3.969,6.022,6.022,0,0,0-4.281-1.549H89.43Zm19.415.348a5.11,5.11,0,0,0,1.806-.348,3.854,3.854,0,0,0,1.439-.88L113.465-1.5a5.207,5.207,0,0,1-2.044,1.274,7.334,7.334,0,0,1-2.558.486,5.665,5.665,0,0,1-4.134-1.7,5.77,5.77,0,0,1-1.714-4.281,5.837,5.837,0,0,1,1.641-4.226,5.382,5.382,0,0,1,4.024-1.7,4.871,4.871,0,0,1,4.033,1.815,7.63,7.63,0,0,1,1.448,4.9h-8.947a3.9,3.9,0,0,0,1.2,2.356A3.442,3.442,0,0,0,108.845-1.668Zm-.073-8.03a3.454,3.454,0,0,0-2.31.825,3.666,3.666,0,0,0-1.228,2.2h6.82a3.645,3.645,0,0,0-1.027-2.2A3.086,3.086,0,0,0,108.772-9.7ZM120.8.257a7.952,7.952,0,0,1-2.576-.44A7.3,7.3,0,0,1,115.94-1.43l1.027-1.558a6.484,6.484,0,0,0,3.85,1.375,2.748,2.748,0,0,0,1.567-.4,1.231,1.231,0,0,0,.6-1.063,1.027,1.027,0,0,0-.156-.559,1.883,1.883,0,0,0-.33-.4,2.186,2.186,0,0,0-.6-.33q-.422-.174-.669-.247t-.834-.238a8.954,8.954,0,0,1-3.007-1.293,2.424,2.424,0,0,1-.9-2.026,3.047,3.047,0,0,1,1.137-2.512,4.54,4.54,0,0,1,2.988-.953,7.558,7.558,0,0,1,4.2,1.32l-.953,1.613a6.236,6.236,0,0,0-3.245-1.063,2.64,2.64,0,0,0-1.43.358,1.106,1.106,0,0,0-.568.981,1.036,1.036,0,0,0,.532.944,10.8,10.8,0,0,0,2.09.8q.733.22,1.137.358a9.274,9.274,0,0,1,1.008.431,3.26,3.26,0,0,1,.917.614,3.112,3.112,0,0,1,.559.843,2.729,2.729,0,0,1,.248,1.183,3.113,3.113,0,0,1-1.2,2.557A4.815,4.815,0,0,1,120.8.257Zm7.9-13.53a1.258,1.258,0,0,1-.935-.394,1.282,1.282,0,0,1-.385-.926,1.231,1.231,0,0,1,.385-.9,1.273,1.273,0,0,1,.935-.385,1.261,1.261,0,0,1,.908.385,1.218,1.218,0,0,1,.394.9,1.267,1.267,0,0,1-.394.926A1.247,1.247,0,0,1,128.7-13.273ZM127.6,0V-11.367h2.182V0Zm13.97-11.367h2.182V-1.21a4.518,4.518,0,0,1-1.622,3.593,6.148,6.148,0,0,1-4.152,1.393,8.435,8.435,0,0,1-2.649-.412,6.6,6.6,0,0,1-2.1-1.091L134.09.642a5.009,5.009,0,0,0,3.557,1.247,4.531,4.531,0,0,0,2.878-.825,2.776,2.776,0,0,0,1.045-2.31V-2.9a4.6,4.6,0,0,1-4.033,2.053,4.918,4.918,0,0,1-3.713-1.522,5.39,5.39,0,0,1-1.457-3.887,5.358,5.358,0,0,1,1.457-3.878,4.933,4.933,0,0,1,3.713-1.512,4.872,4.872,0,0,1,2.319.559,4.7,4.7,0,0,1,1.714,1.531ZM135.593-3.7a3.376,3.376,0,0,0,2.493.972,3.373,3.373,0,0,0,2.5-.99,3.443,3.443,0,0,0,.981-2.53,3.412,3.412,0,0,0-.981-2.521,3.389,3.389,0,0,0-2.5-.981,3.328,3.328,0,0,0-2.484.981,3.448,3.448,0,0,0-.962,2.521A3.522,3.522,0,0,0,135.593-3.7Zm17.2-7.938a4.086,4.086,0,0,1,3.08,1.238,4.372,4.372,0,0,1,1.192,3.162V0h-2.145V-6.857a3.018,3.018,0,0,0-.724-2.081,2.4,2.4,0,0,0-1.879-.816,3.381,3.381,0,0,0-2.1.688,2.474,2.474,0,0,0-1.036,1.7V0H147V-11.367h2.182v1.65a3.793,3.793,0,0,1,1.494-1.393A4.374,4.374,0,0,1,152.79-11.642Z" transform="translate(503.708 1771)" fill="#fff"/>
    <path id="User_Input" data-name="User Input" d="M8.25.257A6.244,6.244,0,0,1,3.575-1.6,6.53,6.53,0,0,1,1.76-6.362v-8.745H3.978V-6.4A4.749,4.749,0,0,0,5.17-3.062a3.985,3.985,0,0,0,3.08,1.3,3.964,3.964,0,0,0,3.062-1.3A4.749,4.749,0,0,0,12.5-6.4v-8.708H14.74v8.745A6.512,6.512,0,0,1,12.916-1.6,6.252,6.252,0,0,1,8.25.257Zm13.915,0a7.952,7.952,0,0,1-2.576-.44A7.3,7.3,0,0,1,17.307-1.43l1.027-1.558a6.484,6.484,0,0,0,3.85,1.375,2.748,2.748,0,0,0,1.568-.4,1.231,1.231,0,0,0,.6-1.063,1.027,1.027,0,0,0-.156-.559,1.883,1.883,0,0,0-.33-.4,2.186,2.186,0,0,0-.6-.33q-.422-.174-.669-.247t-.834-.238a8.954,8.954,0,0,1-3.007-1.293,2.424,2.424,0,0,1-.9-2.026,3.047,3.047,0,0,1,1.137-2.512,4.54,4.54,0,0,1,2.988-.953,7.558,7.558,0,0,1,4.2,1.32l-.953,1.613a6.236,6.236,0,0,0-3.245-1.063,2.64,2.64,0,0,0-1.43.358,1.106,1.106,0,0,0-.568.981,1.036,1.036,0,0,0,.532.944,10.8,10.8,0,0,0,2.09.8q.733.22,1.137.358A9.274,9.274,0,0,1,24.75-5.9a3.259,3.259,0,0,1,.917.614,3.112,3.112,0,0,1,.559.843,2.729,2.729,0,0,1,.247,1.183,3.113,3.113,0,0,1-1.2,2.557A4.815,4.815,0,0,1,22.165.257ZM34.21-1.668a5.11,5.11,0,0,0,1.806-.348,3.854,3.854,0,0,0,1.439-.88L38.83-1.5A5.207,5.207,0,0,1,36.786-.229a7.334,7.334,0,0,1-2.558.486,5.665,5.665,0,0,1-4.134-1.7A5.77,5.77,0,0,1,28.38-5.72a5.837,5.837,0,0,1,1.641-4.226,5.382,5.382,0,0,1,4.024-1.7,4.871,4.871,0,0,1,4.033,1.815,7.63,7.63,0,0,1,1.448,4.9H30.58a3.9,3.9,0,0,0,1.2,2.356A3.442,3.442,0,0,0,34.21-1.668ZM34.137-9.7a3.454,3.454,0,0,0-2.31.825,3.666,3.666,0,0,0-1.228,2.2h6.82a3.645,3.645,0,0,0-1.027-2.2A3.086,3.086,0,0,0,34.137-9.7Zm10.193.5A4.1,4.1,0,0,1,46-10.991a5.009,5.009,0,0,1,2.567-.651v1.888a4.645,4.645,0,0,0-2.924.9A3.3,3.3,0,0,0,44.33-6.472V0H42.148V-11.367H44.33ZM57.053,0V-15.107h2.218V0ZM68.31-11.642A4.086,4.086,0,0,1,71.39-10.4a4.372,4.372,0,0,1,1.192,3.162V0H70.437V-6.857a3.018,3.018,0,0,0-.724-2.081,2.4,2.4,0,0,0-1.879-.816,3.381,3.381,0,0,0-2.1.688A2.474,2.474,0,0,0,64.7-7.37V0H62.517V-11.367H64.7v1.65a3.793,3.793,0,0,1,1.494-1.393A4.374,4.374,0,0,1,68.31-11.642Zm13.695,0a4.794,4.794,0,0,1,3.74,1.668A6.184,6.184,0,0,1,87.23-5.7a6.219,6.219,0,0,1-1.485,4.281A4.782,4.782,0,0,1,82,.257,4.489,4.489,0,0,1,77.953-1.98V3.777H75.79V-11.367h2.163v1.943A4.5,4.5,0,0,1,82-11.642Zm-.532,10.01a3.252,3.252,0,0,0,2.557-1.137,4.28,4.28,0,0,0,1-2.933,4.278,4.278,0,0,0-.99-2.915,3.245,3.245,0,0,0-2.567-1.137,3.205,3.205,0,0,0-2.53,1.137,4.278,4.278,0,0,0-.99,2.915,4.313,4.313,0,0,0,.99,2.924A3.194,3.194,0,0,0,81.473-1.632Zm16.243-9.735H99.88V0H97.717V-1.65A3.729,3.729,0,0,1,96.223-.266a4.435,4.435,0,0,1-2.118.522,4.086,4.086,0,0,1-3.08-1.237,4.372,4.372,0,0,1-1.192-3.163v-7.223H91.96V-4.51a2.961,2.961,0,0,0,.733,2.072,2.436,2.436,0,0,0,1.888.807,3.411,3.411,0,0,0,2.1-.678A2.444,2.444,0,0,0,97.717-4Zm10.652,9.313.788,1.5a3.45,3.45,0,0,1-2.273.807,2.866,2.866,0,0,1-2.154-.862,3.081,3.081,0,0,1-.834-2.237V-9.533H102.19v-1.833h1.705V-14.5h2.145v3.135h2.677v1.833H106.04v6.545a1.44,1.44,0,0,0,.33.972,1.042,1.042,0,0,0,.825.385A1.586,1.586,0,0,0,108.368-2.053Z" transform="translate(1238.11 1776)" fill="#fff"/>
    <g id="Group_15" data-name="Group 15" transform="translate(1 -4)">
      <g id="Ellipse_15" data-name="Ellipse 15" transform="translate(555 1697)" fill="#97bf3b" stroke="#fff" stroke-width="4">
        <circle cx="27.5" cy="27.5" r="27.5" stroke="none"/>
        <circle cx="27.5" cy="27.5" r="25.5" fill="none"/>
      </g>
      <path id="S" d="M7.15.238A9.1,9.1,0,0,1,.678-2.2L2.273-4.162A7.312,7.312,0,0,0,7.242-2.108a3.4,3.4,0,0,0,2.09-.568,1.727,1.727,0,0,0,.752-1.43,1.468,1.468,0,0,0-.77-1.338,10.58,10.58,0,0,0-2.732-.917,21.331,21.331,0,0,1-2.173-.614,7.581,7.581,0,0,1-1.623-.807A3.14,3.14,0,0,1,1.65-9.038a4.016,4.016,0,0,1-.367-1.778A4.128,4.128,0,0,1,2.8-14.108,5.822,5.822,0,0,1,6.71-15.4a8.514,8.514,0,0,1,5.72,2.108l-1.5,2.035a6.59,6.59,0,0,0-4.327-1.8,2.825,2.825,0,0,0-1.833.577,1.746,1.746,0,0,0-.715,1.4A1.462,1.462,0,0,0,4.84-9.735a10.588,10.588,0,0,0,2.732.9,10.594,10.594,0,0,1,3.951,1.558,3.375,3.375,0,0,1,1.311,2.9,4.162,4.162,0,0,1-1.512,3.346A6.277,6.277,0,0,1,7.15.238Z" transform="translate(576.116 1733)" fill="#fff"/>
    </g>
    <g id="Group_16" data-name="Group 16" transform="translate(-4 -8)">
      <g id="Ellipse_14" data-name="Ellipse 14" transform="translate(1270 1697)" fill="#bf3bbf" stroke="#fff" stroke-width="4">
        <circle cx="27.5" cy="27.5" r="27.5" stroke="none"/>
        <circle cx="27.5" cy="27.5" r="25.5" fill="none"/>
      </g>
      <path id="U" d="M8.268.257A6.462,6.462,0,0,1,3.483-1.622a6.557,6.557,0,0,1-1.87-4.831v-8.653h2.75v8.58a4.451,4.451,0,0,0,1.091,3.1,3.616,3.616,0,0,0,2.814,1.21A3.672,3.672,0,0,0,11.1-3.428a4.407,4.407,0,0,0,1.109-3.1v-8.58h2.732v8.653a6.557,6.557,0,0,1-1.87,4.831A6.485,6.485,0,0,1,8.268.257Z" transform="translate(1289.732 1733)" fill="#fff"/>
    </g>
  </g>
</svg>
