<svg xmlns="http://www.w3.org/2000/svg" width="845" height="432" viewBox="0 0 845 432">
  <g id="Group_17" data-name="Group 17" transform="translate(-503 -1524)">
    <g id="Ellipse_10" data-name="Ellipse 10" transform="translate(773 1524)" fill="none" stroke="#fff" stroke-width="6">
      <ellipse cx="187" cy="216" rx="187" ry="216" stroke="none"/>
      <ellipse cx="187" cy="216" rx="184" ry="213" fill="none"/>
    </g>
    <g id="Ellipse_11" data-name="Ellipse 11" transform="translate(927 1583)" fill="#e6a751" stroke="#fff" stroke-width="4">
      <circle cx="33" cy="33" r="33" stroke="none"/>
      <circle cx="33" cy="33" r="31" fill="none"/>
    </g>
    <g id="Ellipse_12" data-name="Ellipse 12" transform="translate(927 1820)" fill="#4595e5" stroke="#fff" stroke-width="4">
      <circle cx="33" cy="33" r="33" stroke="none"/>
      <circle cx="33" cy="33" r="31" fill="none"/>
    </g>
    <text id="Output" transform="translate(960 1569)" fill="#fff" font-size="22" font-family="Okra-SemiBold, Okra" font-weight="600"><tspan x="-37.932" y="0">Output</tspan></text>
    <text id="Input" transform="translate(960 1916)" fill="#fff" font-size="22" font-family="Okra-SemiBold, Okra" font-weight="600"><tspan x="-27.729" y="0">Input</tspan></text>
    <text id="Interface" transform="translate(960 1744)" fill="#fff" font-size="30" font-family="HarabaraMaisBold-HarabaraMaisBold, Harabara Mais Demo" font-weight="700"><tspan x="-55.56" y="0">Interface</tspan></text>
    <g id="Group_13" data-name="Group 13" transform="translate(0 13.385)">
      <g id="right-drawn-arrow" transform="translate(1297.842 1544.615) rotate(90)">
        <path id="Path_106" data-name="Path 106" d="M114.3,13.631c-2.191,6.743-5.563,13.149-8.429,19.555a1.461,1.461,0,0,1-2.192.337c-2.866-3.034-6.069-6.069-7.923-9.777h-.169C75.017,22.228,55.125,39.76,40.964,52.572,24.612,67.238,9.777,85.107,3.877,106.517a68.244,68.244,0,0,0-.674,8.429,1.011,1.011,0,1,1-2.023,0v-1.517A1.2,1.2,0,0,1,0,112.08c.169-1.854.674-3.709,1.011-5.563C2.36,60.832,47.876,16.833,92.38,13.968c-1.517-2.7-2.866-5.563-4.551-8.26-.843-1.18.506-2.36,1.686-2.191,8.429,1.18,16.015,5.226,23.769,8.26A1.388,1.388,0,0,1,114.3,13.631ZM91.706,6.887c1.012,2.192,1.686,4.383,2.866,6.575a1.245,1.245,0,0,1-.674,1.686,1.068,1.068,0,0,1-.843,1.011C52.765,22.9,20.061,50.38,7.923,87.636c7.923-14.666,20.061-27.478,32.03-38.267a169.226,169.226,0,0,1,28.152-20.9c7.923-4.552,17.869-8.766,26.972-5.9h0c-.506-1.349,1.517-2.023,2.191-1.011,2.192,2.866,4.383,5.563,6.743,8.092,2.36-5.226,4.889-10.452,6.743-15.846C104.518,11.439,98.281,8.4,91.706,6.887Z" transform="translate(0 -3.5)" fill="#fff"/>
      </g>
      <g id="right-drawn-arrow-2" data-name="right-drawn-arrow" transform="translate(1312.898 1895.397) rotate(171)">
        <path id="Path_106-2" data-name="Path 106" d="M114.3,13.631c-2.191,6.743-5.563,13.149-8.429,19.555a1.461,1.461,0,0,1-2.192.337c-2.866-3.034-6.069-6.069-7.923-9.777h-.169C75.017,22.228,55.125,39.76,40.964,52.572,24.612,67.238,9.777,85.107,3.877,106.517a68.244,68.244,0,0,0-.674,8.429,1.011,1.011,0,1,1-2.023,0v-1.517A1.2,1.2,0,0,1,0,112.08c.169-1.854.674-3.709,1.011-5.563C2.36,60.832,47.876,16.833,92.38,13.968c-1.517-2.7-2.866-5.563-4.551-8.26-.843-1.18.506-2.36,1.686-2.191,8.429,1.18,16.015,5.226,23.769,8.26A1.388,1.388,0,0,1,114.3,13.631ZM91.706,6.887c1.012,2.192,1.686,4.383,2.866,6.575a1.245,1.245,0,0,1-.674,1.686,1.068,1.068,0,0,1-.843,1.011C52.765,22.9,20.061,50.38,7.923,87.636c7.923-14.666,20.061-27.478,32.03-38.267a169.226,169.226,0,0,1,28.152-20.9c7.923-4.552,17.869-8.766,26.972-5.9h0c-.506-1.349,1.517-2.023,2.191-1.011,2.192,2.866,4.383,5.563,6.743,8.092,2.36-5.226,4.889-10.452,6.743-15.846C104.518,11.439,98.281,8.4,91.706,6.887Z" transform="translate(0 -3.5)" fill="#fff"/>
      </g>
    </g>
    <g id="Group_14" data-name="Group 14">
      <g id="right-drawn-arrow-3" data-name="right-drawn-arrow" transform="matrix(0.995, 0.105, -0.105, 0.995, 594.612, 1567.294)">
        <path id="Path_106-3" data-name="Path 106" d="M114.3,10.131c-2.191,6.743-5.563,13.149-8.429,19.555a1.461,1.461,0,0,1-2.192.337c-2.866-3.034-6.069-6.069-7.923-9.777h-.169C75.017,18.728,55.125,36.26,40.964,49.072,24.612,63.738,9.777,81.607,3.877,103.017a68.244,68.244,0,0,0-.674,8.429,1.011,1.011,0,1,1-2.023,0v-1.517A1.2,1.2,0,0,1,0,108.58c.169-1.854.674-3.709,1.011-5.563C2.36,57.332,47.876,13.333,92.38,10.468c-1.517-2.7-2.866-5.563-4.551-8.26-.843-1.18.506-2.36,1.686-2.191,8.429,1.18,16.015,5.226,23.769,8.26A1.388,1.388,0,0,1,114.3,10.131ZM91.706,3.387c1.012,2.192,1.686,4.383,2.866,6.575a1.245,1.245,0,0,1-.674,1.686,1.068,1.068,0,0,1-.843,1.011C52.765,19.4,20.061,46.88,7.923,84.136c7.923-14.666,20.061-27.478,32.03-38.267a169.227,169.227,0,0,1,28.152-20.9c7.923-4.552,17.869-8.766,26.972-5.9h0c-.506-1.349,1.517-2.023,2.191-1.011,2.192,2.866,4.383,5.563,6.743,8.092,2.36-5.226,4.889-10.452,6.743-15.846C104.518,7.939,98.281,4.9,91.706,3.387Z" transform="translate(0 0)" fill="#fff"/>
      </g>
      <g id="right-drawn-arrow-4" data-name="right-drawn-arrow" transform="matrix(-0.087, -0.996, 0.996, -0.087, 594.584, 1902.068)">
        <path id="Path_106-4" data-name="Path 106" d="M114.3,10.131c-2.191,6.743-5.563,13.149-8.429,19.555a1.461,1.461,0,0,1-2.192.337c-2.866-3.034-6.069-6.069-7.923-9.777h-.169C75.017,18.728,55.125,36.26,40.964,49.072,24.612,63.738,9.778,81.607,3.877,103.017a68.244,68.244,0,0,0-.674,8.429,1.011,1.011,0,1,1-2.023,0q0-.759,0-1.517A1.2,1.2,0,0,1,0,108.58c.169-1.854.674-3.709,1.011-5.563C2.36,57.332,47.876,13.333,92.38,10.468c-1.517-2.7-2.866-5.563-4.551-8.26-.843-1.18.506-2.36,1.686-2.191,8.429,1.18,16.015,5.226,23.769,8.26A1.388,1.388,0,0,1,114.3,10.131ZM91.706,3.387c1.012,2.192,1.686,4.383,2.866,6.575a1.245,1.245,0,0,1-.674,1.686,1.068,1.068,0,0,1-.843,1.011C52.765,19.4,20.061,46.88,7.923,84.136c7.923-14.666,20.061-27.478,32.03-38.267a169.226,169.226,0,0,1,28.152-20.9c7.923-4.552,17.869-8.766,26.972-5.9h0c-.506-1.349,1.517-2.023,2.192-1.011,2.192,2.866,4.383,5.563,6.743,8.092,2.36-5.226,4.889-10.452,6.743-15.846C104.518,7.939,98.281,4.9,91.706,3.387Z" transform="translate(0 0)" fill="#fff"/>
      </g>
    </g>
    <text id="System_Design" data-name="System Design" transform="translate(583 1771)" fill="#fff" font-size="22" font-family="Okra-Medium, Okra" font-weight="500"><tspan x="-79.292" y="0">System Design</tspan></text>
    <text id="User_Input" data-name="User Input" transform="translate(1293 1776)" fill="#fff" font-size="22" font-family="Okra-Medium, Okra" font-weight="500"><tspan x="-54.89" y="0">User Input</tspan></text>
    <g id="Group_15" data-name="Group 15" transform="translate(1 -4)">
      <g id="Ellipse_15" data-name="Ellipse 15" transform="translate(555 1697)" fill="#97bf3b" stroke="#fff" stroke-width="4">
        <circle cx="27.5" cy="27.5" r="27.5" stroke="none"/>
        <circle cx="27.5" cy="27.5" r="25.5" fill="none"/>
      </g>
      <text id="S" transform="translate(583 1733)" fill="#fff" font-size="22" font-family="Okra-SemiBold, Okra" font-weight="600"><tspan x="-6.884" y="0">S</tspan></text>
    </g>
    <g id="Group_16" data-name="Group 16" transform="translate(-4 -8)">
      <g id="Ellipse_14" data-name="Ellipse 14" transform="translate(1270 1697)" fill="#bf3bbf" stroke="#fff" stroke-width="4">
        <circle cx="27.5" cy="27.5" r="27.5" stroke="none"/>
        <circle cx="27.5" cy="27.5" r="25.5" fill="none"/>
      </g>
      <text id="U" transform="translate(1298 1733)" fill="#fff" font-size="22" font-family="Okra-SemiBold, Okra" font-weight="600"><tspan x="-8.268" y="0">U</tspan></text>
    </g>
  </g>
</svg>
