<svg xmlns="http://www.w3.org/2000/svg" width="173.688" height="74.865" viewBox="0 0 173.688 74.865">
  <g id="Group_12" data-name="Group 12" transform="translate(-119.84 -1280.903)">
    <path id="Works" d="M52.1-43.52a4.435,4.435,0,0,0-4.48,3.392L41.024-12.864,34.752-43.52H25.28l-6.4,30.656L11.52-43.52H2.24L14.656,0h8.576l6.784-33.344L36.736,0h8.512L57.6-43.52Zm20.1,9.152c-10.24,0-15.36,5.824-15.36,17.6C56.832-5.12,61.952.768,72.192.768S87.616-5.12,87.616-16.768C87.616-28.544,82.432-34.368,72.192-34.368Zm0,7.488c4.352,0,6.528,3.264,6.528,9.856-.064,6.72-2.24,10.176-6.592,10.176s-6.592-3.328-6.656-9.92C65.472-23.488,67.712-26.88,72.192-26.88ZM91.712,0h8.64V-17.6c0-4.928,2.368-7.424,7.1-7.424h2.88v-8.832H109.12c-11.328,0-17.152,5.44-17.408,16.384ZM118.72-43.52H114.3V0h8.512V-12.352a1.552,1.552,0,0,1,1.344-1.664q1.632,0,3.264,2.88L133.44,0h10.24L131.84-20.1,143.552-32.64h-10.24l-10.5,12.032V-39.36A4.18,4.18,0,0,0,118.72-43.52Zm34.56,32.384h-8.7c0,3.9,1.28,6.848,3.84,8.768C150.72-.384,154.3.64,159.04.64c8.96,0,15.488-3.072,15.488-11.392a8.409,8.409,0,0,0-2.368-6.016c-1.856-1.728-5.632-3.2-11.392-4.352-4.416-.832-6.592-2.176-6.592-3.9s1.664-2.624,4.992-2.624c2.816,0,4.544.832,5.12,2.3.512,1.344,1.792,2.048,3.776,2.112h5.376a10.76,10.76,0,0,0-4.032-8.256q-3.84-2.88-10.368-2.88c-7.744.128-13.5,3.584-13.5,10.88.064,5.312,3.9,8.64,11.392,9.984,5.824,1.024,8.768,2.432,8.768,4.16,0,2.176-1.792,3.2-5.376,3.2C156.16-6.144,153.472-7.424,153.28-11.136Z" transform="translate(119 1355)" fill="#fff"/>
    <path id="UI_uX_Design" data-name="UI/uX Design" d="M8.625.268A6.528,6.528,0,0,1,3.737-1.677a6.827,6.827,0,0,1-1.9-4.974v-9.142H4.159v9.1A4.965,4.965,0,0,0,5.405-3.2,4.166,4.166,0,0,0,8.625-1.84a4.144,4.144,0,0,0,3.2-1.361,4.965,4.965,0,0,0,1.246-3.488v-9.1H15.41v9.142A6.808,6.808,0,0,1,13.5-1.677,6.536,6.536,0,0,1,8.625.268ZM21.256,0V-15.793h2.319V0Zm5.922,1.706,8.031-18.8H37.7L29.67,1.706ZM48.453.268a6.528,6.528,0,0,1-4.888-1.945,6.827,6.827,0,0,1-1.9-4.974v-9.142h2.319v9.1A4.965,4.965,0,0,0,45.233-3.2a4.166,4.166,0,0,0,3.22,1.361,4.144,4.144,0,0,0,3.2-1.361A4.965,4.965,0,0,0,52.9-6.689v-9.1h2.338v9.142a6.808,6.808,0,0,1-1.907,4.974A6.536,6.536,0,0,1,48.453.268ZM74.769-15.793,68.808-7.916,74.769,0H71.952L67.39-6.057,62.828,0H60.049L66.01-7.9l-5.961-7.9h2.818l4.542,6.037,4.581-6.037ZM88.646,0V-15.793h5.463a9.05,9.05,0,0,1,6.287,2.2,7.279,7.279,0,0,1,2.453,5.673,7.338,7.338,0,0,1-2.453,5.693A9,9,0,0,1,94.108,0Zm2.338-2.108h3.258a6.3,6.3,0,0,0,4.475-1.62,5.47,5.47,0,0,0,1.735-4.188,5.425,5.425,0,0,0-1.735-4.15,6.3,6.3,0,0,0-4.475-1.62H90.984Zm22.6.364a5.343,5.343,0,0,0,1.888-.364,4.029,4.029,0,0,0,1.5-.92l1.438,1.457A5.444,5.444,0,0,1,116.275-.24,7.667,7.667,0,0,1,113.6.268,5.922,5.922,0,0,1,109.279-1.5a6.033,6.033,0,0,1-1.792-4.475A6.1,6.1,0,0,1,109.2-10.4a5.627,5.627,0,0,1,4.207-1.773,5.092,5.092,0,0,1,4.217,1.9,7.977,7.977,0,0,1,1.514,5.118h-9.353a4.076,4.076,0,0,0,1.255,2.463A3.6,3.6,0,0,0,113.582-1.744Zm-.077-8.4a3.611,3.611,0,0,0-2.415.863,3.833,3.833,0,0,0-1.284,2.3h7.13a3.811,3.811,0,0,0-1.073-2.3A3.226,3.226,0,0,0,113.5-10.139ZM128.378.268a8.314,8.314,0,0,1-2.693-.46,7.633,7.633,0,0,1-2.386-1.3l1.073-1.629A6.779,6.779,0,0,0,128.4-1.687a2.873,2.873,0,0,0,1.639-.422,1.287,1.287,0,0,0,.623-1.112A1.074,1.074,0,0,0,130.5-3.8a1.968,1.968,0,0,0-.345-.422,2.285,2.285,0,0,0-.623-.345q-.441-.182-.7-.259t-.872-.249a9.361,9.361,0,0,1-3.143-1.351,2.534,2.534,0,0,1-.939-2.118,3.185,3.185,0,0,1,1.188-2.626,4.747,4.747,0,0,1,3.124-1,7.9,7.9,0,0,1,4.389,1.38l-1,1.687a6.52,6.52,0,0,0-3.392-1.112,2.76,2.76,0,0,0-1.5.374,1.156,1.156,0,0,0-.594,1.025,1.083,1.083,0,0,0,.556.987A11.288,11.288,0,0,0,128.838-7q.767.23,1.188.374a9.7,9.7,0,0,1,1.054.45,3.408,3.408,0,0,1,.958.642,3.253,3.253,0,0,1,.585.882,2.853,2.853,0,0,1,.259,1.236,3.255,3.255,0,0,1-1.255,2.674A5.034,5.034,0,0,1,128.378.268Zm10.561-14.145a1.315,1.315,0,0,1-.977-.412,1.34,1.34,0,0,1-.4-.968,1.287,1.287,0,0,1,.4-.939,1.331,1.331,0,0,1,.977-.4,1.319,1.319,0,0,1,.949.4,1.273,1.273,0,0,1,.412.939,1.325,1.325,0,0,1-.412.968A1.3,1.3,0,0,1,138.939-13.877ZM137.789,0V-11.883h2.281V0Zm16.9-11.883h2.281V-1.265a4.724,4.724,0,0,1-1.7,3.757,6.427,6.427,0,0,1-4.341,1.457,8.819,8.819,0,0,1-2.77-.431,6.9,6.9,0,0,1-2.195-1.14l.9-1.706a5.237,5.237,0,0,0,3.718,1.3,4.736,4.736,0,0,0,3.009-.862A2.9,2.9,0,0,0,154.694-1.3V-3.028a4.811,4.811,0,0,1-4.217,2.147A5.141,5.141,0,0,1,146.6-2.473a5.635,5.635,0,0,1-1.524-4.063A5.6,5.6,0,0,1,146.6-10.59a5.157,5.157,0,0,1,3.881-1.581,5.093,5.093,0,0,1,2.425.585,4.916,4.916,0,0,1,1.792,1.6Zm-6.248,8.012a3.529,3.529,0,0,0,2.607,1.016,3.526,3.526,0,0,0,2.616-1.035,3.6,3.6,0,0,0,1.025-2.645,3.568,3.568,0,0,0-1.025-2.635,3.543,3.543,0,0,0-2.616-1.025,3.479,3.479,0,0,0-2.6,1.025,3.6,3.6,0,0,0-1.006,2.635A3.682,3.682,0,0,0,148.446-3.872Zm20.278-8.3a4.271,4.271,0,0,1,3.22,1.294,4.571,4.571,0,0,1,1.246,3.306V0h-2.243V-7.168a3.155,3.155,0,0,0-.757-2.175,2.5,2.5,0,0,0-1.965-.853,3.535,3.535,0,0,0-2.195.719,2.587,2.587,0,0,0-1.083,1.773V0h-2.281V-11.883h2.281v1.725a3.965,3.965,0,0,1,1.562-1.457A4.573,4.573,0,0,1,168.724-12.171Z" transform="translate(118 1298)" fill="#fff"/>
  </g>
</svg>
